<?xml version="1.0" encoding="utf-8"?>
<!-- Generator: Adobe Illustrator 25.4.1, SVG Export Plug-In . SVG Version: 6.00 Build 0)  -->
<svg version="1.1" id="Layer_1" xmlns="http://www.w3.org/2000/svg" xmlns:xlink="http://www.w3.org/1999/xlink" x="0px" y="0px"
	 viewBox="0 0 1902.7 1122.8" style="enable-background:new 0 0 1902.7 1122.8;" xml:space="preserve">
<style type="text/css">
	.st0{fill:#FFFFFF;stroke:#3F4D90;stroke-width:5;stroke-linejoin:round;}
	.st1{fill:#FFFFFF;stroke:#D8BAA3;stroke-width:6;stroke-miterlimit:10;}
	.st2{fill:#FFB000;}
	.st3{fill:none;stroke:#FFFFFF;stroke-width:5;stroke-linejoin:round;}
	.st4{fill:#C36F0B;}
	.st5{fill:#3F4D79;}
	.st6{fill:#FFC033;}
	.st7{fill:#41465A;}
	.st8{fill:#F0E1D4;}
	.st9{fill:none;stroke:#FFFFFF;stroke-width:5;stroke-linecap:round;stroke-linejoin:round;}
	.st10{fill:#B65A18;}
	.st11{fill:#722D54;}
	.st12{fill:#D8BAA3;}
	.st13{fill:#FFFFFF;}
	.st14{fill:none;stroke:#D8BAA3;stroke-width:6;stroke-miterlimit:10;}
	.st15{fill:#FFFFFF;stroke:#3F4D90;stroke-width:5;stroke-miterlimit:10;}
	.st16{fill:none;stroke:#D8BAA3;stroke-width:6;stroke-linecap:round;stroke-miterlimit:10;}
	.st17{fill:#FFFFFF;stroke:#D8BAA3;stroke-width:6;stroke-linecap:round;stroke-miterlimit:10;}
	.st18{fill:#F0E1D4;stroke:#D8BAA3;stroke-width:6;stroke-linecap:round;stroke-miterlimit:10;}
	.st19{fill:#374486;}
	.st20{fill:#FAB6AD;}
	.st21{fill:#3F4D90;}
	.st22{fill:#383C4D;}
	.st23{fill:#49549A;}
	.st24{fill:#FFCFC9;}
	.st25{fill:#2F1508;}
	.st26{fill:#D6677A;}
	.st27{fill:#642648;}
	.st28{fill:#E57281;}
	.st29{fill:none;stroke:#FFFFFF;stroke-width:4;stroke-miterlimit:10;}
	.st30{fill:#F0E1D4;stroke:#FFFFFF;stroke-width:5;stroke-linejoin:round;}
	.st31{fill:#AF4556;}
	.st32{fill:#FFFFFF;stroke:#3F4D79;stroke-width:5;stroke-linejoin:round;}
	.st33{fill:none;stroke:#722D54;stroke-width:6;stroke-miterlimit:10;}
	.st34{fill:none;stroke:#722D54;stroke-width:3;stroke-miterlimit:10;}
	.st35{fill:#3CBFD4;}
	.st36{fill:none;stroke:#B65A18;stroke-width:3;stroke-linecap:round;stroke-miterlimit:10;}
	.st37{fill:#FE7523;}
	.st38{opacity:0.5;}
	.st39{fill:#FFFFFF;stroke:#84D7EC;stroke-width:5;stroke-miterlimit:10;}
	.st40{fill:#4C2412;}
	.st41{fill:none;stroke:#4C2412;stroke-width:3;stroke-miterlimit:10;}
	.st42{fill:#91510C;}
	.st43{fill:none;stroke:#D8BAA3;stroke-width:3;stroke-linecap:round;stroke-miterlimit:10;}
	.st44{fill:#F4E6DC;stroke:#D8BAA3;stroke-width:3;stroke-linecap:round;stroke-miterlimit:10;}
	.st45{fill:none;stroke:#03587B;stroke-width:2;stroke-miterlimit:10;}
	.st46{fill:none;stroke:#F8801B;stroke-width:2;stroke-miterlimit:10;}
	.st47{fill:#F7801B;}
	.st48{fill:#05597B;}
</style>
<g id="Layer_2_00000126308902589947838830000001724123497852110268_">
	<g id="Слой_1">
		<g id="_4">
			<g id="CHAIR">
				<rect x="1388.5" y="833.3" class="st0" width="215.9" height="13.1"/>
				<path class="st1" d="M1632.7,805.1c0-120.7,59.9-187.1,59.9-187.1h-178.2c0,0-59.9,66.4-59.9,187.1H1632.7z"/>
				<path class="st1" d="M1390.3,805.1h242.4l0,0l0,0c0,15.6-12.6,28.2-28.2,28.2l0,0H1362l0,0l0,0
					C1362,817.7,1374.7,805.1,1390.3,805.1L1390.3,805.1z"/>
				<path class="st0" d="M1602.2,1096.7L1602.2,1096.7c-1.5,0-2.7-1-3-2.5l-47.4-247.8h27.2l26.3,246.9c0.2,1.7-1,3.2-2.7,3.3
					C1602.4,1096.7,1602.3,1096.7,1602.2,1096.7z"/>
				<path class="st0" d="M1391.2,1096.7L1391.2,1096.7c1.5,0,2.7-1,3-2.5l47.4-247.8h-27.2l-26.3,246.9c-0.2,1.7,1,3.2,2.7,3.3
					C1391,1096.7,1391.1,1096.7,1391.2,1096.7z"/>
			</g>
			<g id="MAN">
				<g id="LEFT_HAND">
					<path class="st2" d="M1338.3,693.5c72.9,17.6,109.5-2.2,116.1-14.3c0,0-3.6-22.7-1-57.8c2.7-35.1-3-113.8-3-113.8
						c-16.1,6.2-39.6,16.1-46.6,36.7s-8.1,77-8.5,101.2c0,0-37.4,12.8-54.2,21.6c-3.8,2-6,6.2-5.3,10.5L1338.3,693.5z"/>
					<path class="st3" d="M1410.3,645.4c0,0-7.3-2.9-21.7,0.3"/>
					<g id="LEFT_HAND-2">
						<path class="st4" d="M1342.4,680.6c0.8,5-1.3,10-5.4,13l-0.8,0.6c-5.7,3.9-16.7,7.1-19.3,7c-2.6-0.2-18.6-3.1-18.6-3.1
							s-0.6-2.2,1.8-5s19.5-0.6,13.2-6.9c-2.8-2.8-16.7,3.5-22.7,10.5s-8.9,1.5-8.9,1.5s5.8-13,7.8-15.3
							c2.1-2.3,15.8-12.3,25.1-13.8c4.4-0.7,10.7-0.3,16.9,0.8C1337.2,670.6,1341.5,675,1342.4,680.6z"/>
					</g>
				</g>
				<g id="LEGS">
					<path id="LEG" class="st4" d="M1382.3,1073.7c5.9-1.3,14-4.2,18.6-10.2l2.6-13.9c0,0-16.9,1.9-32.4,0.4l3,18.2
						c0.7,3.7,4.2,6.2,8,5.5C1382.1,1073.7,1382.2,1073.7,1382.3,1073.7z"/>
					<g id="SHOE">
						<path class="st2" d="M1313.4,1090.7c0.1,1,2,6,2,6l95.2-3.2v-5.3c0-8.9-3-16.6-4.6-19.9c-2.5-5.2-5.9-3.9-5.9-3.9
							s-9.3,9.1-19.8,9.1c-2,0-3.5-1.1-4.5-2.6c-0.6-1-1.1-2-1.4-3.1c-0.4-1.4-0.7-2.9-0.9-4.4c-0.3-2.1-2.2-3.7-4.4-3.4
							c-0.5,0.1-0.9,0.2-1.3,0.4c-4.1,2.1-9.1,6.8-22.4,14c-0.7,0.4-1.4,0.7-2.1,1.1C1327.1,1084,1313.6,1080.8,1313.4,1090.7z"/>
						<path class="st5" d="M1324.1,1101.4c-2.8,0-6.1-1.2-7.9-3.3c-2.3-2.7-3.2-6.2-2.5-9.7h0.1c0.8,4.2,4.4,7.2,8.6,7.3l82.5-2.4
							c2.6,0,4.8-1.8,5.6-4.3v5.5c0,3.8-2.7,6.8-6.1,6.8L1324.1,1101.4z"/>
						<path class="st5" d="M1341.8,1076.2c9.9,1.8,18,9.1,20.6,18.8l3.8-0.1c-2.4-10-9.8-18-19.6-21.3l-1.3,0.7
							c-0.7,0.4-1.4,0.7-2.1,1.1C1342.8,1075.7,1342.3,1076,1341.8,1076.2z"/>
						<path class="st5" d="M1332.4,1079.9v0.5c9.9,0,18.8,5.9,22.8,14.9l3.9-0.1c-3.4-8.9-10.9-15.5-20-17.7
							C1336.9,1078.4,1334.7,1079.2,1332.4,1079.9z"/>
					</g>
					<path id="LEG-2" class="st4" d="M1498,1073.7c5.9-1.3,13.5-4.2,18-10.2l1.5-15.1c0,0-15.9,1.4-31.3-0.1l3.6,19.9
						c0.7,3.7,4.2,6.2,8,5.5C1497.8,1073.7,1497.9,1073.7,1498,1073.7z"/>
					<g id="SHOE-2">
						<path class="st6" d="M1434.5,1090.7c0.1,1,2,6,2,6l89.8-3.2v-5.3c0-8.9-3-16.6-4.6-19.9c-2.5-5.2-5.9-4.9-5.9-4.9
							s-9.3,10.2-19.8,10.2c-2,0-3.5-1.1-4.5-2.6c-0.6-1-1.1-2-1.4-3.1c-0.4-1.4-0.7-2.9-0.9-4.4c-0.3-2.1-2.2-3.7-4.4-3.4
							c-0.5,0.1-0.9,0.2-1.3,0.4c-4.1,2.1-3.7,6.8-17,14c-0.7,0.4-1.4,0.7-2.1,1.1C1448.2,1084,1434.7,1080.8,1434.5,1090.7z"/>
						<path class="st5" d="M1445.2,1101.4c-2.8,0-6.1-1.2-7.9-3.3c-2.3-2.7-3.2-6.2-2.5-9.7h0.1c0.8,4.2,4.4,7.2,8.6,7.3l77.2-2.4
							c2.6,0,4.7-1.8,5.6-4.3v5.5c0,3.8-2.7,6.8-6.1,6.8L1445.2,1101.4z"/>
						<path class="st5" d="M1462.9,1076.2c9.9,1.8,18,9.1,20.6,18.8l3.8-0.1c-2.4-10-9.8-18-19.6-21.3l-1.3,0.7
							c-0.7,0.4-1.4,0.7-2.1,1.1C1463.9,1075.7,1463.4,1076,1462.9,1076.2z"/>
						<path class="st5" d="M1453.5,1079.9v0.5c9.9,0,18.8,5.9,22.8,14.9l3.9-0.1c-3.4-8.9-10.9-15.5-20-17.7
							C1458,1078.4,1455.7,1079.2,1453.5,1079.9z"/>
					</g>
					<path class="st7" d="M1522.4,832.1c0,0,38.4,54.7,4.7,214.5c0,0-17.7,5.9-45.9,1.6c0,0-38.1-155.4-43.3-222.7
						c-9.4-0.3-19.1-0.4-29-0.4c0,0,40.3,82.4,1.2,224.4c0,0-28.8,2.1-44-0.1c0,0-46.5-232.2-43.5-253.8c3.6-26,85.5-59.2,137-63.9
						l115.3-0.7c0,0,29.5,29.8,17.2,72.1C1582.8,834.9,1522.4,832.1,1522.4,832.1z"/>
				</g>
				<g id="TORSO">
					<path class="st8" d="M1583.3,742c0.4,1.1,0.9,2.2,1.7,3.1c0,0-101,34.4-143.5-8.9C1487.6,752.4,1563.4,744.5,1583.3,742z"/>
					<path class="st2" d="M1540.6,479.6c5.2,4.3,69.9,41.8,79.2,47c9.3,5.2-43.2,118.2-41.6,158.6c1.2,29.9,9.4,56.2,9.4,56.2
						s-92.7,13.6-146.2-5.1c0,0,11.1-16.5,4.9-50.7c-5-27.7-15.2-104.7-12.4-134.3c1-10.7,2.9-37.3,16.5-43.7
						c20.6-9.7,34.8-18.1,34.8-18.1L1540.6,479.6z"/>
					<path class="st3" d="M1446.4,687.1c-5-27.7-14.9-82.6-7.5-119.8"/>
				</g>
				<g id="RIGHT_HAND">
					<path class="st2" d="M1619.8,526.8c27.6,24.3,30.2,124.8,12.8,143.1c-34.2,35.8-137.4,35.4-137.4,35.4s-10.8-1.6-4.6-26.7
						c0,0,76.5-38.6,83.9-38.4c0,0-1.2-71.7,14.4-93.1C1604.6,525.7,1616.6,524,1619.8,526.8z"/>
					<path class="st9" d="M1581,696.8c-40.5,10.3-85.8,9-85.8,9"/>
					<path class="st3" d="M1490.6,678.1c0,0,40.7-22.8,83.9-38.4c0,0,1.8-54.9,6.4-71.1"/>
					<g id="ARM">
						<path class="st4" d="M1492.2,678.3c0,0-23.1-8.7-30.6-4.3c-8.2,4.8-23.3,20.1-24.2,22.7s-0.6,5.3-0.5,8
							c0.2,2.8,27.8,2.7,31.1,2.5c3.3-0.2,21.3,1.8,24.3-1.5C1503.5,693.5,1492.2,678.3,1492.2,678.3z"/>
					</g>
				</g>
				<g id="HEAD">
					<path id="NECK" class="st10" d="M1536,443.4c0,0-6.2,15.4,4.6,36.2c0,0-14.8,21.1-38.3,21c-30.3-0.2-17-11.1-17-11.1
						s4.6-7.4,3.7-20.7L1536,443.4z"/>
					<path id="HEAD-2" class="st4" d="M1531.3,452.6c-0.6,2.9-0.7,15.3-5.9,18.8c-6.7,4.5-26.3,11.6-41.1,6.3
						c-1.9-0.7-11.3-28.4-10.7-37.9c0.6-9.5,0.8-43.1,21.8-51.5s46.1-3.7,53.1,21c2.9,10.1,0.5,19.2-3.3,26.4c0,0,2.4,4.4-1.5,8.7
						C1539.6,449.1,1531.3,452.6,1531.3,452.6z"/>
					<path id="HAIR" class="st11" d="M1545.3,435.6c-4.9-5.6-11.7,4.3-11.7,4.3l-0.1,0.5c-1.9-1-3.4-2.5-4.6-4.2
						c-2.8-4.3-3.1-9.1-2.7-26.3c0,0-27.6,2.9-47.6-1.9c3.1-8.6,8.2-16.4,16.9-19.8c21-8.4,46.1-3.7,53.1,21
						C1551.4,419.4,1549.1,428.5,1545.3,435.6z"/>
					<g id="COLLAR">
						<path class="st8" d="M1508.7,492.4c3.8-1.8,19.8-7.6,31-19c0,0,11.2,10.9,11.3,12.8c0.1,1.9-23.8,18.1-30.5,18.8L1508.7,492.4
							z"/>
						<path class="st8" d="M1485.3,483.7c1.1,1.9,3.8,6.5,11.5,8.5c0,0-5.6,9.2-10.9,12.1c0,0-8.5-3.7-10.8-8.6
							C1473.6,492.5,1485.3,483.7,1485.3,483.7z"/>
						<path class="st12" d="M1496.8,492.2l5.5,8.4l6.4-8.1l5.9,6.3c0,0-8.2,3.9-23.4,1.1L1496.8,492.2z"/>
					</g>
				</g>
			</g>
			<g id="TABLE">
				<path class="st1" d="M1204.8,705.9c96.7,0,193.3,0,290,0c5.9,0,10.6,4.8,10.6,10.6v2.8c0,5.9-4.8,10.6-10.6,10.6
					c-96.5,0-193,0-289.5,0c-7.9,1.2-14.8-4.8-15-11.7C1190.2,711.5,1196.8,705.1,1204.8,705.9z"/>
				<polyline class="st13" points="1433.7,1102.1 1433.7,730.4 1456.9,730.4 1456.9,1102.1 				"/>
				<polygon class="st8" points="1433.7,737.8 1433.7,730.4 1456.9,730.4 1456.9,756.1 				"/>
				<polyline class="st14" points="1433.7,1101.5 1433.7,730.4 1456.9,730.4 1456.9,1101.5 				"/>
				<polyline class="st13" points="1245.5,1101.8 1245.5,730.2 1268.7,730.2 1268.7,1101.8 				"/>
				<polygon class="st8" points="1245.5,737.6 1245.5,730.2 1268.7,730.2 1268.7,755.9 				"/>
				<polyline class="st14" points="1245.5,1101.3 1245.5,730.2 1268.7,730.2 1268.7,1101.2 				"/>
			</g>
			<g id="TABLET">
				<path class="st15" d="M1443.2,705.9h-116c-3.7,0-7.1-2.1-8.7-5.5l-37.5-78.3c-1.2-2.5-0.1-5.4,2.3-6.6c0.7-0.3,1.4-0.5,2.1-0.5
					h116c3.7,0,7.1,2.1,8.7,5.5l37.5,78.3c1.2,2.5,0.1,5.4-2.3,6.6C1444.7,705.8,1444,705.9,1443.2,705.9z"/>
				<path class="st8" d="M1443,704.8h-114.1c-3.5-0.1-6.6-2.2-8.1-5.3l-16.5-34.5l0.3-0.4h125.1l0.2,0.4l15.8,33
					C1448.1,701.8,1446.5,704.8,1443,704.8z"/>
				<path class="st0" d="M1431.1,664.3l-21.2,37c-1.6,2.8-5,4.6-8.7,4.6h-116c-3.6,0-6-3.2-4.5-5.9l20.5-35.7L1431.1,664.3
					L1431.1,664.3z"/>
			</g>
		</g>
	</g>
</g>
<g id="Layer_2_00000073698510273278663990000004998803876394059959_">
	<g id="Слой_1_00000023240960959177332510000012875895498919165095_">
		<g id="_3">
			<g id="CHAIR_00000027578880294959126900000005540587704611052431_">
				<path class="st16" d="M336.4,879.1l76.1,82c8.7,6.8,13.7,17.2,13.7,28.2v86.3c0,10.9-8.9,19.8-19.8,19.8l0,0h-98.9"/>
				<path class="st17" d="M426,866L426,866c0,7.2-5.8,13-13,13H225c-21.1,0-38.1-17.1-38.1-38.1V691.8c0-14.4,11.6-26,26-26l0,0
					h96.5c9.8,0,17.8,7.9,17.8,17.7l0,0v131.4c0,21.1,17.1,38.1,38.1,38.1l0,0H413C420.2,853,426,858.9,426,866z"/>
				<path class="st18" d="M425.5,869.7c-1.6,5.6-6.7,9.4-12.5,9.4H225c-21.1,0-38.1-17.1-38.1-38.1V691.8c0-9.8,5.5-18.8,14.2-23.2
					c-2.7,4.2-4.1,9.1-4.1,14v155c0,17.8,14.5,32.3,32.3,32.3l0,0h193.8C423.9,869.9,424.7,869.8,425.5,869.7z"/>
				<path class="st16" d="M327.7,764h35.7c34.5,0,62.5,28,62.5,62.6V870"/>
				<path class="st16" d="M254,879.1l76.1,82c8.7,6.8,13.7,17.2,13.7,28.2v86.3c0,10.9-8.9,19.8-19.8,19.8l0,0h-99"/>
			</g>
			<g id="CHARACTER">
				<g id="RIGHT_HAND_00000073001317787551744490000001609949022986093447_">
					<path id="HAND" class="st19" d="M338.1,566.6c0,0,35.6-5.3,57,41.5c18.7,41,32.7,79.2,32.7,79.2s28.9,16.2,77.5,33.4V744
						c0,0-74.1,4.3-98.8,0c-18.2-3.2-68.4-70.5-71.8-116.1S338.1,566.6,338.1,566.6z"/>
					<path id="ARM_00000062871272265053620470000000917195180042085761_" class="st20" d="M495.6,743.7c-2.7-0.6-0.7-9.1,0.9-14.3
						c0.9-2.9,3-4.4,5.9-5.6c5.7-2.5,15.4-4,20.9-2.7c8.1,1.8,13.3,5.4,18.3,11.3c1.4,1.7,8.6,9.8,8.6,11.9L495.6,743.7z"/>
				</g>
				<path id="TORSO_00000132797555008224112170000014744138328747390638_" class="st21" d="M304,547.8c-30.7,3.2-90,40.4-80.2,177.4
					c6.3,87.6,63.8,131.4,70.7,128.4s124.8-61.1,97.8-92.3c-25.8-29.9-17.4-52.8-13.4-93.2c4.1-40.5,10.2-84.5-22.7-99.8
					C303.1,543.6,312.2,546.9,304,547.8z"/>
				<g id="LEGS_00000183960187151404113830000005812303771841099680_">
					<g id="RIGHT_LEG">
						<g id="SHOES">
							<path class="st22" d="M550.1,1094.7h-84c-0.1-1.3-0.1-2.6-0.1-3.9h84.2C550.3,1092.1,550.3,1093.4,550.1,1094.7z"/>
							<path class="st2" d="M474.7,1055.5c0.3,9.6-8.6,15.6-8.6,35.3h84c0,0,1.2-16.6-15.6-20.4s-32.1-8.9-33.6-14.9H474.7z"/>
						</g>
						<g id="PANT">
							<path class="st22" d="M384.4,755.5c0,0,128.2-8.4,159.3,29.8s-29.3,188.6-35.4,271.4c0,0-30.7,3.2-43.1,0
								c-12.5-3.2-23.3-163.6,8.1-202.5c0,0-114.5,28.6-161-7.5S365,756.2,384.4,755.5z"/>
						</g>
					</g>
					<g id="LEFT_LEG">
						<g id="SHOE_00000085935265599197701590000004420711206620739731_">
							<path class="st7" d="M739.9,962.1l-66.6,53.3c-1-1.2-1.8-2.4-2.6-3.5l66.3-53.1C738.1,959.8,739,960.9,739.9,962.1z"/>
							<path class="st2" d="M656.6,978.6c5.8,7.4,2.3,17.8,13.8,33.5l66.6-53.3c0,0-8.7-13.9-24.3-6.3s-30.6,13.3-35.4,9.5
								L656.6,978.6z"/>
						</g>
						<g id="PANT-2">
							<path class="st7" d="M290.9,850.6c1.9,10.8,106.2,41.7,222.2-34.7c0,0,18,100.8,135.3,167.7c0,0,25.8-11.5,32.8-26.9
								c0,0-82.7-105.7-112.2-191.4c-12.4-35.9-168-17.1-190.7-9.8C355.6,762.8,282.4,802.5,290.9,850.6z"/>
						</g>
					</g>
				</g>
				<g id="LEFT_HAND_00000126281200651189403340000012053683062073723559_">
					<path id="HAND-2" class="st23" d="M295.1,582.8c26.8,8.9,64.6,88.4,64.6,88.4s42.3,4.1,106.3,30.9c0,0,1.5,13.9-7,25.3
						c0,0-70.4,9.1-107,5.4c-12.4-1.3-59.3-36.4-85.1-84.9C243.9,604.4,262.3,571.9,295.1,582.8z"/>
					<g id="ARM-2">
						<path class="st24" d="M465.5,702.5c0,0,17.8-9.4,26.2-7.5c8.4,1.9,18.4,9.4,19.5,11.5c1.1,2.1,8.4,12.4,8.4,14.7
							s-23.7,1.4-27,1.4s-25.2,0.4-29.5-0.5C458.9,721.2,465.5,702.5,465.5,702.5z"/>
						<path class="st20" d="M492.5,722.6c3.3,0,27,0.8,27-1.4c0-2.3-7.3-12.5-8.4-14.7c-1-2.1-11.1-9.6-19.5-11.5
							C491.7,695,502,709.3,492.5,722.6"/>
					</g>
				</g>
				<g id="HEAD_00000057117968428856283930000015424300654583404426_">
					<path class="st24" d="M330.3,504.4c0.5,4.2-8.8,25.1-25.3,41.4c-14.5,14.3,48,25.3,49.7,25c1.6-0.4,8.9-22.4,10.4-27.5
						C366.6,538.1,330.3,504.4,330.3,504.4z"/>
					<path class="st20" d="M365.1,543.3c-0.6,2.2-3.2,9.5-6.1,17.1c-6.9-3.3-15-9.9-21.3-22.4c-6.9-13.5-6-27.3-6.8-30.9
						c-0.1-0.7,0.1-1.3,0.3-1.9C336.6,510.3,366.4,538.6,365.1,543.3z"/>
					<path class="st24" d="M384.3,482.9c2.6,10.4,4.9,27.8,1.4,36.3c-3.5,8.5-9.8,24-12.3,24.8s-29.4-2.7-35.7-14.5
						c-6.3-11.7-6.5-21.5-7.4-25.1c-0.8-3.5,13.9-32.2,32.7-31.6C381.8,473.3,383.5,479.8,384.3,482.9z"/>
					<path class="st25" d="M395.7,477.7c-5,2-1.2,7.8-10.6,8.7s-11.6-10.7-11.6-10.7s-1.1,4.6-5.8,6.2c0,0,2.5-4.9-1.1-7
						c-3.6-2.2-5.8,0.7-5.8,0.7s-3.1-1.6-4.8,2.2c-1.7,3.8,1.3,6,5.3,6.4c0,0,0.4,5.6-8.5,6.4c-8.8,0.8-10.7-4.6-10.7-4.6
						s-1.4-1.3-2.1,2.5c-0.6,3.9,2.4,10.2-3.8,15.1c-2.5,2-3.9,2.8-4.6,3c3.1,2.7,1.6,10.9-5.4,14.2c-9.6,4.5-16.6,1.2-17.5-5.4
						c-0.8-6,3-3.6,2-8.2c0,0-6.2,4.6-10.3-2.1c-3.3-5.4,2.5-8.8,2.5-8.8s-4.1-5.6-0.7-9.6c3.9-4.5,9.9-1.6,9-4.4s-3.2-9.3,0.6-13
						c3.8-3.7,9.7-2.2,10.5-4.1s-0.4-4.8-4.2-3.1c0.3-2.5,1.7-4.8,3.9-6.2c3.4-2.3,8.5-1.8,12.1-0.7c0.6-3.2,2.1-7,5.9-8.8
						c6.3-3,10.8,0.6,13.3,3.7c0.7-2.2,2.7-3.8,5-4c7.5-1.1,13.7,0.9,15.1,6.9c1.5,6.4,12.7-8.3,17.9,4.2c1.1,2.6-1.7,4.6,1.4,6.7
						c1.8,1.2,4.1-2.7,2.3-4c2.2,0.9,4.1,2.6,5.3,4.7C401.5,466.4,403.7,474.4,395.7,477.7z"/>
				</g>
			</g>
			<path id="CHAIR-2" class="st16" d="M197,764h43.4c34.5,0,62.5,28,62.5,62.6V870"/>
			<g id="TABLE_00000111890376193663254950000013834511731292899508_">
				<path class="st13" d="M680,737.1H431.3c-3.9,0-7,3.1-7,7s3.1,7,7,7H680V737.1z"/>
				<path class="st14" d="M680,737.1c-82.9,0-165.8,0-248.6,0c-3.9,0-7,3.1-7,7s3.1,7,7,7c82.9,0,165.8,0,248.6,0
					c4.4,0.4,8.1-3.3,7.9-7.3C687.7,739.9,684.2,736.7,680,737.1z"/>
				<path class="st16" d="M572.3,1094.8l40.1-336.3c1.3-7.2,11.5-7.4,13.1-0.3l50,334.7"/>
			</g>
			<g id="LAPTOP">
				<path class="st1" d="M462,724.1h191.3c2.6,0,4.7,2.1,4.7,4.7v2.9c0,2.6-2.1,4.7-4.7,4.7H462c-2.6,0-4.7-2.1-4.7-4.7v-2.9
					C457.3,726.2,459.4,724.1,462,724.1z"/>
				<path class="st1" d="M645.5,723.9H505.3c-3.6,0-6.1-3.5-4.6-6.6l39.6-84.2c2.2-4.8,7.3-7.9,12.9-7.9h140.2
					c3.6,0,6.1,3.5,4.6,6.6L658.4,716C656.2,720.8,651.1,723.9,645.5,723.9z"/>
			</g>
		</g>
	</g>
</g>
<g id="Layer_2_00000009580262969251469690000008081974211426820521_">
	<g id="Слой_1_00000007411191937882097260000017840593952083323323_">
		<g id="_1">
			<g id="CHAIR_00000162314912088559466100000001184885288996555925_">
				<path class="st1" d="M963.2,842.1h132.1c10,0,18,8.1,18,18l0,0c0,10-8.1,18-18,18H963.2c-10,0-18-8.1-18-18l0,0
					C945.1,850.2,953.2,842.1,963.2,842.1z"/>
				<path class="st14" d="M956,1072.1L956,1072.1c-0.6,0-1.1-0.5-1.1-1.1c0-0.1,0-0.1,0-0.2L982,878.1h88.4L957,1071.5
					C956.8,1071.9,956.4,1072.1,956,1072.1z"/>
				<path class="st14" d="M1101.4,1072.1L1101.4,1072.1c0.6,0,1.1-0.5,1.1-1.1c0-0.1,0-0.1,0-0.2l-31.6-192.7h-88.4l117.9,193.4
					C1100.6,1071.9,1101,1072.1,1101.4,1072.1z"/>
			</g>
			<g id="WOMAN">
				<g id="LEGS_00000129171509136770385540000005766665545633537154_">
					<g id="RIGHT_FOOT">
						<path class="st26" d="M1130.7,999.5c6.1,0.6,16.1,1.8,27.9,0.7c-3,11.7-4.4,22.9-6.6,32.9c-1.4,6.4,7.3,15.1,9.9,21.4
							c-0.1,0-0.1-0.1-0.2-0.1c-12.1-1.9-28.2,9.5-26.6-8.3C1136.7,1028.2,1132.6,1015.2,1130.7,999.5z"/>
						<path id="SHOE_00000008113373435259009420000009507893957486429627_" class="st27" d="M1135.4,1033c-4.2,0-11.8,7.5-11.1,19.5
							c0.4,7.1,1.5,14.1,3.5,20.9h48.4c2.3-17.2-14.6-19-14.6-19c-12.1-1.9-27.6,9.5-26-8.3L1135.4,1033z"/>
					</g>
					<g id="LEFT_FOOT">
						<path class="st28" d="M1097,1000c6.1,0.6,19.2,1.4,31.1,0.2c-3,11.7-4.8,32.9-4.8,32.9c-1.4,6.4,7.3,15.1,9.9,21.4
							c-0.1,0-0.1-0.1-0.2-0.1c-12.1-1.9-28.2,9.5-26.6-8.3C1108,1028.2,1097,1000,1097,1000z"/>
						<path id="SHOE-2_00000045604432398394266720000008305311839806490541_" class="st11" d="M1105.9,1033
							c-4.2,0-10.9,7.5-10.2,19.5c0.4,7.1,1.5,14.1,3.5,20.9h48.4c2.3-17.2-14.6-19-14.6-19c-12.1-1.9-27.6,9.5-26-8.3L1105.9,1033z
							"/>
					</g>
					<g id="LEGS-2">
						<path class="st21" d="M999.7,741.5c0,0-41.6,50.4-38.7,84c3,33.6,37.5,43.5,101,42.8c0,0,1.9,50.4,34.8,131.9
							c0,0,15.3,3,34.1,0c0,0,15.9,1.6,27.7-0.1c0,0,25.2-164.8,22.1-181.5c-4.1-22.1-84.3-42.1-105.1-46.9l-17.4-30.1
							C1058.4,741.5,1023.5,745.9,999.7,741.5z"/>
						<path class="st29" d="M1046.3,791.1c0,0,66.6,17.5,74.7,38.9s8.5,172,8.5,172"/>
					</g>
				</g>
				<g id="BLOUSE">
					<path class="st8" d="M1080,678.5c0,0-2.6,36-21.8,63.1c0,0-31.4,5.4-58.7,0c0,0-27-28.4-34.8-59.3c0,0-25.7-52.2-14.1-61.1
						s40.6-24.1,40.6-24.1l58.9,2.9c7.3,4.4,22.8,11.6,38.3,19.8L1080,678.5z"/>
					<circle class="st30" cx="1032.2" cy="662.3" r="4.3"/>
					<circle class="st30" cx="1032.2" cy="679.5" r="4.3"/>
					<circle class="st30" cx="1032.2" cy="696.7" r="4.3"/>
				</g>
				<g id="RIGHT_HAND_00000065067830187153114260000001132312513564477326_">
					<path class="st8" d="M1088.5,619.8c15.5,8.1,61.1,112.7,42.1,123.7c-39.4,23-50.6-65-50.6-65L1088.5,619.8z"/>
					<path class="st31" d="M1114,746.8c5.3,2.3,19.1-1.9,34.3-11.9c15.3-10-2.1-16.6-2.1-16.6s-20.3-8.1-32.7-2.3
						C1101.2,721.9,1103.8,742.4,1114,746.8z"/>
					<polygon class="st32" points="1196.4,695.8 1113.1,695.8 1021.7,755.6 1105,755.6 					"/>
					<path class="st28" d="M1165.6,720.5c0-2.2-13.8-15-19.1-10.1c-2.2,2-2.3,19.4-2.1,22.5C1145,742.8,1165.5,731.6,1165.6,720.5z"
						/>
				</g>
				<g id="LEFT_HAND_00000109022359803941558200000017083938612032683450_">
					<path class="st8" d="M950.6,621.2c-4.7,3.8-55,80.3-37.2,115.5c20.1,39.8,101.6,6.7,101.6,6.7s-10.3-3.2-3.7-16.5
						c0,0-33.7-17.9-60.9-12.6c0,0,21-34.9,23.3-48.5C975.9,652.3,967.6,607.8,950.6,621.2z"/>
					<line class="st33" x1="1032.6" y1="703.8" x2="1047.4" y2="736.9"/>
					<g id="ARM_00000127008569765104444440000005475820811156692154_">
						<path class="st28" d="M1011.3,726c0,0,14.9-8.5,20.9-5.3c6.5,3.5,14.4,14.6,15.1,16.4c0.7,1.9,0.5,3.8,0.4,5.8
							s-13.6,1.9-16.2,1.7s-16.6,1.5-19-0.9C1003.5,734.9,1011.3,726,1011.3,726z"/>
						<path class="st31" d="M1031.5,744.6c2.6,0.2,14.6,0.3,16.1-1.1c3-2.8,1.3-7-0.2-8.6c-1.4-1.5-8.8-10.7-15.1-14.2
							C1032.2,720.7,1039.6,733.5,1031.5,744.6"/>
					</g>
				</g>
				<g id="HEAD_00000031196469219057667810000009094139436385744572_">
					<g id="HAIR_00000149365765221723664570000013451945022956224162_">
						<path class="st11" d="M1006.9,501.3c0,0-6.6-10.7,0-16.2s9.4-14.5,21.4-14.6c12.4-0.1,17.4,9.6,23.1,8.7
							c7.7-1.3,13.2-3.8,23,1.4c7.9,4.1,8.2,19.7,16.2,18.9c6.3-0.6,13.4-0.2,17,6.8c2.7,5.3-0.2,19.7,3.9,23.6s13.6,5.1,14.4,15.1
							c1,13.5-13.1,15.5-9.4,26.2c4.8,14.1-2,22.9-14,24.6c-8.5,1.1-23.3-11.5-28.8-2.8c-4.7,7.4-14.4,10.7-26.4,5.9
							s-19.4-3.3-26.8-0.2c-7.4,3.1-16.4,7.6-22.5,2.2c-6.1-5.4-13.4-5.5-21.5-2.2c-11.3,4.7-23.3-3-21.8-13.2
							c1.2-8.4-10.3-9.5-11.6-19c-1.7-12.5,16.6-15.7,11.3-21s-5.2-21,10.7-23.1c15-2,11.8-11.3,16.1-17.7
							C984.5,499.4,995.6,492.6,1006.9,501.3z"/>
						<path class="st34" d="M947.7,542.6c-5-5.7-3.4-23.1,12.5-24.2c15.1-1,12.5-10.6,17.1-16.7c3.9-5.1,17-11.3,29.4-0.5"/>
					</g>
					<g id="NECK_00000041983807502376294970000010674761613187854736_">
						<path class="st28" d="M1009,547.3c-0.1,9.6,0.5,35.9-17.8,49.8c0,0,32.8,16.5,40.3,53c0,0,5.2-38.5,18.7-50.1
							c0,0-16-9.1-12.5-52.8L1009,547.3z"/>
						<path class="st31" d="M1040.7,585.1c-2.3,2.1-4.8,3.2-7.6,3.2c-11.5,0-23-17.6-24.1-36.3c0-1.8,0-3.5,0.1-4.8h28.7
							C1036.3,565.1,1038.1,577.1,1040.7,585.1z"/>
					</g>
					<path id="HEAD-2_00000103971870688759377920000013609047269915355819_" class="st28" d="M1008,538.6c0.1-4.8,1.8-29.9,22.1-29
						c20.3,0.9,23.6,21.4,21.8,37.8c-1.8,16.4-11.8,27.5-18.8,26.8C1026.1,573.5,1007.4,558.9,1008,538.6z"/>
				</g>
			</g>
		</g>
	</g>
</g>
<g id="Layer_2_00000172432251556776884090000010078828731521873581_">
	<g id="Слой_1_00000105387209309087901800000013160214965642109620_">
		<g id="_1_00000072274371455451316370000002756376550005008513_">
			<g id="RIGHT_FOOT_00000053516530415898493510000013694692064320882320_">
				<g id="FOOT">
					<path id="FOOT-2" class="st4" d="M908.9,1028.6c4.5,8.8,21.3,33.1,21.4,44.7c0.1,9.5-7.9,16.8-3.8,23.4
						c5.4,8.6,72,2.7,73.7,2.3s-30.6-16-39.4-32c-6.8-12.5-11.6-25.8-14.5-39.7L908.9,1028.6z"/>
					<path id="SHADOW" class="st10" d="M947.5,1032.3c-6.7,3.1-19.4,8.3-30.7,9.9c-3.3-5.6-6.4-10.6-7.9-13.6l37.5-1.3
						C946.4,1027.2,946.7,1029.1,947.5,1032.3z"/>
				</g>
				<g id="SHOES_00000045603147036086280360000003314913225233640124_">
					<path class="st5" d="M958.4,1099.9l16.9-20.7c0,0,27.5,9.9,27.5,20.7H958.4z"/>
					<path class="st5" d="M966.2,1067.2v1.3c0,1.3-1.1,2.4-2.4,2.4h-26.6c13.4,7.1,18,28.9,18,28.9h-28.7c-6.5-10.4,1-25.8,3.3-29.9
						c-0.3-0.4-0.4-0.9-0.4-1.4v-1.3c0-1.3,1.1-2.4,2.4-2.4h32.1C965.1,1064.8,966.1,1065.9,966.2,1067.2z"/>
					<path class="st35" d="M924.8,1099.9h78.7c1.3,0,2.4,1.1,2.4,2.4v1.3c0,1.3-1.1,2.4-2.4,2.4h-78.7c-1.3,0-2.4-1.1-2.4-2.4v-1.3
						C922.3,1101,923.4,1099.9,924.8,1099.9z"/>
				</g>
			</g>
			<g id="LEFT_FOOT_00000069384751694300970870000012559335359048497556_">
				<g id="FOOT-3">
					<path id="FOOT-4" class="st4" d="M738,1028.6c2,7.4,9.2,32.9,6.6,42c-2.6,9.1-9.8,15.8-7.8,25.2c2.1,9.9,60.3,3.6,62.1,3.2
						s-30.9-18.5-31.3-32c-0.4-13.5,3.9-38.4,3.9-38.4L738,1028.6z"/>
					<path id="SHADOW-2" class="st10" d="M738,1028.6h33.5c0,0-0.8,4.8-1.7,11.3c-12.2,1.2-24.7-2.9-30.1-4.9
						C739,1032.3,738.3,1030,738,1028.6z"/>
				</g>
				<g id="SHOES-2">
					<path class="st5" d="M756.6,1100.3c0,0,7.6-9.2,18.2-11.9c11.7-3,17.3-1.4,23.6,1.8c6.1,3.1,9.5,9.7,9.5,9.7L756.6,1100.3z"/>
					<path class="st5" d="M770.9,1067.2v1.3c0,1.3-1.1,2.4-2.4,2.4h-22.9c11.3,5.6,10.8,29.2,10.8,29.2h-19.7
						c-6.6-10.5,2.8-25.4,5.5-29.2c-1.1-0.2-1.5-1.2-1.5-2.4v-1.3c0-1.3,0.5-2.4,1.9-2.4h26C769.8,1064.8,770.9,1065.9,770.9,1067.2
						z"/>
					<path class="st35" d="M735.5,1099.9h73.2c1.3,0,2.4,1.1,2.4,2.4v1.3c0,1.3-1.1,2.4-2.4,2.4h-73.2c-1.3,0-2.4-1.1-2.4-2.4v-1.3
						C733.1,1101,734.2,1099.9,735.5,1099.9z"/>
				</g>
			</g>
			<g id="PANTS">
				<path class="st35" d="M952.3,1025.6c-34.6,11.1-70.8,2.9-70.8,2.9c-9.6-23.1-25.8-70.5-25.8-174.4c0-18.4-21.6-52.3-38.5-91.8
					c-8.5,56.9-16.9,114.9-18.3,125.1c-2.8,20.2-16.1,139.9-16.1,139.9c-42.6,8.2-65.7-0.6-65.7-0.6c-7.2-111,29.4-161,27.9-180.7
					c-0.9-12.4-12-96.7-12-153.9c0-60.5,23.5-94.1,53.8-120.6l0.3,0.2c2.8,1.7,24.3,13.5,80.7,7.5c4.6,35.4,32.6,135.9,52.6,291.8
					C929.9,943.8,952.3,1025.6,952.3,1025.6z"/>
				<path id="_Контур_" class="st29" d="M831.8,676.3c-4.4,27.7-8.4,57.9-14.3,97.6"/>
			</g>
			<g id="RIGHT_HAND_MICROPHONE">
				<path id="ARM_00000150787380076385456810000009641325154313800599_" class="st4" d="M986.2,409.6c-0.1,2.7-2.4,7.1,0.4,6.7
					c1.4-0.2,11.7-3.2,13.5,0.5c0.8,1.8,0.9,3.7,0.4,5.6c2.7,3.1,1.3,6.2,1.3,6.2c1.7,2,2.4,4.7,1.5,6c0,0,3.1,5.3,1,6.9
					c-6.7,4.9-18,7.2-23.8,6.4c-4-0.5-9-2.4-11.2-10.5c-0.9-3.3,1.4-12.6,3.5-16.6c0.9-1.6,4-8.1,5.1-10c1.6-2.6,2.5-5.6,2.7-8.7
					C980.6,402.1,986.5,402.1,986.2,409.6z"/>
				<path id="HAND_00000080206358154912922830000013311638798302007455_" class="st4" d="M881,410.8c13.5,4.2,43,95.4,43,95.4
					s45.1-70.5,47.3-71.1c2.3-0.6,10.7,11.8,10.7,11.8s-20.3,108.4-59.9,110.9c-29.2,1.9-53.6-93.5-56.1-107.9
					C862.7,430,866,406.2,881,410.8z"/>
				<g id="FINGERS">
					<path class="st4" d="M999.6,441.8c-9.4,3-11.5,2.8-12.1-1.4c-0.2-1.3,0.9-1.9,2-2.2c-0.5,0.1-1,0.2-1.4,0.2
						c-1.4,0.4-3.9-4.5-1.7-5.9c-0.9-0.4-1.8-3.6-1.8-6.5c-1.7-1.2-1.8-4.6,0.2-5.2c1.8-0.6,12.5-2.3,12-4L999.6,441.8z"/>
					<path class="st36" d="M999.5,422.5c-4.2,1.6-8.6,2.9-13,3.7c-3.3,1-4.4-4.6-1.8-5.5c1.8-0.6,10.3-3.4,12-4"/>
					<path class="st36" d="M1000.6,428.7c-11,3.7-13.5,3.8-13.5,3.8c-1.6,0.5-4.5-5-0.5-6.3"/>
					<path class="st36" d="M1002.1,434.5c-10.4,3.7-14.1,3.8-14.1,3.8c-1.5,0.4-3.7-5.4,0.1-5.9"/>
					<path class="st36" d="M991,437.8c0,0-3.9,0.1-3.5,2.5c0.6,4.2,2.7,4.4,12.1,1.4"/>
				</g>
			</g>
			<g id="TOP">
				<path class="st37" d="M877.8,511.7c0,0-8,56.3-9.8,67.6c-1.9,11.3-66.4,9.8-80.7-7.8c0,0-8-52.8-22.2-93.4
					c-12.4-35.3-13.7-75.7-3.4-80.7c13.9-6.7,46-13.6,52.4-24.5c1.3-2.4,2.5-4.9,3.5-7.4h0.1c22.1,16.8,39.5,15.2,39.5,15.2
					c-1.4,5.3-2,10.3-0.1,12.3c4.5,4.9,27.2,12.7,28.1,21.4c0.4,3.7-12.5,17.3-2,53.4C890,491.6,894,500.6,877.8,511.7z"/>
				<g class="st38">
					<path class="st13" d="M835.5,376.1L760,398.6c0.5-0.5,1-0.9,1.6-1.2c4.7-2.3,11.6-4.6,18.8-7.1l52.1-15.5
						C833.6,375.2,834.6,375.7,835.5,376.1z"/>
					<path class="st13" d="M857,380.7c0,0.2-0.1,0.4-0.1,0.6l-101.5,30.2c0.1-0.8,0.2-1.6,0.4-2.3l96.3-28.6
						C853.7,380.7,855.4,380.8,857,380.7z"/>
					<path class="st13" d="M856.8,392.8l-102,30.3c0-0.7,0-1.5,0-2.2L856,390.8C856.1,391.5,856.3,392.2,856.8,392.8z"/>
					<path class="st13" d="M869.3,400.5l-113.9,33.9c-0.1-0.7-0.1-1.4-0.2-2.1l111.5-33.2C867.6,399.6,868.5,400.1,869.3,400.5z"/>
					<path class="st13" d="M881.4,408.5l-124.5,37c-0.1-0.7-0.2-1.4-0.3-2.1l122.9-36.6C880.1,407.4,880.8,407.9,881.4,408.5z"/>
					<path class="st13" d="M880,429.7c-0.1,0.7-0.3,1.5-0.4,2.3l-118,35.1c-0.2-0.7-0.4-1.4-0.6-2L880,429.7z"/>
					<path class="st13" d="M884.3,416.9c-0.3,0.7-0.7,1.5-1,2.5l-124.4,37c-0.2-0.7-0.3-1.4-0.4-2.1L884.3,416.9z"/>
					<path class="st13" d="M878.9,443.7l-114,33.9c-0.2-0.7-0.5-1.3-0.7-2l114.7-34.1C878.9,442.3,878.9,443,878.9,443.7z"/>
					<path class="st13" d="M880,454.9l-111.6,33.2l-0.6-2l112-33.3C879.8,453.5,879.9,454.2,880,454.9z"/>
					<path class="st13" d="M882.5,465.7l-110.9,33c-0.2-0.7-0.4-1.4-0.6-2l110.9-33C882.1,464.3,882.3,465,882.5,465.7z"/>
					<path class="st13" d="M885.5,476.3l-111.1,33c-0.2-0.7-0.4-1.4-0.5-2l111.1-33C885.2,474.9,885.4,475.6,885.5,476.3z"/>
					<path class="st13" d="M888.3,487l-111.2,33.1c-0.2-0.7-0.3-1.4-0.5-2L887.9,485C888.1,485.6,888.2,486.3,888.3,487z"/>
					<path class="st13" d="M889,496.1c-0.1,0.8-0.2,1.5-0.4,2.3l-109.1,32.4c-0.1-0.7-0.3-1.4-0.5-2.1L889,496.1z"/>
					<path class="st13" d="M879.7,510.4c-0.6,0.5-1.2,0.9-1.9,1.4c0,0-0.1,0.5-0.2,1.4l-95.7,28.5c-0.1-0.7-0.3-1.4-0.4-2.1
						L879.7,510.4z"/>
					<path class="st13" d="M876.2,522.9c-0.1,0.7-0.2,1.5-0.3,2.3L784,552.5c-0.1-0.7-0.3-1.4-0.4-2.1L876.2,522.9z"/>
					<path class="st13" d="M874.5,534.9c-0.1,0.8-0.2,1.5-0.3,2.3L786,563.5l-0.4-2.1L874.5,534.9z"/>
					<path class="st13" d="M872.8,547c-0.1,0.8-0.2,1.5-0.3,2.3l-82.8,24.6c-0.6-0.5-1.2-1.1-1.7-1.7L872.8,547z"/>
					<path class="st13" d="M871,559c-0.1,0.8-0.2,1.5-0.3,2.3l-66.8,19.8c-1.2-0.4-2.3-0.8-3.4-1.2L871,559z"/>
					<path class="st13" d="M869.2,571l-0.3,2.3L827,585.8c-1.8-0.2-3.5-0.4-5.2-0.6L869.2,571z"/>
				</g>
			</g>
			<g id="PAPER">
				<path class="st39" d="M1001,536.9c0,0.8-0.1,1.6-0.2,2.4H927c0-6.6-5.4-12-12-12c-1.7,0-3.4,0.4-4.9,1.1c3.4-2,7.3-3.2,11.3-3.4
					c0.5,0,1,0,1.5,0H989c0.3,0,0.6,0,0.8,0C996.1,525.4,1001,530.6,1001,536.9z"/>
				<path class="st39" d="M968.1,539.2l-33.4,63.2c-3.7,6.9-10.8,11.2-18.6,11.2H848c7.8,0,15-4.3,18.6-11.2l33.9-64
					c1.5-2.9,3.5-5.4,6-7.5c1.1-1,2.4-1.8,3.7-2.6c6-2.7,13.1-0.1,15.8,5.9c0.7,1.6,1.1,3.2,1.1,4.9L968.1,539.2z"/>
			</g>
			<path id="LEFT_HAND_00000087381998543956548840000012221801066472621229_" class="st4" d="M759.6,399.9
				c-10.1,3.9-44.3,75.1-44.3,127.1c0,16.9,46.1,44.4,124.6,68.4c22.9,7,48.1,7.3,52.9,6.2c4.8-1.1,16.9-26.7,16.9-26.7
				s-4.8-0.8-8.7,3.9c-6.2,7.6-16.6,7.4-21.4,6c-4.8-1.5,0.7-11.2,0.7-11.2s-11.1-0.9-14.7-0.4c-3.7,0.6-17.5,7.3-17.5,7.3
				s-87.7-60.5-94.8-62.2c0,0,23.2-60.1,26.8-78.8C784.6,416.2,771.9,395.1,759.6,399.9z"/>
			<g id="HEAD_00000014633104976676912710000015085285203263315633_">
				<path id="NECK_00000173155726711654842670000017236051997998360217_" class="st10" d="M862.7,364.5c-2.3,5.2-4.1,10.6-5.7,16.1
					c0,0-17.4,1.6-39.5-15.2h-0.1c4.5-11.1,9.9-28.3,10.6-30.8l0.7,0.2L862.7,364.5z"/>
				<path id="HEAD-2_00000100349969434963258850000008742174976669567414_" class="st4" d="M869.5,367.3c7.9,0,14.5-23.6,14.5-32.1
					s-5.2-34.3-18.2-38c-12.9-3.7-35.2-2.5-35.5,11.8s4,36,5.9,39.7C838.2,352.4,854.3,367.3,869.5,367.3z"/>
				<g id="HAIR_00000012433333897330980850000008237505103940984739_">
					<path class="st40" d="M837.7,301.7c12.3-6.2,21,8.2,38.5,5.7c17.5-2.6,20.2-18.8,18.9-26.2c-1.7-9.6-10.1-18-19.7-16.9
						c0,0,6,4,0.6,8.2c-8.2,6.2-9.9-7-25.6-5.9c-8.2,0.6-5.3,10.8-14.3,5.9c-11.3-6.2-30.9-6.5-28.7,21.2c0,0-11.6,1.8-11.8,14.1
						c-0.1,9.7,9.8,13.3,15.7,18.1c13.5,10.9,12.5,22.6,12.5,22.6s8-2.3,4.3-14.1c-3-9.7,2.9-10.3,5.3-9.3
						C839.4,327.6,828.2,306.5,837.7,301.7z"/>
					<path class="st41" d="M807.8,293.1c0,0-11.8-4.1-14.4,7.2"/>
					<path class="st41" d="M836.9,301.2c12.7-5.4,23.2,10.9,39.1,10.8c17.7-0.1,25.2-17.4,24.4-24.9"/>
				</g>
			</g>
		</g>
	</g>
</g>
<path class="st42" d="M831.2,324.1c0,0-6.8-0.6-3.6,10.5c1.3,0.7,6.5,5.4,6.5,5.4c-1.4-3.6-1.5-6.3-1.4-8.2c0.2-1.6,0.6-3.9-0.5-6.2
	C831.9,325,831.5,324.4,831.2,324.1z"/>
<polyline class="st43" points="64.1,1095.1 64.1,73.8 79.5,73.8 79.5,1100 "/>
<polyline class="st43" points="1828.3,1095.1 1828.3,73.8 1843.7,73.8 1843.7,1100 "/>
<path class="st44" d="M79.5,73.8c0,0,169.6-30.7,248.2-7.6c117.2,34.5,178.5,32.4,313.9,27c39.3-1.6,76.1-5.2,127.3-10.3
	c99.9-9.9,164.9-20.4,200.3-25.3c186.9-26,357.3-7,403.4-1.7c141,16.5,163.8,39.4,287.4,38.6c73.7-0.5,179.7-9.4,179.7-9.6
	c0,0-3.5,0.2-11.3,0.6v178.7c-26.1,1.6-65.2,2.9-112.5,0c-92.3-5.6-159.1-23.8-187.1-30.9c-127.3-32-248.3-33.6-331.7-34.7
	c-193.7-2.6-214.6,40.3-493.7,50.1c-81.8,2.9-122.7,4.3-181.3,0c-127.4-9.4-180.6-32.9-284-28.4c-68.5,2.9-123.7,17.3-158.5,28.4
	C79.5,161.3,79.5,73.8,79.5,73.8z"/>
<g>
	<g>
		<path class="st45" d="M404.1,129.3c-11.2,17.5-22.5,34.8-33.9,52c-4-0.6-8.1-1.2-12.1-1.8c1-11.7,2.1-23.4,3.2-35.1
			c-0.1,0-0.1,0-0.2,0c-6.6,10.9-13.3,21.7-20.1,32.5c-4-0.7-8-1.3-12.1-2c0.8-18.7,1.6-37.4,2.4-56.1c4.5,0.8,9,1.6,13.5,2.3
			c-1,11.4-1.9,22.7-2.8,34.1c0.1,0,0.1,0,0.2,0c6.3-10.5,12.5-21,18.7-31.6c4.6,0.7,9.1,1.4,13.7,2c-1.2,11.3-2.4,22.6-3.5,33.9
			c0.1,0,0.1,0,0.2,0c6.4-10.6,12.8-21.2,19.1-31.8C394.9,128.2,399.5,128.8,404.1,129.3z"/>
		<path class="st45" d="M424.6,174.9c2.7,2,5.5,4,8.2,6c-2.6,2.6-5.5,4.5-8.5,5.6c-3.1,1.1-6.5,1.4-10.4,1
			c-5.3-0.6-9.2-2.5-11.6-5.7c-2.5-3.2-3.2-7.3-2.3-12.4c0.5-2.4,1.2-4.8,2.3-7c1.1-2.2,2.4-4.2,4-6s3.4-3.3,5.4-4.6
			s4.2-2.2,6.7-2.8s5.1-0.7,7.7-0.5c1.7,0.2,3.3,0.5,4.8,1.1s2.8,1.4,4,2.4c1.1,1,2,2.2,2.5,3.7s0.7,3.1,0.3,4.9
			c-0.3,1.7-1,3.2-2.1,4.6c-1.1,1.4-2.4,2.5-4,3.5c-1.6,0.9-3.5,1.7-5.6,2.4s-4.3,1.2-6.6,1.5c-2.2,0.3-4.6,0.5-7.1,0.6
			c-0.2,0.2-0.4,0.4-0.6,0.6c0.3,1.2,0.9,2.2,1.8,2.9s1.9,1.1,3,1.2C419.4,178.2,422.1,177.2,424.6,174.9z M418,159.8
			c-1.9,1.3-3.4,3.1-4.6,5.6c0.2,0.1,0.3,0.3,0.5,0.4c7.5-0.5,11.5-2.2,12.1-5.2c0.1-0.6,0-1.2-0.5-1.6c-0.4-0.5-1.1-0.7-1.9-0.8
			C421.7,158,419.9,158.6,418,159.8z"/>
		<path class="st45" d="M507.6,155.1c-3.5,12.8-7.1,25.5-10.6,38.2c-4.1-0.2-8.3-0.4-12.4-0.7c0.6-2.1,1.2-4.2,1.8-6.2
			c-0.1,0-0.1,0-0.2,0c-1.8,2.1-3.8,3.7-6,4.8s-4.4,1.6-6.7,1.4c-2.1-0.1-4-0.7-5.5-1.6c-1.5-0.9-2.7-2.1-3.6-3.6
			c-0.8-1.5-1.4-3.2-1.6-5.1c-0.3-1.9-0.2-4,0.2-6.3c0.5-3.3,1.6-6.5,3-9.4c1.5-2.9,3.2-5.4,5.2-7.4s4.3-3.6,6.8-4.7
			c2.5-1.1,5-1.6,7.6-1.4c4,0.2,7,1.6,8.9,4c0.1,0,0.2,0,0.2,0c0.2-0.9,0.5-1.8,0.7-2.7C499.4,154.7,503.5,154.9,507.6,155.1z
			 M482.5,181.6c1.2-0.6,2.5-1.6,3.7-2.9c1.2-1.3,2.3-2.9,3.4-4.9s1.9-4.3,2.6-6.7V167c-1.5-2-3.6-3.1-6.2-3.2
			c-1.3-0.1-2.6,0.2-3.8,1c-1.2,0.7-2.3,1.7-3.2,2.9c-0.9,1.2-1.7,2.5-2.3,4c-0.6,1.5-1.1,2.9-1.3,4.3c-0.3,1.9-0.1,3.4,0.5,4.6
			c0.7,1.2,1.7,1.8,3.1,1.9C480.1,182.5,481.3,182.3,482.5,181.6z"/>
		<path class="st45" d="M544,155.6c-1.2,4.4-2.3,8.7-3.5,13.1c-1.4-0.6-2.9-0.8-4.3-0.5c-1.4,0.3-2.7,0.9-3.9,1.9s-2.3,2.4-3.3,4.1
			c-1,1.8-1.8,3.8-2.4,6.2c-1.3,4.7-2.5,9.4-3.8,14c-4.1-0.1-8.2-0.3-12.3-0.5c3.5-12.8,7-25.5,10.5-38.3c4.1,0.1,8.1,0.3,12.2,0.4
			c-0.5,1.8-0.9,3.5-1.4,5.3c0.1,0,0.1,0,0.2,0C535.6,157.4,539.6,155.5,544,155.6z"/>
		<path class="st45" d="M571,182.5c2.8,1.8,5.7,3.5,8.5,5.2c-2.5,2.9-5.2,5-8.2,6.4s-6.4,2-10.3,2c-5.3-0.1-9.2-1.6-11.8-4.6
			s-3.6-7-2.9-12.2c0.3-2.5,1-4.9,1.9-7.2s2.2-4.5,3.7-6.4s3.2-3.6,5.2-5.1c1.9-1.5,4.1-2.6,6.6-3.4c2.4-0.8,5-1.2,7.7-1.2
			c1.7,0,3.3,0.2,4.8,0.7s2.9,1.1,4.1,2c1.2,0.9,2.1,2,2.7,3.5c0.6,1.4,0.8,3.1,0.6,4.9c-0.2,1.7-0.8,3.3-1.8,4.8s-2.3,2.7-3.8,3.8
			s-3.4,2-5.4,2.9c-2.1,0.9-4.2,1.6-6.4,2.1s-4.6,1-7.1,1.3c-0.2,0.2-0.4,0.5-0.6,0.7c0.4,1.2,1,2.1,1.9,2.7c0.9,0.6,1.9,0.9,3,1
			C566,186.3,568.6,185,571,182.5z M563.7,168c-1.8,1.4-3.2,3.5-4.3,6c0.2,0.1,0.3,0.2,0.5,0.4c7.5-1.2,11.4-3.3,11.7-6.3
			c0.1-0.6-0.1-1.2-0.5-1.6c-0.4-0.4-1.1-0.6-1.9-0.6C567.3,165.9,565.5,166.6,563.7,168z"/>
		<path class="st46" d="M608.3,195.5c4.5-18.8,8.9-37.7,13.3-56.6c6-0.1,12.1-0.2,18.1-0.4c3.9-0.1,7.3,0.3,10.2,1.4
			c2.9,1,5.2,2.5,7,4.5s3,4.4,3.7,7.3c0.7,2.9,0.9,6.1,0.6,9.7c-0.5,4.9-1.6,9.4-3.4,13.5c-1.8,4.1-4.2,7.7-7.2,10.7
			s-6.5,5.3-10.6,7s-8.7,2.6-13.5,2.7C620.4,195.3,614.3,195.4,608.3,195.5z M636.4,182c2.2-1.2,4.1-2.7,5.6-4.7s2.8-4.3,3.8-6.9
			c1-2.6,1.6-5.4,1.9-8.4c0.4-4-0.3-7-2-9.1s-4.6-3.1-8.5-3c-1.8,0-3.6,0.1-5.4,0.1c-2.6,11.3-5.2,22.6-7.8,33.9
			c1.7,0,3.5-0.1,5.2-0.1C631.8,183.8,634.2,183.2,636.4,182z"/>
		<path class="st46" d="M668.2,194.1c4.1-19,8.2-38,12.2-57.1c4.4-0.2,8.8-0.4,13.1-0.6c-4,19.1-7.9,38.1-12,57.2
			C677.1,193.8,672.6,194,668.2,194.1z"/>
		<path class="st46" d="M744.9,184.3c-2.8,2.2-6.2,4.1-10.2,5.6s-8.1,2.3-12.1,2.6c-2.7,0.1-5.3,0-7.6-0.5s-4.5-1.3-6.4-2.5
			s-3.5-2.7-4.8-4.5s-2.2-4-2.8-6.6s-0.8-5.4-0.5-8.6c0.2-1.9,0.4-3.8,0.8-5.6c0.4-1.9,0.9-3.6,1.5-5.4c0.6-1.7,1.3-3.4,2.1-5
			s1.7-3.2,2.7-4.7s2.1-2.9,3.2-4.2c1.2-1.3,2.4-2.5,3.7-3.7c1.3-1.1,2.7-2.1,4.2-3s3-1.7,4.6-2.4s3.2-1.2,4.9-1.6
			c1.7-0.4,3.5-0.7,5.3-0.8c4.1-0.2,7.8,0.4,11.2,2s6,3.9,7.8,7.2c-3.5,2.7-7,5.5-10.5,8.2c-1-1.7-2.4-3-4.1-3.9
			c-1.7-1-3.7-1.4-5.9-1.2c-1.3,0.1-2.7,0.4-3.9,0.8c-1.3,0.5-2.5,1.1-3.6,1.9c-1.1,0.8-2.2,1.8-3.1,2.9c-1,1.1-1.9,2.3-2.6,3.6
			c-0.8,1.3-1.5,2.7-2.1,4.2s-1.1,3-1.5,4.6s-0.6,3.2-0.7,4.8c-0.3,4.1,0.4,7.2,2.2,9.3s4.3,3,7.8,2.8c3.1-0.2,6.2-1.3,9.2-3.3
			c0.5-2.4,1-4.8,1.5-7.2c-3.2,0.2-6.4,0.4-9.6,0.6c0.7-3.6,1.4-7.2,2.1-10.8c7.3-0.4,14.7-0.9,22-1.3
			C748.1,167.1,746.5,175.7,744.9,184.3z"/>
		<path class="st46" d="M758.6,189.6c3.5-19.2,7-38.4,10.5-57.7c4.4-0.3,8.8-0.6,13.1-1c-3.4,19.3-6.8,38.5-10.3,57.8
			C767.5,189,763,189.3,758.6,189.6z"/>
		<path class="st46" d="M818.9,139.6c-2.5,15.4-5.1,30.9-7.6,46.3c-4.4,0.3-8.8,0.7-13.2,1c2.6-15.4,5.3-30.8,7.9-46.3
			c-4.5,0.4-8.9,0.7-13.4,1c0.7-3.9,1.3-7.8,2-11.7c13.2-1,26.5-2.1,39.7-3.2c-0.6,3.9-1.2,7.8-1.8,11.7
			C827.8,138.9,823.4,139.2,818.9,139.6z"/>
		<path class="st46" d="M867.9,170.7c-5.8,0.5-11.6,1-17.4,1.5c-1.6,3.7-3.1,7.3-4.7,11c-4.6,0.4-9.2,0.7-13.9,1.1
			c9.5-19.9,18.8-39.8,28-59.7c4.2-0.4,8.3-0.7,12.5-1.1c3.5,18.9,7,37.7,10.6,56.6c-4.6,0.4-9.1,0.8-13.7,1.2
			C868.9,177.7,868.4,174.2,867.9,170.7z M866.5,159.9c-0.9-6.3-1.7-12.6-2.6-18.9c-0.1,0-0.1,0-0.2,0c-2.7,6.6-5.5,13.2-8.3,19.8
			C859.1,160.5,862.8,160.2,866.5,159.9z"/>
		<path class="st46" d="M928.7,176.1c-11.6,1-23.2,2-34.8,3c2.7-19.5,5.4-38.9,8-58.4c4.3-0.4,8.7-0.8,13-1.2
			c-2,15.6-4.1,31.2-6.1,46.7c7.2-0.6,14.3-1.3,21.5-1.9C929.7,168.3,929.2,172.2,928.7,176.1z"/>
		<path class="st46" d="M991.4,159.9c-5.8,0.5-11.6,1-17.4,1.5c-1.4,3.7-2.8,7.4-4.3,11.1c-4.6,0.4-9.2,0.8-13.9,1.2
			c8.7-20.1,17.3-40.2,25.7-60.4c4.2-0.4,8.3-0.8,12.5-1.1c4.2,19,8.6,38.1,13,57.1c-4.6,0.4-9.1,0.8-13.7,1.2
			C992.6,167,992,163.4,991.4,159.9z M989.4,149c-1.1-6.3-2.2-12.7-3.3-19c-0.1,0-0.1,0-0.2,0c-2.5,6.7-5,13.3-7.5,20
			C982.1,149.6,985.7,149.3,989.4,149z"/>
		<path class="st46" d="M1018.1,168.4c1.9-19.6,3.8-39.2,5.7-58.9c4.4-0.4,8.8-0.8,13.1-1.2c-1.8,19.6-3.6,39.3-5.4,58.9
			C1027,167.6,1022.6,168,1018.1,168.4z"/>
		<path class="st46" d="M1047.6,166c1.7-19.6,3.4-39.3,5.1-58.9c6-0.5,12.1-1,18.1-1.5c3.9-0.3,7.4,0,10.4,0.9
			c3.1,0.9,5.6,2.3,7.7,4.3c2,2,3.6,4.4,4.8,7.3c1.1,2.9,1.8,6.2,2,10c0.2,5-0.3,9.7-1.5,14s-3.1,8.1-5.7,11.3
			c-2.5,3.2-5.8,5.8-9.7,7.7c-3.9,2-8.3,3.1-13.2,3.5C1059.7,165,1053.6,165.5,1047.6,166z M1073.8,150.4c2-1.3,3.7-3,5-5.2
			c1.3-2.1,2.2-4.5,2.8-7.3c0.6-2.7,0.8-5.6,0.7-8.7c-0.2-4.1-1.3-7.2-3.3-9.3c-2-2-5-2.9-9-2.6c-1.8,0.1-3.6,0.3-5.4,0.4
			c-1,11.8-1.9,23.5-2.9,35.3c1.7-0.1,3.5-0.3,5.2-0.4C1069.4,152.5,1071.8,151.7,1073.8,150.4z"/>
		<path class="st46" d="M1143.2,159.1c-12.1,0.7-24.1,1.5-36.2,2.4c1.4-19.7,2.7-39.4,4-59.1c11.3-0.8,22.7-1.6,34-2.4
			c-0.2,4-0.4,7.9-0.6,11.9c-7.2,0.5-14.3,0.9-21.5,1.4c-0.3,4-0.5,8.1-0.8,12.1c5.7-0.4,11.3-0.8,17-1.1c-0.2,3.9-0.4,7.8-0.7,11.7
			c-5.7,0.4-11.4,0.7-17,1.1c-0.2,3.9-0.5,7.7-0.8,11.6c7.8-0.5,15.5-1,23.3-1.5C1143.7,151.2,1143.5,155.1,1143.2,159.1z"/>
		<path class="st46" d="M1156.7,158.3c1.1-19.7,2.1-39.5,3.1-59.2c6-0.4,12.1-0.7,18.1-1c3.9-0.2,7.4,0.2,10.5,1.2s5.7,2.5,7.8,4.6
			c2.1,2.1,3.8,4.6,5,7.5c1.2,3,2,6.3,2.3,10.1c0.4,5.1,0.1,9.8-1,14.1s-2.9,8-5.3,11.2c-2.4,3.1-5.6,5.6-9.4,7.5s-8.2,2.9-13.1,3.2
			C1168.8,157.6,1162.7,158,1156.7,158.3z M1182.4,143.3c2-1.3,3.6-2.9,4.8-5.1c1.2-2.1,2-4.5,2.5-7.2s0.6-5.6,0.4-8.8
			c-0.3-4.2-1.6-7.3-3.7-9.4s-5.2-3.1-9.1-2.9c-1.8,0.1-3.6,0.2-5.4,0.3c-0.6,11.8-1.1,23.6-1.7,35.4c1.7-0.1,3.5-0.2,5.2-0.3
			C1178.1,145.3,1180.4,144.6,1182.4,143.3z"/>
		<path class="st46" d="M1258.1,119.8c1.3,0.7,2.4,1.3,3.2,1.7c0.8,0.4,1.7,1,2.8,1.6c1.1,0.7,2,1.3,2.6,1.8
			c0.7,0.5,1.4,1.2,2.1,1.9c0.8,0.8,1.4,1.6,1.8,2.3c0.4,0.8,0.8,1.7,1.2,2.7c0.4,1,0.6,2.1,0.7,3.2c0.4,4.1-0.1,7.7-1.6,10.7
			s-3.8,5.3-6.8,6.8s-6.6,2.4-10.7,2.5c-2.6,0.1-5.2-0.2-7.7-0.9s-5-1.8-7.4-3.3s-4.5-3.5-6.2-5.8c2.9-2.9,5.7-5.8,8.6-8.7
			c1.5,2.2,3.3,3.9,5.4,5.1c2.1,1.2,4.2,1.7,6.2,1.7c2.2-0.1,3.9-0.6,5.1-1.7c1.2-1.1,1.7-2.5,1.6-4c0-0.5-0.2-1-0.4-1.4
			c-0.2-0.4-0.5-0.8-0.8-1.1s-0.8-0.7-1.5-1.2s-1.3-0.8-1.9-1.1c-0.5-0.3-1.4-0.8-2.6-1.4c-0.6-0.3-1.1-0.6-1.4-0.7
			c-3.9-2.1-6.4-3.6-7.6-4.4c-4-2.7-6.5-5.8-7.6-9.4c-0.3-1.1-0.6-2.2-0.7-3.4c-0.3-2.8,0-5.3,0.8-7.7c0.8-2.4,2-4.3,3.7-6
			c1.6-1.6,3.6-2.9,5.9-3.8s4.8-1.4,7.5-1.5c3.5-0.1,6.9,0.6,10.2,2.1c3.3,1.5,6.1,3.7,8.3,6.6c-2.8,2.7-5.6,5.5-8.4,8.2
			c-1.6-2-3.2-3.3-4.8-4c-1.6-0.7-3.1-1.1-4.7-1c-1.7,0-3,0.6-4,1.6s-1.4,2.2-1.2,3.6c0.1,1.2,0.7,2.3,1.7,3.3s2.7,2.1,5.2,3.5
			C1255.7,118.5,1256.8,119.1,1258.1,119.8z"/>
		<path class="st46" d="M1322.2,152.1c-3.6,1.8-7.6,2.6-12.2,2.6c-3.4,0-6.6-0.6-9.6-1.6c-3-1.1-5.6-2.6-8-4.7c-2.4-2-4.3-4.7-5.9-8
			s-2.6-7-3-11.2c-0.3-3.2-0.3-6.3,0-9.3c0.4-3,1-5.9,2-8.5s2.2-5,3.8-7.2c1.6-2.2,3.4-4.1,5.4-5.7s4.3-2.8,6.8-3.6
			c2.5-0.9,5.2-1.3,8.1-1.3c8.7,0,16,4.3,21.9,12.7c-3.1,2.6-6.3,5.3-9.4,7.9c-3.3-5.1-7.1-7.7-11.6-7.7c-1.8,0-3.6,0.4-5.2,1.3
			s-2.9,2-4,3.5s-2,3.1-2.7,5s-1.2,3.9-1.4,6.1c-0.2,2.2-0.2,4.3,0,6.4c0.5,4.2,1.8,7.5,3.9,9.7s4.9,3.4,8.2,3.4
			c2.3,0,4.5-0.5,6.5-1.6s3.6-2.6,4.9-4.5c3.4,3,6.9,5.9,10.3,8.9C1328.7,147.8,1325.7,150.3,1322.2,152.1z"/>
		<path class="st46" d="M1387.6,155.9c-4.4-0.2-8.9-0.4-13.3-0.6c-0.1-7.6-0.2-15.1-0.3-22.7c-5.7-0.2-11.5-0.4-17.2-0.6
			c0.1,7.6,0.1,15.1,0.2,22.7c-4.4-0.1-8.9-0.2-13.3-0.3c-0.1-19.9-0.2-39.7-0.4-59.6c4.4,0.1,8.7,0.2,13.1,0.3
			c0.1,8.3,0.2,16.7,0.3,25c5.7,0.2,11.5,0.4,17.2,0.6c-0.1-8.3-0.3-16.7-0.4-25c4.4,0.2,8.7,0.4,13.1,0.6
			C1386.9,116.1,1387.3,136,1387.6,155.9z"/>
		<path class="st46" d="M1435.9,100.2c3.1,1.4,5.8,3.2,8.2,5.6c2.4,2.3,4.4,5.2,6,8.5s2.8,6.9,3.4,10.9s0.8,7.8,0.5,11.3
			c-0.3,3.6-1.1,6.8-2.4,9.7s-3,5.3-5.1,7.4c-2.1,2-4.7,3.5-7.9,4.5c-3.1,1-6.6,1.3-10.5,1.1c-3.6-0.3-6.9-1.1-10-2.4
			c-3.1-1.3-5.8-3.2-8.2-5.4c-2.4-2.3-4.4-5.1-5.9-8.4c-1.6-3.3-2.7-6.9-3.2-10.9c-0.5-3.8-0.6-7.5-0.2-11s1.3-6.8,2.6-9.7
			c1.3-2.9,3.1-5.4,5.2-7.6c2.1-2.1,4.7-3.7,7.7-4.8c3-1.1,6.3-1.5,9.9-1.2C1429.6,98,1432.9,98.8,1435.9,100.2z M1435.3,144
			c2.2-1.9,3.7-4.5,4.5-7.9s0.9-7.2,0.3-11.4c-0.4-2.3-0.9-4.3-1.8-6.1c-0.8-1.8-1.8-3.3-3-4.4c-1.2-1.2-2.5-2.1-3.9-2.7
			c-1.4-0.7-3-1-4.6-1.2c-2.2-0.2-4.2,0.3-6,1.5c-1.8,1.1-3.2,2.7-4.3,4.7c-1.1,2-1.8,4.4-2.2,7.1c-0.4,2.7-0.4,5.5,0,8.4
			c0.3,2.3,0.9,4.3,1.7,6.1c0.8,1.8,1.8,3.3,3,4.5s2.4,2.1,3.9,2.7c1.4,0.7,2.9,1,4.5,1.2C1430.5,146.7,1433.2,145.9,1435.3,144z"/>
		<path class="st46" d="M1500.1,106.8c3.1,1.5,5.8,3.5,8.3,6c2.4,2.5,4.5,5.4,6.2,8.8s2.9,7.1,3.6,11.1s1,7.8,0.7,11.4
			c-0.2,3.6-0.9,6.7-2.1,9.6c-1.2,2.8-2.8,5.2-4.9,7.1c-2.1,1.9-4.6,3.3-7.8,4.2c-3.1,0.8-6.6,1-10.4,0.6c-3.6-0.4-6.9-1.4-10-2.9
			s-5.9-3.4-8.3-5.8c-2.4-2.4-4.5-5.3-6.1-8.6c-1.7-3.4-2.8-7.1-3.5-11.1c-0.6-3.8-0.8-7.5-0.4-11c0.3-3.5,1.1-6.7,2.4-9.6
			s3-5.3,5-7.3c2.1-2,4.6-3.5,7.6-4.5c3-0.9,6.3-1.2,9.9-0.8C1493.8,104.3,1497,105.3,1500.1,106.8z M1500.4,150.7
			c2.1-1.8,3.6-4.3,4.3-7.7c0.7-3.4,0.8-7.1,0-11.4c-0.4-2.3-1-4.4-1.9-6.2c-0.9-1.8-1.9-3.4-3.1-4.6s-2.5-2.2-4-2.9
			c-1.4-0.7-3-1.2-4.6-1.4c-2.2-0.3-4.2,0.1-5.9,1.2c-1.7,1.1-3.1,2.6-4.2,4.5c-1,2-1.7,4.3-2.1,7c-0.3,2.7-0.3,5.5,0.2,8.4
			c0.4,2.3,1,4.4,1.8,6.2s1.9,3.4,3,4.6c1.2,1.2,2.5,2.2,3.9,2.9s2.9,1.2,4.5,1.4C1495.7,153.1,1498.3,152.4,1500.4,150.7z"/>
		<path class="st46" d="M1569,176c-11.6-2.1-23.2-4-34.8-5.8c-1.3-20-2.6-40-4-60c4.3,0.7,8.7,1.3,13,2.1c1.2,16,2.3,32,3.4,48
			c7.2,1.2,14.3,2.4,21.5,3.7C1568.4,168,1568.7,172,1569,176z"/>
	</g>
</g>
<g>
	<path class="st47" d="M1782.8,167.1c0.1,9.9-8,18-17.9,18c-10,0-18.1-7.9-18.1-17.9c-0.1-9.7,7.8-18,17.8-18
		C1774.7,149.1,1782.8,157.1,1782.8,167.1z"/>
	<path class="st47" d="M1675.2,160.5c0.6,0,1.3,0,1.9,0c0.2,0,0.3,0.1,0.4,0.3c1.6,4.3,3.3,8.6,4.9,12.9c0.4,1.1,0.8,2.2,1.3,3.2
		c0.1,0.2,0.1,0.3-0.2,0.3c-1.1,0-2.3,0-3.4,0c-0.3,0-0.3-0.1-0.4-0.3c-0.2-0.7-0.5-1.4-0.8-2.2c-0.1-0.2-0.2-0.3-0.5-0.3
		c-2.2,0-4.3,0-6.5,0c-0.2,0-0.4,0.1-0.4,0.3c-0.3,0.7-0.5,1.4-0.8,2.2c-0.1,0.3-0.2,0.3-0.5,0.3c-1.1,0-2.2,0-3.3,0
		c-0.3,0-0.4-0.1-0.2-0.4c1.4-3.6,2.8-7.1,4.1-10.7c0.7-1.8,1.4-3.5,2-5.3c0.1-0.3,0.2-0.4,0.5-0.4
		C1673.9,160.6,1674.5,160.5,1675.2,160.5z M1675.2,164.1c-0.9,2.4-1.7,4.6-2.5,6.9c-0.1,0.3,0,0.3,0.3,0.3c1.5,0,3,0,4.4,0
		c0.1,0,0.2,0,0.4,0C1676.9,168.9,1676,166.6,1675.2,164.1z"/>
	<path class="st48" d="M1667.5,147.6c0-2.3,0-4.6,0-6.9c0-0.4,0.1-0.5,0.5-0.5c1.8,0,3.7,0,5.5,0c2,0,3.9,0.5,5.4,1.9
		c1.9,1.7,2.5,3.9,2.2,6.3c-0.2,2.4-1.4,4.3-3.5,5.5c-1.1,0.6-2.4,1-3.7,1c-2,0-4.1,0-6.1,0c-0.3,0-0.3-0.2-0.3-0.3
		C1667.5,152.3,1667.5,150,1667.5,147.6C1667.5,147.6,1667.5,147.6,1667.5,147.6z M1670.6,147.7c0,1.4,0,2.8,0,4.2
		c0,0.2,0,0.4,0.3,0.4c0.9,0,1.9,0,2.8,0c0.7,0,1.4-0.2,2-0.6c1.6-1,2.3-2.5,2.2-4.4c-0.1-2.3-1.6-3.9-3.9-4.2c-1-0.1-2,0-3-0.1
		c-0.3,0-0.4,0.1-0.4,0.4C1670.6,144.8,1670.6,146.2,1670.6,147.7z"/>
	<path class="st47" d="M1699.9,175.8c-0.8,0.8-1.6,1.3-2.6,1.6c-2.4,0.5-5.1-0.5-6-3.6c-0.7-2.4-0.6-4.7,0.8-6.8
		c1.7-2.6,5.6-3,7.7-0.6c0,0,0.1,0.1,0.2,0.2c0.1-0.1,0.1-0.3,0.1-0.4c0-1.8,0-3.5,0-5.3c0-0.3,0.1-0.4,0.4-0.4c0.8,0,1.6,0,2.4,0
		c0.4,0,0.5,0.1,0.5,0.5c0,5,0,10,0,15c0,0.4,0.2,0.9-0.1,1.2c-0.2,0.2-0.7,0.1-1.1,0.1c-0.6,0-1.1,0-1.7,0c-0.2,0-0.3-0.1-0.3-0.3
		C1699.9,176.6,1699.9,176.2,1699.9,175.8z M1699.9,171.2C1699.9,171.2,1699.9,171.2,1699.9,171.2c0-0.6,0-1.3,0-1.9
		c0-0.1,0-0.3-0.1-0.4c-1.1-1.4-3.7-1.8-5,0c-0.6,0.8-0.8,1.8-0.7,2.8c0.1,1.3,0.7,2.4,2,2.8c1.3,0.5,2.5,0.1,3.5-0.8
		c0.2-0.2,0.3-0.4,0.3-0.7C1699.9,172.4,1699.9,171.8,1699.9,171.2z"/>
	<path class="st47" d="M1728.4,175.7c-1.1,1.3-2.3,1.9-3.9,1.8c-2.3-0.1-4-1.3-4.8-3.6c-0.7-2.3-0.7-4.5,0.5-6.6
		c1.7-2.9,5.9-3.3,8-0.7c0,0,0,0,0.1,0c0.1-0.1,0.1-0.2,0.1-0.3c0-1.8,0-3.6,0-5.4c0-0.3,0.1-0.4,0.4-0.4c0.8,0,1.7,0,2.5,0
		c0.3,0,0.3,0.1,0.3,0.3c0,5.3,0,10.7,0,16c0,0.2-0.1,0.3-0.3,0.3c-0.9,0-1.7,0-2.6,0c-0.2,0-0.3-0.1-0.3-0.3
		C1728.5,176.5,1728.4,176.2,1728.4,175.7z M1728.5,171.2c0-0.6,0-1.3,0-1.9c0-0.1,0-0.3-0.1-0.4c-1-1.3-3.5-1.9-4.9-0.3
		c-0.8,0.9-1,2-0.8,3.2c0.2,1.2,0.7,2.2,2,2.7c1.3,0.5,2.5,0.1,3.5-0.8c0.2-0.2,0.3-0.5,0.3-0.8
		C1728.4,172.4,1728.5,171.8,1728.5,171.2z"/>
	<path class="st48" d="M1672.2,194.6c-2.2,0-4.2-0.6-5.9-2c-0.2-0.2-0.3-0.3-0.1-0.6c0.5-0.6,0.9-1.2,1.3-1.8c0.1-0.2,0.2-0.2,0.4,0
		c1.4,1.3,3,1.9,4.9,1.7c0.5,0,1-0.2,1.5-0.4c1-0.6,0.9-1.7-0.1-2.2c-0.9-0.4-1.8-0.6-2.8-0.8c-0.9-0.2-1.8-0.5-2.6-0.9
		c-3-1.4-2.8-5.3-0.5-6.9c1.2-0.8,2.5-1.1,3.9-1.1c2,0,3.8,0.5,5.4,1.8c0.2,0.2,0.3,0.3,0.1,0.6c-0.5,0.6-0.9,1.2-1.3,1.7
		c-0.1,0.2-0.2,0.2-0.4,0.1c-1.3-1.1-2.8-1.5-4.4-1.4c-0.4,0-0.8,0.1-1.2,0.4c-0.8,0.6-0.7,1.6,0.1,2c0.8,0.4,1.6,0.5,2.5,0.8
		c0.9,0.2,1.9,0.5,2.8,0.9c1.6,0.7,2.6,1.9,2.5,3.7c0,1.9-0.8,3.2-2.5,4.1C1674.5,194.5,1673.3,194.6,1672.2,194.6z"/>
	<path class="st48" d="M1690.5,155.7c1.3,1.3,2.8,1.6,4.5,1.1c1.1-0.3,1.7-1.1,1.7-2.1c0-0.4,0-0.9,0-1.3c-0.1,0-0.2,0.1-0.2,0.2
		c-2,2.3-6.1,1.6-7.2-1.4c-0.7-1.9-0.7-3.8,0.1-5.6c1.3-2.8,5.2-3.3,7.1-1.2c0.1,0.1,0.1,0.1,0.2,0.3c0.1-0.4,0.1-0.7,0.1-1.1
		c0-0.2,0.1-0.3,0.3-0.3c0.7,0,1.5,0,2.2,0c0.3,0,0.3,0.1,0.3,0.3c0,3.3,0,6.6,0,9.9c0,2.6-1.7,4.4-4.4,4.7c-1.3,0.2-2.7,0.1-4-0.3
		c-0.7-0.2-1.2-0.6-1.8-1c-0.1-0.1-0.2-0.2-0.1-0.4C1689.8,157,1690.2,156.4,1690.5,155.7z M1696.8,149.5c0-0.5,0-1,0-1.5
		c0-0.2,0-0.3-0.1-0.4c-0.8-0.9-1.8-1.2-2.9-1c-1.1,0.2-1.7,1-2,2.1c-0.1,0.4-0.1,0.8,0,1.3c0.1,1.2,0.9,2.1,2,2.4
		c1.1,0.2,2-0.1,2.8-0.7c0.3-0.2,0.4-0.5,0.3-0.8C1696.8,150.4,1696.8,150,1696.8,149.5z"/>
	<path class="st47" d="M1713.4,172.2c-1.4,0-2.8,0-4.2,0c-0.3,0-0.4,0.1-0.3,0.4c0.4,1.6,2,2.6,3.8,2.4c1-0.1,1.9-0.4,2.7-1
		c0.2-0.2,0.2,0,0.3,0.1c0.4,0.5,0.7,1.1,1.1,1.6c0.1,0.2,0.1,0.3-0.1,0.4c-0.9,0.7-1.9,1.1-3.1,1.3c-1.5,0.3-3,0.2-4.4-0.3
		c-1.9-0.8-3.1-2.2-3.6-4.2c-0.5-2.2-0.1-4.2,1.4-5.9c1.7-1.9,3.9-2.5,6.3-1.9c2.4,0.6,3.7,2.3,4.2,4.7c0.2,0.7,0.2,1.4,0.2,2.1
		c0,0.3-0.1,0.4-0.4,0.4C1716.1,172.2,1714.7,172.2,1713.4,172.2z M1711.7,170.1c0.8,0,1.6,0,2.5,0c0.6,0,0.6,0,0.4-0.6
		c-0.4-1.4-1.5-2.2-3.1-2.1c-1.3,0.1-2.4,1.1-2.7,2.4c0,0.2,0,0.3,0.2,0.3C1710,170.1,1710.9,170.1,1711.7,170.1z"/>
	<path class="st48" d="M1693.8,185.1c0.2-0.2,0.4-0.4,0.6-0.6c1.3-1,2.8-1.3,4.3-0.9c1.4,0.3,2.2,1.4,2.2,3c0,2.5,0,5,0,7.4
		c0,0.2-0.1,0.3-0.3,0.3c-0.7,0-1.5,0-2.2,0c-0.3,0-0.3-0.1-0.3-0.3c0-1.9,0-3.8,0-5.8c0-0.1,0-0.2,0-0.3c0-1.4-0.7-2.1-2.4-2
		c-0.7,0.1-1.3,0.4-1.8,1c-0.2,0.2-0.2,0.4-0.2,0.6c0,2.1,0,4.3,0,6.4c0,0.3-0.1,0.4-0.4,0.4c-0.7,0-1.4,0-2.1,0
		c-0.2,0-0.3-0.1-0.3-0.3c0-4.7,0-9.4,0-14.1c0-0.3,0.1-0.3,0.3-0.3c0.7,0,1.4,0,2.1,0c0.3,0,0.4,0.1,0.4,0.4c0,1.5,0,3.1,0,4.6
		C1693.8,184.8,1693.8,184.9,1693.8,185.1z"/>
	<path class="st48" d="M1737.5,167.1c0-1.3,0.1-2.9,0.4-4.4c0.1-0.5,0.3-0.9,0.6-1.3c0.4-0.5,0.9-0.7,1.5-0.6c0.6,0.1,0.8,0.6,1,1.2
		c0.1,0.5,0.1,1,0,1.5c-0.7,3.8-0.3,7.5,1,11.1c0.9,2.6,2.2,5.1,3.9,7.3c0.3,0.3,0.5,0.7,0.6,1.2c0.1,0.6,0,1.2-0.5,1.6
		c-0.5,0.4-1.1,0.4-1.7,0.2c-0.4-0.2-0.8-0.6-1.1-0.9c-2.9-4-4.8-8.4-5.5-13.3C1737.6,169.6,1737.5,168.5,1737.5,167.1z"/>
	<path class="st48" d="M1765.2,194.3c-0.5,0-1.4,0-2.3-0.2c-0.5-0.1-1-0.3-1.4-0.7c-0.8-0.8-0.5-1.9,0.5-2.3
		c0.5-0.2,1.1-0.2,1.7-0.2c5.2,0.5,10-0.8,14.5-3.6c1.3-0.8,2.5-1.7,3.6-2.7c0.4-0.3,0.8-0.6,1.3-0.7c0.6-0.1,1.1,0.1,1.5,0.5
		c0.4,0.5,0.5,1,0.3,1.6c-0.2,0.5-0.5,0.8-0.9,1.2c-4,3.4-8.6,5.7-13.9,6.6C1768.5,194.2,1767,194.3,1765.2,194.3z"/>
	<path class="st48" d="M1792.2,166.9c0,1.2,0,2.4-0.2,3.6c-0.1,0.5-0.2,1-0.6,1.4c-0.4,0.5-0.9,0.7-1.5,0.6c-0.6-0.1-0.9-0.6-1-1.1
		c-0.1-0.5-0.1-0.9-0.1-1.4c0.7-5-0.4-9.7-2.7-14.1c-0.8-1.5-1.8-2.9-2.9-4.2c-0.3-0.4-0.6-0.8-0.7-1.4c-0.1-1.1,0.9-2,2-1.6
		c0.5,0.2,0.9,0.5,1.3,1c3.3,4.2,5.4,8.8,6.2,14.1C1792.1,164.8,1792.2,165.8,1792.2,166.9z"/>
	<path class="st48" d="M1765.6,139.4c1.1-0.1,2.2,0,3.3,0.2c0.5,0.1,1,0.3,1.4,0.6c0.4,0.4,0.6,0.9,0.5,1.4c-0.1,0.5-0.5,0.8-1.1,1
		c-0.5,0.2-1.1,0.1-1.7,0.1c-4.2-0.5-8.2,0.1-12.1,1.8c-2.2,1-4.3,2.2-6.1,3.8c-0.5,0.4-1.1,0.8-1.8,0.7c-1-0.2-1.5-1.2-1.2-2.1
		c0.2-0.5,0.5-0.8,0.9-1.1c4.3-3.4,9.1-5.5,14.5-6.2c0.5-0.1,1.1-0.1,1.6-0.2C1764.6,139.4,1765.1,139.4,1765.6,139.4z"/>
	<path class="st48" d="M1708.6,194.6c-3.3,0-5.6-2.3-5.6-5.6c0-3.2,2.3-5.6,5.6-5.6c3.3,0,5.7,2.3,5.7,5.6
		C1714.3,192.3,1711.9,194.6,1708.6,194.6z M1705.9,189c0,0.6,0.1,1.1,0.3,1.6c0.5,1,1.3,1.5,2.4,1.5c1.1,0,1.9-0.5,2.4-1.5
		c0.4-0.9,0.5-1.9,0.1-2.8c-0.4-1.2-1.4-1.8-2.6-1.8c-1.1,0-2.1,0.8-2.4,1.9C1705.9,188.3,1705.9,188.6,1705.9,189z"/>
	<path class="st48" d="M1721.2,194.6c-3.3,0-5.6-2.3-5.6-5.6c0-3.3,2.3-5.6,5.7-5.6c3.3,0,5.6,2.3,5.6,5.6
		C1726.8,192.3,1724.5,194.7,1721.2,194.6z M1723.9,189.1c0-0.4-0.1-0.8-0.2-1.2c-0.4-1.2-1.3-1.9-2.5-1.9c-1.2,0-2.1,0.6-2.5,1.8
		c-0.2,0.7-0.3,1.4-0.1,2.1c0.3,1.3,1.2,2.2,2.5,2.3c1.4,0.1,2.4-0.7,2.8-2.1C1723.9,189.7,1723.9,189.4,1723.9,189.1z"/>
	<path class="st48" d="M1722.9,149.6c0-0.7,0.1-1.2,0-1.8c-0.1-0.7-0.8-1.2-1.6-1.3c-1.3-0.2-2.5,0.1-3.5,0.9
		c-0.2,0.2-0.4,0.2-0.5-0.1c-0.2-0.4-0.5-0.9-0.7-1.3c-0.1-0.2-0.1-0.3,0.1-0.4c1.4-1.1,3.1-1.6,4.9-1.5c0.4,0,0.8,0.1,1.2,0.2
		c2,0.4,3,1.7,3.1,3.8c0,2.2,0,4.4,0,6.7c0,0.2-0.1,0.3-0.3,0.3c-0.7,0-1.5,0-2.2,0c-0.2,0-0.3,0-0.3-0.3c0-0.2,0-0.5,0-0.8
		c-1,1-2.3,1.4-3.6,1.3c-2.4-0.1-4-2.3-3.3-4.7c0.3-0.9,0.9-1.6,1.8-2C1719.3,148,1721.6,148.2,1722.9,149.6z M1722.9,151.9
		c0-0.8,0-0.9-0.3-1.1c-0.9-0.6-1.9-0.8-3-0.4c-0.6,0.2-1,0.8-1,1.4c0,0.7,0.4,1.1,1,1.3c0.8,0.3,1.7,0.2,2.5-0.1
		C1722.6,152.8,1723.1,152.5,1722.9,151.9z"/>
	<path class="st48" d="M1685,194.6c-2.5,0-4.5-1.4-5.3-3.6c-0.8-2.3-0.1-5,1.7-6.4c2-1.6,5.3-1.6,7.2,0c0.7,0.6,0.7,0.6,0.1,1.3
		c-0.3,0.3-0.7,0.6-1,1c-0.1,0.1-0.2,0.2-0.4,0c-0.8-1-1.9-1.1-3-0.8c-1.1,0.3-1.7,1.2-1.9,2.3c-0.1,0.5-0.1,1.1,0.1,1.6
		c0.3,1,1,1.7,2.1,2c1.1,0.2,2,0,2.8-0.8c0.2-0.2,0.2-0.2,0.4,0c0.4,0.4,0.9,0.9,1.4,1.3c0.2,0.2,0.2,0.3,0,0.5
		C1688.1,194.1,1686.7,194.7,1685,194.6z"/>
	<path class="st48" d="M1709.2,149.9c0-0.9,0-1.8,0-2.8c0-0.3-0.1-0.4-0.4-0.4c-0.4,0-0.7,0-1.1,0c-0.2,0-0.3,0-0.3-0.3
		c0-0.6,0-1.3,0-1.9c0-0.2,0.1-0.3,0.3-0.3c0.4,0,0.8,0,1.2,0c0.3,0,0.3-0.1,0.3-0.3c0-0.7,0-1.5,0-2.2c0-0.3,0-0.4,0.4-0.4
		c0.7,0,1.4,0,2.2,0c0.3,0,0.3,0.1,0.3,0.3c0,0.8,0,1.5,0,2.3c0,0.3,0.1,0.3,0.3,0.3c0.5,0,1,0,1.5,0c0.2,0,0.3,0,0.3,0.3
		c0,0.6,0,1.3,0,1.9c0,0.2-0.1,0.3-0.3,0.3c-0.5,0-1.1,0-1.6,0c-0.2,0-0.3,0.1-0.3,0.3c0,1.5,0,3.1,0,4.6c0,1,0.7,1.4,1.7,1
		c0.3-0.1,0.3-0.1,0.4,0.2c0.1,0.5,0.3,1,0.4,1.5c0.1,0.2,0,0.3-0.2,0.4c-1,0.7-3.1,0.7-4.1,0c-0.7-0.5-1-1.2-1-2.1
		C1709.2,151.8,1709.3,150.8,1709.2,149.9C1709.2,149.9,1709.2,149.9,1709.2,149.9z"/>
	<path class="st48" d="M1728.8,147.7c0-2.3,0-4.7,0-7c0-0.3,0.1-0.4,0.4-0.4c0.7,0,1.4,0,2.1,0c0.2,0,0.3,0.1,0.3,0.3
		c0,4.7,0,9.4,0,14.1c0,0.3-0.1,0.3-0.3,0.3c-0.7,0-1.4,0-2.1,0c-0.3,0-0.4-0.1-0.4-0.4C1728.8,152.3,1728.8,150,1728.8,147.7z"/>
	<path class="st48" d="M1731.6,187c0,2.3,0,4.7,0,7c0,0.3,0,0.4-0.4,0.4c-0.7,0-1.4,0-2.1,0c-0.2,0-0.3,0-0.3-0.3
		c0-4.7,0-9.4,0-14.1c0-0.3,0.1-0.3,0.3-0.3c0.7,0,1.4,0,2,0c0.3,0,0.4,0.1,0.4,0.4C1731.6,182.4,1731.6,184.7,1731.6,187z"/>
	<path class="st47" d="M1685.3,171.2c0-1.9,0-3.8,0-5.6c0-0.3,0.1-0.4,0.4-0.4c0.8,0,1.6,0,2.4,0c0.3,0,0.4,0.1,0.4,0.3
		c0,3.8,0,7.6,0,11.4c0,0.3-0.1,0.3-0.3,0.3c-0.8,0-1.7,0-2.5,0c-0.3,0-0.3-0.1-0.3-0.4C1685.3,175,1685.3,173.1,1685.3,171.2z"/>
	<path class="st48" d="M1686.4,149.7c0,1.7,0,3.3,0,5c0,0.3-0.1,0.4-0.4,0.4c-0.7,0-1.4,0-2.2,0c-0.2,0-0.3-0.1-0.3-0.3
		c0-3.4,0-6.7,0-10.1c0-0.2,0.1-0.3,0.3-0.3c0.7,0,1.4,0,2.2,0c0.3,0,0.4,0.1,0.3,0.4C1686.4,146.4,1686.4,148,1686.4,149.7z"/>
	<path class="st48" d="M1705.6,149.7c0,1.7,0,3.3,0,5c0,0.3-0.1,0.4-0.4,0.4c-0.7,0-1.4,0-2.2,0c-0.2,0-0.3-0.1-0.3-0.3
		c0-3.4,0-6.7,0-10.1c0-0.3,0.1-0.3,0.3-0.3c0.7,0,1.4,0,2.1,0c0.3,0,0.4,0.1,0.4,0.4C1705.6,146.4,1705.6,148,1705.6,149.7z"/>
	<path class="st47" d="M1688.8,161.9c0,1.1-0.9,1.9-1.9,1.9c-1,0-1.9-0.9-1.9-1.9c0-1,0.9-1.9,1.9-1.9
		C1687.9,160.1,1688.8,160.9,1688.8,161.9z"/>
	<path class="st48" d="M1685,143.2c-0.9,0-1.7-0.8-1.7-1.7c0-0.9,0.8-1.7,1.7-1.7c0.9,0,1.7,0.8,1.7,1.7
		C1686.6,142.4,1685.9,143.2,1685,143.2z"/>
	<path class="st48" d="M1705.8,141.5c0,0.9-0.7,1.7-1.7,1.7c-0.9,0-1.7-0.8-1.7-1.7c0-0.9,0.8-1.7,1.7-1.7
		C1705.1,139.8,1705.8,140.6,1705.8,141.5z"/>
</g>
<g>
	<path class="st47" d="M226.6,143.3c0.1,9.9-8,18-17.9,18c-10,0-18.1-7.9-18.1-17.9c-0.1-9.7,7.8-18,17.8-18
		C218.5,125.3,226.5,133.3,226.6,143.3z"/>
	<path class="st47" d="M118.9,136.7c0.6,0,1.3,0,1.9,0c0.2,0,0.3,0.1,0.4,0.3c1.6,4.3,3.3,8.6,4.9,12.9c0.4,1.1,0.8,2.2,1.3,3.2
		c0.1,0.2,0.1,0.3-0.2,0.3c-1.1,0-2.3,0-3.4,0c-0.3,0-0.3-0.1-0.4-0.3c-0.2-0.7-0.5-1.4-0.8-2.2c-0.1-0.2-0.2-0.3-0.5-0.3
		c-2.2,0-4.3,0-6.5,0c-0.2,0-0.4,0.1-0.4,0.3c-0.3,0.7-0.5,1.4-0.8,2.2c-0.1,0.3-0.2,0.3-0.5,0.3c-1.1,0-2.2,0-3.3,0
		c-0.3,0-0.4-0.1-0.2-0.4c1.4-3.6,2.8-7.1,4.1-10.7c0.7-1.8,1.4-3.5,2-5.3c0.1-0.3,0.2-0.4,0.5-0.4
		C117.7,136.7,118.3,136.7,118.9,136.7z M118.9,140.3c-0.9,2.4-1.7,4.6-2.5,6.9c-0.1,0.3,0,0.3,0.3,0.3c1.5,0,3,0,4.4,0
		c0.1,0,0.2,0,0.4,0C120.7,145,119.8,142.7,118.9,140.3z"/>
	<path class="st48" d="M111.2,123.8c0-2.3,0-4.6,0-6.9c0-0.4,0.1-0.5,0.5-0.5c1.8,0,3.7,0,5.5,0c2,0,3.9,0.5,5.4,1.9
		c1.9,1.7,2.5,3.9,2.2,6.3c-0.2,2.4-1.4,4.3-3.5,5.5c-1.1,0.6-2.4,1-3.7,1c-2,0-4.1,0-6.1,0c-0.3,0-0.3-0.2-0.3-0.3
		C111.2,128.5,111.2,126.1,111.2,123.8C111.2,123.8,111.2,123.8,111.2,123.8z M114.4,123.8c0,1.4,0,2.8,0,4.2c0,0.2,0,0.4,0.3,0.4
		c0.9,0,1.9,0,2.8,0c0.7,0,1.4-0.2,2-0.6c1.6-1,2.3-2.5,2.2-4.4c-0.1-2.3-1.6-3.9-3.9-4.2c-1-0.1-2,0-3-0.1c-0.3,0-0.4,0.1-0.4,0.4
		C114.4,121,114.4,122.4,114.4,123.8z"/>
	<path class="st47" d="M143.7,152c-0.8,0.8-1.6,1.3-2.6,1.6c-2.4,0.5-5.1-0.5-6-3.6c-0.7-2.4-0.6-4.7,0.8-6.8c1.7-2.6,5.6-3,7.7-0.6
		c0,0,0.1,0.1,0.2,0.2c0.1-0.1,0.1-0.3,0.1-0.4c0-1.8,0-3.5,0-5.3c0-0.3,0.1-0.4,0.4-0.4c0.8,0,1.6,0,2.4,0c0.4,0,0.5,0.1,0.5,0.5
		c0,5,0,10,0,15c0,0.4,0.2,0.9-0.1,1.2c-0.2,0.2-0.7,0.1-1.1,0.1c-0.6,0-1.1,0-1.7,0c-0.2,0-0.3-0.1-0.3-0.3
		C143.7,152.7,143.7,152.3,143.7,152z M143.7,147.4C143.7,147.4,143.7,147.4,143.7,147.4c0-0.6,0-1.3,0-1.9c0-0.1,0-0.3-0.1-0.4
		c-1.1-1.4-3.7-1.8-5,0c-0.6,0.8-0.8,1.8-0.7,2.8c0.1,1.3,0.7,2.4,2,2.8c1.3,0.5,2.5,0.1,3.5-0.8c0.2-0.2,0.3-0.4,0.3-0.7
		C143.7,148.5,143.7,147.9,143.7,147.4z"/>
	<path class="st47" d="M172.2,151.8c-1.1,1.3-2.3,1.9-3.9,1.8c-2.3-0.1-4-1.3-4.8-3.6c-0.7-2.3-0.7-4.5,0.5-6.6
		c1.7-2.9,5.9-3.3,8-0.7c0,0,0,0,0.1,0c0.1-0.1,0.1-0.2,0.1-0.3c0-1.8,0-3.6,0-5.4c0-0.3,0.1-0.4,0.4-0.4c0.8,0,1.7,0,2.5,0
		c0.3,0,0.3,0.1,0.3,0.3c0,5.3,0,10.7,0,16c0,0.2-0.1,0.3-0.3,0.3c-0.9,0-1.7,0-2.6,0c-0.2,0-0.3-0.1-0.3-0.3
		C172.2,152.7,172.2,152.3,172.2,151.8z M172.2,147.4c0-0.6,0-1.3,0-1.9c0-0.1,0-0.3-0.1-0.4c-1-1.3-3.5-1.9-4.9-0.3
		c-0.8,0.9-1,2-0.8,3.2c0.2,1.2,0.7,2.2,2,2.7c1.3,0.5,2.5,0.1,3.5-0.8c0.2-0.2,0.3-0.5,0.3-0.8
		C172.2,148.5,172.2,147.9,172.2,147.4z"/>
	<path class="st48" d="M115.9,170.8c-2.2,0-4.2-0.6-5.9-2c-0.2-0.2-0.3-0.3-0.1-0.6c0.5-0.6,0.9-1.2,1.3-1.8c0.1-0.2,0.2-0.2,0.4,0
		c1.4,1.3,3,1.9,4.9,1.7c0.5,0,1-0.2,1.5-0.4c1-0.6,0.9-1.7-0.1-2.2c-0.9-0.4-1.8-0.6-2.8-0.8c-0.9-0.2-1.8-0.5-2.6-0.9
		c-3-1.4-2.8-5.3-0.5-6.9c1.2-0.8,2.5-1.1,3.9-1.1c2,0,3.8,0.5,5.4,1.8c0.2,0.2,0.3,0.3,0.1,0.6c-0.5,0.6-0.9,1.2-1.3,1.7
		c-0.1,0.2-0.2,0.2-0.4,0.1c-1.3-1.1-2.8-1.5-4.4-1.4c-0.4,0-0.8,0.1-1.2,0.4c-0.8,0.6-0.7,1.6,0.1,2c0.8,0.4,1.6,0.5,2.5,0.8
		c0.9,0.2,1.9,0.5,2.8,0.9c1.6,0.7,2.6,1.9,2.5,3.7c0,1.9-0.8,3.2-2.5,4.1C118.3,170.7,117.1,170.8,115.9,170.8z"/>
	<path class="st48" d="M134.3,131.9c1.3,1.3,2.8,1.6,4.5,1.1c1.1-0.3,1.7-1.1,1.7-2.1c0-0.4,0-0.9,0-1.3c-0.1,0-0.2,0.1-0.2,0.2
		c-2,2.3-6.1,1.6-7.2-1.4c-0.7-1.9-0.7-3.8,0.1-5.6c1.3-2.8,5.2-3.3,7.1-1.2c0.1,0.1,0.1,0.1,0.2,0.3c0.1-0.4,0.1-0.7,0.1-1.1
		c0-0.2,0.1-0.3,0.3-0.3c0.7,0,1.5,0,2.2,0c0.3,0,0.3,0.1,0.3,0.3c0,3.3,0,6.6,0,9.9c0,2.6-1.7,4.4-4.4,4.7c-1.3,0.2-2.7,0.1-4-0.3
		c-0.7-0.2-1.2-0.6-1.8-1c-0.1-0.1-0.2-0.2-0.1-0.4C133.6,133.1,133.9,132.5,134.3,131.9z M140.6,125.7c0-0.5,0-1,0-1.5
		c0-0.2,0-0.3-0.1-0.4c-0.8-0.9-1.8-1.2-2.9-1c-1.1,0.2-1.7,1-2,2.1c-0.1,0.4-0.1,0.8,0,1.3c0.1,1.2,0.9,2.1,2,2.4
		c1.1,0.2,2-0.1,2.8-0.7c0.3-0.2,0.4-0.5,0.3-0.8C140.6,126.5,140.6,126.1,140.6,125.7z"/>
	<path class="st47" d="M157.1,148.4c-1.4,0-2.8,0-4.2,0c-0.3,0-0.4,0.1-0.3,0.4c0.4,1.6,2,2.6,3.8,2.4c1-0.1,1.9-0.4,2.7-1
		c0.2-0.2,0.2,0,0.3,0.1c0.4,0.5,0.7,1.1,1.1,1.6c0.1,0.2,0.1,0.3-0.1,0.4c-0.9,0.7-1.9,1.1-3.1,1.3c-1.5,0.3-3,0.2-4.4-0.3
		c-1.9-0.8-3.1-2.2-3.6-4.2c-0.5-2.2-0.1-4.2,1.4-5.9c1.7-1.9,3.9-2.5,6.3-1.9c2.4,0.6,3.7,2.3,4.2,4.7c0.2,0.7,0.2,1.4,0.2,2.1
		c0,0.3-0.1,0.4-0.4,0.4C159.9,148.4,158.5,148.4,157.1,148.4z M155.5,146.2c0.8,0,1.6,0,2.5,0c0.6,0,0.6,0,0.4-0.6
		c-0.4-1.4-1.5-2.2-3.1-2.1c-1.3,0.1-2.4,1.1-2.7,2.4c0,0.2,0,0.3,0.2,0.3C153.7,146.2,154.6,146.2,155.5,146.2z"/>
	<path class="st48" d="M137.5,161.2c0.2-0.2,0.4-0.4,0.6-0.6c1.3-1,2.8-1.3,4.3-0.9c1.4,0.3,2.2,1.4,2.2,3c0,2.5,0,5,0,7.4
		c0,0.2-0.1,0.3-0.3,0.3c-0.7,0-1.5,0-2.2,0c-0.3,0-0.3-0.1-0.3-0.3c0-1.9,0-3.8,0-5.8c0-0.1,0-0.2,0-0.3c0-1.4-0.7-2.1-2.4-2
		c-0.7,0.1-1.3,0.4-1.8,1c-0.2,0.2-0.2,0.4-0.2,0.6c0,2.1,0,4.3,0,6.4c0,0.3-0.1,0.4-0.4,0.4c-0.7,0-1.4,0-2.1,0
		c-0.2,0-0.3-0.1-0.3-0.3c0-4.7,0-9.4,0-14.1c0-0.3,0.1-0.3,0.3-0.3c0.7,0,1.4,0,2.1,0c0.3,0,0.4,0.1,0.4,0.4c0,1.5,0,3.1,0,4.6
		C137.5,160.9,137.5,161,137.5,161.2z"/>
	<path class="st48" d="M181.3,143.3c0-1.3,0.1-2.9,0.4-4.4c0.1-0.5,0.3-0.9,0.6-1.3c0.4-0.5,0.9-0.7,1.5-0.6c0.6,0.1,0.8,0.6,1,1.2
		c0.1,0.5,0.1,1,0,1.5c-0.7,3.8-0.3,7.5,1,11.1c0.9,2.6,2.2,5.1,3.9,7.3c0.3,0.3,0.5,0.7,0.6,1.2c0.1,0.6,0,1.2-0.5,1.6
		c-0.5,0.4-1.1,0.4-1.7,0.2c-0.4-0.2-0.8-0.6-1.1-0.9c-2.9-4-4.8-8.4-5.5-13.3C181.4,145.7,181.3,144.6,181.3,143.3z"/>
	<path class="st48" d="M208.9,170.5c-0.5,0-1.4,0-2.3-0.2c-0.5-0.1-1-0.3-1.4-0.7c-0.8-0.8-0.5-1.9,0.5-2.3c0.5-0.2,1.1-0.2,1.7-0.2
		c5.2,0.5,10-0.8,14.5-3.6c1.3-0.8,2.5-1.7,3.6-2.7c0.4-0.3,0.8-0.6,1.3-0.7c0.6-0.1,1.1,0.1,1.5,0.5c0.4,0.5,0.5,1,0.3,1.6
		c-0.2,0.5-0.5,0.8-0.9,1.2c-4,3.4-8.6,5.7-13.9,6.6C212.2,170.3,210.8,170.5,208.9,170.5z"/>
	<path class="st48" d="M236,143c0,1.2,0,2.4-0.2,3.6c-0.1,0.5-0.2,1-0.6,1.4c-0.4,0.5-0.9,0.7-1.5,0.6c-0.6-0.1-0.9-0.6-1-1.1
		c-0.1-0.5-0.1-0.9-0.1-1.4c0.7-5-0.4-9.7-2.7-14.1c-0.8-1.5-1.8-2.9-2.9-4.2c-0.3-0.4-0.6-0.8-0.7-1.4c-0.1-1.1,0.9-2,2-1.6
		c0.5,0.2,0.9,0.5,1.3,1c3.3,4.2,5.4,8.8,6.2,14.1C235.9,140.9,236,142,236,143z"/>
	<path class="st48" d="M209.4,115.6c1.1-0.1,2.2,0,3.3,0.2c0.5,0.1,1,0.3,1.4,0.6c0.4,0.4,0.6,0.9,0.5,1.4c-0.1,0.5-0.5,0.8-1.1,1
		c-0.5,0.2-1.1,0.1-1.7,0.1c-4.2-0.5-8.2,0.1-12.1,1.8c-2.2,1-4.3,2.2-6.1,3.8c-0.5,0.4-1.1,0.8-1.8,0.7c-1-0.2-1.5-1.2-1.2-2.1
		c0.2-0.5,0.5-0.8,0.9-1.1c4.3-3.4,9.1-5.5,14.5-6.2c0.5-0.1,1.1-0.1,1.6-0.2C208.3,115.6,208.9,115.6,209.4,115.6z"/>
	<path class="st48" d="M152.4,170.8c-3.3,0-5.6-2.3-5.6-5.6c0-3.2,2.3-5.6,5.6-5.6c3.3,0,5.7,2.3,5.7,5.6
		C158,168.5,155.7,170.8,152.4,170.8z M149.7,165.2c0,0.6,0.1,1.1,0.3,1.6c0.5,1,1.3,1.5,2.4,1.5c1.1,0,1.9-0.5,2.4-1.5
		c0.4-0.9,0.5-1.9,0.1-2.8c-0.4-1.2-1.4-1.8-2.6-1.8c-1.1,0-2.1,0.8-2.4,1.9C149.7,164.4,149.6,164.8,149.7,165.2z"/>
	<path class="st48" d="M164.9,170.8c-3.3,0-5.6-2.3-5.6-5.6c0-3.3,2.3-5.6,5.7-5.6c3.3,0,5.6,2.3,5.6,5.6
		C170.6,168.5,168.2,170.8,164.9,170.8z M167.7,165.2c0-0.4-0.1-0.8-0.2-1.2c-0.4-1.2-1.3-1.9-2.5-1.9c-1.2,0-2.1,0.6-2.5,1.8
		c-0.2,0.7-0.3,1.4-0.1,2.1c0.3,1.3,1.2,2.2,2.5,2.3c1.4,0.1,2.4-0.7,2.8-2.1C167.7,165.9,167.7,165.6,167.7,165.2z"/>
	<path class="st48" d="M166.7,125.7c0-0.7,0.1-1.2,0-1.8c-0.1-0.7-0.8-1.2-1.6-1.3c-1.3-0.2-2.5,0.1-3.5,0.9
		c-0.2,0.2-0.4,0.2-0.5-0.1c-0.2-0.4-0.5-0.9-0.7-1.3c-0.1-0.2-0.1-0.3,0.1-0.4c1.4-1.1,3.1-1.6,4.9-1.5c0.4,0,0.8,0.1,1.2,0.2
		c2,0.4,3,1.7,3.1,3.8c0,2.2,0,4.4,0,6.7c0,0.2-0.1,0.3-0.3,0.3c-0.7,0-1.5,0-2.2,0c-0.2,0-0.3,0-0.3-0.3c0-0.2,0-0.5,0-0.8
		c-1,1-2.3,1.4-3.6,1.3c-2.4-0.1-4-2.3-3.3-4.7c0.3-0.9,0.9-1.6,1.8-2C163,124.1,165.4,124.4,166.7,125.7z M166.7,128
		c0-0.8,0-0.9-0.3-1.1c-0.9-0.6-1.9-0.8-3-0.4c-0.6,0.2-1,0.8-1,1.4c0,0.7,0.4,1.1,1,1.3c0.8,0.3,1.7,0.2,2.5-0.1
		C166.4,129,166.8,128.6,166.7,128z"/>
	<path class="st48" d="M128.8,170.8c-2.5,0-4.5-1.4-5.3-3.6c-0.8-2.3-0.1-5,1.7-6.4c2-1.6,5.3-1.6,7.2,0c0.7,0.6,0.7,0.6,0.1,1.3
		c-0.3,0.3-0.7,0.6-1,1c-0.1,0.1-0.2,0.2-0.4,0c-0.8-1-1.9-1.1-3-0.8c-1.1,0.3-1.7,1.2-1.9,2.3c-0.1,0.5-0.1,1.1,0.1,1.6
		c0.3,1,1,1.7,2.1,2c1.1,0.2,2,0,2.8-0.8c0.2-0.2,0.2-0.2,0.4,0c0.4,0.4,0.9,0.9,1.4,1.3c0.2,0.2,0.2,0.3,0,0.5
		C131.9,170.2,130.5,170.8,128.8,170.8z"/>
	<path class="st48" d="M153,126.1c0-0.9,0-1.8,0-2.8c0-0.3-0.1-0.4-0.4-0.4c-0.4,0-0.7,0-1.1,0c-0.2,0-0.3,0-0.3-0.3
		c0-0.6,0-1.3,0-1.9c0-0.2,0.1-0.3,0.3-0.3c0.4,0,0.8,0,1.2,0c0.3,0,0.3-0.1,0.3-0.3c0-0.7,0-1.5,0-2.2c0-0.3,0-0.4,0.4-0.4
		c0.7,0,1.4,0,2.2,0c0.3,0,0.3,0.1,0.3,0.3c0,0.8,0,1.5,0,2.3c0,0.3,0.1,0.3,0.3,0.3c0.5,0,1,0,1.5,0c0.2,0,0.3,0,0.3,0.3
		c0,0.6,0,1.3,0,1.9c0,0.2-0.1,0.3-0.3,0.3c-0.5,0-1.1,0-1.6,0c-0.2,0-0.3,0.1-0.3,0.3c0,1.5,0,3.1,0,4.6c0,1,0.7,1.4,1.7,1
		c0.3-0.1,0.3-0.1,0.4,0.2c0.1,0.5,0.3,1,0.4,1.5c0.1,0.2,0,0.3-0.2,0.4c-1,0.7-3.1,0.7-4.1,0c-0.7-0.5-1-1.2-1-2.1
		C153,127.9,153,127,153,126.1C153,126.1,153,126.1,153,126.1z"/>
	<path class="st48" d="M172.6,123.8c0-2.3,0-4.7,0-7c0-0.3,0.1-0.4,0.4-0.4c0.7,0,1.4,0,2.1,0c0.2,0,0.3,0.1,0.3,0.3
		c0,4.7,0,9.4,0,14.1c0,0.3-0.1,0.3-0.3,0.3c-0.7,0-1.4,0-2.1,0c-0.3,0-0.4-0.1-0.4-0.4C172.6,128.5,172.6,126.1,172.6,123.8z"/>
	<path class="st48" d="M175.4,163.2c0,2.3,0,4.7,0,7c0,0.3,0,0.4-0.4,0.4c-0.7,0-1.4,0-2.1,0c-0.2,0-0.3,0-0.3-0.3
		c0-4.7,0-9.4,0-14.1c0-0.3,0.1-0.3,0.3-0.3c0.7,0,1.4,0,2,0c0.3,0,0.4,0.1,0.4,0.4C175.4,158.5,175.4,160.9,175.4,163.2z"/>
	<path class="st47" d="M129,147.3c0-1.9,0-3.8,0-5.6c0-0.3,0.1-0.4,0.4-0.4c0.8,0,1.6,0,2.4,0c0.3,0,0.4,0.1,0.4,0.3
		c0,3.8,0,7.6,0,11.4c0,0.3-0.1,0.3-0.3,0.3c-0.8,0-1.7,0-2.5,0c-0.3,0-0.3-0.1-0.3-0.4C129,151.1,129,149.2,129,147.3z"/>
	<path class="st48" d="M130.2,125.8c0,1.7,0,3.3,0,5c0,0.3-0.1,0.4-0.4,0.4c-0.7,0-1.4,0-2.2,0c-0.2,0-0.3-0.1-0.3-0.3
		c0-3.4,0-6.7,0-10.1c0-0.2,0.1-0.3,0.3-0.3c0.7,0,1.4,0,2.2,0c0.3,0,0.4,0.1,0.3,0.4C130.1,122.5,130.2,124.2,130.2,125.8z"/>
	<path class="st48" d="M149.3,125.8c0,1.7,0,3.3,0,5c0,0.3-0.1,0.4-0.4,0.4c-0.7,0-1.4,0-2.2,0c-0.2,0-0.3-0.1-0.3-0.3
		c0-3.4,0-6.7,0-10.1c0-0.3,0.1-0.3,0.3-0.3c0.7,0,1.4,0,2.1,0c0.3,0,0.4,0.1,0.4,0.4C149.3,122.5,149.3,124.2,149.3,125.8z"/>
	<path class="st47" d="M132.5,138.1c0,1.1-0.9,1.9-1.9,1.9c-1,0-1.9-0.9-1.9-1.9c0-1,0.9-1.9,1.9-1.9
		C131.7,136.2,132.5,137.1,132.5,138.1z"/>
	<path class="st48" d="M128.7,119.3c-0.9,0-1.7-0.8-1.7-1.7c0-0.9,0.8-1.7,1.7-1.7c0.9,0,1.7,0.8,1.7,1.7
		C130.4,118.6,129.7,119.3,128.7,119.3z"/>
	<path class="st48" d="M149.6,117.7c0,0.9-0.7,1.7-1.7,1.7c-0.9,0-1.7-0.8-1.7-1.7c0-0.9,0.8-1.7,1.7-1.7
		C148.9,116,149.6,116.7,149.6,117.7z"/>
</g>
</svg>
