<svg width="718" height="719" viewBox="0 0 718 719" fill="none" xmlns="http://www.w3.org/2000/svg">
<path d="M86.5764 172.745L65.5965 273.983C74.9305 283.46 84.8245 292.407 100.793 295.781L177.619 309.28L195.669 190.278L86.5764 172.745Z" fill="#FAFAFA"/>
<path d="M82.1966 166.498L61.2167 267.736L96.413 289.535L173.239 303.033L195.928 188.799L82.1966 166.498Z" fill="#F5F5F5"/>
<path d="M75.5336 262.337L61.1736 267.736C61.1736 267.736 66.3432 276.165 73.8822 280.66C80.7548 284.988 88.3853 287.975 96.37 289.463C96.37 289.463 79.6406 281.191 75.5336 262.337Z" fill="#E0E0E0"/>
<path d="M70.5076 188.225L123.022 171.94L119.676 160.883L66.3001 176.406L70.5076 188.225Z" fill="#EBEBEB"/>
<path d="M205.018 216.112L170.97 172.931L161.866 180.025L195.483 224.283L205.018 216.112Z" fill="#EBEBEB"/>
<path d="M176.168 222.43C176.168 222.631 156.739 219.012 132.859 214.345C108.978 209.678 89.6495 205.73 89.6926 205.514C89.7356 205.299 109.122 208.932 133.002 213.599C156.883 218.266 176.212 222.229 176.168 222.43Z" fill="#E0E0E0"/>
<path d="M172.736 237.953C172.736 238.154 153.307 234.536 129.427 229.854C105.546 225.173 86.16 221.31 86.2605 221.037C86.361 220.764 105.69 224.455 129.57 229.122C153.451 233.789 172.78 237.752 172.736 237.953Z" fill="#E0E0E0"/>
<path d="M170.511 251.868C170.511 252.069 151.082 248.45 127.215 243.783C103.349 239.116 84.006 235.167 84.0347 234.952C84.0634 234.737 103.464 238.37 127.359 243.051C151.254 247.732 170.554 251.667 170.511 251.868Z" fill="#E0E0E0"/>
<path d="M167.825 265.166C167.825 265.367 148.396 261.748 124.516 257.066C100.635 252.385 81.3063 248.45 81.3494 248.249C81.3925 248.048 100.778 251.667 124.659 256.334C148.54 261.001 167.854 264.964 167.825 265.166Z" fill="#E0E0E0"/>
<path d="M578.177 126.189L551.022 192.375C542.018 194.198 532.871 195.505 522.402 191.269L473.105 169.284L508.818 94.0231L578.177 126.189Z" fill="#FAFAFA"/>
<path d="M583.102 124.294L555.962 190.494L527.328 189.373L478.03 167.388L509.234 93.0753L583.102 124.294Z" fill="#F5F5F5"/>
<path d="M549.83 181.849L555.962 190.465C552.072 192.147 547.878 193.012 543.641 193.007C538.021 192.823 532.487 191.581 527.328 189.345C527.328 189.345 540.18 191.154 549.83 181.849Z" fill="#E0E0E0"/>
<path d="M581.393 141.282L557.57 111.628L563.774 106.574L588.387 136.127L581.393 141.282Z" fill="#EBEBEB"/>
<path d="M493.453 105.238L529.683 93.6354L532.167 101.232L495.75 113.61L493.453 105.238Z" fill="#EBEBEB"/>
<path d="M507.554 120.015C507.626 119.828 520.263 124.998 535.772 131.503C551.28 138.008 563.788 143.536 563.702 143.723C563.616 143.91 550.993 138.754 535.484 132.235C519.976 125.716 507.468 120.201 507.554 120.015Z" fill="#E0E0E0"/>
<path d="M503.519 130.253C503.591 130.052 516.228 135.222 531.736 141.741C547.245 148.261 559.738 153.775 559.667 153.962C559.595 154.148 546.944 148.993 531.449 142.474C515.955 135.954 503.433 130.44 503.519 130.253Z" fill="#E0E0E0"/>
<path d="M499.398 139.099C499.484 138.898 512.121 144.068 527.615 150.587C543.11 157.106 555.631 162.621 555.545 162.807C555.459 162.994 542.837 157.839 527.328 151.319C511.819 144.8 499.326 139.286 499.398 139.099Z" fill="#E0E0E0"/>
<path d="M495.808 147.758C495.879 147.572 508.516 152.741 524.025 159.246C539.534 165.751 552.027 171.28 551.955 171.467C551.884 171.653 539.232 166.498 523.724 159.979C508.215 153.459 495.721 147.945 495.808 147.758Z" fill="#E0E0E0"/>
<path d="M548.653 408.263C526.653 390.342 523.623 359.87 526.552 332.902C527.041 328.393 526.897 323.611 529.338 319.805C531.78 316 536.992 313.674 540.826 315.871C544.057 317.694 545.235 321.701 546.872 325.061C549.055 329.55 552.466 333.329 556.708 335.96C559.466 337.669 562.955 338.832 565.913 337.483C569.963 335.63 570.824 330.303 571.126 325.793C571.7 317.426 572.27 309.055 572.835 300.678C572.899 296.172 573.69 291.706 575.175 287.452C576.884 283.288 580.259 279.569 584.624 278.678C588.99 277.788 594.073 280.66 594.676 285.126C594.702 286.992 594.606 288.858 594.389 290.712C594.389 292.593 595.078 294.718 596.816 295.365C598.553 296.011 600.463 294.891 601.899 293.67C606.868 289.491 610.444 283.877 613.818 278.291C617.193 272.705 620.481 266.975 625.048 262.337C629.614 257.698 635.717 254.223 642.179 254.324C648.641 254.424 655.189 258.919 656.338 265.352C657.487 271.786 653.337 277.946 648.943 282.771C642.419 289.93 634.892 296.106 626.599 301.109C625.007 301.845 623.69 303.067 622.836 304.598C621.644 307.47 624.272 310.701 627.144 311.907C630.418 313.272 634.066 313.2 637.541 313.86C641.016 314.521 644.721 316.359 645.769 319.762C647.205 324.487 643.069 329.024 639.063 331.882C631.035 337.638 622.071 341.962 612.569 344.663C609.18 345.639 605.619 346.429 602.79 348.554C599.961 350.679 598.051 354.6 599.415 357.874C600.779 361.148 604.858 362.483 608.361 362.096C611.865 361.708 615.096 360.056 618.485 359.066C624.832 357.184 632.759 358.204 636.32 363.833C638.661 367.524 638.517 372.449 636.895 376.499C635.083 380.503 632.491 384.106 629.27 387.096C618.62 398.109 605.242 406.101 590.498 410.259C575.822 414.165 562.467 414.567 548.624 408.263" fill="#F5F5F5"/>
<path d="M546.814 428.281C548.985 415.837 552.351 403.632 556.866 391.835C562.442 377.439 568.843 363.377 576.037 349.717L581.637 338.933C583.476 335.4 585.299 331.882 587.31 328.565C591.161 322.202 595.36 316.056 599.889 310.155C604.197 304.498 608.505 299.285 612.483 294.359C616.46 289.434 620.381 285.083 624.071 281.177C629.855 274.997 636.121 269.288 642.811 264.103C645.18 262.265 647.119 260.901 648.34 259.996L649.776 258.962C649.937 258.84 650.11 258.734 650.293 258.646C650.144 258.786 649.986 258.916 649.819 259.034L648.383 260.125C647.133 261.073 645.281 262.48 642.955 264.361C636.357 269.628 630.169 275.389 624.445 281.593C620.783 285.499 616.963 289.951 612.957 294.805C608.95 299.658 604.7 304.857 600.435 310.601C595.941 316.493 591.771 322.624 587.941 328.967C585.96 332.27 584.15 335.745 582.298 339.292C580.446 342.839 578.607 346.472 576.712 350.062C569.533 363.698 563.123 377.726 557.513 392.079C552.98 403.824 549.561 415.968 547.303 428.353" fill="#E0E0E0"/>
<path d="M587.568 328.551C587.399 327.917 587.303 327.267 587.281 326.612C587.137 325.348 586.979 323.525 586.836 321.27C586.534 316.747 586.319 310.5 586.118 303.607C585.917 296.714 585.629 290.482 585.256 285.973C585.084 283.733 584.912 281.909 584.782 280.646C584.679 279.995 584.645 279.336 584.682 278.678C584.89 279.303 585.029 279.948 585.098 280.603C585.328 281.852 585.586 283.676 585.845 285.916C586.362 290.425 586.75 296.671 586.951 303.579C587.152 310.486 587.295 316.503 587.424 321.241C587.424 323.352 587.554 325.147 587.597 326.583C587.665 327.238 587.655 327.898 587.568 328.551Z" fill="#E0E0E0"/>
<path d="M646.085 322.045C645.315 322.159 644.536 322.198 643.759 322.16C642.323 322.16 640.111 322.16 637.455 322.304C632.127 322.491 624.775 322.993 616.69 323.898C608.605 324.803 601.311 325.98 596.069 326.957C593.441 327.43 591.33 327.876 589.866 328.177C589.114 328.379 588.345 328.504 587.568 328.551C588.286 328.246 589.031 328.011 589.794 327.847C591.23 327.459 593.341 326.928 595.954 326.411C601.181 325.276 608.476 324.027 616.59 323.094C623.513 322.293 630.472 321.843 637.44 321.744C640.111 321.744 642.28 321.744 643.773 321.859C644.548 321.85 645.322 321.912 646.085 322.045Z" fill="#E0E0E0"/>
<path d="M557.671 390.83C557.535 390.598 557.424 390.353 557.34 390.098L556.507 387.929C555.789 386.048 554.827 383.305 553.635 379.888C551.338 373.081 548.466 363.56 545.436 353.02C542.406 342.48 539.692 332.916 537.48 326.081C536.432 322.749 535.556 320.006 534.91 317.967C534.637 317.077 534.407 316.345 534.235 315.756C534.132 315.504 534.069 315.237 534.048 314.966C534.19 315.197 534.305 315.442 534.393 315.698L535.211 317.852C535.929 319.734 536.892 322.476 538.084 325.894C540.381 332.715 543.253 342.221 546.283 352.776C549.313 363.331 552.027 372.88 554.239 379.715C555.287 383.047 556.163 385.79 556.809 387.814L557.498 390.04C557.596 390.293 557.654 390.559 557.671 390.83Z" fill="#E0E0E0"/>
<path d="M636.148 371.789C635.896 371.906 635.631 371.993 635.358 372.047L633.075 372.636L624.66 374.689C617.566 376.427 607.787 378.925 596.988 381.711C586.19 384.497 576.367 386.924 569.23 388.504C565.655 389.308 562.768 389.94 560.758 390.299L558.446 390.729C558.173 390.796 557.894 390.83 557.613 390.83C557.865 390.712 558.13 390.626 558.403 390.571L560.686 389.983L569.101 387.929C576.195 386.206 585.974 383.693 596.787 380.907C607.6 378.121 617.48 375.694 624.66 374.101C628.236 373.311 631.122 372.665 633.132 372.32L635.459 371.889C635.684 371.832 635.915 371.799 636.148 371.789Z" fill="#E0E0E0"/>
<path d="M668.817 659.075C668.817 659.29 532.943 659.448 365.39 659.448C197.838 659.448 61.9347 659.29 61.9347 659.075C61.9347 658.859 197.766 658.701 365.39 658.701C533.014 658.701 668.817 658.874 668.817 659.075Z" fill="#263238"/>
<path d="M245.226 111.873L279.876 217.505C293.633 221.339 307.649 224.383 324.392 218.941L403.258 190.407L356.372 69.7834L245.226 111.873Z" fill="#E0E0E0"/>
<path d="M237.802 108.397L272.452 214.015L316.925 215.509L395.79 186.961L355.783 68.3043L237.802 108.397Z" fill="#FF725E"/>
<path d="M282.892 201.321L272.438 214.015C272.438 214.015 281.772 219.113 291.235 219.328C299.959 219.707 308.676 218.43 316.925 215.566C316.925 215.566 296.821 216.701 282.892 201.321Z" fill="#FF725E"/>
<path opacity="0.3" d="M282.892 201.321C279.718 207.74 276.502 215.279 272.438 214.015C272.438 214.015 281.772 219.113 291.235 219.328C299.959 219.707 308.676 218.43 316.925 215.566C316.925 215.566 296.821 216.701 282.892 201.321Z" fill="black"/>
<path d="M238.548 134.906L278.785 91.625L269.753 83.1095L228.295 126.146L238.548 134.906Z" fill="#E0E0E0"/>
<path d="M378.874 88.9109L324.033 66.8827L319.323 78.3707L374.365 101.634L378.874 88.9109Z" fill="#E0E0E0"/>
<path d="M355.367 110.25C355.367 110.437 335.407 117.43 310.65 125.859C285.893 134.289 265.746 140.966 265.66 140.765C265.574 140.564 285.606 133.585 310.377 125.156C335.148 116.726 355.295 110.049 355.367 110.25Z" fill="#263238"/>
<path d="M360.436 126.534C360.436 126.735 340.476 133.714 315.719 142.158C290.962 150.602 270.815 157.25 270.758 157.064C270.7 156.877 290.704 149.884 315.475 141.44C340.246 132.996 360.436 126.362 360.436 126.534Z" fill="#263238"/>
<path d="M365.85 140.722C365.85 140.909 345.904 147.902 321.133 156.331C296.362 164.76 276.243 171.438 276.172 171.237C276.1 171.036 296.132 164.057 320.903 155.628C345.674 147.198 365.792 140.521 365.85 140.722Z" fill="#263238"/>
<path d="M370.488 154.55C370.488 154.752 350.528 161.73 325.771 170.174C301.014 178.618 280.882 185.267 280.81 185.08C280.738 184.893 300.756 177.9 325.527 169.456C350.298 161.012 370.387 154.364 370.488 154.55Z" fill="#263238"/>
<path d="M423.62 457.087L416.67 521.707C416.67 521.707 403.128 501.244 393.967 510.363C385.236 519.065 369.813 582.522 369.813 582.522C369.813 582.522 369.612 603.214 380.612 608.686C415.894 626.262 455.212 593.234 455.212 593.234L449.597 408.277C434.97 420.59 425.663 438.077 423.62 457.087Z" fill="#FF725E"/>
<path d="M542.65 412.169L481.606 407.301C481.232 400.121 481.735 372.593 481.735 372.593C481.735 372.593 456.332 368.644 456.031 343.255C455.729 317.867 460.109 259.536 460.109 259.536C474.546 253.33 490.378 251.091 505.97 253.053C521.562 255.014 536.347 261.105 548.796 270.694L552.558 273.566L542.65 412.169Z" fill="#B78876"/>
<path d="M481.692 372.234C493.419 372.455 504.946 369.181 514.806 362.828C514.806 362.828 506.98 381.094 481.634 378.811L481.692 372.234Z" fill="#AA6550"/>
<path d="M549.442 299.888C549.873 299.701 566.89 294.733 566.33 312.094C565.77 329.455 548.466 325.32 548.452 324.817C548.437 324.314 549.442 299.888 549.442 299.888Z" fill="#B78876"/>
<path d="M553.951 318.412C554.038 318.412 554.253 318.628 554.756 318.886C555.463 319.218 556.272 319.259 557.01 319.001C558.877 318.384 560.514 315.526 560.701 312.396C560.777 310.924 560.532 309.454 559.983 308.088C559.84 307.539 559.565 307.034 559.182 306.616C558.799 306.198 558.32 305.88 557.785 305.689C557.441 305.584 557.07 305.603 556.739 305.745C556.407 305.887 556.137 306.142 555.976 306.465C555.732 306.939 555.818 307.283 555.732 307.312C555.646 307.341 555.373 307.011 555.531 306.293C555.65 305.87 555.902 305.498 556.249 305.23C556.739 304.892 557.34 304.753 557.929 304.842C558.647 305.016 559.308 305.372 559.848 305.875C560.389 306.378 560.791 307.011 561.016 307.714C561.697 309.243 562.002 310.912 561.907 312.582C561.677 316.072 559.781 319.288 557.254 319.935C556.783 320.058 556.29 320.073 555.813 319.979C555.335 319.884 554.885 319.683 554.497 319.389C553.98 318.829 553.894 318.441 553.951 318.412Z" fill="#AA6550"/>
<path d="M465.709 298.854C465.701 299.801 466.063 300.713 466.717 301.397C467.372 302.081 468.267 302.482 469.213 302.516C469.675 302.553 470.139 302.497 470.578 302.352C471.018 302.206 471.424 301.974 471.772 301.668C472.12 301.363 472.404 300.991 472.605 300.574C472.807 300.157 472.923 299.704 472.947 299.242C472.955 298.298 472.595 297.388 471.944 296.704C471.292 296.02 470.401 295.617 469.457 295.58C468.995 295.545 468.531 295.602 468.091 295.748C467.652 295.895 467.246 296.127 466.897 296.432C466.548 296.736 466.263 297.108 466.059 297.523C465.855 297.939 465.736 298.392 465.709 298.854Z" fill="#263238"/>
<path d="M464.919 295.264C465.365 295.738 468.122 293.699 472.013 293.713C475.905 293.728 478.777 295.681 479.193 295.149C479.394 294.934 478.935 294.072 477.757 293.168C476.07 292.002 474.064 291.385 472.013 291.401C469.982 291.394 468 292.032 466.355 293.225C465.106 294.202 464.704 295.049 464.919 295.264Z" fill="#263238"/>
<path d="M503.936 300.29C503.927 301.234 504.287 302.144 504.938 302.828C505.59 303.512 506.482 303.915 507.425 303.952C507.887 303.987 508.351 303.93 508.791 303.784C509.23 303.637 509.636 303.405 509.985 303.1C510.334 302.796 510.619 302.425 510.823 302.009C511.027 301.593 511.146 301.14 511.173 300.678C511.177 299.732 510.815 298.822 510.161 298.139C509.507 297.456 508.614 297.053 507.669 297.016C507.208 296.981 506.744 297.038 506.306 297.185C505.867 297.331 505.462 297.563 505.114 297.868C504.766 298.173 504.483 298.545 504.281 298.96C504.078 299.376 503.961 299.828 503.936 300.29Z" fill="#263238"/>
<path d="M503.275 295.982C503.734 296.456 506.477 294.417 510.383 294.431C514.289 294.446 517.147 296.399 517.563 295.867C517.779 295.666 517.319 294.805 516.127 293.9C514.439 292.734 512.435 292.113 510.383 292.119C508.352 292.117 506.372 292.755 504.725 293.943C503.476 294.934 503.06 295.781 503.275 295.982Z" fill="#263238"/>
<path d="M489.116 324.932C489.116 324.716 486.703 324.3 482.783 323.797C481.778 323.697 480.845 323.496 480.672 322.807C480.593 321.781 480.823 320.756 481.333 319.863C482.29 317.45 483.271 314.918 484.277 312.266C488.384 301.468 491.342 292.579 490.897 292.421C490.451 292.263 486.79 300.893 482.697 311.692C481.721 314.349 480.773 316.89 479.825 319.331C479.189 320.529 479.005 321.916 479.308 323.237C479.451 323.587 479.673 323.899 479.958 324.148C480.242 324.397 480.58 324.577 480.945 324.673C481.496 324.83 482.066 324.912 482.64 324.917C486.646 325.147 489.102 325.162 489.116 324.932Z" fill="#263238"/>
<path d="M502.27 280.703C502.657 281.766 506.578 281.263 511.13 281.809C515.682 282.355 519.416 283.604 520.019 282.656C520.292 282.197 519.645 281.22 518.152 280.172C516.154 278.927 513.901 278.152 511.56 277.903C509.22 277.654 506.854 277.939 504.639 278.736C502.959 279.368 502.112 280.186 502.27 280.703Z" fill="#263238"/>
<path d="M466.355 283.977C467.045 284.853 469.73 283.977 472.961 283.891C476.192 283.805 478.935 284.494 479.567 283.561C479.839 283.116 479.409 282.225 478.217 281.392C476.613 280.381 474.744 279.871 472.848 279.927C470.953 279.983 469.117 280.604 467.576 281.708C466.427 282.627 466.054 283.532 466.355 283.977Z" fill="#263238"/>
<path d="M447.745 243.511C447.565 241.934 447.788 240.338 448.393 238.871C448.999 237.404 449.966 236.115 451.206 235.124C452.485 234.194 454.054 233.748 455.632 233.866C457.21 233.985 458.695 234.66 459.822 235.771C459.583 234.71 459.569 233.612 459.783 232.546C459.996 231.48 460.431 230.471 461.059 229.584C461.687 228.697 462.495 227.952 463.43 227.398C464.364 226.843 465.405 226.491 466.485 226.365C470.635 226.106 474.167 229.237 478.159 230.328C482.151 231.42 486.258 230.472 490.021 228.964C493.783 227.456 497.287 225.36 501.092 223.967C509.133 221.03 518.007 221.386 525.786 224.957C533.565 228.528 539.621 235.026 542.636 243.037C548.193 241.299 554.497 244.128 557.929 248.781C561.361 253.433 562.237 259.666 561.548 265.438C561.013 269.333 560.05 273.157 558.676 276.84C558.676 277.171 558.676 277.486 558.676 277.817C558.403 291.775 556.823 308.174 550.864 308.274C540.482 308.432 542.966 288.86 542.966 288.86C530.214 283.948 534.967 264.85 531.78 261.949C528.592 259.048 521.929 252.328 495.248 265.955C484.88 271.254 471.108 271.096 463.584 269.387L462.923 269.244H462.765C462.692 269.219 462.62 269.19 462.55 269.158C460.131 268.563 457.82 267.594 455.7 266.286C453.204 264.846 451.232 262.648 450.071 260.01C449.512 258.691 449.35 257.236 449.605 255.826C449.86 254.415 450.521 253.11 451.507 252.069C449.444 249.645 448.136 246.67 447.745 243.511Z" fill="#263238"/>
<path d="M592.594 571.536L594.504 607.594L598.812 659.29H435.639L442.733 582.809L428.833 461.969C430.039 419.263 446.438 401.514 479.983 397.436L477.341 397.766C481.965 397.22 477.341 397.766 479.983 397.436C501.165 404.127 523.895 404.127 545.077 397.436C555.129 397.866 563.472 400.954 572.031 402.605C598.984 407.76 621.171 428.582 626.599 446.719C631.036 461.639 663.13 591.051 663.13 591.051H599.243L592.594 571.536Z" fill="#FF725E"/>
<path d="M485.799 336.937C486.342 338.515 487.106 340.009 488.068 341.374C488.554 342.055 489.179 342.625 489.902 343.046C490.625 343.466 491.429 343.729 492.261 343.815C493.149 343.812 494.023 343.587 494.803 343.161C495.583 342.735 496.244 342.12 496.727 341.374C497.674 339.856 498.112 338.075 497.976 336.291C497.976 334.682 497.172 332.773 495.578 332.586C494.907 332.56 494.24 332.703 493.639 333.002L485.267 336.406" fill="#AA6550"/>
<path d="M489.145 343.83C490.659 343.932 492.179 343.747 493.625 343.284C495.088 342.708 496.289 341.614 497 340.211C497.4 339.357 497.616 338.429 497.633 337.486C497.651 336.543 497.469 335.608 497.1 334.74C496.913 334.291 496.672 333.867 496.382 333.476C496.038 333.132 496.109 333.146 495.75 333.203C495.29 333.354 494.84 333.531 494.401 333.735L492.965 334.295C491.17 335.013 489.547 335.645 488.183 336.161C485.44 337.181 483.702 337.727 483.616 337.597C483.53 337.468 485.124 336.52 487.766 335.242C489.087 334.611 490.638 333.806 492.433 333.074L493.783 332.471C494.284 332.234 494.797 332.023 495.32 331.839C495.72 331.705 496.154 331.705 496.555 331.839C496.924 331.992 497.242 332.246 497.474 332.571C497.86 333.053 498.179 333.584 498.421 334.151C498.877 335.218 499.091 336.373 499.046 337.533C499.001 338.693 498.7 339.828 498.163 340.857C497.71 341.688 497.095 342.419 496.356 343.008C495.616 343.598 494.765 344.033 493.855 344.289C492.681 344.674 491.423 344.723 490.222 344.433C489.504 344.203 489.116 343.916 489.145 343.83Z" fill="#263238"/>
<path d="M428.56 564.328L390.133 446.346L386.657 426.543C386.657 426.543 376.203 382.372 375.729 378.007C375.198 372.952 372.628 372.004 370.79 372.263C367.918 372.779 366.237 376.571 366.568 380.879C366.683 382.315 369.44 406.009 369.44 406.009C367.823 403.925 366.062 401.958 364.17 400.121C360.192 396.071 351.705 394.377 343.305 395.598C334.904 396.818 332.649 397.852 332.965 401.141C333.052 401.758 333.276 402.349 333.622 402.868C333.967 403.388 334.425 403.823 334.961 404.142C336.647 405.276 338.693 405.747 340.705 405.463C354.189 403.754 358.598 410.589 358.598 410.589L359.057 413.174C359.057 413.174 350.212 408.206 343.951 411.379C343.023 411.848 342.194 412.492 341.51 413.275C339.669 413.482 337.915 414.167 336.42 415.261C334.926 416.355 333.743 417.821 332.99 419.513C332.237 421.205 331.939 423.065 332.126 424.908C332.313 426.75 332.979 428.512 334.057 430.018C335.091 431.454 336.929 432.747 338.58 432.216C339.457 431.841 340.227 431.253 340.82 430.507C341.157 430.134 341.527 429.793 341.926 429.487L344.209 436.567C344.209 436.567 350.212 452.205 352.05 459.299L370.718 578.099C371.335 582.011 372.725 585.762 374.807 589.132C376.889 592.501 379.621 595.423 382.843 597.726C386.066 600.029 389.715 601.667 393.577 602.546C397.44 603.424 401.438 603.524 405.34 602.841C409.537 602.102 413.526 600.473 417.04 598.062C420.555 595.652 423.511 592.516 425.711 588.867C427.912 585.217 429.304 581.139 429.796 576.906C430.287 572.673 429.866 568.384 428.56 564.328Z" fill="#B78876"/>
<path d="M386.069 445.139C383.67 446.087 380.928 444.536 379.348 442.497C377.769 440.458 376.95 437.916 375.528 435.762C371.22 429.3 362.403 426.96 358.469 420.311C357.909 419.378 357.521 418.071 358.311 417.339C359.1 416.606 360.221 417.008 361.183 417.339L384.791 427.261" fill="#B78876"/>
<path d="M384.747 427.319C383.993 426.773 383.173 426.324 382.306 425.983C380.698 425.208 378.343 424.145 375.428 422.838L365.175 418.358L362.188 417.08C361.063 416.376 359.706 416.144 358.411 416.434C358.016 416.61 357.684 416.902 357.458 417.272C357.233 417.641 357.124 418.07 357.148 418.502C357.185 419.208 357.387 419.897 357.736 420.512C358.38 421.597 359.141 422.609 360.005 423.528C363.523 427.204 367.774 429.272 370.962 431.9C372.504 433.072 373.86 434.471 374.983 436.05C376.002 437.486 376.706 439.137 377.51 440.544C378.047 441.745 378.839 442.814 379.831 443.677C380.823 444.54 381.991 445.176 383.254 445.542C385.15 445.901 386.126 445.168 386.04 445.14C385.158 445.256 384.262 445.207 383.398 444.996C382.267 444.564 381.24 443.902 380.379 443.052C379.519 442.201 378.845 441.181 378.4 440.056C377.668 438.62 376.964 437.026 375.959 435.375C374.809 433.664 373.399 432.142 371.78 430.866C368.506 428.094 364.284 425.94 361.053 422.522C360.265 421.698 359.571 420.788 358.986 419.808C358.454 418.889 358.411 417.899 358.986 417.741C359.56 417.583 360.651 417.927 361.657 418.358L364.643 419.593L375.026 423.801C377.998 424.964 380.411 425.897 382.077 426.515C382.925 426.905 383.824 427.176 384.747 427.319Z" fill="#AA6550"/>
<path d="M359.373 413.375C359.051 411.77 358.352 410.264 357.334 408.981C356.168 407.678 354.611 406.786 352.897 406.439C350.759 406.025 348.569 405.948 346.406 406.21C344.171 406.48 341.915 406.523 339.671 406.339C337.785 406.16 335.979 405.492 334.43 404.4C333.909 404.006 333.485 403.499 333.189 402.917C332.893 402.335 332.733 401.693 332.721 401.04C332.69 400.573 332.8 400.108 333.037 399.704C333.123 399.704 333.037 400.193 333.037 401.026C333.102 401.603 333.292 402.16 333.595 402.656C333.897 403.152 334.305 403.576 334.789 403.898C336.271 404.836 337.964 405.389 339.715 405.506C341.904 405.636 344.101 405.564 346.277 405.29C348.54 405.024 350.831 405.141 353.055 405.635C354.922 406.061 356.591 407.103 357.794 408.593C358.578 409.593 359.101 410.773 359.316 412.025C359.449 412.463 359.469 412.928 359.373 413.375Z" fill="#AA6550"/>
<path d="M366.467 379.27C366.792 380.816 366.984 382.387 367.042 383.966C367.343 387.197 367.716 391.045 368.133 395.296C368.549 399.546 369.038 403.381 369.397 406.612C369.673 408.166 369.813 409.742 369.813 411.322C369.281 409.831 368.919 408.284 368.736 406.712C368.233 403.84 367.659 399.834 367.2 395.396C366.74 390.959 366.467 386.924 366.367 384.009C366.224 382.431 366.257 380.841 366.467 379.27Z" fill="#AA6550"/>
<path d="M354.606 419.277C354.114 419.204 353.632 419.074 353.17 418.889C352.581 418.654 351.948 418.551 351.315 418.588C350.682 418.625 350.065 418.802 349.508 419.105C349.171 419.335 348.901 419.651 348.725 420.019C348.548 420.387 348.472 420.794 348.503 421.201C348.554 422.231 348.737 423.249 349.049 424.231C349.461 425.462 349.405 426.802 348.891 427.994C348.542 428.613 348.052 429.142 347.461 429.536C346.87 429.93 346.193 430.179 345.487 430.263C344.793 430.334 344.092 430.263 343.425 430.056C342.759 429.849 342.141 429.509 341.61 429.056C340.623 428.25 339.894 427.171 339.513 425.955C339.031 423.973 338.843 421.931 338.953 419.895C338.978 418.518 339.245 417.157 339.743 415.874C339.903 415.386 340.191 414.949 340.576 414.61C340.576 414.61 340.346 415.098 340.088 416.046C339.751 417.325 339.597 418.645 339.628 419.966C339.611 421.904 339.853 423.836 340.346 425.71C340.668 426.784 341.335 427.722 342.243 428.379C343.152 429.036 344.252 429.375 345.372 429.343C345.928 429.276 346.46 429.081 346.928 428.775C347.396 428.469 347.788 428.059 348.072 427.577C348.489 426.583 348.535 425.472 348.201 424.447C347.902 423.385 347.743 422.29 347.727 421.187C347.717 420.662 347.844 420.143 348.096 419.682C348.348 419.221 348.716 418.834 349.163 418.559C349.801 418.233 350.508 418.063 351.224 418.063C351.941 418.063 352.647 418.233 353.285 418.559C354.189 418.932 354.692 419.22 354.606 419.277Z" fill="#AA6550"/>
<path d="M341.94 428.295C341.94 428.295 342.17 428.769 341.94 429.645C341.764 430.26 341.448 430.826 341.017 431.299C340.586 431.773 340.052 432.14 339.456 432.374C338.549 432.679 337.578 432.742 336.639 432.559C335.7 432.375 334.825 431.95 334.1 431.325C332.378 429.79 331.314 427.651 331.127 425.351C330.881 423.088 331.348 420.803 332.463 418.818C333.381 417.215 334.716 415.89 336.326 414.984C337.384 414.368 338.548 413.955 339.758 413.763C340.197 413.658 340.654 413.658 341.093 413.763C339.543 414.156 338.055 414.76 336.67 415.558C335.062 416.574 333.775 418.026 332.959 419.744C332.143 421.462 331.832 423.377 332.061 425.265C332.224 427.33 333.15 429.26 334.66 430.679C335.269 431.229 336.006 431.616 336.805 431.804C337.603 431.992 338.436 431.976 339.226 431.756C339.756 431.577 340.241 431.287 340.649 430.906C341.058 430.524 341.38 430.06 341.596 429.545C341.897 428.784 341.854 428.295 341.94 428.295Z" fill="#AA6550"/>
<path d="M359.933 442.354C360.644 442.05 361.432 441.975 362.188 442.138C364.162 442.344 366.008 443.209 367.429 444.594L366.668 444.91C366.655 443.834 366.717 442.76 366.855 441.693C367.559 435.461 370.488 431.138 370.66 431.296C370.833 431.454 368.463 435.805 367.788 441.808C367.663 442.837 367.591 443.873 367.573 444.91V445.987L366.826 445.226C365.54 443.945 363.908 443.067 362.13 442.698C360.766 442.454 359.933 442.454 359.933 442.354Z" fill="#AA6550"/>
<path d="M355.152 402.146C355.381 402.232 354.649 404.027 352.667 405.133C350.686 406.238 348.79 405.98 348.833 405.736C348.876 405.492 350.499 405.305 352.208 404.3C353.917 403.294 354.907 402.002 355.152 402.146Z" fill="#AA6550"/>
<path d="M459.003 402.131C459.003 402.131 458.472 402.706 457.567 403.811C456.133 405.369 455.003 407.181 454.236 409.153C454.007 409.825 453.881 410.527 453.862 411.236C453.864 411.992 454.051 412.737 454.408 413.404C455.387 414.878 456.85 415.965 458.543 416.477C462.792 417.81 467.231 418.436 471.683 418.329C474.153 418.329 476.824 418.473 479.552 418.631L483.731 419.119C485.167 419.277 486.603 419.665 488.039 419.923C494.272 421.196 500.153 423.813 505.271 427.592C508.06 429.673 510.486 432.201 512.451 435.073C512.945 435.825 513.4 436.602 513.815 437.399C514.232 438.247 514.519 439.065 514.863 439.898C515.504 441.597 515.984 443.352 516.299 445.14C517.744 452.666 516.553 460.46 512.925 467.211C509.176 473.911 503.156 479.05 495.951 481.7C492.566 482.97 488.996 483.678 485.382 483.797C481.936 483.816 478.501 483.401 475.158 482.562C472.074 481.768 468.935 481.206 465.767 480.882C462.839 480.599 459.89 481.12 457.237 482.389C454.798 483.698 452.63 485.457 450.847 487.573C449.052 489.584 447.529 491.695 446.022 493.691C443.049 497.697 439.89 501.23 436.214 503.082C434.529 503.985 432.654 504.477 430.743 504.518C429.146 504.537 427.56 504.244 426.076 503.656C424.892 503.185 423.806 502.499 422.873 501.632C422.203 500.98 421.658 500.211 421.265 499.363C420.929 498.674 420.757 497.917 420.762 497.151C420.863 497.151 420.892 497.941 421.538 499.234C421.964 500.01 422.517 500.709 423.175 501.301C424.092 502.086 425.142 502.699 426.277 503.111C427.828 503.684 429.486 503.913 431.135 503.782C432.784 503.65 434.385 503.162 435.826 502.35C439.272 500.526 442.274 497.094 445.174 493.073C446.61 491.063 448.161 488.909 449.985 486.812C451.828 484.541 454.09 482.645 456.648 481.226C459.493 479.829 462.666 479.233 465.824 479.503C469.063 479.817 472.273 480.369 475.431 481.154C478.663 481.953 481.982 482.344 485.311 482.318C488.748 482.177 492.142 481.489 495.363 480.278C502.228 477.73 507.964 472.823 511.546 466.435C515.007 459.987 516.153 452.546 514.792 445.355C514.46 443.646 513.98 441.969 513.356 440.343C513.011 439.539 512.724 438.706 512.365 437.988C511.989 437.235 511.567 436.507 511.101 435.806C509.247 433.06 506.958 430.634 504.323 428.626C499.371 424.934 493.679 422.357 487.637 421.072C486.201 420.799 484.765 420.412 483.429 420.254L479.322 419.722C476.623 419.536 474.038 419.421 471.525 419.335C466.966 419.374 462.433 418.65 458.113 417.195C456.314 416.571 454.784 415.35 453.776 413.734C453.38 412.957 453.188 412.093 453.216 411.221C453.255 410.45 453.415 409.689 453.69 408.967C454.53 406.949 455.776 405.126 457.352 403.61C457.83 403.042 458.386 402.545 459.003 402.131Z" fill="#FAFAFA"/>
<path d="M568.24 497.884C567.845 496.848 567.613 495.759 567.55 494.653C567.231 491.64 567.43 488.594 568.139 485.649C569.192 481.261 571.09 477.12 573.725 473.457C576.933 468.962 581.035 465.178 585.773 462.343C590.539 459.607 595.719 457.667 601.11 456.599C605.48 455.696 609.93 455.239 614.393 455.234C617.386 455.201 620.378 455.35 623.353 455.68C624.451 455.724 625.538 455.917 626.584 456.254C626.584 456.513 621.917 455.996 614.407 456.254C610.029 456.416 605.674 456.973 601.397 457.92C596.176 459.055 591.162 460.993 586.534 463.664C581.965 466.397 577.986 470.015 574.831 474.305C572.241 477.798 570.323 481.742 569.173 485.936C568.397 488.769 568.044 491.702 568.125 494.638C568.244 495.716 568.283 496.801 568.24 497.884Z" fill="#FAFAFA"/>
<path d="M646.703 522.87C646.265 523.791 645.694 524.643 645.008 525.398C643.299 527.563 641.374 529.55 639.264 531.328C636.12 533.993 632.639 536.233 628.911 537.991C619.714 542.414 609.314 543.671 599.329 541.567C595.287 540.745 591.371 539.393 587.683 537.546C585.201 536.326 582.848 534.859 580.661 533.166C579.813 532.601 579.058 531.908 578.421 531.113C578.593 530.883 581.867 533.741 588.143 536.598C596.285 540.378 605.32 541.811 614.233 540.735C623.145 539.66 631.58 536.118 638.589 530.51C643.974 526.216 646.473 522.655 646.703 522.87Z" fill="#FAFAFA"/>
<path d="M574.572 518.246C574.158 518.475 573.72 518.658 573.266 518.792C572.034 519.292 570.916 520.034 569.977 520.975C568.537 522.505 567.414 524.306 566.674 526.273C565.673 528.898 564.894 531.603 564.348 534.358C563.757 537.749 562.981 541.105 562.022 544.41C561.417 546.291 560.583 548.09 559.537 549.766C558.381 551.527 556.967 553.105 555.344 554.448C551.842 557.235 547.805 559.273 543.483 560.436C539.06 561.757 534.379 562.475 529.669 563.394C520.806 564.854 512.405 568.354 505.127 573.618C502.013 575.953 499.255 578.73 496.942 581.861C494.972 584.624 493.401 587.65 492.275 590.85C490.617 595.504 490.095 600.487 490.753 605.383C491.27 608.843 492.06 610.653 491.902 610.71C491.648 610.306 491.445 609.872 491.299 609.418C491.077 608.885 490.89 608.338 490.739 607.781C490.507 607.027 490.32 606.259 490.179 605.483C489.28 600.483 489.655 595.337 491.27 590.52C492.363 587.187 493.93 584.029 495.923 581.143C498.271 577.877 501.087 574.974 504.28 572.527C511.692 567.06 520.294 563.428 529.381 561.929C534.135 560.996 538.773 560.292 543.066 559.057C547.21 557.969 551.09 556.049 554.468 553.414C555.996 552.182 557.332 550.731 558.432 549.106C559.436 547.534 560.246 545.847 560.844 544.08C561.84 540.808 562.664 537.486 563.314 534.128C563.923 531.319 564.783 528.57 565.884 525.914C566.726 523.882 567.983 522.048 569.575 520.529C570.591 519.576 571.815 518.873 573.151 518.476C573.608 518.32 574.089 518.242 574.572 518.246Z" fill="#FAFAFA"/>
<path d="M536.102 512.258C536.598 513.16 536.855 514.173 536.849 515.202C536.991 518.031 536.182 520.827 534.551 523.143C533.452 524.778 531.974 526.122 530.243 527.063C529.267 527.596 528.217 527.979 527.127 528.198C525.972 528.412 524.792 528.46 523.623 528.341C521.112 528.068 518.726 527.104 516.73 525.556C514.538 523.9 512.969 521.552 512.279 518.892C511.839 517.161 511.814 515.351 512.207 513.608C512.631 511.954 513.415 510.414 514.504 509.099C515.435 507.852 516.489 506.703 517.649 505.667C518.209 505.151 518.82 504.694 519.473 504.303C520.146 503.854 520.922 503.582 521.728 503.513L521.914 504.791L521.211 504.963L520.852 503.728C523.463 502.987 526.248 503.138 528.764 504.159C530.683 504.895 532.397 506.082 533.761 507.62C534.635 508.589 535.326 509.708 535.8 510.923C536.102 511.77 536.174 512.244 536.116 512.258C535.337 510.769 534.372 509.384 533.244 508.137C531.884 506.794 530.24 505.773 528.434 505.15C526.124 504.311 523.604 504.245 521.254 504.963L520.895 503.728L521.598 503.527L521.799 504.82C520.568 505.115 519.45 505.764 518.583 506.686C517.524 507.69 516.563 508.791 515.711 509.975C514.714 511.146 514.018 512.543 513.682 514.045C513.347 515.546 513.383 517.107 513.786 518.591C514.405 520.922 515.772 522.986 517.678 524.464C519.46 525.855 521.582 526.743 523.824 527.035C524.861 527.155 525.91 527.131 526.94 526.963C527.908 526.785 528.846 526.47 529.726 526.029C531.322 525.211 532.704 524.031 533.761 522.583C535.359 520.474 536.257 517.918 536.332 515.274C536.289 513.335 535.958 512.301 536.102 512.258Z" fill="#FAFAFA"/>
<path d="M443.437 465.43C443.462 465.558 443.462 465.69 443.437 465.818C443.437 466.105 443.437 466.478 443.437 466.938C443.437 467.986 443.308 469.437 443.221 471.246C442.992 475.008 442.776 480.451 442.475 487.171C441.915 500.627 441.355 519.208 440.924 539.758C440.493 560.307 440.22 578.903 440.019 592.358C439.919 599.05 439.832 604.478 439.775 608.312C439.775 610.136 439.703 611.586 439.689 612.62C439.689 613.08 439.689 613.453 439.689 613.755C439.708 613.883 439.708 614.014 439.689 614.142C439.667 614.014 439.667 613.883 439.689 613.755C439.689 613.453 439.689 613.08 439.689 612.62C439.689 611.572 439.689 610.122 439.689 608.312V592.373C439.689 578.903 439.933 560.307 440.378 539.743C440.823 519.18 441.441 500.612 442.144 487.157C442.518 480.436 442.819 474.994 443.135 471.246C443.279 469.408 443.394 467.958 443.48 466.938C443.48 466.478 443.566 466.105 443.595 465.804C443.526 465.686 443.473 465.561 443.437 465.43Z" fill="#263238"/>
<g opacity="0.2">
<path opacity="0.2" d="M415.995 598.878C424.008 602.712 434.476 595.345 438.569 587.476C438.569 587.476 440.708 570.1 440.421 561.226C439.861 544.798 441.067 528.528 440.507 512.1C439.249 521.936 435.181 531.2 428.79 538.781C427.023 540.863 425.042 542.931 424.381 545.573C423.204 550.312 426.822 558.828 429.149 563.121C436.329 576.246 420.676 599.021 416.512 598.547" fill="black"/>
</g>
<g opacity="0.2">
<path opacity="0.2" d="M565.956 491.68C568.57 524.421 571.193 557.167 573.826 589.917C573.902 593.02 574.484 596.091 575.549 599.007C576.094 600.463 576.977 601.769 578.125 602.818C579.274 603.866 580.654 604.627 582.154 605.038C586.807 605.986 591.33 601.979 592.637 597.413C593.944 592.846 592.91 587.978 591.761 583.369C589.808 575.514 587.611 567.731 585.4 559.948C578.995 537.355 572.586 514.766 566.172 492.183" fill="black"/>
</g>
<path d="M475.948 659.391C476.94 657.774 477.68 656.017 478.145 654.178C478.949 650.631 478.446 645.145 475.689 639.215C474.34 636.242 472.43 633.155 470.505 629.766C468.305 626.168 466.669 622.255 465.652 618.163C464.794 613.52 465.14 608.734 466.657 604.263C468.093 599.639 470.175 595.144 471.855 590.434C475.227 581.628 475.48 571.933 472.573 562.963C471.322 559.08 469.487 555.409 467.131 552.078C465.051 549.185 462.614 546.565 459.879 544.281C455.874 540.981 451.306 538.432 446.395 536.756C442.905 535.593 440.866 535.32 440.895 535.148C441.377 535.12 441.861 535.163 442.331 535.277C443.746 535.482 445.142 535.794 446.51 536.211C451.587 537.679 456.332 540.117 460.482 543.391C463.347 545.676 465.901 548.326 468.079 551.274C470.553 554.688 472.49 558.461 473.823 562.461C476.901 571.717 476.678 581.754 473.191 590.865C471.467 595.661 469.371 600.127 467.992 604.622C466.521 608.853 466.155 613.391 466.93 617.804C467.874 621.779 469.424 625.586 471.525 629.091C473.377 632.494 475.259 635.625 476.594 638.712C479.294 644.873 479.667 650.602 478.633 654.25C478.25 655.644 477.654 656.971 476.867 658.184C476.336 659.046 475.991 659.419 475.948 659.391Z" fill="#FAFAFA"/>
<path d="M610.76 423.154C610.481 424.199 609.992 425.177 609.324 426.026C607.69 428.458 605.568 430.522 603.091 432.086C599.4 434.415 595.194 435.805 590.842 436.136C585.549 436.495 580.237 435.817 575.204 434.14C570.075 432.648 565.387 429.927 561.548 426.213C559.899 424.544 558.553 422.6 557.57 420.469C556.738 418.603 556.214 416.615 556.019 414.581C555.692 411.637 556.252 408.661 557.628 406.037C557.838 405.632 558.078 405.243 558.346 404.874C558.528 404.59 558.74 404.325 558.977 404.084C559.336 403.697 559.552 403.495 559.595 403.539C559.638 403.582 558.949 404.486 558.159 406.296C557.067 408.872 556.699 411.697 557.096 414.467C557.34 416.368 557.883 418.22 558.705 419.952C559.683 421.921 560.983 423.712 562.553 425.251C566.269 428.745 570.763 431.305 575.664 432.718C580.521 434.343 585.641 435.04 590.756 434.772C594.913 434.527 598.953 433.302 602.546 431.196C604.968 429.768 607.11 427.909 608.864 425.71C609.451 424.826 610.084 423.973 610.76 423.154Z" fill="#FAFAFA"/>
<path d="M591.101 577.625C591.101 577.625 591.029 577.496 590.943 577.223C590.857 576.95 590.727 576.519 590.569 576.017C590.253 574.911 589.794 573.36 589.205 571.378L584.323 554.247C580.245 539.729 574.644 519.783 568.527 497.668C565.454 486.611 562.539 476.128 559.911 466.493C558.584 461.961 557.562 457.346 556.852 452.678C556.249 448.589 556.249 444.433 556.852 440.343C557.708 434.363 560.575 428.853 564.98 424.72C566.205 423.648 567.56 422.736 569.015 422.006L570.178 421.517C570.304 421.448 570.439 421.399 570.58 421.374C568.615 422.296 566.792 423.495 565.167 424.935C560.909 429.082 558.169 434.538 557.383 440.429C556.833 444.468 556.876 448.566 557.513 452.592C558.242 457.227 559.278 461.809 560.614 466.306C563.285 475.899 566.229 486.41 569.317 497.467C575.42 519.567 580.948 539.571 584.955 554.103C586.922 561.283 588.502 567.185 589.622 571.335C590.139 573.331 590.555 574.911 590.842 576.031C590.971 576.533 591.072 576.936 591.144 577.252C591.144 577.377 591.13 577.503 591.101 577.625Z" fill="#263238"/>
<path d="M532.612 259.623C532.73 258.602 532.73 257.571 532.612 256.55C532.176 253.765 530.773 251.223 528.649 249.37C525.454 246.67 521.335 245.316 517.161 245.593C512.465 245.593 507.468 247.173 502.298 248.91C499.714 249.757 497.143 250.576 494.616 251.136C492.176 251.675 489.69 251.978 487.192 252.041C482.958 252.151 478.733 251.599 474.67 250.404C471.947 249.583 469.322 248.466 466.844 247.072C466.165 246.708 465.509 246.305 464.876 245.866C464.642 245.73 464.425 245.566 464.23 245.378C464.23 245.378 465.207 245.923 466.987 246.814C469.492 248.093 472.119 249.117 474.828 249.872C478.842 250.978 483.002 251.462 487.163 251.308C489.618 251.226 492.06 250.918 494.458 250.389C496.942 249.829 499.47 248.953 502.069 248.163C507.224 246.426 512.322 244.861 517.147 244.861C521.463 244.624 525.701 246.088 528.951 248.939C531.114 250.879 532.502 253.536 532.856 256.42C533.027 257.492 532.943 258.589 532.612 259.623Z" fill="#455A64"/>
<path d="M552.372 302.545C552.372 302.545 552.228 302.372 552.027 302.013C551.826 301.654 551.568 301.109 551.237 300.391C550.354 298.363 549.68 296.251 549.227 294.087C548.538 290.861 548.315 287.553 548.566 284.264C549.047 280.282 549.805 276.338 550.835 272.461C551.835 268.638 551.835 264.623 550.835 260.8C550.358 259.162 549.53 257.648 548.408 256.363C547.408 255.279 546.155 254.461 544.761 253.979C542.729 253.208 540.476 253.265 538.486 254.137C537.793 254.522 537.143 254.979 536.547 255.501C537 254.813 537.623 254.254 538.356 253.879C539.37 253.375 540.474 253.08 541.604 253.011C542.734 252.942 543.866 253.1 544.933 253.477C546.43 253.959 547.783 254.808 548.868 255.947C550.068 257.285 550.965 258.867 551.496 260.585C552.539 264.528 552.539 268.675 551.496 272.618C550.472 276.465 549.7 280.375 549.184 284.322C548.912 287.546 549.077 290.792 549.672 293.972C550.077 296.12 550.668 298.23 551.438 300.276C552.056 301.726 552.429 302.516 552.372 302.545Z" fill="#455A64"/>
<path d="M535.054 257.569C535.022 257.23 535.022 256.889 535.054 256.55C535.054 255.817 535.054 254.855 535.168 253.678C535.328 250.12 534.931 246.558 533.991 243.123C533.286 240.789 532.135 238.614 530.602 236.718C528.867 234.537 526.483 232.963 523.795 232.224C520.787 231.526 517.646 231.655 514.705 232.597C511.521 233.602 508.469 234.985 505.616 236.718C502.72 238.466 499.707 240.011 496.598 241.342C493.633 242.5 490.489 243.132 487.307 243.209C484.438 243.282 481.573 242.933 478.805 242.175C476.408 241.479 474.096 240.516 471.913 239.303C468.765 237.525 465.99 235.156 463.742 232.324C463.123 231.566 462.566 230.759 462.076 229.912C461.884 229.632 461.72 229.334 461.588 229.021C461.822 229.266 462.03 229.536 462.205 229.826C462.735 230.636 463.32 231.409 463.957 232.138C466.261 234.848 469.04 237.115 472.157 238.829C474.318 239.983 476.601 240.893 478.963 241.543C481.68 242.256 484.485 242.575 487.292 242.491C490.387 242.398 493.443 241.771 496.325 240.639C499.398 239.305 502.377 237.765 505.242 236.029C508.152 234.277 511.262 232.879 514.504 231.865C517.571 230.901 520.84 230.782 523.968 231.52C526.788 232.311 529.28 233.988 531.076 236.302C532.648 238.268 533.81 240.528 534.494 242.951C535.415 246.437 535.741 250.054 535.456 253.649C535.384 254.927 535.283 255.903 535.197 256.521C535.194 256.875 535.146 257.227 535.054 257.569Z" fill="#455A64"/>
<path d="M497.129 616.641L604.556 600.629L602.833 591.066H660.56L662.24 605.77C663.471 612.161 663.283 618.745 661.689 625.055C660.094 631.365 657.132 637.247 653.013 642.286C648.893 647.325 643.717 651.397 637.849 654.213C631.982 657.03 625.568 658.523 619.06 658.587L493.812 657.151L497.129 616.641Z" fill="#B78876"/>
<path d="M504.883 618.493C504.309 618.68 497.071 615.435 490.595 612.433C483.719 609.238 476.169 607.759 468.596 608.125L438.741 609.648C438.741 609.648 440.579 614.573 443.753 616.325C446.926 618.077 465.479 618.45 465.479 618.45L464.517 619.427C460.61 623.455 455.279 625.79 449.669 625.932L446.797 626.004C444.68 625.836 442.589 625.426 440.565 624.783L433.198 621.811C430.972 620.805 428.617 620.963 427.641 623.247C426.765 625.271 427.411 628.072 433.5 631.13C436.889 632.839 449.497 637.204 449.497 637.204C449.578 638.994 449.824 640.773 450.229 642.518C450.775 644.356 455.729 646.179 455.729 646.179C457.014 648.908 458.482 651.547 460.123 654.077C460.698 654.724 465.192 656.117 469.96 657.466C477.66 659.631 485.816 659.567 493.481 657.28L504.869 653.891V619.24" fill="#B78876"/>
<path d="M464.029 641.125C458.769 640.987 453.612 639.63 448.965 637.161C449.052 636.96 452.311 638.224 456.461 639.301C460.611 640.378 464.058 640.909 464.029 641.125Z" fill="#AA6550"/>
<path d="M462.981 648.118C461.583 648.42 460.128 648.316 458.788 647.817C457.378 647.561 456.07 646.914 455.011 645.95C456.363 646.236 457.692 646.62 458.989 647.099C460.342 647.343 461.676 647.684 462.981 648.118Z" fill="#AA6550"/>
<path d="M632.888 625.673C632.745 625.673 632.041 623.591 630.318 620.446C629.308 618.607 628.156 616.85 626.871 615.191C625.3 613.163 623.555 611.275 621.659 609.547C619.733 607.849 617.668 606.317 615.484 604.966C613.697 603.869 611.83 602.909 609.898 602.094C606.581 600.73 604.384 600.242 604.427 600.098C604.959 600.141 605.485 600.247 605.992 600.414C606.595 600.533 607.19 600.691 607.773 600.888C608.462 601.103 609.209 601.319 610.099 601.664C612.09 602.414 614.012 603.337 615.843 604.421C618.086 605.76 620.201 607.303 622.161 609.03C624.085 610.785 625.848 612.707 627.431 614.774C628.702 616.483 629.821 618.299 630.777 620.202C631.223 620.992 631.51 621.767 631.811 622.428C632.064 622.988 632.28 623.563 632.457 624.151C632.664 624.639 632.808 625.15 632.888 625.673Z" fill="#AA6550"/>
<path d="M468.438 615.808C467.778 616.72 467.006 617.545 466.14 618.264C464.156 620.136 461.975 621.788 459.635 623.189C457.265 624.569 454.691 625.562 452.01 626.133C450.916 626.43 449.782 626.552 448.649 626.492C448.578 626.219 453.819 625.745 459.247 622.543C461.548 621.162 463.733 619.596 465.781 617.862C466.598 617.093 467.488 616.405 468.438 615.808Z" fill="#AA6550"/>
<path d="M159.511 581.746C162.067 581.746 139.953 641.168 134.252 656.346C133.62 658.026 133.189 659.505 133.189 659.505L288.019 659.764L286.195 515.69C286.201 515.594 286.201 515.499 286.195 515.403L273.271 412.356C273.207 411.856 272.997 411.387 272.668 411.006C272.338 410.625 271.904 410.35 271.418 410.216C265.287 408.565 243.187 402.864 226.285 402.232C206.482 401.499 177.82 405.434 177.82 405.434C177.82 405.434 152.072 407.99 137.856 413.16C137.306 413.356 136.842 413.736 136.541 414.236C136.24 414.736 136.121 415.325 136.205 415.902L159.511 581.746Z" fill="#FF725E"/>
<path d="M231.009 517.844C230.812 518.495 230.552 519.125 230.234 519.725C229.918 520.453 229.553 521.158 229.143 521.836C228.646 522.76 228.1 523.657 227.505 524.522C226.809 525.593 226.051 526.624 225.237 527.609C224.341 528.758 223.383 529.856 222.365 530.897C219.999 533.28 217.401 535.421 214.61 537.288C211.778 539.097 208.777 540.626 205.65 541.854C204.214 542.357 202.778 542.874 201.471 543.204C200.243 543.552 198.997 543.83 197.737 544.037C196.707 544.235 195.667 544.379 194.621 544.468C193.831 544.576 193.035 544.629 192.237 544.626C191.564 544.7 190.885 544.7 190.213 544.626C190.213 544.468 193.085 544.482 197.637 543.563C198.872 543.319 200.094 543.013 201.298 542.644C202.62 542.299 203.969 541.768 205.391 541.208C208.461 539.968 211.408 538.444 214.194 536.656C216.947 534.822 219.519 532.73 221.876 530.409C222.925 529.303 223.959 528.284 224.748 527.207C225.573 526.254 226.345 525.257 227.06 524.22C229.76 520.443 230.866 517.772 231.009 517.844Z" fill="#263238"/>
<g opacity="0.2">
<path opacity="0.2" d="M138.445 645.074C145.701 648.048 153.601 649.099 161.382 648.125C169.163 647.152 176.561 644.186 182.86 639.516C188.446 635.467 193.128 630.168 199.159 626.793C207.516 622.141 217.468 621.696 227.017 621.049C239.783 620.13 252.664 618.565 264.669 614.114C267.174 613.382 269.445 612.011 271.26 610.136C272.912 608.14 273.472 604.995 271.849 602.956C270.226 600.917 267.139 600.773 264.482 600.859C224.447 602.037 187.858 605.239 148.884 614.501" fill="black"/>
</g>
<path d="M181.597 253.993C193.975 241.385 213.504 233.889 229.674 241.069C240.559 245.837 247.94 256.047 257.489 263.098C264.439 268.239 273.027 272.216 276.674 280.057C279.891 286.964 278.34 295.02 277.564 302.602C276.789 310.184 277.335 318.929 283.208 323.797C286.281 326.339 290.388 327.359 293.82 329.34C300.813 333.347 304.963 341.144 306.457 349.057C307.95 356.969 307.146 365.125 306.342 373.153L273.012 379.5L267.541 370.295L265.66 384.727L223.126 388.561L181.597 253.993Z" fill="#263238"/>
<path d="M176.097 267.75V277.012L173.469 416.032C173.239 432.144 188.662 445.857 205.922 445.972C223.341 446.087 230.449 433.048 230.952 416.721C231.469 399.647 232.388 381.668 232.388 381.668C232.388 381.668 254.488 378.624 259.844 350.076C262.501 335.86 262.429 312.439 261.754 293.268C261.611 289.177 260.642 285.158 258.906 281.451C257.169 277.745 254.7 274.428 251.648 271.701C248.596 268.974 245.024 266.892 241.146 265.581C237.269 264.27 233.166 263.758 229.085 264.074L176.097 267.75Z" fill="#FFBE9D"/>
<path d="M254.057 311.692C254.042 312.651 253.652 313.565 252.97 314.239C252.288 314.913 251.368 315.293 250.41 315.296C249.941 315.321 249.471 315.252 249.029 315.093C248.587 314.934 248.182 314.688 247.836 314.369C247.491 314.051 247.213 313.666 247.019 313.238C246.824 312.811 246.718 312.348 246.705 311.879C246.723 310.92 247.115 310.006 247.795 309.33C248.476 308.655 249.393 308.271 250.352 308.26C250.823 308.235 251.293 308.304 251.736 308.464C252.179 308.625 252.585 308.872 252.931 309.192C253.276 309.512 253.554 309.898 253.747 310.328C253.941 310.757 254.046 311.221 254.057 311.692Z" fill="#263238"/>
<path d="M256.225 305.259C255.752 305.733 253.023 303.579 249.045 303.492C245.068 303.406 242.124 305.287 241.708 304.785C241.506 304.569 241.995 303.722 243.287 302.832C245.03 301.683 247.089 301.11 249.175 301.195C251.256 301.229 253.27 301.934 254.919 303.205C256.067 304.167 256.455 305.043 256.225 305.259Z" fill="#263238"/>
<path d="M215.027 311.692C215.008 312.649 214.616 313.562 213.935 314.235C213.254 314.908 212.337 315.289 211.379 315.296C210.91 315.321 210.441 315.252 209.999 315.093C209.557 314.934 209.151 314.688 208.806 314.369C208.46 314.051 208.182 313.666 207.988 313.238C207.794 312.811 207.687 312.348 207.674 311.879C207.693 310.92 208.084 310.006 208.765 309.33C209.446 308.655 210.363 308.271 211.322 308.26C211.792 308.235 212.263 308.304 212.706 308.464C213.149 308.625 213.555 308.872 213.9 309.192C214.246 309.512 214.524 309.898 214.717 310.328C214.91 310.757 215.016 311.221 215.027 311.692Z" fill="#263238"/>
<path d="M217.252 304.928C216.779 305.388 214.05 303.248 210.072 303.148C206.095 303.047 203.151 304.957 202.734 304.454C202.533 304.239 203.022 303.377 204.314 302.502C206.058 301.353 208.115 300.776 210.202 300.85C212.282 300.888 214.296 301.593 215.946 302.861C217.095 303.837 217.482 304.713 217.252 304.928Z" fill="#263238"/>
<path d="M230.823 334.754C230.823 334.524 233.293 334.165 237.285 333.763C238.304 333.692 239.266 333.519 239.453 332.83C239.571 331.788 239.365 330.735 238.864 329.814C237.988 327.33 237.055 324.745 236.078 322.017C232.23 310.945 229.473 301.913 229.918 301.683C230.363 301.453 233.853 310.4 237.701 321.485C238.634 324.214 239.525 326.813 240.358 329.312C240.969 330.545 241.116 331.956 240.774 333.289C240.618 333.644 240.383 333.957 240.087 334.206C239.791 334.455 239.441 334.633 239.065 334.725C238.502 334.865 237.922 334.928 237.342 334.912C233.321 334.984 230.837 334.926 230.823 334.754Z" fill="#263238"/>
<path d="M232.273 381.668C218.747 381.505 205.533 377.588 194.104 370.353C194.104 370.353 202.878 390.327 231.699 388.432L232.273 381.668Z" fill="#EB996E"/>
<path d="M228.884 344.203C228.158 343.227 227.196 342.452 226.089 341.949C224.981 341.447 223.764 341.234 222.551 341.331C221.675 341.387 220.819 341.62 220.034 342.015C219.249 342.409 218.552 342.958 217.985 343.629C217.44 344.275 217.105 345.072 217.025 345.914C216.946 346.756 217.125 347.602 217.54 348.339C218.162 349.063 218.986 349.586 219.906 349.841C220.827 350.097 221.802 350.074 222.709 349.775C224.593 349.161 226.34 348.185 227.85 346.903C228.309 346.599 228.704 346.209 229.013 345.754C229.153 345.541 229.228 345.291 229.228 345.036C229.228 344.781 229.153 344.531 229.013 344.318" fill="#EB996E"/>
<path d="M219.091 337.123C219.737 337.123 219.622 341.431 223.212 344.562C226.802 347.692 231.411 347.362 231.426 347.965C231.426 348.238 230.377 348.784 228.439 348.769C225.92 348.742 223.492 347.821 221.589 346.17C219.758 344.591 218.614 342.361 218.401 339.952C218.272 338.143 218.789 337.095 219.091 337.123Z" fill="#263238"/>
<path d="M218.516 293.397C218.085 294.46 214.208 293.842 209.484 294.273C204.759 294.704 201.026 295.867 200.437 294.891C200.178 294.417 200.853 293.455 202.404 292.421C204.464 291.201 206.773 290.464 209.159 290.268C211.545 290.071 213.944 290.42 216.175 291.286C217.856 292.019 218.688 292.895 218.516 293.397Z" fill="#263238"/>
<path d="M256.369 297.26C255.493 298.136 252.205 297.102 248.198 296.944C244.192 296.786 240.817 297.346 240.056 296.384C239.726 295.925 240.286 295.034 241.794 294.23C243.866 293.218 246.17 292.772 248.471 292.938C250.763 293.013 252.993 293.697 254.933 294.919C256.312 295.882 256.757 296.829 256.369 297.26Z" fill="#263238"/>
<path d="M146.472 410.532C146.472 410.532 100.29 421.359 91.3296 465.1C87.2083 485.204 81.4499 600.759 108.361 618.752C143.097 641.929 187.341 620.848 187.341 620.848L181.597 564.959H152.877L149.014 503.728C150.134 508.51 146.472 410.532 146.472 410.532Z" fill="#FF725E"/>
<path d="M310.75 602.87C319.809 601.941 328.171 597.587 334.126 590.697C340.081 583.808 343.179 574.904 342.788 565.807L323.919 485.635C323.919 485.635 311.684 416.85 273.012 410.647L286.195 515.475L284.931 537.575C284.931 537.575 285.534 552.193 287.013 579.592L310.75 602.87Z" fill="#FF725E"/>
<path d="M315.748 552.71C313.416 552.796 311.093 553.05 308.797 553.471C303.256 554.597 298.179 557.358 294.222 561.397C290.265 565.436 287.609 570.568 286.597 576.131C286.222 578.44 286.015 580.772 285.979 583.11C285.828 582.49 285.756 581.853 285.764 581.215C285.687 579.481 285.793 577.743 286.08 576.031C286.998 570.317 289.674 565.031 293.735 560.908C297.796 556.785 303.041 554.03 308.74 553.026C310.449 552.711 312.186 552.567 313.924 552.595C314.534 552.559 315.147 552.598 315.748 552.71Z" fill="#263238"/>
<path d="M196.603 250.791C201.801 257.77 204.271 263.126 207.387 275.548C208.924 281.622 203.969 285.916 199.058 289.635C198.53 290.036 197.91 290.298 197.254 290.396C196.598 290.495 195.928 290.426 195.306 290.197C194.683 289.968 194.129 289.586 193.693 289.086C193.257 288.587 192.954 287.985 192.812 287.337C192.812 287.337 194.506 306.364 187.628 314.894C184.411 318.901 184.268 324.027 185.029 328.35C185.892 332.746 188.029 336.791 191.175 339.981C199.159 348.367 201.37 362.053 195.87 372.334C194.277 374.861 192.815 377.468 191.491 380.146C190.821 381.744 190.512 383.47 190.586 385.201C190.67 386.217 190.366 387.226 189.734 388.026C189.102 388.826 188.19 389.356 187.183 389.509C163.551 392.927 139.607 393.645 115.813 391.648C114.995 391.583 114.218 391.262 113.592 390.731C112.966 390.2 112.523 389.487 112.324 388.69C110.457 380.706 113.573 372.09 117.551 364.91C122.003 356.797 127.603 349.014 129.197 339.895C130.633 331.279 128.292 322.06 131.739 314.047C136.047 304.239 147.535 299.601 153.279 290.597C158.721 282.11 158.276 270.981 163.144 262.164C169.405 250.82 184.784 245.593 196.646 250.777" fill="#263238"/>
<path d="M197.924 261.317C206.956 265.97 211.135 277.012 219.909 282.125C227.893 286.777 237.859 285.557 247.006 284.178C246.676 282.153 246.331 280.114 245.987 278.089C246.81 279.922 247.958 281.591 249.376 283.015C250.096 283.718 250.993 284.212 251.972 284.444C252.95 284.677 253.974 284.639 254.933 284.336C258.006 283.101 258.408 278.879 257.633 275.72C256.229 270.578 253.471 265.907 249.649 262.193C242.818 255.261 233.721 251.019 224.02 250.244C214.319 249.469 204.663 252.212 196.818 257.971" fill="#263238"/>
<path d="M282.605 465.732C282.671 466.106 282.7 466.486 282.691 466.866C282.691 467.67 282.691 468.747 282.791 470.097C282.791 472.969 282.993 476.976 283.208 481.987C283.624 492.039 284.558 505.882 285.692 521.176C286.827 536.469 287.674 550.341 287.947 560.393C288.09 565.419 288.162 569.483 288.119 572.297C288.119 573.647 288.119 574.724 288.119 575.528C288.153 575.906 288.153 576.285 288.119 576.663C288.053 576.288 288.024 575.908 288.033 575.528C288.033 574.724 288.033 573.647 287.932 572.297C287.932 569.425 287.731 565.433 287.516 560.407C287.114 550.355 286.166 536.527 285.046 521.219C283.926 505.911 283.05 492.068 282.777 482.016C282.634 476.99 282.576 472.912 282.605 470.097C282.605 468.747 282.605 467.67 282.605 466.866C282.58 466.488 282.58 466.109 282.605 465.732Z" fill="#263238"/>
<path d="M152.92 564.974C152.854 564.71 152.82 564.441 152.819 564.169C152.819 563.552 152.733 562.733 152.661 561.857C152.546 559.747 152.388 556.889 152.202 553.385C151.785 546.205 151.153 536.34 150.407 525.412C149.66 514.484 148.971 504.705 148.468 497.453C148.238 493.963 148.052 491.091 147.908 488.98C147.908 488.047 147.822 487.286 147.793 486.683C147.759 486.411 147.759 486.136 147.793 485.864C147.863 486.127 147.907 486.397 147.922 486.669C147.922 487.272 148.08 488.033 148.181 488.966C148.382 491.063 148.655 493.92 148.985 497.424C149.617 504.604 150.421 514.441 151.139 525.369C151.857 536.297 152.431 546.191 152.704 553.356C152.833 556.946 152.934 559.847 152.948 561.843V564.155C152.976 564.428 152.966 564.703 152.92 564.974Z" fill="#263238"/>
<path d="M152.92 564.974C152.92 565.103 151.484 565.175 149.157 565.936C146.214 566.91 143.599 568.683 141.603 571.056C139.608 573.429 138.311 576.31 137.856 579.377C137.497 581.732 137.684 583.225 137.554 583.239C137.425 583.254 137.411 582.88 137.325 582.206C137.218 581.251 137.218 580.288 137.325 579.334C137.661 576.114 138.951 573.069 141.03 570.588C143.132 568.133 145.908 566.346 149.014 565.447C149.952 565.185 150.914 565.022 151.886 564.959C152.546 564.887 152.92 564.916 152.92 564.974Z" fill="#263238"/>
<path d="M187.269 620.863C187.178 620.573 187.12 620.275 187.096 619.972C187.01 619.312 186.91 618.465 186.766 617.416C186.508 615.104 186.149 611.931 185.704 608.025C184.856 600.012 183.707 589.084 182.444 577.022C182.027 572.828 181.611 568.765 181.238 565.002L181.597 565.333L158.621 565.189L151.943 565.088H150.163C149.957 565.113 149.75 565.113 149.545 565.088C149.746 565.035 149.954 565.01 150.163 565.017H151.943L158.621 564.916L181.597 564.787H181.912V565.117L183.147 577.122C184.325 589.199 185.388 600.098 186.177 608.168C186.522 612.074 186.809 615.262 187.01 617.574C187.096 618.623 187.154 619.484 187.211 620.145C187.25 620.382 187.27 620.622 187.269 620.863Z" fill="#263238"/>
<path d="M187.269 620.863C186.914 621.015 186.549 621.144 186.177 621.251L183.033 622.256C180.29 623.117 176.312 624.324 171.344 625.645C165.528 627.234 159.619 628.462 153.652 629.321C146.297 630.316 138.822 629.96 131.595 628.273C127.85 627.464 124.157 626.428 120.538 625.171C118.8 624.539 117.091 623.907 115.44 623.218C114.622 622.873 113.803 622.543 113.028 622.127L111.85 621.538L110.744 620.834C108.045 619.008 105.699 616.707 103.823 614.042C102.172 611.749 100.73 609.312 99.5148 606.761C97.8084 603.073 96.3687 599.268 95.2068 595.374C94.776 593.938 94.4601 592.933 94.2734 592.2C94.1563 591.829 94.0651 591.45 94.0005 591.066C94.1722 591.416 94.3116 591.781 94.417 592.157L95.4796 595.288C96.7537 599.123 98.2693 602.874 100.017 606.517C101.242 609.031 102.683 611.434 104.325 613.697C106.179 616.282 108.485 618.511 111.132 620.274L112.195 620.949L113.329 621.523C114.076 621.926 114.894 622.241 115.713 622.586C117.35 623.261 119.044 623.893 120.782 624.496C124.373 625.742 128.037 626.768 131.753 627.569C138.899 629.238 146.287 629.612 153.566 628.675C159.511 627.847 165.404 626.677 171.214 625.171C176.183 623.907 180.175 622.773 182.946 622.012L186.134 621.136C186.502 621.006 186.882 620.915 187.269 620.863Z" fill="#263238"/>
<path d="M162.9 284.81C164.279 281.421 164.616 277.697 163.866 274.115C163.117 270.534 161.315 267.258 158.692 264.706C155.997 262.242 152.696 260.537 149.126 259.765C145.556 258.993 141.846 259.182 138.373 260.312C135.21 261.264 132.429 263.195 130.432 265.826C126.914 270.68 127.56 277.831 131.236 282.613C133.159 284.927 135.554 286.805 138.261 288.119C140.967 289.434 143.923 290.157 146.932 290.238C152.959 290.358 158.937 289.122 164.422 286.619" fill="#263238"/>
<path d="M210.647 512.56C220.699 520.845 244.335 540.461 244.335 540.461L257.561 538.106L217.468 504.374C216.429 503.505 215.098 503.064 213.745 503.142C212.393 503.219 211.12 503.809 210.187 504.791C209.681 505.318 209.289 505.944 209.036 506.63C208.783 507.315 208.675 508.046 208.718 508.776C208.761 509.505 208.955 510.218 209.287 510.869C209.619 511.521 210.082 512.096 210.647 512.56Z" fill="#455A64"/>
<path d="M209.656 508.252L204.458 503.556C203.969 503.112 203.67 502.497 203.625 501.839C203.579 501.18 203.79 500.53 204.214 500.023C204.436 499.763 204.708 499.551 205.014 499.398C205.321 499.245 205.654 499.155 205.996 499.134C206.337 499.112 206.68 499.16 207.003 499.273C207.325 499.386 207.622 499.563 207.875 499.794L212.887 504.389L209.656 508.252Z" fill="#455A64"/>
<path d="M225.079 510.779C224.198 512.245 223.11 513.575 221.848 514.728C220.76 516.046 219.494 517.206 218.085 518.174C218.967 516.706 220.055 515.371 221.316 514.211C222.397 512.89 223.664 511.734 225.079 510.779Z" fill="#263238"/>
<path d="M225.452 527.293C224.037 526.55 222.696 525.675 221.446 524.679C219.062 522.956 215.831 520.458 212.427 517.499C210.685 516.201 209.244 514.54 208.206 512.631C207.471 510.96 207.424 509.066 208.076 507.361C208.512 506.229 209.247 505.237 210.202 504.489C210.877 503.987 211.322 503.829 211.336 503.872C211.35 503.915 210.977 504.159 210.388 504.719C209.554 505.509 208.932 506.497 208.579 507.591C208.046 509.168 208.139 510.89 208.837 512.402C209.874 514.192 211.267 515.752 212.93 516.982C216.305 519.926 219.464 522.482 221.776 524.306C223.062 525.224 224.29 526.222 225.452 527.293Z" fill="#263238"/>
<path d="M182.042 569.44C191.577 566.252 201.686 568.406 211.207 565.203C214.476 564.344 217.538 562.835 220.211 560.766C223.241 558.081 224.777 554.132 227.19 550.886C234.37 541.179 247.854 539.169 259.887 537.962C262.678 537.513 265.525 537.552 268.302 538.077C269.69 538.357 270.983 538.991 272.055 539.916C273.126 540.842 273.941 542.029 274.42 543.362C275.195 546.076 273.443 549.465 270.629 549.752C273.271 549.867 275.109 552.538 275.597 555.137C276.085 557.736 275.597 560.407 275.999 563.021C276.487 566.697 278.498 570.129 278.383 573.834C278.225 578.903 274.075 583.082 269.336 585.035C264.597 586.987 259.471 587.246 254.459 587.907C229.76 591.382 211.092 605.383 187.269 615.966" fill="#FFBE9D"/>
<path d="M275.827 558.512C276.07 558.908 276.391 559.25 276.772 559.516C277.152 559.783 277.583 559.968 278.038 560.061C278.494 560.154 278.963 560.152 279.418 560.056C279.872 559.96 280.302 559.772 280.681 559.502C281.418 558.916 281.981 558.139 282.31 557.256C282.639 556.373 282.721 555.417 282.547 554.491C282.172 552.638 281.354 550.904 280.164 549.436C278.066 546.721 275.761 544.171 273.271 541.811L265.66 548.215L275.827 558.512Z" fill="#FFBE9D"/>
<path d="M273.012 550.154C273.012 550.398 268.331 550.01 262.687 550.886C257.044 551.762 252.635 553.457 252.635 553.241C253.495 552.675 254.434 552.239 255.421 551.949C257.753 551.122 260.157 550.516 262.601 550.14C265.048 549.769 267.525 549.639 269.997 549.752C271.016 549.739 272.032 549.875 273.012 550.154Z" fill="#EB996E"/>
<path d="M276.373 565.117C276.373 565.347 272.452 564.543 267.613 564.686C262.774 564.83 258.925 565.778 258.882 565.548C264.519 563.551 270.645 563.4 276.373 565.117Z" fill="#EB996E"/>
<path d="M275.568 560.694C275.439 560.694 275.568 559.574 275.353 557.822C275.077 555.549 274.286 553.368 273.041 551.446C272.742 550.982 272.416 550.536 272.065 550.111L271.849 549.838L272.079 549.608C272.734 548.943 273.249 548.153 273.591 547.284C273.934 546.416 274.099 545.487 274.075 544.554C274.075 543.118 273.644 542.314 273.745 542.271C274.258 542.911 274.541 543.705 274.549 544.525C274.659 545.547 274.541 546.581 274.203 547.552C273.865 548.523 273.316 549.407 272.596 550.14V549.637C272.973 550.095 273.323 550.575 273.644 551.073C274.956 553.092 275.718 555.419 275.856 557.822C275.969 558.789 275.871 559.769 275.568 560.694Z" fill="#EB996E"/>
<path d="M275.841 557.693L288.363 569.44L289.957 576.419L278.383 573.805C276.717 567.917 275.497 562.303 275.841 557.693Z" fill="#455A64"/>
<path d="M258.882 572.656C258.624 573.116 191.275 606.316 191.275 606.316V613.496L260.002 577.74L345.258 574.566V569.511L258.882 572.656Z" fill="#F5F5F5"/>
<path d="M191.275 614.487C191.749 614.171 265.631 607.508 265.631 607.508L345.258 574.48L260.002 577.697L191.275 613.453V614.487Z" fill="#263238"/>
<path d="M262.013 596.81C261.424 592.933 265.129 589.63 268.905 588.581C272.682 587.533 276.717 587.964 280.537 587.145C282.961 586.479 285.332 585.635 287.631 584.618C299.406 580.109 312.33 579.865 324.967 579.693C325.701 581.404 325.816 583.318 325.292 585.106C324.768 586.893 323.637 588.442 322.095 589.486C323.139 592.575 323 595.942 321.707 598.935C320.405 601.9 318.624 604.631 316.437 607.02C314.786 609.206 312.66 610.988 310.219 612.232C307.666 613.168 304.952 613.588 302.235 613.467C293.763 613.64 284.687 613.654 277.694 608.901C272.251 605.196 268.489 598.849 262.185 596.982H263.621" fill="#FFBE9D"/>
<path d="M318.447 592.114C317.92 592.233 317.38 592.286 316.839 592.272L312.416 592.416C308.683 592.502 303.527 592.559 297.841 592.588H289.799C288.596 592.605 287.398 592.426 286.252 592.057C285.229 591.695 284.336 591.041 283.682 590.175C283.407 589.817 283.208 589.408 283.094 588.971C282.981 588.535 282.956 588.08 283.021 587.634C283.129 586.967 283.44 586.35 283.912 585.867C284.087 585.66 284.308 585.496 284.557 585.386C284.806 585.277 285.076 585.225 285.348 585.236C284.857 585.406 284.413 585.692 284.055 586.068C283.595 586.593 283.341 587.266 283.341 587.964C283.341 588.662 283.595 589.335 284.055 589.859C284.663 590.611 285.476 591.169 286.396 591.468C287.486 591.787 288.62 591.932 289.756 591.899H297.783C303.527 591.899 308.625 591.899 312.359 591.899L316.782 591.985C317.34 591.954 317.9 591.998 318.447 592.114Z" fill="#EB996E"/>
<path d="M314.111 599.208C313.449 599.397 312.771 599.526 312.086 599.596C310.765 599.811 308.855 600.084 306.486 600.314C303.694 600.594 300.886 600.656 298.085 600.5C294.664 600.222 291.272 599.655 287.947 598.806C281.943 597.341 275.789 596.584 269.609 596.551C267.24 596.551 265.301 596.637 263.994 596.709C263.302 596.769 262.605 596.769 261.912 596.709C262.584 596.528 263.271 596.412 263.966 596.365C265.834 596.134 267.713 596 269.595 595.963C275.828 595.833 282.051 596.524 288.105 598.016C291.405 598.857 294.766 599.443 298.157 599.768C300.925 599.957 303.703 599.957 306.471 599.768C308.841 599.61 310.779 599.409 312.072 599.294C312.747 599.197 313.43 599.168 314.111 599.208Z" fill="#EB996E"/>
<path d="M307.089 606.79C306.57 606.948 306.035 607.045 305.495 607.077C304.475 607.221 302.982 607.408 301.187 607.565C296.363 608.072 291.492 607.913 286.712 607.092C281.04 606.015 276.66 603.114 273.256 601.778C271.421 601.033 269.523 600.451 267.584 600.041C268.121 599.974 268.666 600.003 269.193 600.127C270.668 600.348 272.114 600.739 273.501 601.29C277.019 602.539 281.399 605.311 286.913 606.359C291.655 607.161 296.476 607.387 301.273 607.034L305.581 606.79C306.082 606.734 306.588 606.734 307.089 606.79Z" fill="#EB996E"/>
<g opacity="0.2">
<path opacity="0.2" d="M287.99 568.233C288.542 562.968 289.958 557.83 292.183 553.026C294.433 548.224 298.245 544.326 302.996 541.969C305.383 540.828 308.021 540.314 310.661 540.475C313.302 540.636 315.858 541.466 318.088 542.888C319.435 543.756 320.487 545.013 321.104 546.492C321.405 547.229 321.496 548.036 321.367 548.822C321.238 549.607 320.893 550.342 320.372 550.944C318.792 552.638 316.064 552.38 313.795 552.265C308.499 552.12 303.273 553.496 298.735 556.229C294.198 558.962 290.538 562.939 288.191 567.688" fill="black"/>
</g>
<g opacity="0.2">
<path opacity="0.2" d="M163.288 563.868C169.032 553.572 166.964 540.662 162.584 529.749C158.204 518.835 151.67 508.783 148.324 497.496C147.695 520.392 151.023 543.224 158.161 564.988" fill="black"/>
</g>
<path d="M173.397 406.382C173.397 406.382 180.362 422.795 205.492 421.747C230.622 420.699 231.426 401.212 231.426 401.212L248.241 419.09L232.273 451.989L210.819 468.001L181.597 455.996L157.515 437.328L173.397 406.382Z" fill="#FF725E"/>
<g opacity="0.5">
<path opacity="0.5" d="M114.55 476.545C114.808 476.861 111.534 479.934 107.212 483.394C102.889 486.855 99.1989 489.397 98.9404 489.067C98.6819 488.736 101.956 485.692 106.264 482.231C110.572 478.771 114.291 476.214 114.55 476.545Z" fill="#FAFAFA"/>
</g>
<path d="M126.368 458.839C126.239 459.212 122.275 458.092 117.982 455.436C113.688 452.779 110.888 449.778 111.161 449.49C111.434 449.203 114.593 451.63 118.757 454.172C122.922 456.714 126.483 458.437 126.368 458.839Z" fill="#FAFAFA"/>
<path d="M147.908 460.763C148.253 461.022 145.036 465.631 141.46 471.49C137.885 477.349 135.113 482.231 134.74 482.045C134.367 481.858 136.506 476.631 140.197 470.7C143.887 464.77 147.606 460.505 147.908 460.763Z" fill="#FAFAFA"/>
<path d="M129.47 510.664C129.183 510.923 125.865 507.534 122.965 502.522C120.064 497.51 118.743 492.958 119.116 492.829C119.49 492.7 121.399 496.893 124.257 501.761C127.115 506.629 129.8 510.377 129.47 510.664Z" fill="#FAFAFA"/>
<path d="M110.199 534.803C109.797 534.803 108.949 531.213 108.332 526.647C107.714 522.08 107.542 518.332 107.944 518.275C108.346 518.218 109.193 521.879 109.811 526.446C110.428 531.012 110.572 534.746 110.199 534.803Z" fill="#FAFAFA"/>
<g opacity="0.5">
<path opacity="0.5" d="M128.35 541.38C127.991 541.179 129.786 537.331 132.471 532.764C135.156 528.198 137.526 524.708 137.885 524.909C138.244 525.11 136.449 528.973 133.763 533.525C131.078 538.077 128.709 541.538 128.35 541.38Z" fill="#FAFAFA"/>
</g>
<path d="M107.269 566.381C106.968 566.654 103.765 563.509 100.649 558.971C97.5331 554.433 95.7668 550.355 96.1115 550.14C96.4561 549.924 98.8255 553.672 101.855 558.124C104.885 562.575 107.585 566.108 107.269 566.381Z" fill="#FAFAFA"/>
<path d="M135.917 562.26C136.205 562.547 132.902 566.352 128.551 570.746C124.2 575.14 120.423 578.486 120.121 578.199C119.82 577.912 123.123 574.106 127.488 569.698C131.854 565.289 135.616 561.972 135.917 562.26Z" fill="#FAFAFA"/>
<g opacity="0.5">
<path opacity="0.5" d="M119.633 613.855C119.36 614.142 116.172 611.5 113.272 607.336C110.371 603.171 108.964 599.294 109.308 599.136C109.653 598.978 111.678 602.468 114.507 606.474C117.336 610.481 119.935 613.554 119.633 613.855Z" fill="#FAFAFA"/>
</g>
<path d="M156.596 603.415C156.797 603.774 153.264 606.172 148.712 608.772C144.16 611.371 140.283 613.194 140.096 612.835C139.909 612.476 143.428 610.078 147.98 607.479C152.532 604.88 156.395 603.056 156.596 603.415Z" fill="#FAFAFA"/>
<path d="M170.999 591.525C170.74 591.827 167.395 589.271 164.35 585.092C161.306 580.913 159.884 576.95 160.258 576.806C160.631 576.663 162.613 580.195 165.556 584.216C168.5 588.237 171.3 591.209 170.999 591.525Z" fill="#FAFAFA"/>
<path d="M196.402 508.826C196.66 509.156 192.855 512.43 187.915 516.121C182.975 519.811 178.782 522.54 178.524 522.209C178.265 521.879 182.085 518.619 187.025 514.929C191.964 511.238 196.158 508.51 196.402 508.826Z" fill="#FAFAFA"/>
<path d="M169.635 507.074C169.218 507.074 169.29 503.096 169.778 498.286C170.267 493.475 170.999 489.67 171.415 489.67C171.832 489.67 171.76 493.648 171.272 498.458C170.783 503.269 170.037 507.146 169.635 507.074Z" fill="#FAFAFA"/>
<g opacity="0.5">
<path opacity="0.5" d="M194.32 473.457C194.09 473.788 189.638 471.045 184.756 466.866C179.873 462.687 176.456 458.738 176.743 458.465C177.03 458.193 180.893 461.61 185.732 465.732C190.572 469.853 194.564 473.113 194.32 473.457Z" fill="#FAFAFA"/>
</g>
<path d="M175.781 431.497C176.097 431.77 172.909 435.992 168.773 440.932C164.637 445.872 160.933 449.648 160.617 449.39C160.301 449.131 163.489 444.895 167.624 439.955C171.76 435.016 175.465 431.239 175.781 431.497Z" fill="#FAFAFA"/>
<g opacity="0.5">
<path opacity="0.5" d="M154.542 427.003C154.313 427.376 151.11 425.725 146.932 424.332C142.753 422.939 139.292 422.264 139.292 421.833C139.292 421.402 143.083 421.431 147.448 422.91C151.814 424.389 154.758 426.658 154.542 427.003Z" fill="#FAFAFA"/>
</g>
<path d="M208.522 446.346C208.134 446.231 208.809 442.741 210.044 438.548C211.279 434.355 212.6 431.052 212.916 431.167C213.232 431.282 212.643 434.772 211.48 438.965C210.317 443.158 208.924 446.475 208.522 446.346Z" fill="#FAFAFA"/>
<path d="M221.431 479.402C221.015 479.402 220.871 475.956 221.115 471.763C221.359 467.57 221.891 464.195 222.293 464.21C222.695 464.224 222.853 467.656 222.609 471.849C222.365 476.042 221.833 479.431 221.431 479.402Z" fill="#FAFAFA"/>
<path d="M242.684 504.202C242.426 504.532 239.281 502.436 235.662 499.521C232.043 496.606 229.315 493.992 229.573 493.676C229.832 493.36 232.977 495.442 236.595 498.358C240.214 501.273 242.899 503.886 242.684 504.202Z" fill="#FAFAFA"/>
<path d="M265.244 469.58C265.516 469.882 262.716 472.811 258.983 476.1C255.249 479.388 252.004 481.844 251.803 481.499C251.602 481.154 254.33 478.268 258.064 474.979C261.797 471.691 264.971 469.264 265.244 469.58Z" fill="#FAFAFA"/>
<g opacity="0.5">
<path opacity="0.5" d="M254.861 453.224C254.631 453.569 251.085 451.616 247.265 448.442C243.445 445.269 240.86 442.138 241.147 441.865C241.435 441.593 244.45 444.177 248.213 447.279C251.975 450.381 255.091 452.879 254.861 453.224Z" fill="#FAFAFA"/>
</g>
<path d="M280.968 424.073C281.298 424.303 279.532 427.276 276.487 430.148C273.443 433.02 270.356 434.599 270.14 434.255C269.925 433.91 272.51 431.842 275.454 429.071C278.397 426.299 280.623 423.786 280.968 424.073Z" fill="#FAFAFA"/>
<g opacity="0.5">
<path opacity="0.5" d="M263.018 421.345C263.018 421.747 258.379 421.417 252.966 420.024C247.552 418.631 243.301 416.764 243.445 416.376C243.589 415.989 247.94 417.224 253.339 418.573C258.738 419.923 263.075 420.914 263.018 421.345Z" fill="#FAFAFA"/>
</g>
<g opacity="0.5">
<path opacity="0.5" d="M296.362 467.756C295.974 467.67 296.864 462.012 298.918 455.378C300.971 448.744 303.341 443.545 303.714 443.689C304.087 443.833 302.364 449.189 300.354 455.809C298.343 462.429 296.778 467.843 296.362 467.756Z" fill="#FAFAFA"/>
</g>
<path d="M303.757 499.435C303.456 499.707 299.909 496.448 295.83 492.125C291.752 487.803 288.65 484.084 289.009 483.797C289.368 483.509 292.844 486.783 296.922 491.106C301 495.428 304.059 499.147 303.757 499.435Z" fill="#FAFAFA"/>
<g opacity="0.5">
<path opacity="0.5" d="M315.202 517.37C314.786 517.37 314.527 512.66 314.628 506.859C314.728 501.057 315.145 496.376 315.561 496.376C315.977 496.376 316.222 501.086 316.121 506.887C316.021 512.689 315.604 517.385 315.202 517.37Z" fill="#FAFAFA"/>
</g>
<path d="M303.585 546.923C303.255 547.153 300.181 543.391 297.338 538.135C294.495 532.879 293.03 528.241 293.389 528.083C293.748 527.925 295.845 532.247 298.659 537.402C301.474 542.558 303.929 546.679 303.585 546.923Z" fill="#FAFAFA"/>
<path d="M333.238 552.323C333.54 552.61 331.544 555.022 328.801 557.708C326.058 560.393 323.588 562.317 323.301 562.016C323.014 561.714 325.01 559.301 327.753 556.616C330.495 553.931 332.951 552.021 333.238 552.323Z" fill="#FAFAFA"/>
<g opacity="0.5">
<path opacity="0.5" d="M261.036 518.648C260.663 518.533 261.984 513.823 265.344 508.912C268.704 504.001 272.653 501.086 272.897 501.402C273.142 501.718 269.824 505.021 266.579 509.774C263.334 514.527 261.438 518.806 261.036 518.648Z" fill="#FAFAFA"/>
</g>
<path d="M177.303 558.038C176.901 557.937 177.604 553.73 178.868 548.503C180.132 543.276 181.51 539.212 181.912 539.312C182.315 539.413 181.597 543.692 180.333 548.862C179.069 554.031 177.691 558.138 177.303 558.038Z" fill="#FAFAFA"/>
<path d="M212.528 561.556C212.298 561.901 208.723 559.962 204.544 557.248C200.365 554.534 197.148 552.035 197.364 551.691C197.579 551.346 201.155 553.27 205.348 555.999C209.541 558.727 212.801 561.211 212.528 561.556Z" fill="#FAFAFA"/>
<path d="M210.805 536.11C210.46 536.34 208.78 534.43 207.042 531.802C205.305 529.174 204.17 526.934 204.529 526.704C204.888 526.475 206.554 528.384 208.292 531.012C210.029 533.64 211.092 535.88 210.805 536.11Z" fill="#FAFAFA"/>
<path d="M226.357 541.911C226.586 542.242 225.079 543.706 222.982 545.186C220.886 546.665 218.99 547.584 218.746 547.253C218.502 546.923 220.024 545.444 222.12 543.965C224.217 542.486 226.113 541.538 226.357 541.911Z" fill="#FAFAFA"/>
<g opacity="0.5">
<path opacity="0.5" d="M185.747 645.145C185.33 645.016 186.005 641.757 186.594 637.736C187.183 633.715 187.513 630.398 187.944 630.398C188.374 630.398 188.69 633.801 188.073 637.951C187.455 642.101 186.12 645.275 185.747 645.145Z" fill="#FAFAFA"/>
</g>
<g opacity="0.5">
<path opacity="0.5" d="M221.532 633.442C221.173 633.643 218.444 629.522 215.443 624.252C212.442 618.982 210.288 614.516 210.647 614.315C211.006 614.114 213.734 618.221 216.735 623.505C219.737 628.789 221.891 633.284 221.532 633.442Z" fill="#FAFAFA"/>
</g>
<g opacity="0.5">
<path opacity="0.5" d="M259.485 617.488C259.815 617.732 256.225 622.988 251.458 629.22C246.69 635.453 242.555 640.292 242.224 640.048C241.894 639.804 245.499 634.548 250.266 628.316C255.034 622.083 259.169 617.23 259.485 617.488Z" fill="#FAFAFA"/>
</g>
<g opacity="0.5">
<path opacity="0.5" d="M270.183 647.974C270.183 648.377 265.488 649.411 259.571 650.258C253.655 651.105 248.801 651.478 248.744 651.076C248.686 650.674 253.425 649.64 259.356 648.779C265.287 647.917 270.126 647.558 270.183 647.974Z" fill="#FAFAFA"/>
</g>
<path d="M271.835 632.609C271.418 632.509 271.835 629.45 271.935 625.688C272.036 621.925 271.935 618.838 272.438 618.78C272.941 618.723 273.615 621.825 273.429 625.745C273.242 629.665 272.223 632.71 271.835 632.609Z" fill="#FAFAFA"/>
<path d="M220.584 650.502C220.44 650.861 216.549 649.583 212.499 646.653C208.45 643.724 205.98 640.478 206.281 640.234C206.583 639.99 209.455 642.647 213.375 645.433C217.296 648.219 220.756 650.1 220.584 650.502Z" fill="#FAFAFA"/>
<path d="M159.683 648.233C159.281 648.132 159.683 644.844 160.746 640.909C161.808 636.975 162.871 633.844 163.273 633.945C163.675 634.045 163.187 637.319 162.196 641.268C161.205 645.217 160.085 648.334 159.683 648.233Z" fill="#FAFAFA"/>
<path d="M153.063 285.011C153.149 284.896 154.786 286.303 157.788 287.883C159.551 288.834 161.391 289.636 163.288 290.281C165.626 291.036 168.03 291.57 170.468 291.875C172.906 292.135 175.363 292.159 177.806 291.947C179.807 291.764 181.787 291.399 183.722 290.856C187.025 289.937 188.92 288.946 188.992 289.075C188.588 289.38 188.15 289.635 187.685 289.836C187.166 290.115 186.628 290.36 186.077 290.568C185.354 290.875 184.616 291.143 183.865 291.373C181.916 291.99 179.91 292.413 177.877 292.636C175.385 292.895 172.873 292.895 170.381 292.636C167.897 292.328 165.452 291.76 163.087 290.942C161.159 290.262 159.303 289.397 157.544 288.357C156.782 287.941 156.108 287.467 155.576 287.079C155.074 286.748 154.594 286.383 154.14 285.988C153.422 285.413 153.02 285.054 153.063 285.011Z" fill="#455A64"/>
<path d="M190.155 301.539C189.653 301.755 189.128 301.914 188.59 302.013C187.57 302.272 186.091 302.616 184.282 302.932C179.429 303.881 174.441 303.91 169.577 303.018C164.673 302.07 160.212 299.55 156.869 295.838C155.889 294.695 155.077 293.419 154.456 292.047C154.203 291.561 154.029 291.038 153.939 290.497C154.848 292.288 155.967 293.966 157.271 295.494C160.617 299.011 164.972 301.404 169.735 302.344C174.518 303.203 179.412 303.246 184.21 302.473C186.063 302.214 187.556 301.956 188.518 301.784C189.052 301.638 189.602 301.557 190.155 301.539Z" fill="#455A64"/>
<path d="M139.019 389.423C138.951 389.362 138.888 389.294 138.832 389.222C138.732 389.078 138.545 388.877 138.344 388.575C137.788 387.699 137.403 386.724 137.21 385.703C136.922 383.803 137.054 381.863 137.597 380.02C138.141 378.176 139.082 376.474 140.355 375.034C142.105 373.062 144.132 371.355 146.371 369.965C148.727 368.414 151.369 366.992 153.968 365.24C156.721 363.498 159.075 361.193 160.875 358.477C161.775 357.035 162.362 355.421 162.598 353.738C162.822 351.993 162.729 350.223 162.325 348.511C161.383 345.121 160.168 341.812 158.692 338.617C157.295 335.567 156.473 332.286 156.266 328.938C156.095 323.235 157.828 317.637 161.191 313.027C163.376 309.901 166.276 307.341 169.649 305.56L171.257 304.785L172.492 304.354C172.827 304.223 173.173 304.122 173.526 304.052C173.214 304.228 172.887 304.377 172.55 304.498L171.358 305L169.793 305.819C166.531 307.665 163.736 310.234 161.622 313.329C158.405 317.873 156.766 323.346 156.955 328.91C157.174 332.171 157.992 335.364 159.367 338.33C160.871 341.573 162.106 344.935 163.058 348.382C163.47 350.18 163.563 352.037 163.331 353.867C163.085 355.653 162.463 357.366 161.507 358.893C159.635 361.694 157.187 364.063 154.327 365.844C151.685 367.595 149.028 369.003 146.687 370.525C144.48 371.857 142.478 373.501 140.742 375.407C139.497 376.787 138.561 378.417 137.996 380.187C137.432 381.958 137.252 383.829 137.468 385.675C137.729 387.015 138.257 388.29 139.019 389.423Z" fill="#455A64"/>
<path d="M177.274 389.94C176.979 389.814 176.7 389.655 176.441 389.466C175.694 388.928 175.063 388.244 174.589 387.455C173.849 386.193 173.407 384.779 173.296 383.32C173.144 381.382 173.358 379.434 173.928 377.576C175.091 373.368 178.61 369.534 181.252 364.652C182.691 362.165 183.439 359.339 183.42 356.466C183.274 353.385 182.486 350.367 181.108 347.606C178.38 341.862 174.187 337.238 171.286 332.442C169.861 330.2 168.722 327.788 167.897 325.262C167.202 323.025 166.963 320.672 167.193 318.341C167.416 314.929 168.913 311.725 171.387 309.366C172.079 308.778 172.853 308.295 173.684 307.93C173.968 307.792 174.267 307.686 174.575 307.614C173.491 308.15 172.482 308.826 171.573 309.624C169.268 311.996 167.9 315.124 167.725 318.427C167.534 320.687 167.797 322.962 168.5 325.119C169.319 327.603 170.453 329.973 171.875 332.169C173.311 334.51 175.091 336.851 176.858 339.349C178.743 341.878 180.392 344.575 181.783 347.405C183.219 350.26 184.027 353.389 184.153 356.581C184.158 359.572 183.37 362.51 181.869 365.097C179.112 369.994 175.594 373.713 174.431 377.791C173.861 379.576 173.617 381.449 173.713 383.32C173.792 384.725 174.174 386.097 174.833 387.34C175.455 388.369 176.286 389.255 177.274 389.94Z" fill="#455A64"/>
<path d="M233.939 282.139C233.939 282.139 233.738 282.139 233.393 281.909C232.895 281.64 232.415 281.337 231.957 281.005C230.314 279.732 228.917 278.17 227.836 276.395C226.265 273.773 224.934 271.014 223.858 268.152C223.197 266.573 222.422 264.921 221.618 263.299C220.718 261.622 219.66 260.035 218.459 258.56C214.172 253.355 208.369 249.616 201.859 247.862C199.15 247.209 196.385 246.815 193.602 246.684C194.346 246.56 195.102 246.516 195.856 246.555C197.922 246.608 199.976 246.872 201.988 247.345C208.681 248.988 214.662 252.757 219.033 258.086C220.273 259.601 221.365 261.231 222.293 262.954C223.169 264.62 223.858 266.3 224.504 267.894C225.547 270.733 226.815 273.485 228.295 276.122C229.324 277.871 230.628 279.442 232.158 280.775C233.264 281.708 233.982 282.082 233.939 282.139Z" fill="#455A64"/>
<path d="M253.971 282.024C253.71 282.034 253.448 282.005 253.196 281.938C252.461 281.824 251.739 281.636 251.042 281.378C248.459 280.422 246.12 278.907 244.192 276.941C241.359 274.032 238.969 270.722 237.098 267.119C234.843 263.17 232.661 258.632 229.286 254.683C226.07 250.992 221.825 248.347 217.094 247.086C213.228 246.059 209.248 245.524 205.247 245.492C201.815 245.421 199.044 245.492 197.12 245.636L194.908 245.722C194.651 245.757 194.39 245.757 194.133 245.722C194.379 245.643 194.635 245.6 194.894 245.593L197.105 245.363C199.015 245.205 201.801 244.975 205.247 244.99C209.304 244.935 213.351 245.418 217.281 246.426C222.161 247.687 226.543 250.401 229.846 254.209C233.321 258.273 235.49 262.825 237.687 266.803C239.508 270.366 241.823 273.653 244.565 276.567C246.414 278.53 248.654 280.081 251.142 281.12C252.923 281.809 253.985 281.938 253.971 282.024Z" fill="#455A64"/>
<path d="M287.875 375.221C287.803 375.221 288.248 374.201 288.722 372.349C289.411 369.707 289.701 366.977 289.584 364.249C289.447 360.203 288.407 356.239 286.539 352.647C285.426 350.54 284.046 348.585 282.432 346.831C280.767 344.978 278.857 343.226 276.947 341.388C275.019 339.621 273.237 337.7 271.619 335.644C270.133 333.718 268.849 331.644 267.785 329.455C265.996 325.74 264.85 321.749 264.396 317.651C264.08 314.897 264.109 312.113 264.482 309.366C264.564 308.621 264.694 307.882 264.87 307.154C264.908 306.892 264.98 306.636 265.086 306.393C265.157 306.393 264.928 307.47 264.77 309.409C264.509 312.129 264.557 314.87 264.913 317.579C265.451 321.599 266.629 325.507 268.403 329.154C269.464 331.289 270.733 333.314 272.194 335.199C273.8 337.202 275.557 339.079 277.45 340.814C279.374 342.652 281.284 344.418 282.978 346.314C284.624 348.118 286.024 350.131 287.143 352.302C289.027 355.992 290.044 360.064 290.115 364.206C290.184 366.981 289.811 369.749 289.009 372.406C288.8 373.129 288.536 373.834 288.22 374.517C288.141 374.768 288.025 375.005 287.875 375.221Z" fill="#455A64"/>
<path d="M130.561 280.89C130.558 280.405 130.621 279.922 130.748 279.454C131.038 278.206 131.497 277.003 132.112 275.878C133.138 273.97 134.557 272.301 136.274 270.98C137.991 269.658 139.968 268.715 142.076 268.212C144.183 267.709 146.373 267.657 148.502 268.06C150.63 268.463 152.65 269.312 154.427 270.551C155.503 271.265 156.47 272.131 157.299 273.121C157.631 273.466 157.903 273.864 158.104 274.299C156.889 273.07 155.557 271.964 154.126 270.996C152.389 269.866 150.44 269.101 148.398 268.749C146.356 268.396 144.264 268.463 142.248 268.945C140.233 269.428 138.337 270.315 136.676 271.554C135.015 272.793 133.623 274.357 132.586 276.151C131.76 277.662 131.081 279.249 130.561 280.89Z" fill="#455A64"/>
<path d="M144.476 286.935C144.466 285.836 144.601 284.74 144.878 283.676C145.32 281.011 146.499 278.524 148.281 276.496C149.258 275.518 150.481 274.822 151.821 274.483C153.161 274.145 154.568 274.175 155.892 274.571C156.688 274.859 157.392 275.355 157.931 276.007C158.29 276.467 158.391 276.783 158.362 276.797C157.63 276.038 156.73 275.463 155.734 275.117C154.51 274.825 153.231 274.852 152.019 275.194C150.808 275.535 149.704 276.181 148.813 277.07C147.131 279.018 145.957 281.351 145.395 283.862C145.183 284.913 144.875 285.941 144.476 286.935Z" fill="#455A64"/>
<path d="M162.728 265.898C161.287 268.415 160.025 271.03 158.951 273.724C158.12 276.499 157.468 279.324 156.998 282.182C156.68 276.208 158.746 270.351 162.742 265.898H162.728Z" fill="#FF725E"/>
<path d="M392.459 300.908C392.459 301.791 392.721 302.654 393.211 303.389C393.702 304.123 394.4 304.696 395.216 305.034C396.032 305.372 396.93 305.46 397.796 305.288C398.662 305.115 399.458 304.69 400.083 304.065C400.707 303.441 401.133 302.645 401.305 301.779C401.477 300.913 401.389 300.015 401.051 299.199C400.713 298.382 400.14 297.685 399.406 297.194C398.671 296.704 397.808 296.442 396.925 296.442C396.338 296.442 395.758 296.557 395.216 296.782C394.674 297.006 394.182 297.335 393.767 297.75C393.352 298.164 393.023 298.657 392.799 299.199C392.574 299.74 392.459 300.321 392.459 300.908Z" fill="#455A64"/>
<path d="M379.032 305.374C381.499 305.374 383.498 303.374 383.498 300.908C383.498 298.441 381.499 296.442 379.032 296.442C376.566 296.442 374.566 298.441 374.566 300.908C374.566 303.374 376.566 305.374 379.032 305.374Z" fill="#455A64"/>
<path d="M356.731 298.667C356.29 299.433 356.086 300.311 356.144 301.192C356.202 302.074 356.521 302.918 357.059 303.618C357.597 304.318 358.33 304.844 359.166 305.127C360.003 305.411 360.904 305.44 361.757 305.211C362.61 304.982 363.376 304.506 363.959 303.842C364.541 303.178 364.913 302.356 365.028 301.48C365.143 300.605 364.996 299.715 364.606 298.923C364.215 298.131 363.599 297.472 362.834 297.03C362.326 296.737 361.765 296.546 361.183 296.47C360.601 296.393 360.01 296.432 359.443 296.584C358.877 296.736 358.345 296.998 357.88 297.356C357.415 297.713 357.024 298.159 356.731 298.667Z" fill="#455A64"/>
<path d="M378.759 248.709C378.459 248.674 378.155 248.674 377.855 248.709L375.198 248.781C374.624 248.781 373.963 248.781 373.245 248.867L370.904 249.197L368.176 249.585L365.117 250.346C359.889 251.675 354.912 253.847 350.384 256.779C343.654 261.062 337.993 266.828 333.834 273.635C329.675 280.442 327.128 288.111 326.388 296.054C326.181 298.441 326.133 300.84 326.245 303.234C326.331 304.455 326.245 305.675 326.475 306.896L327.035 310.586C327.971 315.661 329.645 320.571 332.003 325.162C334.533 329.956 337.739 334.362 341.524 338.244C345.559 342.216 350.185 345.539 355.238 348.095C360.457 350.762 366.105 352.488 371.924 353.192C373.403 353.415 374.895 353.545 376.39 353.58C377.887 353.659 379.387 353.659 380.885 353.58C383.922 353.459 386.944 353.079 389.917 352.446C396.297 351.08 402.369 348.543 407.824 344.964H407.278L425.573 352.316L426.664 352.747L426.348 351.627C424.51 344.907 422.701 338.373 420.978 332.054L420.877 332.543C425.848 325.963 429.194 318.302 430.642 310.184C431.344 306.398 431.586 302.54 431.36 298.696C431.322 296.852 431.145 295.013 430.829 293.196C430.699 292.292 430.556 291.401 430.427 290.511C430.297 289.621 429.981 288.788 429.78 287.926C426.718 275.896 419.481 265.346 409.361 258.158C405.625 255.474 401.537 253.318 397.212 251.753L394.484 250.777L391.884 250.116L389.501 249.528C388.74 249.37 388.065 249.298 387.318 249.197C385.882 249.011 384.719 248.781 383.656 248.723L380.956 248.637H379.319C378.946 248.637 378.759 248.637 378.759 248.637H379.319L380.956 248.766L383.627 248.939C384.676 249.025 385.882 249.298 387.26 249.499C397.194 251.208 406.418 255.766 413.811 262.619C421.203 269.471 426.447 278.323 428.904 288.098C429.105 288.946 429.364 289.779 429.522 290.64C429.68 291.502 429.78 292.392 429.924 293.268C430.213 295.059 430.372 296.868 430.398 298.682C430.608 302.436 430.362 306.202 429.666 309.897C428.21 317.884 424.895 325.415 419.987 331.882L419.829 332.097L419.901 332.37C421.624 338.689 423.4 345.213 425.228 351.943L426.004 351.254L407.723 343.887L407.436 343.772L407.163 343.944C401.817 347.472 395.862 349.974 389.601 351.326C386.699 351.947 383.75 352.322 380.784 352.446C379.314 352.503 377.842 352.474 376.376 352.359C374.933 352.331 373.495 352.211 372.068 352C366.371 351.301 360.84 349.61 355.726 347.003C345.933 342.159 337.951 334.302 332.951 324.587C330.607 320.107 328.933 315.308 327.982 310.342C327.796 309.122 327.609 307.93 327.437 306.723C327.264 305.517 327.279 304.325 327.178 303.133C327.065 300.793 327.104 298.447 327.293 296.111C327.993 288.299 330.462 280.747 334.512 274.03C338.562 267.313 344.088 261.605 350.671 257.339C355.14 254.382 360.057 252.166 365.232 250.777L368.248 249.973L370.962 249.528L373.274 249.14C373.992 249.14 374.638 249.054 375.212 248.996L377.855 248.81C378.159 248.801 378.461 248.768 378.759 248.709Z" fill="#455A64"/>
</svg>
