<svg height="100%" width="100%" id="svg" viewBox="0 0 1440 400" xmlns="http://www.w3.org/2000/svg" class="transition duration-300 ease-in-out delay-150"><path d="M 0,400 C 0,400 0,200 0,200 C 55.02172312223858,199.89414580265097 110.04344624447717,199.78829160530194 166,199 C 221.95655375552283,198.21170839469806 278.8479381443299,196.74097938144328 347,192 C 415.1520618556701,187.25902061855672 494.5648011782032,179.2477908689249 558,193 C 621.4351988217968,206.7522091310751 668.8928571428571,242.26785714285717 722,251 C 775.1071428571429,259.73214285714283 833.8637702503681,241.6807805596465 894,239 C 954.1362297496319,236.3192194403535 1015.6520618556701,249.00902061855672 1081,237 C 1146.3479381443299,224.99097938144328 1215.5279823269514,188.28313696612665 1276,178 C 1336.4720176730486,167.71686303387335 1388.2360088365244,183.85843151693666 1440,200 C 1440,200 1440,400 1440,400 Z" stroke="none" stroke-width="0" fill="#fffef8" class="transition-all duration-300 ease-in-out delay-150" transform="rotate(-180 720 200)"></path></svg>
