<svg id="Layer_1" data-name="Layer 1" xmlns="http://www.w3.org/2000/svg" viewBox="0 0 1080 1080"><defs><style>.cls-1{fill:#f8801b;}.cls-2{fill:#01597b;}</style></defs><g id="Digital_Marketing_Basics" data-name="Digital Marketing Basics"><path class="cls-1" d="M290.56,467.91c1.83-10.83,2.07-18.06-10.08-23.23-6.53-2.78-12.14-14.34-13-22.48-1.91-18.14-.7-36.62-.53-55,.11-11.46,5.45-19.29,15.87-24.76,3.93-2.07,8-7.9,8.26-12.23,1-16.8.15-33.69.49-50.54.71-34.6,22.79-56.74,57.18-56.79q171.77-.22,343.54,0c33.76.06,56.21,21.71,57.07,55.35.74,29.22.4,58.49-.06,87.73-.06,3.93-3.65,7.8-5.61,11.69-1.88-3.89-5.33-7.76-5.4-11.68-.49-26.76-.2-53.54-.29-80.31-.12-35.18-15.92-51.18-50.64-51.19q-166.56-.06-333.13,0c-35.74,0-51.28,15.74-51.28,52q-.06,306.36,0,612.72c0,35.09,15.92,51.31,50.66,51.35q167.31.17,334.62,0c32.91,0,49.6-16.39,49.71-49.3.23-68.91,0-137.81.08-206.72,0-4.44-.15-9,.7-13.29.34-1.75,3.21-4.19,4.89-4.15s4.66,2.38,5,4.15c.91,4.29.85,8.83.85,13.27q.07,102.61,0,205.23c-.09,39.86-21.63,61-62,61.07q-168.06.12-336.11,0c-38.08,0-59.82-21.68-59.88-60.08q-.24-154.66.09-309.34c0-9.58-1.15-15.47-11.4-20.54-6.56-3.24-11.67-14.4-12.77-22.63-2-15.1-.66-30.66-.61-46C266.92,480.7,270.57,475.4,290.56,467.91Zm-.13-33.28V353.38l-5.14-.7c-14.13,19.32-3.83,42.83-6.64,64.07C277.6,424.74,279.09,432.42,290.43,434.63Zm0,127.86V481.2l-6-.84c-11.64,19.77-3.75,42.89-5.84,64.27C277.82,552.68,279.11,560.3,290.42,562.49Z"/><path class="cls-1" d="M605.05,304.61c-21.06,6.28-43,2-64.52,2.72-22.76.79-45.57.17-68.36.17H337.92c0,52.06,0,102,0,152,0,5.45.34,11-.53,16.29-.34,2.13-3.52,3.79-5.41,5.67-1.86-2-4.34-3.63-5.4-5.95-.95-2.08-.39-4.87-.39-7.34,0-52,.31-104-.29-156-.15-12.44,3.93-16.34,16.16-16.28,83.22.38,166.45.15,249.68.36,4.6,0,9.2,2.22,13.81,3.4C605.37,301.27,605.21,302.94,605.05,304.61Z"/><path class="cls-1" d="M338.58,858.91c19.13,0,37.34-.32,55.53.25,4,.13,7.83,3.43,11.74,5.27-3.9,2.05-7.75,5.77-11.71,5.88-19.3.52-38.63-.08-58,0-11.28.07-9.48-8.4-9.5-14.74-.08-37.17.5-74.34.43-111.51-.1-64.44-.52-128.87-.81-193.3,0-3.47-.73-7.11.09-10.37,1.17-4.69,3.46-9.09,5.27-13.62,2.07,4.24,4.9,8.29,6,12.76,1,4.21.28,8.87.28,13.33q0,145-.07,290C337.87,847.67,338.28,852.48,338.58,858.91Z"/><path class="cls-2" d="M1002.64,524.55c0,44.4-12.21,84.91-39.18,120.43-3,4-8.81,5.92-13.31,8.81,1.18-5,1-10.9,3.76-14.74,57.59-80.14,47.62-181.95-24.52-250.21-3.11-2.95-3.81-8.45-5.63-12.76,4.2,1.57,9.31,2.09,12.46,4.85C979.52,419,1001,467.21,1002.64,524.55Z"/><path class="cls-2" d="M961.73,532.37c-.48,29.18-10.29,60.79-31.62,88.33-2.48,3.19-7.65,4.28-11.58,6.35.94-4.21.73-9.21,3-12.51,43.87-63.76,36.93-138.73-17.81-193.11-3-3-3.6-8.54-5.32-12.9,4.6,1.66,10.18,2.18,13.66,5.16C943.88,441,961.91,482.6,961.73,532.37Z"/><path class="cls-2" d="M920.76,523.68c-.16,30.39-7.13,53.29-22.42,73.21-2.29,3-7.65,3.62-11.59,5.35.61-3.91.1-8.5,2-11.6,31-50.37,26.64-95.31-13.26-138-2.54-2.72-3.16-7.25-4.67-10.94,4.22.9,9.71.42,12.47,2.93C908,467.2,920.05,495.65,920.76,523.68Z"/><path class="cls-1" d="M497.76,909.93c.35-14.62,14.66-23.39,24.23-23.16,11.82.28,21.42,11.62,20.75,24.48a22.69,22.69,0,0,1-23.57,21.82C507.52,932.59,497.43,921.22,497.76,909.93Zm34.31,2.5c0-11.66-7.17-14.43-14.38-13.92-5.19,1.57-9.29,6.86-8.9,11.14.53,5.69,5.44,11.31,10.45,11.2C530.31,920.6,529.87,916.2,532.07,912.43Z"/><path class="cls-1" d="M519.77,270.49c-11.82,0-23.66.4-35.45-.25-3-.17-5.79-3.64-8.68-5.59,2.87-1.94,5.7-5.52,8.61-5.57q36.18-.7,72.39-.05c2.91.05,5.77,3.64,8.65,5.59-2.86,1.95-5.65,5.44-8.6,5.59C544.41,270.85,532.08,270.48,519.77,270.49Z"/><path class="cls-1" d="M691.71,637.77c8.82,2.4,11.62,6.13,11.54,15.29-.44,52-.17,104.09-.15,156.14v52c-7.23,0-13.1,0-19,0q-102.6-.5-205.2-1a89.36,89.36,0,0,0-17.7,1.42c-2,.4-4,3.65-4.76,6-.27.87,2.89,3.61,4.88,4.2,2.76.83,5.88.53,8.85.53,74.85,0,149.7-.23,224.54.37,14.36.11,19-4.67,18.85-18.84-.56-64.94-.3-129.87-.26-194.81,0-4.92.48-9.87.93-17.92A144.93,144.93,0,0,0,684,635.73Q687.84,636.72,691.71,637.77Z"/><path class="cls-1" d="M716.41,419.87l-3.13-2.1v-17.4c0-30.24-.35-60.48.18-90.71.18-10.4-3.34-14.1-13.7-13.7-16.33.63-32.72-.14-49.06.41-3.72.12-7.35,3.19-11,4.9,3.77,2.07,7.47,5.78,11.32,5.93,16.23.67,32.5.29,49.08.29.71,3,1.5,4.84,1.51,6.67.11,36.19.45,72.38-.21,108.55-.09,4.77-4.24,11.08-8.4,13.9h0C698.12,434.31,708.31,429,716.41,419.87Z"/><path class="cls-2" d="M882.07,516.6c-3.09-35.12-25.34-55.19-74.62-66.75-3-22.24-5.61-44.86-9.37-67.29-1-6.12-4.62-15.66-8.56-16.5-5.44-1.16-13.32,3.21-18.41,7.35-18.52,15.08-36.32,31-54.39,46.67l-.31-.21c-8.1,9.09-18.29,14.44-23.44,16.75-43.77,29.78-90.9,52.22-142.76,64.23-8.78,2-15.44,3-22.05-5.44-2.85-3.63-10.82-5.14-16.16-4.6-22.66,2.29-45.27,5.34-67.78,8.86-13,2-18.33,10.63-16.62,23.61.89,6.73,1.75,13.47,2.71,20.8-13.84,2.58-27.18,3-38.77,7.72-16,6.52-9.35,21.67-9,34.06,1.24,45.83,34.69,24.55,56.35,26.32,10.69,35.56,10.69,35.56,32.85,38.9,4.45,32.55,8.63,65.44,13.57,98.22,2.82,18.75,11.15,23.1,33.91,19.42,19.09-3.09,23.86-9.32,21.4-27.89-4.29-32.33-8.55-64.67-12.53-94.77,7.85-5.66,16.36-8.86,19.62-14.89,4.11-7.6,8.69-9.15,16.15-9.36,40.78-1.14,80.71,3.89,120.11,13.92a144.93,144.93,0,0,1,30.31,5.51c0-.29,0-.55.05-.85l5.72,2.68h0a142,142,0,0,1,15.3,6.25,142,142,0,0,0-15.3-6.25h0c31.61,14.81,60.66,28.68,90,41.75,6.54,2.91,15.61,5.19,21.43,2.77,3.41-1.42,4.22-12.85,3.59-19.53-2.2-23.48-5.54-46.84-8.38-69.71C868.18,579.87,885.37,554,882.07,516.6ZM396.84,597.93c-6.27-3.79-9.41-26.65-4.36-32.13,7.73-8.4,23.74-9.18,37.91-13.73,2.29,17.17,4.08,30.65,6.31,47.34C421.68,599.41,406.28,603.62,396.84,597.93ZM510.58,755.37c-7.65,1-14.73,1.72-16.12-9.42-4.09-32.78-8.8-65.49-13.49-99.9l31.75-4.3c5,34.29,10.07,67.34,14.61,100.46C529.1,755.15,518.65,754.28,510.58,755.37ZM526.26,629c-20.11,2.53-40.19,5.33-62.29,8.28-7.36,1.52-11.8-2.64-13-11.83-4.3-33.84-8.58-67.69-13.4-101.45-1.38-9.71,2.34-13.8,11.4-14.93,20.11-2.52,40.22-5.05,60.29-7.91,8.82-1.26,12.9,2.42,14,10.87q6.78,51.47,13.82,102.89C538.3,623.54,534.87,627.92,526.26,629Zm21.12-20.15c-3.92-31.09-7.72-61.3-11.69-92.81,78-15.27,144.92-51,206.86-102.4,10.63,81.71,20.71,159.18,31.2,239.84C700.57,621.34,627,602.65,547.38,608.85Zm244.25,52.93c-4.17-3.12-6-10.8-6.84-16.71-9.56-70.7-18.72-141.45-28-212.2-.07-.49-.1-1-.15-1.48-3.64-30.86-1.85-34.43,28-53.84,13,100.2,25.88,199.65,39.11,301.64C811.28,672.66,800.54,668.45,791.63,661.78Zm33.42-75.73C819.64,545.34,814.39,505.8,809.1,466c31.51.83,56.84,23.15,61,52.11C874.61,549.36,857.83,575.75,825.05,586.05Z"/><path class="cls-2" d="M334,205h-121a25.43,25.43,0,0,1-25.4-25.41v-121a25.43,25.43,0,0,1,25.4-25.41H334a25.43,25.43,0,0,1,25.4,25.41v121A25.43,25.43,0,0,1,334,205ZM212.94,43.6A15,15,0,0,0,198,58.55v121a15,15,0,0,0,14.94,14.95H334a15,15,0,0,0,14.94-14.95v-121A15,15,0,0,0,334,43.6Z"/><path class="cls-2" d="M943,280.45H822a25.43,25.43,0,0,1-25.4-25.4V134A25.43,25.43,0,0,1,822,108.6H943A25.43,25.43,0,0,1,968.39,134v121A25.43,25.43,0,0,1,943,280.45ZM822,119.06A15,15,0,0,0,807,134v121A15,15,0,0,0,822,270H943a15,15,0,0,0,14.94-14.94V134A15,15,0,0,0,943,119.06Z"/><path class="cls-2" d="M931.35,1046.86h-121a25.43,25.43,0,0,1-25.4-25.41v-121A25.43,25.43,0,0,1,810.31,875h121a25.43,25.43,0,0,1,25.4,25.41v121A25.43,25.43,0,0,1,931.35,1046.86Zm-121-161.39a15,15,0,0,0-14.94,14.95v121a15,15,0,0,0,14.94,15h121a15,15,0,0,0,14.94-15v-121a15,15,0,0,0-14.94-14.95Z"/><path class="cls-2" d="M279,120.17v42.5c0,1.11,0,1.11-1.12,1.11H263c-1.08,0-1.09,0-1.09-1.05q0-20.57,0-41.12c0-1.44,0-1.44-1.44-1.44-4.23,0-8.46,0-12.7,0-.72,0-.93-.19-.93-.93,0-4.35,0-8.71,0-13.07,0-.66.18-.87.85-.86,4.43,0,8.86,0,13.3,0,.72,0,.94-.19.93-.93,0-3,0-6,.08-9.06A21.8,21.8,0,0,1,268,80.92a19.91,19.91,0,0,1,7.43-5,20.45,20.45,0,0,1,7.27-1.17c4.33,0,8.66,0,13,0,.63,0,.82.19.81.82q-.06,7,0,14c0,.68-.2.93-.9.93-3.27,0-6.55,0-9.82.07-1.11,0-2.22.05-3.32.12-1.91.13-2.49.57-3.07,2.43a7.18,7.18,0,0,0-.35,2c0,3.3,0,6.6,0,9.9a3.37,3.37,0,0,0,.06.38c.29,0,.57,0,.86,0,5.24,0,10.48,0,15.72,0,.7,0,.91.19.9.89q0,6.54,0,13.08c0,.69-.18.89-.88.89-5.24,0-10.48,0-15.72,0Z"/><path class="cls-2" d="M223.8,784.75h-121a25.43,25.43,0,0,1-25.4-25.4v-121a25.42,25.42,0,0,1,25.4-25.4h121a25.43,25.43,0,0,1,25.4,25.4v121A25.44,25.44,0,0,1,223.8,784.75Zm-121-161.38a15,15,0,0,0-14.94,14.94v121a15,15,0,0,0,14.94,14.94h121a15,15,0,0,0,14.94-14.94v-121a15,15,0,0,0-14.94-14.94Z"/><path class="cls-2" d="M928.34,163.52a31.35,31.35,0,0,1-7.74,9.21,3.83,3.83,0,0,0-1.43,3.17c-.26,16.75-5.83,31.37-18.08,43C885,234.3,859.31,236.37,840.88,224c-.3-.2-.69-.34-.82-.78,9.68.87,18.27-1.8,26.24-8.07a17.41,17.41,0,0,1-10.61-3.95,19,19,0,0,1-6.14-9.44,17.8,17.8,0,0,0,7.73-.46c-9.47-4.25-14.52-11.3-14-19.53,2.43,1,4.78,2.26,7.89,2.11a19.59,19.59,0,0,1-7.27-12.09,20.65,20.65,0,0,1,2-14c1.67,2,3.21,3.84,4.93,5.53A49.94,49.94,0,0,0,881.3,178c2.13.23,2.16.23,2-2-.3-5.21.65-10.08,3.75-14.41,6.49-9,18.46-10.21,26.48-2.52a2.54,2.54,0,0,0,2.85.66,47.55,47.55,0,0,0,9.84-4.24c-1.23,4.4-3.73,7.47-7.31,10.36a24.33,24.33,0,0,0,7.81-1.91c.52-.2,1-.73,1.64-.43Z"/><path class="cls-2" d="M207.78,690.9c-.1-.68-.34-.89-1-.89q-20.84,0-41.67,0c-.67,0-.9.12-.9.86,0,5.39,0,10.78,0,16.18,0,1.05-.12,1,1,1h23.69c.36,0,.47.16.39.53a21.79,21.79,0,0,1-5,10.14,29.1,29.1,0,0,1-4,3.55,2.29,2.29,0,0,0-.31.16,27.78,27.78,0,0,1-19.14,4.13c-9-1.18-15.63-6-20.3-13.63a34.22,34.22,0,0,1-2.42-5.21,5.82,5.82,0,0,0-.14-.6,27.64,27.64,0,0,1-.8-13.6c.24-1.3.66-2.54.94-3.82a4.25,4.25,0,0,0,.21-.43,27.68,27.68,0,0,1,28.42-18.53,24.89,24.89,0,0,1,14.88,6.44c.36.33.56.38.94,0q6-6.06,12.09-12.08c.37-.37.38-.56,0-.91a44.05,44.05,0,0,0-27.78-11.52,46.08,46.08,0,0,0-41.19,20.79,27.46,27.46,0,0,0-2.61,4.64,11.78,11.78,0,0,1,1.58,1.11,11.78,11.78,0,0,0-1.58-1.11,9.26,9.26,0,0,0-1.09,2.15,46.72,46.72,0,0,0-3.65,14.15,46.05,46.05,0,0,0,.09,9.68,44.62,44.62,0,0,0,2.77,11.19,21.71,21.71,0,0,0,1.89,4.06,2.92,2.92,0,0,0,.19.52,45.63,45.63,0,0,0,14.27,16.45,44.93,44.93,0,0,0,24,8.43,46.68,46.68,0,0,0,25.81-5.62,33.66,33.66,0,0,0,7.45-5.49,5.66,5.66,0,0,0,.54-.43,40.17,40.17,0,0,0,8-10.7,47.32,47.32,0,0,0,4.91-16.75A56.87,56.87,0,0,0,207.78,690.9Z"/><path class="cls-2" d="M870.92,916.19c3.51,0,7,0,10.54,0,3.1,0,6.2.15,9.3.32a29.36,29.36,0,0,1,10.14,2.27,22.5,22.5,0,0,1,12.21,12.36,28.31,28.31,0,0,1,1.92,7.4c.28,2.12.35,4.26.44,6.39.16,3.79.16,7.59.16,11.39,0,5.07,0,10.13,0,15.2,0,2.81-.13,5.63-.27,8.44a33,33,0,0,1-1.42,8.48,23.23,23.23,0,0,1-4.8,8.66,22.86,22.86,0,0,1-9.48,6.4,31.14,31.14,0,0,1-6.54,1.55c-2,.25-4,.34-6,.41-9,.3-18,.17-27,.13-3,0-6.09-.15-9.12-.33a29.93,29.93,0,0,1-10.73-2.54,22.83,22.83,0,0,1-6.84-4.87,23.5,23.5,0,0,1-5.89-10.77,36.14,36.14,0,0,1-1-7c-.26-4.39-.3-8.79-.31-13.18s0-8.74,0-13.11c0-2.17,0-4.35.09-6.53,0-2,.12-4,.24-5.92a32.12,32.12,0,0,1,2.11-10,23,23,0,0,1,5.48-8.1A23.22,23.22,0,0,1,844,917.7a31.42,31.42,0,0,1,6.24-1.12c3.11-.26,6.22-.34,9.34-.37,3.78,0,7.56-.05,11.35-.07Zm.55,81.43c4.1,0,8.79-.08,13.48-.15,2.24,0,4.47-.11,6.69-.36a22.09,22.09,0,0,0,5.55-1.3,14.5,14.5,0,0,0,8.38-8,22.61,22.61,0,0,0,1.66-7.5c.12-1.74.2-3.47.24-5.2q.09-3.89.1-7.77,0-7.2,0-14.39c0-2.3-.06-4.61-.12-6.91-.06-2-.12-4-.35-6a22.27,22.27,0,0,0-1.29-5.46,14.5,14.5,0,0,0-7.31-8,19.86,19.86,0,0,0-7.52-1.92c-2.68-.18-5.37-.29-8.05-.35-3-.06-6-.07-9-.06-5.7,0-11.41,0-17.11.12a61.17,61.17,0,0,0-7.28.43,21,21,0,0,0-5.66,1.52,14.44,14.44,0,0,0-7.24,6.88,19.45,19.45,0,0,0-1.93,7.08c-.16,1.77-.27,3.55-.32,5.32q-.12,4.39-.13,8.79c0,4.37,0,8.74,0,13.11q0,3.25.07,6.53c.05,2.47.11,5,.36,7.41a22.11,22.11,0,0,0,1.32,5.8,14.57,14.57,0,0,0,8.25,8.46,23.37,23.37,0,0,0,7.56,1.59c1.9.12,3.81.21,5.71.23C862,997.56,866.42,997.58,871.47,997.62Z"/><path class="cls-2" d="M847.92,960.91a23,23,0,1,1,22.94,23A23,23,0,0,1,847.92,960.91Zm23,14.91a14.92,14.92,0,1,0-14.91-15A14.93,14.93,0,0,0,870.9,975.82Z"/><path class="cls-2" d="M894.77,942.38a5.37,5.37,0,1,1,5.39-5.37A5.35,5.35,0,0,1,894.77,942.38Z"/></g></svg>