<svg xmlns="http://www.w3.org/2000/svg" viewBox="0 0 1014.26 899.25"><defs><style>.cls-1{fill:#b6b9d1;}.cls-2{fill:#c46c3b;}.cls-3{fill:#aa5327;}.cls-4{fill:#171923;}.cls-5{fill:#2a2b3d;}.cls-6{fill:#d0e6ef;}.cls-32,.cls-34,.cls-7{fill:#fff;}.cls-8{fill:#d35473;}.cls-9{fill:#ffc55a;}.cls-10{fill:#54d15f;}.cls-11,.cls-12,.cls-13,.cls-14,.cls-15,.cls-16,.cls-30{fill:none;}.cls-11,.cls-30{stroke:#61648a;}.cls-11,.cls-12,.cls-13,.cls-14,.cls-15,.cls-16{stroke-linecap:round;}.cls-11,.cls-12,.cls-13,.cls-14,.cls-15,.cls-16,.cls-30,.cls-31{stroke-miterlimit:10;}.cls-11{stroke-width:0.5px;}.cls-12{stroke:#54d15f;}.cls-13{stroke:#2d292a;}.cls-14{stroke:#ffc55a;}.cls-15{stroke:#d35473;}.cls-16{stroke:#383952;opacity:0.21;}.cls-17,.cls-18,.cls-31{fill:#61648a;}.cls-17{opacity:0.33;}.cls-19{fill:#55597c;}.cls-20{fill:#383952;opacity:0.36;}.cls-21{fill:#f4b8ab;}.cls-22{fill:#dd6595;opacity:0.53;}.cls-23{fill:#6d3744;}.cls-24{fill:#542633;}.cls-25{fill:#8e253e;opacity:0.38;}.cls-26{fill:#7d819e;}.cls-27{fill:#f49947;}.cls-28{fill:#14161e;}.cls-29{fill:#1f202d;}.cls-30,.cls-31{stroke-width:4px;}.cls-31{stroke:#2a2b3d;}.cls-32{font-size:46.42px;font-family:Lato-Black, Lato;letter-spacing:-0.1em;}.cls-32,.cls-34{font-weight:800;}.cls-33{fill:#424866;}.cls-34{font-size:27.77px;font-family:Roboto-Black, Roboto;}.cls-35{fill:#454d89;}.cls-36{fill:#7e829e;}</style></defs><g id="OBJECTS"><path class="cls-1" d="M1033.07,988.56H43.81a12.5,12.5,0,0,1-12.5-12.5h0a12.5,12.5,0,0,1,12.5-12.5h989.26a12.5,12.5,0,0,1,12.5,12.5h0A12.5,12.5,0,0,1,1033.07,988.56Z" transform="translate(-31.31 -89.31)"/><rect class="cls-2" x="117.12" y="555.37" width="615.32" height="24.37"/><rect class="cls-2" x="168.37" y="577.64" width="27.27" height="309.11"/><rect class="cls-2" x="656.33" y="577.64" width="27.27" height="309.11"/><rect class="cls-3" x="168.37" y="577.64" width="27.27" height="30.91"/><rect class="cls-3" x="656.33" y="577.64" width="27.27" height="30.91"/><polygon class="cls-4" points="554.21 543.67 487.25 543.67 491.73 499.74 549.73 499.74 554.21 543.67"/><path class="cls-5" d="M604,643.74H500.41A12.57,12.57,0,0,1,513,631.17h78.45A12.57,12.57,0,0,1,604,643.74Z" transform="translate(-31.31 -89.31)"/><rect class="cls-5" x="386.92" y="324.37" width="267.95" height="179.15" rx="9.51"/><rect class="cls-6" x="398.32" y="334.62" width="245.16" height="145.63"/><path class="cls-4" d="M559.14,582.12a6.94,6.94,0,1,1-6.93-6.93A6.93,6.93,0,0,1,559.14,582.12Z" transform="translate(-31.31 -89.31)"/><rect class="cls-7" x="409.8" y="343.69" width="222.18" height="11.41"/><path class="cls-8" d="M450.29,439a2.43,2.43,0,1,1-2.43-2.43A2.43,2.43,0,0,1,450.29,439Z" transform="translate(-31.31 -89.31)"/><path class="cls-9" d="M459.36,439a2.43,2.43,0,1,1-2.43-2.43A2.43,2.43,0,0,1,459.36,439Z" transform="translate(-31.31 -89.31)"/><path class="cls-10" d="M468.42,439a2.43,2.43,0,1,1-2.43-2.43A2.43,2.43,0,0,1,468.42,439Z" transform="translate(-31.31 -89.31)"/><line class="cls-11" x1="621.39" y1="346.89" x2="628.79" y2="346.89"/><line class="cls-11" x1="621.39" y1="349.4" x2="628.79" y2="349.4"/><line class="cls-11" x1="621.39" y1="351.91" x2="628.79" y2="351.91"/><line class="cls-12" x1="561.11" y1="367.97" x2="578.33" y2="367.97"/><line class="cls-13" x1="581.77" y1="367.97" x2="589.84" y2="367.97"/><line class="cls-12" x1="592.82" y1="367.97" x2="618.3" y2="367.97"/><line class="cls-14" x1="552.5" y1="378.84" x2="577.78" y2="378.84"/><line class="cls-15" x1="581.22" y1="378.84" x2="597.43" y2="378.84"/><line class="cls-12" x1="600.41" y1="378.84" x2="611.24" y2="378.84"/><line class="cls-15" x1="614.62" y1="378.84" x2="625.45" y2="378.84"/><line class="cls-13" x1="554.77" y1="389.7" x2="569.39" y2="389.7"/><line class="cls-15" x1="572.83" y1="389.7" x2="584.31" y2="389.7"/><line class="cls-14" x1="587.3" y1="389.7" x2="608.09" y2="389.7"/><line class="cls-13" x1="610.88" y1="389.7" x2="617.33" y2="389.7"/><line class="cls-14" x1="547.86" y1="411.44" x2="551.6" y2="411.44"/><line class="cls-12" x1="555.04" y1="411.44" x2="576.29" y2="411.44"/><line class="cls-15" x1="579.27" y1="411.44" x2="594.55" y2="411.44"/><line class="cls-12" x1="596.85" y1="411.44" x2="616.4" y2="411.44"/><line class="cls-14" x1="591.09" y1="433.17" x2="619.45" y2="433.17"/><line class="cls-12" x1="554.77" y1="422.3" x2="569.39" y2="422.3"/><line class="cls-15" x1="572.83" y1="422.3" x2="580.64" y2="422.3"/><line class="cls-13" x1="583.62" y1="422.3" x2="599.51" y2="422.3"/><line class="cls-15" x1="603.22" y1="422.3" x2="619.11" y2="422.3"/><line class="cls-14" x1="555.46" y1="433.17" x2="566.61" y2="433.17"/><line class="cls-13" x1="570.05" y1="433.17" x2="574.8" y2="433.17"/><line class="cls-12" x1="577.78" y1="433.17" x2="587.56" y2="433.17"/><line class="cls-15" x1="572.83" y1="453.58" x2="583.62" y2="453.58"/><line class="cls-13" x1="587.06" y1="453.58" x2="599.51" y2="453.58"/><line class="cls-14" x1="602.49" y1="453.58" x2="622.41" y2="453.58"/><line class="cls-15" x1="562.94" y1="464.44" x2="571.11" y2="464.44"/><line class="cls-13" x1="574.55" y1="464.44" x2="587.56" y2="464.44"/><line class="cls-14" x1="590.54" y1="464.44" x2="602.35" y2="464.44"/><line class="cls-12" x1="605.73" y1="464.44" x2="624.03" y2="464.44"/><line class="cls-16" x1="550.66" y1="367.97" x2="554.33" y2="367.97"/><line class="cls-16" x1="541.02" y1="378.84" x2="544.69" y2="378.84"/><line class="cls-16" x1="545.47" y1="389.7" x2="549.15" y2="389.7"/><line class="cls-16" x1="536.72" y1="400.57" x2="540.39" y2="400.57"/><line class="cls-16" x1="536.72" y1="411.44" x2="540.39" y2="411.44"/><line class="cls-16" x1="545.02" y1="422.3" x2="548.7" y2="422.3"/><line class="cls-16" x1="546.02" y1="433.17" x2="549.69" y2="433.17"/><line class="cls-16" x1="536.72" y1="444.03" x2="540.39" y2="444.03"/><line class="cls-16" x1="560.24" y1="453.58" x2="563.92" y2="453.58"/><line class="cls-16" x1="551.6" y1="464.44" x2="555.28" y2="464.44"/><rect class="cls-17" x="409.8" y="365.28" width="55.63" height="52.57"/><rect class="cls-18" x="472.38" y="365.28" width="48.68" height="4.77"/><rect class="cls-18" x="472.38" y="377.23" width="48.68" height="4.77"/><rect class="cls-17" x="472.38" y="389.18" width="48.68" height="4.77"/><rect class="cls-17" x="472.38" y="401.14" width="48.68" height="4.77"/><rect class="cls-17" x="472.38" y="413.09" width="48.68" height="4.77"/><rect class="cls-18" x="409.97" y="425.87" width="55.46" height="38.58"/><rect class="cls-8" x="472.38" y="425.87" width="48.68" height="18.17"/><rect class="cls-18" x="472.38" y="453.19" width="48.68" height="11.25"/><path class="cls-5" d="M540.78,933.86c-2.78,25.56-6.42,36.93,0,40.58s42.8,0,50.69,0,7.89-16.62-5.26-23.55-15.78-31.73-15.78-31.73Z" transform="translate(-31.31 -89.31)"/><path class="cls-5" d="M375.67,933.86c-2.78,25.56-6.42,36.93,0,40.58s42.8,0,50.69,0,7.88-16.62-5.26-23.55-15.78-31.73-15.78-31.73Z" transform="translate(-31.31 -89.31)"/><path class="cls-19" d="M418.89,835.28c-.72,27.42-2.71,53.18-6.16,69.18H362L343.11,793.78l-1.94-11.37A19.51,19.51,0,0,1,321.63,763v-.35c.35-21.92,4.15-55.94,23-69,21-14.56,63.17,16.11,66.91,23.68,3.66,7.36,6.18,32.64,7.18,63C419.31,797.73,419.38,816.88,418.89,835.28Z" transform="translate(-31.31 -89.31)"/><path class="cls-20" d="M418.89,835.28C401,843,386.35,890.76,382.48,904.46H362L343.11,793.78c2.3-3.78,4.84-6.85,7.55-8.54,9.21-5.77,62.4-5.07,68.07-5C419.31,797.73,419.38,816.88,418.89,835.28Z" transform="translate(-31.31 -89.31)"/><path class="cls-21" d="M585.6,625c16.17-6.09,27.43,1,30.35,6s4.59,9.59,3.34,12.1-5.42,0-5.42,0-14.18,2.64-25,1.11S585.6,625,585.6,625Z" transform="translate(-31.31 -89.31)"/><path class="cls-22" d="M588.33,629.71c8.78,4.71,24.11,11.38,24,12.52s-13.75,4.24-22.46,1.82S588.33,629.71,588.33,629.71Z" transform="translate(-31.31 -89.31)"/><path class="cls-21" d="M432,432.35c6.12,25.08,1.66,54.65-19.84,57l.09,8.83a11.84,11.84,0,0,1-11.72,11.95h0a11.84,11.84,0,0,1-12-11.72l-.09-8.82s-17.29-7.15-20.84-17.88,0-1.72,0-1.72l-2-43.89,66.83-.67Z" transform="translate(-31.31 -89.31)"/><path class="cls-22" d="M412.14,489.37a200.4,200.4,0,0,1-20.59.71l20.68,8.12Z" transform="translate(-31.31 -89.31)"/><path class="cls-23" d="M433,437.2c19-12,15.39-36.7,1.94-27.93,0,0-21.21-21.81-54.07-9.91s-37,39.42-30.06,56.55,49.52,26,49.52,26L420,461.1Z" transform="translate(-31.31 -89.31)"/><path class="cls-23" d="M435,409.27c3.28-9.56-5-21.7-12.64-21.7s-7.26,13.18-7.26,13.18l13.11,17.36Z" transform="translate(-31.31 -89.31)"/><path class="cls-24" d="M420.79,453.57c-.23,3-2.5,29.91-8.65,35.79l-26.49.37s-29.24-6-34.13-30.25a77.39,77.39,0,0,1-1.18-7.92c8.63,17.55,45.09,20.5,64.76-1.65C415.1,449.91,417.59,451.45,420.79,453.57Z" transform="translate(-31.31 -89.31)"/><path class="cls-21" d="M428.21,448.31c-5.51-9.82-11.84-5.61-13.06.13s10.39,19.58,13.2,14.65S428.21,448.31,428.21,448.31Z" transform="translate(-31.31 -89.31)"/><path class="cls-22" d="M427.66,451c-4.88-5-7.23-2.91-6.85,2.35s6.75,9,8.79,7.44S427.66,451,427.66,451Z" transform="translate(-31.31 -89.31)"/><path class="cls-8" d="M589.91,644.05c-2.57,5.11-69.22,15.37-86.31,12s-30.76-28.21-30.76-28.21v65.8H344.64s-12.45-60.48-19.39-100.91c-2.85-16.64-4.8-29.88-4.54-34.12.51-8.54,2.2-13.24,3.52-15.67v0a7.82,7.82,0,0,1,1.62-2.25s15.37-28.19,52.12-32.47l.86-11.11c29.9-6,51.26,0,52.12,5.14a34.51,34.51,0,0,1,0,10.16s35.9-9.33,61.54,27.43,35.9,65.78,35.9,65.78,48.7,10.27,54.7,16.27a27.57,27.57,0,0,1,5.83,9.19C590.86,635.92,591.42,641,589.91,644.05Z" transform="translate(-31.31 -89.31)"/><path class="cls-25" d="M589.91,644.05c-2.57,5.11-69.22,15.37-86.31,12s-30.76-28.21-30.76-28.21v65.8H344.64s-12.45-60.48-19.39-100.91l-1-49.79v0s31.29,1,79.22,1.37,50.55,30,63.58,47.93,21.53,48.26,44.7,48.58,71.73,4.24,76.61-9.6l.58-.14C590.86,635.92,591.42,641,589.91,644.05Z" transform="translate(-31.31 -89.31)"/><path class="cls-18" d="M578.62,900.57c-.26,1.34-.51,2.64-.79,3.89H527.12L506.29,782.41H415.07l-25.9-32.66L344.64,693.6h128.2c2,0,4,0,6,.07,35,.63,89.39,6.71,97.79,23.61,3,6.09,5.26,24.47,6.48,47.82C585.49,808.52,584.4,869.21,578.62,900.57Z" transform="translate(-31.31 -89.31)"/><path class="cls-20" d="M578.62,900.57l-4.45,3.89h-47L506.29,782.41H415.07l-25.9-32.66,2.39-37.42,17.38-18.73h63.9c2,0,4,0,6,.07-7.22,61.73,37.66,77.84,66.39,76.27a270.56,270.56,0,0,0,37.88-4.84C585.49,808.52,584.4,869.21,578.62,900.57Z" transform="translate(-31.31 -89.31)"/><polygon class="cls-26" points="546.15 844.55 495.64 844.55 491.01 815.15 550.78 815.15 546.15 844.55"/><polygon class="cls-26" points="381.04 844.55 330.53 844.55 325.9 815.15 385.67 815.15 381.04 844.55"/><rect class="cls-19" x="290.93" y="862.81" width="4.6" height="17.27"/><rect class="cls-19" x="323.6" y="862.81" width="4.6" height="17.27"/><rect class="cls-19" x="356.27" y="862.81" width="4.6" height="17.27"/><path class="cls-9" d="M283.24,466.38H400.11a24.31,24.31,0,0,1,24.31,24.31V686.06a7,7,0,0,1-7,7H266a7,7,0,0,1-7-7V490.69A24.31,24.31,0,0,1,283.24,466.38Z"/><path class="cls-27" d="M283.24,466.38H400.11a24.31,24.31,0,0,1,24.31,24.31V686.06a7,7,0,0,1-7,7H266a7,7,0,0,1-7-7V490.69A24.31,24.31,0,0,1,283.24,466.38Z"/><path class="cls-9" d="M254.92,466.38H371.79a24.31,24.31,0,0,1,24.31,24.31V686.06a7,7,0,0,1-7,7H237.65a7,7,0,0,1-7-7V490.69A24.31,24.31,0,0,1,254.92,466.38Z"/><rect class="cls-27" x="274.33" y="693.1" width="176.91" height="33.14" rx="7.16"/><rect class="cls-9" x="232.15" y="693.1" width="176.91" height="33.14" rx="7.16"/><rect class="cls-28" x="319.56" y="739.66" width="13.37" height="117.9"/><path class="cls-29" d="M300.74,726.24h49.42a0,0,0,0,1,0,0v11.25a2.17,2.17,0,0,1-2.17,2.17H302.91a2.17,2.17,0,0,1-2.17-2.17V726.24A0,0,0,0,1,300.74,726.24Z"/><rect class="cls-29" x="286.05" y="854.59" width="78.81" height="11.73"/><rect class="cls-5" x="301.85" y="596.99" width="17.5" height="129.25"/><rect class="cls-29" x="290.32" y="572.75" width="40.57" height="45.09" rx="4.02"/><rect class="cls-5" x="300.45" y="584.01" width="20.31" height="22.58" rx="4.02"/><path class="cls-28" d="M331.71,970.56a7.18,7.18,0,1,1-7.17-7.17A7.17,7.17,0,0,1,331.71,970.56Z" transform="translate(-31.31 -89.31)"/><path class="cls-28" d="M364.38,970.56a7.18,7.18,0,1,1-7.17-7.17A7.17,7.17,0,0,1,364.38,970.56Z" transform="translate(-31.31 -89.31)"/><path class="cls-28" d="M397.05,970.56a7.18,7.18,0,1,1-7.17-7.17A7.17,7.17,0,0,1,397.05,970.56Z" transform="translate(-31.31 -89.31)"/><polyline class="cls-30" points="187.13 548.56 117.12 404.46 193.68 331.72"/><path class="cls-31" d="M161.82,493.77a13.39,13.39,0,1,1-13.39-13.39A13.39,13.39,0,0,1,161.82,493.77Z" transform="translate(-31.31 -89.31)"/><path class="cls-18" d="M221.48,395.49h0a12.88,12.88,0,0,1,18.25,3.78l2.75,4.41-20.84,13.78-2.54-2.92A12.87,12.87,0,0,1,221.48,395.49Z" transform="translate(-31.31 -89.31)"/><path class="cls-9" d="M281.22,462.66a11.3,11.3,0,1,1-11.3-11.3A11.3,11.3,0,0,1,281.22,462.66Z" transform="translate(-31.31 -89.31)"/><path class="cls-5" d="M221.64,417.46l21.09,53.82a7,7,0,0,0,9.23,3.87c9.06-3.93,25.1-11.88,33.49-22a7,7,0,0,0-.59-9.53l-42.38-40Z" transform="translate(-31.31 -89.31)"/><rect class="cls-5" x="152.98" y="543.05" width="68.29" height="11.02"/><rect class="cls-6" x="414.12" y="39.2" width="214.68" height="214.68"/><circle class="cls-18" cx="559.14" cy="128.51" r="39.2" transform="translate(275.17 554.28) rotate(-76.81)"/><rect class="cls-18" x="473.69" y="116.86" width="124" height="21.68"/><rect class="cls-7" x="452.01" y="116.86" width="21.68" height="21.68"/><rect class="cls-18" x="473.69" y="150.34" width="124" height="21.68"/><rect class="cls-17" x="534.54" y="183.82" width="63.15" height="10.84"/><rect class="cls-7" x="452.01" y="150.34" width="21.68" height="21.68"/><rect class="cls-8" x="609.98" y="57.14" width="106.12" height="53.98"/><polygon class="cls-8" points="640.2 103.77 622.18 136.01 669.6 106.61 640.2 103.77"/><path class="cls-7" d="M675.38,173.44a5,5,0,1,1-5-5A5,5,0,0,1,675.38,173.44Z" transform="translate(-31.31 -89.31)"/><path class="cls-7" d="M699.32,173.44a5,5,0,1,1-5-5A5,5,0,0,1,699.32,173.44Z" transform="translate(-31.31 -89.31)"/><circle class="cls-7" cx="686.98" cy="84.13" r="4.98"/><rect class="cls-9" x="339.51" y="178.59" width="92.75" height="64.25"/><text class="cls-32" transform="translate(354.25 226.59)">&lt;/&gt;</text><path class="cls-8" d="M713.88,919.16c2.78,25.56,5.56,51.63-.86,55.28s-42.8,0-50.69,0-7.88-16.62,5.26-23.55,15.78-31.73,15.78-31.73Z" transform="translate(-31.31 -89.31)"/><path class="cls-8" d="M872.38,933.86c2.78,25.56,6.43,36.93,0,40.58s-42.8,0-50.68,0-7.89-16.62,5.25-23.55a23.92,23.92,0,0,0,13.21-19.76Z" transform="translate(-31.31 -89.31)"/><path class="cls-24" d="M661,303.22c-10.75,21.54-9.44,43.5,12,44.41S661,303.22,661,303.22Z" transform="translate(-31.31 -89.31)"/><path class="cls-21" d="M664.41,325.74c6.75,26.46,25.6,51.86,46.85,43.38l4.31,8.28a12.51,12.51,0,0,0,16.88,5.34h0a12.52,12.52,0,0,0,5.33-16.88l-4.3-8.28s12.59-15.26,10.58-27-.84-1.62-.84-1.62l-20-41.95-62.72,32.58Z" transform="translate(-31.31 -89.31)"/><path class="cls-22" d="M711.26,369.12a210.8,210.8,0,0,0,19.58-9.56L715.57,377.4Z" transform="translate(-31.31 -89.31)"/><path class="cls-23" d="M744.69,323.37c-.7,13.35-4.12,24.93-6.69,27.73-5.56,6-24.56,12.63-24.56,12.63-8.66-1.15-23.19-7.45-35-17.31C666,336,656.57,321.56,660.53,305c6.74-28.12,48.14-41.5,70.32-24.07C742.7,290.27,745.5,308,744.69,323.37Z" transform="translate(-31.31 -89.31)"/><path class="cls-24" d="M744.69,323.37c-.7,13.35-4.12,24.93-6.69,27.73-5.56,6-24.56,12.63-24.56,12.63-8.66-1.15-23.19-7.45-35-17.31.34-4.28,1.53-8.35,4.33-10.85,8.21-7.39,32.28,9.93,37.72-17.94l5.07-1.74S736.66,320.2,744.69,323.37Z" transform="translate(-31.31 -89.31)"/><path class="cls-21" d="M675.86,338.77c.27-11.9,8.27-11.12,12.26-6.36s0,23.44-5,20.23S675.86,338.77,675.86,338.77Z" transform="translate(-31.31 -89.31)"/><path class="cls-22" d="M677.7,341c2-7.11,5.29-6.31,7.56-1.22s-1.85,11.74-4.52,11.32S677.7,341,677.7,341Z" transform="translate(-31.31 -89.31)"/><path class="cls-9" d="M727.53,289c-10.28,4.47-14.84,18.69-7,28.67,5.46,7,15.17,3.77,15.17,3.77Z" transform="translate(-31.31 -89.31)"/><path class="cls-23" d="M722.37,305.23c-3.21-15.75,13.1-29.12,27.36-21.7a17.23,17.23,0,0,1,8.22,8.83c5.35,13.37,5,30.71,21.39,33.07,0,0-19.72,21.07-39.44,8.37C728.85,326.69,724.27,314.54,722.37,305.23Z" transform="translate(-31.31 -89.31)"/><path class="cls-33" d="M781.25,366.32c31.86.56,66.24,41.38,75.94,68.14s-15.87,59.31-15.87,59.31Z" transform="translate(-31.31 -89.31)"/><path class="cls-21" d="M588.33,515.73c-13.72-17.58-20-18.54-24.37-15.16s-20.81,12.88-23.72,15.16.49,5.66,5.81,4.69l5.32-1S549,532,555.25,537.85s26.14-2.42,26.14-2.42Z" transform="translate(-31.31 -89.31)"/><path class="cls-9" d="M840.44,632.36c-3.08,13.66-11.62,38.47-22.8,68.28-35,93.32-96,235.43-96,235.43l-51.82-5L747.16,547l1.65-8.19s34.34-50.72,61.1-39.26c5.35,2.29,10.3,6.71,14.65,12.8,5.86,8.1,10.69,19.12,14.17,31.87C845.69,569.75,847.22,602.27,840.44,632.36Z" transform="translate(-31.31 -89.31)"/><path class="cls-9" d="M879.25,934.48l-44.55,1.59L817.64,700.64l-7.73-106.56V512.35h50.8c8.2,10.58,15.28,25.21,21.11,43.33h0C906.91,633.4,909.18,775.07,879.25,934.48Z" transform="translate(-31.31 -89.31)"/><polygon class="cls-27" points="785 614.87 828.08 536.11 789.52 655.41 785 614.87"/><path class="cls-27" d="M881.82,555.68c-.69-.35-15.87-7.52-43.09-11.46a245,245,0,0,0-28.82-2.4A297.06,297.06,0,0,0,747.16,547l1.65-8.19s34.34-50.72,61.1-39.26c5.35,2.29,10.3,6.71,14.65,12.8h36.15C868.91,522.93,876,537.56,881.82,555.68Z" transform="translate(-31.31 -89.31)"/><path class="cls-18" d="M860.71,512.35l-111.9,26.46-37.24-49.44s-20.12,47.68-33.47,54.74-97.75-4.42-97.75-4.42c-2.19-2.5-2.4-7.34-1.73-12.55h0c1.16-9.4,5.16-20,5.16-20l66.2-6.28s20-54,28.1-79.87,25.09-29.65,25.09-29.65.32-6.39-.16-8.22,27.05-22.26,45.78-22.26l4.35,4s17.63-7.67,40.55,8.21c12.06,8.33,29.95,46.36,44.21,80.59v0C850.79,484.58,860.71,512.35,860.71,512.35Z" transform="translate(-31.31 -89.31)"/><path class="cls-20" d="M860.71,512.35l-111.9,26.46-37.24-49.44s-20.12,47.68-33.47,54.74-97.75-4.42-97.75-4.42c-2.19-2.5-2.4-7.34-1.73-12.55h0c23.4-10.67,81.66,15.79,96.15-2.87s29.79-71.29,36.8-56.5,21.34,37.11,39.07,40.92,90.64-14.92,87.26-55C850.79,484.58,860.71,512.35,860.71,512.35Z" transform="translate(-31.31 -89.31)"/><text class="cls-34" transform="translate(501.26 48.48)">CSS</text><circle class="cls-35" cx="832.64" cy="227.85" r="39.2" transform="translate(389.56 897.26) rotate(-76.81)"/><text class="cls-34" transform="translate(784.02 147.82)">JS</text><circle class="cls-36" cx="294.69" cy="337.87" r="39.2" transform="translate(-132.8 458.42) rotate(-76.81)"/><text class="cls-34" transform="translate(236.82 257.84)">SQL</text></g></svg>