<svg xmlns="http://www.w3.org/2000/svg" xmlns:xlink="http://www.w3.org/1999/xlink" viewBox="0 0 1080 1080"><defs><style>.cls-1{fill:none;}.cls-2{fill:#e0e9ff;}.cls-3{fill:#ed1c24;}.cls-4{fill:#d31c24;}.cls-5{fill:#2175fb;}.cls-6{fill:#0b53ff;}.cls-7{fill:#5065fc;}.cls-8{fill:#fff;}.cls-9{fill:#232323;}.cls-10{fill:#f4d37e;}.cls-11{fill:#24223c;}.cls-12{fill:#2d2d2d;}.cls-13{fill:#fc5b53;}.cls-14{fill:#495ce6;}.cls-15{fill:#e6e7e8;}.cls-16{fill:#d1d3d4;}.cls-17,.cls-25{fill:#0f1d8f;}.cls-18{fill:#ccdbff;}.cls-19{fill:#08104e;}.cls-20{fill:#96b3ff;}.cls-21{clip-path:url(#clip-path);}.cls-22{fill:#628aec;}.cls-23{fill:#fb1518;}.cls-24{fill:#f4d87e;}.cls-25{font-size:75.36px;font-family:Roboto-Black, Roboto;font-weight:800;}</style><clipPath id="clip-path"><rect class="cls-1" x="391.85" y="374.47" width="285.69" height="250.36"/></clipPath></defs><g id="OBJECTS"><path class="cls-2" d="M1082.57-2.87s.71,916.05.71,917.05c0-15.19-59.52-11.6-67.9-9.33-22.18,6-41.72,19.7-60.24,33-41.44,29.76-81.55,65.25-132.28,77-115.37,26.77-248.24,5-348.61-58.59-21.54-13.65-40.07-32.66-63.88-42C386.16,904.75,359.79,902,334.05,901c-64.58-2.46-132.26-11.55-185.1-45-44.67-28.24-74.2-71.9-85.46-116.66-22-121.14,135.79-173,135.78-267,0-84.06-154.58-146.23-107.32-259.23,11.2-26.78,37.5-46.76,65.88-61.38,33-17,70.42-12.82,107-23.64,80.35-23.75,129.32-88.41,197.58-130Z"/><path class="cls-3" d="M385,665.68q-2-6.27-4.12-12.26Z"/><path class="cls-3" d="M380.73,689.31l.09-36a292,292,0,0,0-23.54-49.89c-8.66,9.86-11.47,40.48-11.47,40.48.81-31.62,4-41.08,4.27-51.43-12.74-17.84-32.16-27.5-47.52-38.12,6.15,37.59,5.69,47.07,5.69,47.07-2-22.52-8.89-38.09-12.35-51.46-39.13-24.76-59.38-18.28-59.38-18.28.38,15.89,5.2,51.11,6.66,64.69,16.52,15.11,39.41,30,39.41,30-11.86-4.09-27.39-14-38.41-21.61,2.5,19.66,2.28,16.43,7,32C267.62,652.9,301,671.39,301,671.39c-14.5-3.78-34.75-15.51-45.81-22.34A218.61,218.61,0,0,0,293,715.43a358.05,358.05,0,0,0,35.34,14.22c-8.35-.53-18.84-3.2-28.53-6.25,18.28,20.56,39.79,38.83,63.58,59.34l24.07,10.5,7.56-38.63c3.48-30.77-1.58-61.55-9.95-88.56Z"/><path class="cls-4" d="M361.68,726.71c4.55,9.18,8.9,18.52,12.8,28.14A176.89,176.89,0,0,1,384,784.76l-.42.13a172.7,172.7,0,0,0-10.25-29.35c-4.13-9.4-8.71-18.52-13.48-27.49-9.5-18-19.76-35.37-30.06-52.74s-21-34.45-30.66-52.41c-4.84-9-9.58-18-14-27.28s-8.68-18.69-12.44-28.38L273,567c9.59,18,19.56,35.55,29.69,53s19.92,35.27,29.91,52.92S352.5,708.39,361.68,726.71Z"/><path class="cls-5" d="M309.68,773.39c3.67-37.94,7.54-53.71,5.88-66.49-20.4-18.15-43.21-30.65-65.65-39.2,15.62,44.27,8.17,73.93,8.17,73.93,1.68-30.89-10.62-62-17.86-77.38-56.71-19-108.28-14.09-108.28-14.09,3.67,19.36,7.83,37,12.46,53.25,24.87,13.72,58.14,25.37,58.14,25.37-16.51-1.56-39-9.16-55.14-15.32a358.54,358.54,0,0,0,24.83,61.24c25,15,72.89,28,72.89,28-19.94-.41-49.07-8.9-65.06-14.07,17.86,29.68,39,51.79,63.26,70.35a484.46,484.46,0,0,0,49.6,7.16c-11.16,1.78-25.57,1.56-39,.63,28.28,19.88,60.38,36,96,54.24l33.94,5.87,2.32-49.52c-2.92-74.83-26.81-125.21-58.86-159.08C317.77,732.83,309.68,773.39,309.68,773.39Z"/><path class="cls-6" d="M377,917.75a193.6,193.6,0,0,0-19.41-33c-7.34-10.32-15.21-20.16-23.31-29.76-16.16-19.26-33.19-37.61-50.28-55.9s-34.64-36.11-51-55.3c-8.19-9.58-16.26-19.3-24-29.35s-15.21-20.38-22.11-31.16l.45-.42c16.27,19.26,33,37.88,49.85,56.38s33.38,37.42,50.12,56.15S320.61,833,336.4,852.82c7.85,9.94,15.47,20.12,22.54,30.77a196,196,0,0,1,18.54,33.88Z"/><path class="cls-5" d="M820.93,828.82q4.52-4,8.71-8Z"/><path class="cls-5" d="M799.22,832l30.53-11.29a239.77,239.77,0,0,0,32.72-39.59c-11.83-5.66-38.86,1.16-38.86,1.16,27.08-9.16,36.35-9,45.23-11.91,10-18.53,10.31-41.26,13.11-60.16-29.32,18.09-37.52,20.61-37.52,20.61,18.23-9.16,28.64-21,38.56-28.75,5.18-47.44-8.45-65.91-8.45-65.91-13.28,5.4-41.13,21.39-52,27.16-6.13,21.49-9.54,49.4-9.54,49.4-1.33-13.31.78-32.16,2.8-45.73-15.61,8.74-13,7.5-24.23,17.16-7,21.77-9.24,61.45-9.24,61.45-2.64-15.88-.87-40.09.46-53.45-18.56,18-31.23,37.64-40.92,59.25,0,19.91,2.2,40.29,2.2,40.29-2.92-8.62-4.88-20.09-6.2-30.87-10,25-16.83,52.56-24.6,83.13L714,871.6l35.71-4.53c27.44-6.18,51.43-21,70.91-38Z"/><path class="cls-6" d="M759.92,824.46c-5.94,7.5-12.09,14.86-18.65,21.84a137.49,137.49,0,0,1-21.47,19.07l-.28-.38a136.92,136.92,0,0,0,20.7-19.64c6.29-7.16,12.15-14.67,17.82-22.33,11.37-15.3,22-31.18,32.52-47.09s20.68-32.15,32-47.6c5.63-7.73,11.39-15.39,17.42-22.83s12.32-14.7,19-21.56l.36.3c-11.35,15.39-22.19,31-32.92,46.82s-21.81,31.31-32.72,47S771.72,809.38,759.92,824.46Z"/><path class="cls-3" d="M771.76,765.24q-2.07,3.79-4.41,7.59Zm-4.54,7.81c-10.07,16.28-23.79,32-41.84,42.38l-24.27,11L694.48,807c-1.18-23.32-2.4-44.29-.76-64.16,3.28,7.33,7.18,15,11.12,20.47,0,0-6-13.93-10.35-28,2.13-17.4,6.79-34.06,16-50.84,2,9.73,6,27.24,11.36,37.9,0,0-7.12-28.54-6.9-45.48,5.85-9.29,4.25-7.84,13.39-17.43,1.54,10,4.16,23.83,8,32.95,0,0-3.69-20.48-4.05-37,6.45-6.46,22.65-23.86,30.87-30.58,0,0,13.68,10.08,20.38,44.77-5.33,7.63-10.1,18.29-21,28.76,0,0,5.25-3.58,22-22.78,2.15,14,6.87,30.13,3.87,45.41-5.63,4-12.23,5.91-29.38,18.31,0,0,17.63-10.74,27.23-9.31a177.1,177.1,0,0,1-14.49,35.14l-19.12,14.66Z"/><path class="cls-4" d="M737,742.88c4.29-13.48,8.77-26.89,12.87-40.39s8.39-26.93,13-40.3l-.32-.14c-3.23,6.32-6.1,12.81-8.72,19.4s-5,13.26-7.34,20c-4.61,13.4-8.22,27.09-12.22,40.65s-8,27.1-12.7,40.41c-2.33,6.65-4.84,13.25-7.73,19.68a101,101,0,0,1-10.34,18.42l.28.21a102.66,102.66,0,0,0,11-18.18c3.11-6.38,5.85-12.92,8.41-19.53C728.3,769.83,732.67,756.35,737,742.88Z"/><path class="cls-3" d="M790.81,908c26,8.43,36.35,13.75,45.61,14.35,16.37-13.16,29.2-29,39.19-45.16-33.85,5.6-53.33-4.55-53.33-4.55,21.37,5.86,45.39.89,57.47-2.46,23.39-41.2,29.14-81.92,29.14-81.92-14.23,0-27.37.62-39.58,1.83-14,17.27-28.13,41.36-28.13,41.36,4-12.58,13.36-28.93,20.55-40.52a248.21,248.21,0,0,0-47.39,10.25c-15,17.18-32.59,52.43-32.59,52.43,3.84-15.4,15-36.76,21.45-48.4-24,9.49-43.28,22.66-60.62,38.72-7.83,18.08-13.84,37.42-13.84,37.42.73-8.92,3.45-20.06,6.5-30.35-19,19-36,41.54-55.13,66.45L670,942.88,704.29,952c53,8.74,92.62-2.37,122.09-22.25C817.83,920.2,790.81,908,790.81,908Z"/><path class="cls-4" d="M677.55,938.9a140.19,140.19,0,0,0,26.59-10.2c8.55-4.18,16.85-8.84,25-13.7,16.39-9.7,32.29-20.21,48.17-30.78s31.5-21.56,47.88-31.43c8.18-4.94,16.43-9.77,24.86-14.3s17-8.8,25.8-12.57l.21.41c-16.4,9.79-32.44,20-48.42,30.37s-32.2,20.39-48.32,30.62S747,907.66,730.32,917c-8.37,4.62-16.87,9-25.6,13a140.42,140.42,0,0,1-27.07,9.4Z"/><rect class="cls-7" x="531.3" y="119.94" width="63.29" height="52.5" rx="7.85"/><path class="cls-8" d="M591.77,125l-17.21,17.22c-.3.29-.61.57-.92.84a16.42,16.42,0,0,1-21.39,0c-.31-.27-.62-.55-.92-.84L550.12,141l-16-16a12.93,12.93,0,0,1,2.06-2.12l16,16,1.22,1.22a10.24,10.24,0,0,0,.93.83,13.43,13.43,0,0,0,17.16,0,12.64,12.64,0,0,0,.94-.85l1.21-1.2,16-16A13,13,0,0,1,591.77,125Z"/><path class="cls-8" d="M553.44,140.14a10.24,10.24,0,0,0,.93.83l-2.12,2.12L532,163.36a13.36,13.36,0,0,1-.65-3.54L550.12,141l2.1-2.11Z"/><path class="cls-8" d="M594.56,159.82a13.36,13.36,0,0,1-.65,3.54l-20.27-20.27-2.11-2.1a12.64,12.64,0,0,0,.94-.85l1.21-1.2,2.09,2.09Z"/><path class="cls-9" d="M146.37,927s-33.31,1.78-40.94,5.2,1.15,20.71,6.49,21.44c3.9.53,36.94-2.81,41.61-7.62Z"/><path class="cls-10" d="M146.37,927s-14.45,3.08-17.15,6.58-3.15,13.06-1.16,13.46,4.53,3.53,25.47-1Z"/><path class="cls-6" d="M146,926.83l7.4,19.51,137.22-25.13c13.38-3,36.56-15.21,33.58-25.74-3.63-12.78-14.08-20.94-27.28-17.23Z"/><path class="cls-11" d="M199.82,677.81c10.38-9.87,28.82-12.75,42.44,21.53,8.28,20.86,18,13,24.31,24.81,4.4,8.25.08,18.78,2.69,27.59,3.9,13.15,21,12.55,20.43,36.48-.72,29.38-138.34,39.54-168.6,5.93-12.23-13.57,4-23.1,9.94-32,5-7.43-3.58-14.76-3.28-26.87s21.6-22.62,24.41-29.31c3.89-9.25.66-28.46,22-34C187,668.67,199.82,677.81,199.82,677.81Z"/><path class="cls-10" d="M199.16,698.27c20.27,0,29.54,6.49,26.62,28.41-3.43,25.78-9.29,30-14.38,32.19l2.22,12.75,18.51,9.9,5.34,12.25-32.4,26L173.19,796.1l3.87-16.61L188.85,769l.61-10.33c-4.87-3.64-8.21-7.82-10.51-26.53S175.47,698.27,199.16,698.27Z"/><path class="cls-12" d="M212.86,724.55c-.05,2.35-1.14,4.22-2.43,4.19s-2.28-2-2.22-4.3,1.15-4.22,2.43-4.18S212.92,722.21,212.86,724.55Z"/><path class="cls-12" d="M194.61,724.1c-.06,2.35-1.14,4.22-2.43,4.19s-2.28-2-2.22-4.3,1.15-4.22,2.43-4.19S194.67,721.76,194.61,724.1Z"/><path class="cls-13" d="M194.55,742.25s2.68.11,4.42.11a3.07,3.07,0,0,1,2.52.94,4,4,0,0,1,2.24-.78c1.71,0,4.71-.27,4.71-.27a7.62,7.62,0,0,1-6.94,4.38C198.9,746.63,195.87,744.27,194.55,742.25Z"/><path class="cls-11" d="M202.06,700.36s1.54,16,29.21,17.12l1-3a9.91,9.91,0,0,0,.53-2.8,17.79,17.79,0,0,0-12.73-17.77l-18.58-5.46-18.1,5.63a17.54,17.54,0,0,0-13,19.74h0S198.21,723.65,202.06,700.36Z"/><path class="cls-7" d="M202.35,802.38s16.76-13.27,15.84-19.8a24.09,24.09,0,0,0-4.57-11l26.68,14.83s10.47,73.7-.94,96.21l-6,10s-27.37,14.15-62.49-1.55l-8-16.12-3.93-75s3.2-14.46,4.81-15.5S188.85,769,188.85,769s-3,8.48-.62,16.14S202.35,802.38,202.35,802.38Z"/><path class="cls-14" d="M178,832.84s12.27,10.45,20,8.15a21.4,21.4,0,0,1-18.51-.07C169.63,836.14,178,832.84,178,832.84Z"/><path class="cls-14" d="M183.61,843.62l2.22,15.27,1.44,24.66,1.19,13.27s-10-1.17-11.74-3.23S183.61,843.62,183.61,843.62Z"/><path class="cls-14" d="M221.73,843.43,221,855.28l-.4,16.41,6.25,23.45s3.81-.32,5.52-2.42S221.73,843.43,221.73,843.43Z"/><path class="cls-14" d="M229,834.1s-12.76,9.83-20.34,7.15a21.38,21.38,0,0,0,18.49.85C237.25,837.81,229,834.1,229,834.1Z"/><path class="cls-3" d="M278.72,906.33c-1.63,0-35.79,9.77-43.5,8.76,0,0-10.46-39.1-11.43-49.3s-7.8-87.5-10.17-94.17c0,0,41.16,15.57,45.32,22.59s10.33,37.87,10.33,37.87l3.27,11.54s-25.35,8.53-30.61,7.18c-.77,6.49,5.33,22.11,5.33,22.11Z"/><path class="cls-3" d="M188.85,769s-3.77,143.42-14.36,155.11l-36.42-4.52,11-12.91,8-31.27s4.62-23,5.79-28.86c-4.65,1-26.49-1.34-26.49-1.34l4.5-11s5.33-29.35,9.33-41.85C160.9,783.64,173.68,776.49,188.85,769Z"/><path class="cls-4" d="M238.16,812.73s1.77,22.93,3.77,38.07c1.84,14,4.35,19.47,5.33,22.11,1,2.34,2.32,4.81,2.32,4.81l-6.85-5-4.72-21Z"/><polygon class="cls-4" points="162.54 810.86 162.85 846.57 157.06 875.43 164.14 870.82 165.23 854.13 162.54 810.86"/><path class="cls-10" d="M274,867.2l-6.42-22c-4.23,1.11-13.75,3.33-19.33,5.15L254,865.07l-5.66,5.31-15.39,14.41,6.49,10.32,11-7.16,20.47-13.3A7.1,7.1,0,0,0,274,867.2Z"/><path class="cls-10" d="M163.59,872.74l-1.46-1.33-7.57-6.83,4.78-18c-6,.06-16.53-.76-20.51-1.16l-4.24,21.68a7.09,7.09,0,0,0,3.2,7.39l23.8,14.86,8.06,5,6.3-10.44Z"/><path class="cls-5" d="M270.87,926.56l-7.12,19.61-142-25c-13.42-2.77-28.93-13.43-29.17-21.34-.32-10.94,15.52-24.92,28.76-21.39Z"/><path class="cls-9" d="M270.87,926.56s35.07,2.32,42.83,5.43-2.77,19.19-8.07,20.13c-3.88.69-37-1.32-41.88-6Z"/><path class="cls-10" d="M270.87,926.56s13.83,2.82,16.66,6.22,3.68,12.92,1.7,13.39-4.37,3.72-25.48,0Z"/><path class="cls-15" d="M259,842.56l-7.33,57.7h-92.9l-1.09-8.59-6.24-49.11a6.5,6.5,0,0,1,6.5-6.51h94.56A6.5,6.5,0,0,1,259,842.56Z"/><rect class="cls-16" x="156.98" y="900.27" width="96.57" height="5.45" rx="1.09"/><path class="cls-16" d="M205.26,860.79a7.54,7.54,0,0,0-1.66.18,5.32,5.32,0,0,1,0,.69,6,6,0,0,1-5.94,6c0,.24,0,.49,0,.74a7.59,7.59,0,1,0,7.59-7.59Z"/><path class="cls-17" d="M668.87,313.85H646.72a56.49,56.49,0,0,1,56.48,56.49V915.86a56.49,56.49,0,0,1-56.48,56.49h22.15a56.49,56.49,0,0,0,56.48-56.49V370.34A56.49,56.49,0,0,0,668.87,313.85Z"/><rect class="cls-7" x="359.4" y="313.85" width="343.8" height="658.5" rx="33.49"/><rect class="cls-18" x="373.13" y="354.55" width="316.35" height="543.23" rx="9.72"/><path class="cls-19" d="M549.75,948.8h-36.9a15.46,15.46,0,0,1-15.46-15.46h0a15.47,15.47,0,0,1,15.46-15.47h36.9a15.47,15.47,0,0,1,15.47,15.47h0A15.46,15.46,0,0,1,549.75,948.8Z"/><path class="cls-8" d="M373.13,624.83V881.39a16.38,16.38,0,0,0,16.38,16.39H673.09a16.39,16.39,0,0,0,16.39-16.39V624.83Z"/><path class="cls-2" d="M640,719.07H424.59a15.32,15.32,0,0,1-15.32-15.32h0a15.32,15.32,0,0,1,15.32-15.32H640a15.32,15.32,0,0,1,15.32,15.32h0A15.32,15.32,0,0,1,640,719.07Z"/><path class="cls-2" d="M640,783.12H424.59a15.32,15.32,0,0,1-15.32-15.32h0a15.32,15.32,0,0,1,15.32-15.32H640a15.32,15.32,0,0,1,15.32,15.32h0A15.32,15.32,0,0,1,640,783.12Z"/><path class="cls-2" d="M556.4,847.17H424.59a15.32,15.32,0,0,1-15.32-15.32h0a15.32,15.32,0,0,1,15.32-15.32H556.4a15.32,15.32,0,0,1,15.32,15.32h0A15.32,15.32,0,0,1,556.4,847.17Z"/><path class="cls-7" d="M489.63,637.67a3.94,3.94,0,0,0-3.95,3.94v20a.77.77,0,0,0,1.44.39l2.09-3.5a4,4,0,0,1,3.11-1.52h16.26a3.93,3.93,0,0,0,3.94-3.94V641.61a3.93,3.93,0,0,0-3.94-3.94Z"/><rect class="cls-18" x="489.68" y="641.57" width="19.24" height="1.98"/><rect class="cls-18" x="489.68" y="645.85" width="19.24" height="1.98"/><rect class="cls-18" x="489.68" y="650.13" width="19.24" height="1.98"/><path class="cls-4" d="M421.33,648.85a6.89,6.89,0,0,0,1.1-3.73,7,7,0,0,0-12.74-4,7,7,0,1,0-11.32,8.19h0l10.81,12s11.84-11.9,12.16-12.4l0,0Z"/><path class="cls-20" d="M429.13,646.17a11.26,11.26,0,0,0,2-1,8.34,8.34,0,0,0,1.8-1.58h1.2v12.6h-1.69V645.92q-.22.2-.54.42a7.4,7.4,0,0,1-.69.41q-.37.21-.78.39c-.27.12-.54.22-.79.31Z"/><path class="cls-20" d="M438.42,651.81a19.22,19.22,0,0,1,.94-1.87c.4-.7.86-1.43,1.36-2.19s1-1.49,1.62-2.21a22.94,22.94,0,0,1,1.73-2h1.62v8h1.49V653h-1.49v3.22h-1.64V653h-5.63Zm5.63-6.24c-.36.39-.73.82-1.1,1.3s-.73,1-1.08,1.5-.68,1.06-1,1.6-.58,1.08-.83,1.6h4Z"/><path class="cls-20" d="M450.9,656.17a18.84,18.84,0,0,1,.52-3.06,24.86,24.86,0,0,1,1-3.13,24.53,24.53,0,0,1,1.32-2.82,13.26,13.26,0,0,1,1.41-2.11H449v-1.48h8V645a13.72,13.72,0,0,0-1.33,1.9,22.07,22.07,0,0,0-1.37,2.71,24.54,24.54,0,0,0-1.11,3.2,16.69,16.69,0,0,0-.57,3.39Z"/><path class="cls-20" d="M459.1,649.86a8.84,8.84,0,0,1,1.12-4.87,3.66,3.66,0,0,1,6.19,0,11.15,11.15,0,0,1,0,9.74,3.66,3.66,0,0,1-6.19,0A8.84,8.84,0,0,1,459.1,649.86Zm6.65,0a15.28,15.28,0,0,0-.12-2,6.4,6.4,0,0,0-.4-1.62,2.86,2.86,0,0,0-.75-1.1,1.86,1.86,0,0,0-2.33,0,3,3,0,0,0-.75,1.1,6.4,6.4,0,0,0-.4,1.62,15.28,15.28,0,0,0-.12,2,15.44,15.44,0,0,0,.12,2,6.43,6.43,0,0,0,.4,1.61,2.9,2.9,0,0,0,.75,1.1,1.86,1.86,0,0,0,2.33,0,2.79,2.79,0,0,0,.75-1.1,6.43,6.43,0,0,0,.4-1.61A15.44,15.44,0,0,0,465.75,649.86Z"/><path class="cls-20" d="M522.43,654.93a3.44,3.44,0,0,0,2.32-.63,2.28,2.28,0,0,0-.35-3.63,3.34,3.34,0,0,0-1.1-.4,6.85,6.85,0,0,0-1.28-.12h-.44v-1.38h.6a5.23,5.23,0,0,0,.94-.09,2.67,2.67,0,0,0,.88-.33,1.89,1.89,0,0,0,.65-.64,2.13,2.13,0,0,0,.07-1.9,1.77,1.77,0,0,0-.48-.6,1.86,1.86,0,0,0-.69-.34,3.63,3.63,0,0,0-.83-.1,3.84,3.84,0,0,0-1.48.26,6,6,0,0,0-1,.53l-.66-1.3a6.38,6.38,0,0,1,.56-.31,5.28,5.28,0,0,1,.75-.32,7.35,7.35,0,0,1,.9-.25,5.72,5.72,0,0,1,2.74.15,3.21,3.21,0,0,1,1.2.69,2.85,2.85,0,0,1,.7,1,3.6,3.6,0,0,1,.24,1.32,2.6,2.6,0,0,1-.56,1.68,3.76,3.76,0,0,1-1.37,1.07,3.79,3.79,0,0,1,.95.41,3.47,3.47,0,0,1,.79.69,3.38,3.38,0,0,1,.54,1,3.34,3.34,0,0,1,.21,1.21,4,4,0,0,1-.28,1.52,3.15,3.15,0,0,1-.87,1.21,4.19,4.19,0,0,1-1.48.8,7,7,0,0,1-2.11.29,6.52,6.52,0,0,1-1-.07c-.34,0-.65-.11-.94-.18l-.76-.22a2.93,2.93,0,0,1-.47-.18l.32-1.47c.21.09.55.22,1,.38A5.89,5.89,0,0,0,522.43,654.93Z"/><path class="cls-20" d="M529.3,651.81a19.55,19.55,0,0,1,1-1.87q.6-1.05,1.35-2.19c.5-.75,1-1.49,1.62-2.21a21.39,21.39,0,0,1,1.74-2h1.61v8h1.49V653h-1.49v3.22h-1.63V653H529.3Zm5.64-6.24a16.62,16.62,0,0,0-1.1,1.3q-.55.72-1.08,1.5c-.36.52-.68,1.06-1,1.6s-.59,1.08-.83,1.6h4Z"/><path class="cls-20" d="M542.44,648.43a6.54,6.54,0,0,1,4,1.2,3.68,3.68,0,0,1,1.28,3,4.26,4.26,0,0,1-.28,1.54,3.19,3.19,0,0,1-.86,1.22,4,4,0,0,1-1.44.8,6.67,6.67,0,0,1-2.07.29,6.42,6.42,0,0,1-1-.07c-.32,0-.63-.11-.91-.18l-.74-.22a2.93,2.93,0,0,1-.47-.18l.32-1.47c.21.09.55.22,1,.38a5.68,5.68,0,0,0,1.72.23,4.46,4.46,0,0,0,1.37-.18,2.42,2.42,0,0,0,.9-.49,1.77,1.77,0,0,0,.5-.72,2.48,2.48,0,0,0,.16-.86,3,3,0,0,0-.24-1.23,2.06,2.06,0,0,0-.84-.9,5,5,0,0,0-1.6-.55,13.47,13.47,0,0,0-2.52-.19c.07-.6.13-1.15.17-1.67s.08-1,.12-1.53.07-1,.09-1.48.05-1,.07-1.56h6.07V645h-4.59c0,.18,0,.43-.06.74s0,.63-.07,1-.05.66-.08,1S542.47,648.25,542.44,648.43Z"/><g class="cls-21"><polygon class="cls-20" points="590.62 542.1 554.01 572.34 514.04 544.37 523.58 518.87 525.55 509.13 529.42 489.85 569.52 488.77 571.25 495.64 575.92 514.17 590.62 542.1"/><path class="cls-20" d="M587.09,439.34c0,33.83-16.67,61.26-37.24,61.26s-37.24-27.43-37.24-61.26,16.67-43.86,37.24-43.86S587.09,405.51,587.09,439.34Z"/><path class="cls-7" d="M591,410.39c3.37,11.55-5.61,63.13-10.67,73.58s-16.22,16.49-31.5,16.63c-19.48.17-26.08-9.25-30-14.75s-4.28-16.06-9.34-55.66,27-44.93,38.84-44.93,17.38-.18,19.63,7.52C584.75,391.87,587.61,398.83,591,410.39Zm-37.3,5.71c-10.76,4.9-29.81-5-37.09,3s-2.8,33.59-.42,44.32c1,4.24,13.3.9,20.9,4.82-10.46,9.65,0,17.88,11.49,17.88,10.91,0,21.27-3.41,14.31-16.46,5.34-5.68,16.82-.28,19.14-5.11,3.33-6.93,1.47-39.21,1.47-39.21-4.55-1.34-15-13.81-15-23.16A30.92,30.92,0,0,1,553.68,416.1Z"/><path class="cls-22" d="M612.89,599.06c-1.15.36-2.17.71-3.07,1,.53,4.79,1.13,16,1.74,26.48l.07,1.2c.17,2.91.36,5.73.54,8.32.32,4.74.65,8.71,1,11,1,5.52,1.79,11.24,2.43,16.59,1.6,13.54,2.18,24.79,2.18,24.79-2.67-.07-132,0-132,0l.66-21.86.45-14.4.42-13.67,1.15-37.79a43.82,43.82,0,0,0-5.62-1.19c-9.42-1.6-26.07-3.34-32.44-4l-2.57-.26s14.3-58.43,23.1-67.69c16-9.84,32.61-13.68,54.52-18.5,0,0-1.36,8.1,2.71,15.08,9.82,16.76,42.29,13.78,46.63-5.08a26.72,26.72,0,0,0-.16-10s45,9.12,53.66,19.3c6.81,11.26,19.34,61.07,19.34,61.07l-3.28.84C637.59,592.08,621.83,596.2,612.89,599.06Z"/><polygon class="cls-7" points="600.72 564.44 609.82 600.09 611.63 627.77 600.72 598.77 600.72 564.44"/><polygon class="cls-7" points="494.54 620.2 489.68 640.58 486.91 652.16 487.33 638.5 488.48 600.71 494.54 561.75 494.54 620.2"/><polygon class="cls-20" points="640.21 591.41 644.14 618.53 644.14 667.53 616.32 670.3 611.63 627.77 609.82 600.09 640.21 591.41"/><polygon class="cls-20" points="457.44 596.1 454.19 618.53 454.19 667.53 482.01 670.3 486.7 627.77 488.51 600.09 457.44 596.1"/></g><rect class="cls-23" x="391.63" y="413.08" width="101.42" height="41.41"/><path class="cls-8" d="M425.59,442.89v2.85H411.42V422.18h3.3v20.71Z"/><path class="cls-8" d="M429.06,422.18h3.3v23.56h-3.3Z"/><path class="cls-8" d="M457.24,422.18c-.86,2.5-1.68,4.8-2.46,6.92s-1.55,4.13-2.3,6-1.49,3.72-2.23,5.45-1.49,3.45-2.26,5.15H444.9c-.77-1.7-1.52-3.41-2.26-5.15s-1.48-3.55-2.24-5.45-1.54-3.92-2.33-6-1.61-4.42-2.45-6.92h3.64q1.83,5.38,3.6,10.34t3.64,9.31q1.86-4.32,3.64-9.29t3.57-10.36Z"/><path class="cls-8" d="M460.5,445.74V422.18h14.38V425H463.8v7h9.86v2.75H463.8v8.16h11.93v2.82Z"/><circle class="cls-4" cx="439.68" cy="582.94" r="19.42"/><path class="cls-8" d="M450,583.79a6.11,6.11,0,0,0,1-3.3A6.18,6.18,0,0,0,439.68,577a6.17,6.17,0,1,0-10,7.23h0l9.54,10.59s10.45-10.51,10.73-10.95l0,0Z"/><circle class="cls-4" cx="606.54" cy="609.08" r="15.24"/><path class="cls-8" d="M614.61,609.75a4.85,4.85,0,0,0-8.07-5.37,4.84,4.84,0,1,0-7.84,5.68h0l7.49,8.31s8.2-8.25,8.42-8.59l0,0Z"/><circle class="cls-4" cx="824.4" cy="530.98" r="12.55"/><path class="cls-8" d="M831,531.53a7.39,7.39,0,1,0-13.1.25h0l6.17,6.84s6.75-6.78,6.93-7.07l0,0Z"/><path class="cls-4" d="M941.14,581a9.91,9.91,0,1,0-9.9,9.9A9.91,9.91,0,0,0,941.14,581Z"/><path class="cls-8" d="M936.48,581.41a3.12,3.12,0,0,0,.49-1.68,25.14,25.14,0,0,1-8.31-3.15,3.15,3.15,0,0,0-3.16,3.15,3.07,3.07,0,0,0,.64,1.88h0L931,587s5.33-5.35,5.48-5.58v0Z"/><circle class="cls-4" cx="701.83" cy="547.71" r="19.74" transform="translate(-107.51 176.86) rotate(-13.35)"/><path class="cls-8" d="M712.28,548.58a6.28,6.28,0,0,0-10.45-7A6.27,6.27,0,1,0,691.67,549h0l9.69,10.76s10.63-10.68,10.92-11.12l0,0Z"/><circle class="cls-4" cx="834.97" cy="617.43" r="18.26" transform="translate(-119.07 207.31) rotate(-13.22)"/><path class="cls-8" d="M844.63,618.23A5.8,5.8,0,0,0,835,611.8a5.81,5.81,0,0,0-10.57,3.33,5.73,5.73,0,0,0,1.17,3.47h0l9,10s9.83-9.88,10.1-10.29l0,0Z"/><circle class="cls-4" cx="418.51" cy="527.26" r="11.95"/><path class="cls-8" d="M424.83,527.79a3.8,3.8,0,0,0-3.21-5.84,3.78,3.78,0,0,0-3.11,1.63,3.8,3.8,0,1,0-6.16,4.45h0l5.87,6.51s6.43-6.46,6.61-6.73l0,0Z"/><circle class="cls-4" cx="883.74" cy="499.33" r="18.48"/><path class="cls-8" d="M893.51,500.14a5.81,5.81,0,0,0,.92-3.14,5.87,5.87,0,0,0-10.69-3.36,5.87,5.87,0,1,0-9.52,6.87h0l9.08,10.08s9.94-10,10.21-10.42l0,0Z"/><circle class="cls-7" cx="499.31" cy="535.21" r="24.49"/><path class="cls-8" d="M512.14,526c-2.34-1.93-9.41,1-9.41,1,1.21-2.68.88-8.55-.87-8.55-2.82,0-1.13,9.42-10,12.66V543.7s18.1,3.54,20.12.49S514.47,528,512.14,526Z"/><rect class="cls-8" x="484.13" y="530.32" width="6.56" height="14.07"/><circle class="cls-7" cx="571.76" cy="555.82" r="20.31"/><path class="cls-8" d="M582.41,548.22c-1.94-1.61-7.8.83-7.8.83,1-2.23.72-7.1-.73-7.1-2.34,0-.93,7.82-8.28,10.51v10.41s15,2.93,16.69.4S584.34,549.82,582.41,548.22Z"/><rect class="cls-8" x="559.18" y="551.77" width="5.44" height="11.67"/><circle class="cls-7" cx="417.27" cy="599.68" r="13.6"/><path class="cls-8" d="M424.4,594.59c-1.3-1.07-5.23.56-5.23.56.68-1.49.49-4.75-.48-4.75-1.57,0-.63,5.23-5.55,7v7s10.05,2,11.18.27S425.69,595.66,424.4,594.59Z"/><rect class="cls-8" x="408.84" y="596.97" width="3.64" height="7.82"/><circle class="cls-7" cx="660.77" cy="580.19" r="20.31"/><path class="cls-8" d="M671.42,572.58c-1.94-1.6-7.8.84-7.8.84,1-2.23.72-7.1-.73-7.1-2.34,0-.93,7.82-8.28,10.51v10.41s15,2.93,16.69.4S673.35,574.19,671.42,572.58Z"/><rect class="cls-8" x="648.19" y="576.14" width="5.44" height="11.67"/><circle class="cls-7" cx="850.34" cy="569.69" r="20.31"/><path class="cls-8" d="M861,562.08c-1.93-1.6-7.79.83-7.79.83,1-2.22.72-7.09-.73-7.09-2.34,0-.94,7.82-8.28,10.5v10.41s15,2.94,16.68.41S862.92,563.68,861,562.08Z"/><rect class="cls-8" x="837.76" y="565.64" width="5.44" height="11.67"/><circle class="cls-7" cx="920.83" cy="438.32" r="11.6"/><path class="cls-8" d="M926.91,434c-1.11-.91-4.45.48-4.45.48.57-1.27.41-4.05-.42-4.05-1.33,0-.53,4.46-4.73,6v5.95s8.57,1.68,9.53.23S928,434.89,926.91,434Z"/><rect class="cls-8" x="913.64" y="436" width="3.11" height="6.67"/><circle class="cls-7" cx="669.95" cy="480.85" r="11.6"/><path class="cls-8" d="M676,476.5c-1.11-.91-4.46.48-4.46.48.58-1.27.42-4.05-.41-4.05-1.34,0-.54,4.46-4.73,6v5.94s8.57,1.68,9.53.23S677.13,477.42,676,476.5Z"/><rect class="cls-8" x="662.76" y="478.53" width="3.11" height="6.67"/><circle class="cls-7" cx="773.67" cy="563.1" r="17.09"/><path class="cls-8" d="M782.62,556.7c-1.62-1.34-6.56.7-6.56.7.85-1.87.61-6-.61-6-2,0-.79,6.58-7,8.84V569s12.63,2.47,14,.34S784.25,558.05,782.62,556.7Z"/><rect class="cls-8" x="763.08" y="559.69" width="4.58" height="9.82"/><circle class="cls-7" cx="798.7" cy="467.12" r="17.09"/><path class="cls-8" d="M807.65,460.73c-1.63-1.35-6.56.7-6.56.7.84-1.88.61-6-.61-6-2,0-.79,6.57-7,8.83v8.76s12.63,2.47,14,.34S809.28,462.07,807.65,460.73Z"/><rect class="cls-8" x="788.11" y="463.72" width="4.58" height="9.82"/><circle class="cls-7" cx="913.13" cy="523.52" r="24.19" transform="translate(-95.42 222.34) rotate(-13.2)"/><path class="cls-8" d="M925.81,514.46c-2.31-1.9-9.29,1-9.29,1,1.19-2.65.86-8.45-.87-8.45-2.78,0-1.11,9.31-9.86,12.51v12.4s17.87,3.49,19.87.48S928.11,516.37,925.81,514.46Z"/><rect class="cls-8" x="898.14" y="518.7" width="6.48" height="13.9"/><circle class="cls-7" cx="746.17" cy="586.75" r="23.59"/><path class="cls-8" d="M758.53,577.92c-2.25-1.86-9.06,1-9.06,1,1.17-2.58.85-8.24-.84-8.23-2.71,0-1.08,9.07-9.62,12.19v12.09s17.43,3.41,19.38.47S760.78,579.78,758.53,577.92Z"/><rect class="cls-8" x="731.56" y="582.05" width="6.32" height="13.55"/><circle class="cls-4" cx="519.98" cy="549.87" r="11.95"/><path class="cls-8" d="M526.3,550.4a3.8,3.8,0,0,0-6.32-4.21,3.8,3.8,0,0,0-6.92,2.18,3.77,3.77,0,0,0,.77,2.27h0l5.87,6.52s6.43-6.47,6.61-6.74l0,0Z"/><path class="cls-4" d="M529.5,593.84a9.14,9.14,0,1,0-9.14,9.13A9.14,9.14,0,0,0,529.5,593.84Z"/><path class="cls-8" d="M525.2,594.24a2.91,2.91,0,0,0-4.84-3.22,2.9,2.9,0,0,0-5.28,1.67,2.82,2.82,0,0,0,.59,1.73h0l4.49,5s4.91-4.94,5.05-5.15Z"/><path class="cls-7" d="M645.86,193.55a44.13,44.13,0,0,0-44.13,44.13V461.36a8.65,8.65,0,0,0,16.08,4.44l23.43-39.26a44.13,44.13,0,0,1,34.78-17H858.07a44.13,44.13,0,0,0,44.13-44.13V237.68a44.13,44.13,0,0,0-44.13-44.13Z"/><rect class="cls-18" x="646.48" y="237.21" width="215.45" height="22.15"/><rect class="cls-18" x="646.48" y="285.13" width="215.45" height="22.15"/><rect class="cls-18" x="646.48" y="333.05" width="215.45" height="22.15"/><path class="cls-24" d="M386.26,347l8,11.08,5,1.76c1.87.66,4.34,3.62,3.66,5.47-3.45,9.53-14.77,35.29-17.63,39,0,0-3.82-3.18-2.43-6.42s3.41-27.63,3.41-27.63l-7.61-10.22Z"/><path class="cls-6" d="M404.86,364.5s-5.06-5.92-8.09-5.5a14.76,14.76,0,0,1,1.66,9.77c-1.5,4.62-5.23,19.69-13.57,16.41-1.43,5.17-3.32,15.53-2.52,20.47,0,0,2.67.62,4.22-1,0,0,5.68-7.93,7.6-11l9.57-23.53,6.83-.23,1.21-2.75Z"/><path class="cls-6" d="M425.65,265s-89.2,1.46-99.07,6.57-1.53,17.09,11.8,35.28S381,367.15,381,367.15L392.45,354,359.59,295.7s80.55,15.2,88.32,6,10.55-21.53,3.53-36.2Z"/><path class="cls-9" d="M359.61,122.85c-7.49-.17-24.95,30.48,24.87,47.72,17,5.88,49.54-1.35,56.25-10.25,0,0-27-58.68-55.62-55.83C361.19,106.87,359.61,122.85,359.61,122.85Z"/><path class="cls-24" d="M300.53,251.63l11.31-7.26,14.87,2.3,50.75-10.51L379.18,251l-50.65,1.49-5.43,1.22a6.65,6.65,0,0,1-4.65-.64l-6.78-3.67-9.95,5.73Z"/><path class="cls-4" d="M392.4,171.48c-11.67,1.51-5.92,18.88-11,61.76L332,241.55l2.68,12s53.61-.65,61.79-2C405.41,229.35,412.12,168.93,392.4,171.48Z"/><path class="cls-24" d="M414.1,169.13c-5.22,4.86-4.38,10.82-12,10.51-11.84,1.66-11.46-13.9-11.46-13.9-4.55,1.5-12.92,2.25-19.57-7.76-7.58-11.41-9.68-21.59-10.81-31.25-.72-6.19,1.9-10.2,12.36-13.09s18.2.25,26.76,11.38c7,9.14,8.2,30.6,8.2,30.6C409.47,159.56,414.1,169.13,414.1,169.13Z"/><path class="cls-3" d="M456.89,273.16s-25.54.16-38.49-1.24c-4.92-38.67-9-44.43-9-44.43-13.31-1.65-17.24-5.92-17.24-12.33-2.23-25.84-5.68-40-5.68-40a8.4,8.4,0,0,1,5.09-3.49s1.29,9,10.57,7.95c10-1.18,5.49-12.63,5.49-12.63,5.35-3.51,11-3.78,16.94-2.45s11,5.13,15,9.61c9.53,10.56,10,21.71,11.52,35.85s-1,19.52-.22,36.74C451.45,259,456.11,270.15,456.89,273.16Z"/><path class="cls-24" d="M340.89,270.16l6.58-10.84A5.43,5.43,0,0,1,351,257.2l13.36-2.08,55.81-9.41.6,14.31-52.52.84L363.3,264a6.5,6.5,0,0,1-4.84.84l-8-1.74-7.82,9.52Z"/><path class="cls-23" d="M416.19,173.15c2.26-5.14,4.47-8.72,10.64-8.5,17.29.63,5.4,26.28,17.56,76.21,1.23,5.06,1.93,18.59-12.39,19.4s-55.29,5.25-55.29,5.25L371.11,249l50.24-6.95S410.34,186.47,416.19,173.15Z"/><path class="cls-11" d="M414.48,167.58c-19.14,5.09-15.5-13.9-15.5-13.9,7.08,1.91,6-15.7-1.3-17-4.62-.82-3.93,6.41-3.93,6.41-17.08,9.55-36.69-9.58-34.17-22.56,1.37-7,3.29-11.58,11.53-16.18,10.1-5.65,19.69-3,28.32.81,18.55,8.14,17.93,27.66,37.6,29.41,44.61,4,11.14,24.62,35.94,33.19,14.25,4.93,27.06,6,27.06,36.59,0,29.63-27.91,26.69-43.14,22.69-19.82-5.2-16.86-31-20.4-44C432.14,166.93,427.15,164.2,414.48,167.58Z"/><path class="cls-24" d="M357.75,383.92l1,11.56,1.6,5.07c.59,1.89-.3,5.64-2.19,6.21-9.69,3-37.08,9.37-41.77,9.3,0,0,.25-5,3.68-5.8s24.14-13.85,24.14-13.85l-.09-9.79Z"/><path class="cls-6" d="M360.55,409.44s.46-9.45-.88-11.92a15.29,15.29,0,0,1-6.91,7.72c-4.6,1.57-18.89,7.64-21.28-1-5,2-14.41,6.66-17.88,10.27,0,0,1.11,2.51,3.34,2.76,0,0,9.75-.21,13.33-.49l25.56-5.23,3.29,4.08L362,415Z"/><path class="cls-5" d="M456.89,273.16c4.56,14.95,14.56,43.78-19.29,41.75-36.79-2.21-89.19-11.7-89.19-11.7l11.46,85.35L341.54,392s-4.93-29.87-11.83-56.44-22.19-52.75-2-60.05S456.89,273.16,456.89,273.16Z"/><path class="cls-5" d="M357.94,268.8h-75l-13-41.62a5.43,5.43,0,0,1,5.18-7h63.63A5.43,5.43,0,0,1,344,224Z"/><path class="cls-19" d="M282.94,268.8H397.15a.88.88,0,0,1,.88.88v2.6a.88.88,0,0,1-.88.88H284.87a1.94,1.94,0,0,1-1.94-1.94V268.8A0,0,0,0,1,282.94,268.8Z"/><path class="cls-6" d="M282.94,268.8h75a0,0,0,0,1,0,0v3a1.37,1.37,0,0,1-1.37,1.37H284.91a2,2,0,0,1-2-2V268.8A0,0,0,0,1,282.94,268.8Z"/><path class="cls-6" d="M309.8,239.6a2.73,2.73,0,0,0-.49.06c0,2.46-1.55,4.46-3.53,4.75v.06c0,2.69,1.8,4.87,4,4.87s4-2.18,4-4.87S312,239.6,309.8,239.6Z"/><text class="cls-25" transform="translate(950.43 244.47) rotate(90)">SEO</text><path class="cls-17" d="M677.3,80.34H664.18v8.27h15.5V95H655.83V60.41h23.9v6.45H664.18v7.3H677.3Z"/><path class="cls-17" d="M696,60.41l7.72,24.09,7.71-24.09h11V95H714V87l.81-16.55L706.47,95H701l-8.4-24.65L693.37,87V95H685V60.41Z"/><path class="cls-17" d="M749.74,88.57H738.31l-2,6.46h-8.92l12.7-34.62h7.85L760.73,95h-9Zm-9.43-6.45h7.44l-3.74-12Z"/><path class="cls-17" d="M774.09,95h-8.32V60.41h8.32Z"/><path class="cls-17" d="M790.18,88.61h14.53V95H781.84V60.41h8.34Z"/><path class="cls-17" d="M666.79,122.85l7.73,24.08,7.7-24.08h11v34.62h-8.37v-8.09l.81-16.55-8.37,24.64h-5.52l-8.39-24.66.81,16.57v8.09h-8.35V122.85Z"/><path class="cls-17" d="M720.55,151H709.11l-2,6.47H698.2l12.69-34.62h7.85l12.79,34.62h-9Zm-9.44-6.44h7.44l-3.73-12Z"/><path class="cls-17" d="M748.86,145.22h-4.51v12.25H736V122.85h13.62q6.17,0,9.63,2.73a9.24,9.24,0,0,1,3.48,7.72,11.16,11.16,0,0,1-1.47,6,10.32,10.32,0,0,1-4.57,3.85l7.23,14v.36H755Zm-4.51-6.42h5.27a4.71,4.71,0,0,0,3.58-1.25,4.83,4.83,0,0,0,1.2-3.49,4.9,4.9,0,0,0-1.21-3.52,4.7,4.7,0,0,0-3.57-1.27h-5.27Z"/><path class="cls-17" d="M781.48,144.58l-3.42,3.76v9.13h-8.35V122.85h8.35v15.26l2.9-4.4,7.47-10.86h10.32l-11.7,15.31,11.7,19.31h-9.89Z"/><path class="cls-17" d="M824.28,142.77H811.16v8.28h15.5v6.42H802.81V122.85h23.9v6.44H811.16v7.3h13.12Z"/><path class="cls-17" d="M859.66,129.29H849.27v28.18h-8.35V129.29h-10.2v-6.44h28.94Z"/><path class="cls-17" d="M874,157.47H865.7V122.85H874Z"/><path class="cls-17" d="M910.68,157.47h-8.3l-12.27-21.54v21.54h-8.34V122.85h8.34l12.25,21.54V122.85h8.32Z"/><path class="cls-17" d="M946.25,153.19a13.54,13.54,0,0,1-5.64,3.44,24.07,24.07,0,0,1-8.13,1.31q-6.79,0-10.87-4.16t-4.35-11.58l0-3a20.57,20.57,0,0,1,1.81-8.93,13.3,13.3,0,0,1,5.17-5.87,14.54,14.54,0,0,1,7.78-2.06c4.32,0,7.66,1,10,3s3.78,4.92,4.17,8.83h-8a6.63,6.63,0,0,0-1.86-4.14,6,6,0,0,0-4-1.23,5.45,5.45,0,0,0-4.85,2.66c-1.14,1.78-1.72,4.31-1.74,7.61v2.09c0,3.46.59,6.05,1.77,7.79a6.29,6.29,0,0,0,5.58,2.6,7,7,0,0,0,4.85-1.45V144.7h-5.8V139h14.15Z"/></g></svg>