<?xml version="1.0" encoding="utf-8"?>
<!-- Generator: Adobe Illustrator 25.4.1, SVG Export Plug-In . SVG Version: 6.00 Build 0)  -->
<svg version="1.1" id="a2e620a1-ac76-48f9-b1a7-7c9a2eef61f8"
	 xmlns="http://www.w3.org/2000/svg" xmlns:xlink="http://www.w3.org/1999/xlink" x="0px" y="0px" viewBox="0 0 1061 595.1"
	 style="enable-background:new 0 0 1061 595.1;" xml:space="preserve">
<style type="text/css">
	.st0{fill:#3F3D56;}
	.st1{fill:#E6E6E6;}
	.st2{fill:#FFFFFF;}
	.st3{fill:#F8801B;}
	.st4{fill:#E5E5E5;}
	.st5{fill:#A0616A;}
	.st6{opacity:0.1;enable-background:new    ;}
	.st7{fill:#2F2E41;}
	.st8{font-family:'AvenirLTStd-Black';}
	.st9{font-size:30.9791px;}
	.st10{font-size:21.9511px;}
</style>
<path id="f8c762bc-b7e7-4c8e-b73e-f411c620c2bd" class="st0" d="M828.8,163.9H568.6v-5.4h-118v5.4H189.4c-9.7,0-17.6,7.9-17.6,17.6
	l0,0l0,0v356.2c0,9.7,7.9,17.6,17.6,17.6h639.4c9.7,0,17.6-7.9,17.6-17.6V181.5C846.4,171.8,838.5,163.9,828.8,163.9z"/>
<rect id="febd0196-f53d-4e2b-8506-d3dc9ab4b723" x="195.4" y="195" class="st1" width="627.4" height="353.9"/>
<rect id="a687e43e-dc25-402c-aff7-aaf80cd82cec" x="222" y="213.8" class="st2" width="574.4" height="305.9"/>
<circle id="fb392c0f-c18b-4dca-9f8d-a13ba02e8cd8" class="st3" cx="508.6" cy="179" r="6.4"/>
<path id="a3b325e1-b438-4eea-a78d-99975bd1014d" class="st0" d="M864,542.5h-61.2v-4.4c0-0.5-0.4-0.9-0.9-0.9l0,0h-21
	c-0.5,0-0.9,0.4-0.9,0.9l0,0l0,0v4.4h-13.1v-4.4c0-0.5-0.4-0.9-0.9-0.9l0,0h-21c-0.5,0-0.9,0.4-0.9,0.9l0,0l0,0v4.4h-13.1v-4.4
	c0-0.5-0.4-0.9-0.9-0.9l0,0h-21c-0.5,0-0.9,0.4-0.9,0.9l0,0l0,0v4.4h-13.1v-4.4c0-0.5-0.4-0.9-0.9-0.9l0,0h-21
	c-0.5,0-0.9,0.4-0.9,0.9l0,0l0,0v4.4h-13.1v-4.4c0-0.5-0.4-0.9-0.9-0.9l0,0h-21c-0.5,0-0.9,0.4-0.9,0.9l0,0l0,0v4.4h-13.1v-4.4
	c0-0.5-0.4-0.9-0.9-0.9l0,0h-21c-0.5,0-0.9,0.4-0.9,0.9l0,0l0,0v4.4h-13.1v-4.4c0-0.5-0.4-0.9-0.9-0.9l0,0H422.3
	c-0.5,0-0.9,0.4-0.9,0.9l0,0l0,0v4.4h-13.1v-4.4c0-0.5-0.4-0.9-0.9-0.9l0,0h-21c-0.5,0-0.9,0.4-0.9,0.9l0,0l0,0v4.4h-13.1v-4.4
	c0-0.5-0.4-0.9-0.9-0.9l0,0h-21c-0.5,0-0.9,0.4-0.9,0.9l0,0l0,0v4.4h-13.1v-4.4c0-0.5-0.4-0.9-0.9-0.9l0,0h-21
	c-0.5,0-0.9,0.4-0.9,0.9l0,0l0,0v4.4h-13.1v-4.4c0-0.5-0.4-0.9-0.9-0.9l0,0h-21c-0.5,0-0.9,0.4-0.9,0.9l0,0l0,0v4.4h-13.1v-4.4
	c0-0.5-0.4-0.9-0.9-0.9l0,0h-21c-0.5,0-0.9,0.4-0.9,0.9l0,0l0,0v4.4H229v-4.4c0-0.5-0.4-0.9-0.9-0.9l0,0h-21c-0.5,0-0.9,0.4-0.9,0.9
	l0,0l0,0v4.4H166c-11.6,0-21,9.4-21,21v9.5c0,11.6,9.4,21,21,21h698c11.6,0,21-9.4,21-21v-9.5C885,551.9,875.6,542.5,864,542.5
	L864,542.5z"/>
<rect id="e8772b6c-5a9b-4fa1-81c9-662ac65893c6" x="382.2" y="235.2" class="st1" width="254" height="267"/>
<rect id="a87049f2-d9c9-408d-98dd-ac42069ee321" y="593.1" class="st1" width="1061" height="2"/>
<path id="b307d008-1640-4a06-af2e-4466e39d32c3" class="st3" d="M958,523.2c14.4,15.4,15.1,38.1,15.1,38.1s-22.6-2.3-36.9-17.8
	S921,505.5,921,505.5S943.6,507.8,958,523.2z"/>
<path id="e6bb151c-e5ac-48bf-b05a-35e8b71544cc" class="st3" d="M1003.2,547.3c-15.4,14.4-38.1,15.1-38.1,15.1s2.3-22.6,17.8-36.9
	c15.4-14.4,38.1-15.1,38.1-15.1S1018.6,532.9,1003.2,547.3z"/>
<path id="e2659c84-c871-46e0-a841-faed920e56d0" class="st4" d="M999.4,593.1h-56.7c-2.2,0-4.2-1.3-5.2-3.3l-12.4-25.4
	c-1.4-2.9-0.2-6.4,2.7-7.8c0.8-0.4,1.7-0.6,2.5-0.6h81.4c3.2,0,5.8,2.6,5.8,5.8c0,0.9-0.2,1.8-0.6,2.5l-12.4,25.4
	C1003.6,591.8,1001.6,593.1,999.4,593.1L999.4,593.1z"/>
<path id="b4ca1fea-0850-4eee-815e-097d11075e0d" class="st3" d="M61,523.2c14.4,15.4,15.1,38.1,15.1,38.1s-22.6-2.3-36.9-17.8
	S24,505.5,24,505.5S46.6,507.8,61,523.2z"/>
<path id="b4ca1fea-0850-4eee-815e-097d11075e0d_00000013899296865701465160000013302587569920562333_" class="st3" d="M115.5,505.5
	c0,0-0.7,22.7-15.1,38.1s-36.9,17.8-36.9,17.8s0.7-22.7,15.1-38.1C92.9,507.8,115.5,505.5,115.5,505.5z"/>
<path id="f6595469-42b3-4592-aaf8-acdcc6d1b7a1" class="st4" d="M93.4,593.1H36.6c-2.2,0-4.2-1.3-5.2-3.3l-12.4-25.4
	c-1.4-2.9-0.2-6.4,2.7-7.8c0.8-0.4,1.7-0.6,2.5-0.6h81.4c3.2,0,5.8,2.6,5.8,5.8c0,0.9-0.2,1.8-0.6,2.5l-12.4,25.4
	C97.6,591.8,95.6,593.1,93.4,593.1L93.4,593.1z"/>
<ellipse id="b9fa2d1d-eaff-4f39-9574-6fdb852a47dd" transform="matrix(0.3827 -0.9239 0.9239 0.3827 77.3063 669.7861)" class="st5" cx="539.9" cy="277" rx="33.8" ry="33.8"/>
<path id="a3ede095-a03b-477f-a348-b0bb518c525f" class="st3" d="M462.2,502.8L484,365.5c4.5-28.4,31.2-47.7,59.6-43.2
	c2.2,0.3,4.3,0.8,6.4,1.4l0,0c25.7,7.4,41.5,33.2,36.6,59.5l-22.8,122.6L462.2,502.8z"/>
<path id="a14f3686-8e71-4892-a260-94847064fbe5" class="st5" d="M549.2,527.3c6.4-4.2,8.1-12.8,3.9-19.1c-0.4-0.7-1-1.3-1.5-1.9
	l22.5-43.6l-25.4,2.7l-17.5,41c-5.2,5.7-4.8,14.5,0.9,19.6C536.8,530.3,543.9,530.9,549.2,527.3L549.2,527.3z"/>
<path id="aefe090c-eadc-4acf-b060-d0ae14889076" class="st3" d="M554,498.6c-1.2-0.2-2.4-0.7-3.3-1.6l-8.6-8
	c-1.9-1.8-2.5-4.5-1.5-6.9l17.2-40.8l-2.4-80.7c1.5-10.9,11.5-18.5,22.4-17.1c10.9,1.5,18.5,11.5,17.1,22.4c0,0,0,0,0,0l0,0
	l4.2,50.7c1.3,15.4-3.1,30.7-12.3,43.2l-26.9,36.3c-1,1.4-2.6,2.3-4.4,2.5C555,498.7,554.5,498.6,554,498.6z"/>
<path id="b24d83c7-6fd4-4d89-b0e2-e143511102b2" class="st5" d="M345.5,258.7c1.4,7.5,8.6,12.5,16.1,11.1c0.8-0.1,1.6-0.4,2.3-0.7
	l31.4,37.8l7.4-24.4l-31-32.1c-3.2-7-11.4-10.1-18.4-6.9C347.5,246.1,344.3,252.4,345.5,258.7L345.5,258.7z"/>
<path id="a479cb15-9c48-424e-90d4-4868fd6ffd90" class="st3" d="M370.1,274.3c0.6-1.1,1.6-1.9,2.8-2.5l10.7-4.8
	c2.4-1.1,5.2-0.5,7,1.3l30.9,31.8l75.3,29.2c9.5,5.6,12.6,17.8,7,27.3c-5.6,9.5-17.8,12.6-27.3,7c0,0,0,0,0,0l0,0L428,347.7
	c-14.7-4.8-27.1-14.8-34.9-28.1l-23-38.9c-0.9-1.5-1.1-3.3-0.6-5C369.6,275.2,369.8,274.7,370.1,274.3L370.1,274.3z"/>
<path id="fbb91ec3-afe3-4815-be57-4aca5997223d" class="st6" d="M567.2,394.1l-1.4,44l-25.3,44l21.1-49L567.2,394.1z"/>
<path id="b3c0f84b-28f9-45ec-afed-9c3bdf0aec76" class="st7" d="M517,260.1c3.5,4.1,9.4,5.3,14.8,5.8c11,1,27.1-0.6,37.9-3.1
	c0.8,7.5-1.3,15.5,3.1,21.6c2.1-7.4,3.3-15.1,3.6-22.8c0.1-3.3,0.1-6.7-1.3-9.8s-4.3-5.6-7.6-5.6c2.5-1.9,5.4-3.2,8.5-3.7l-10.7-5.4
	l2.7-2.8l-19.3-1.2l5.6-3.6c-8.4-1.2-17-1.4-25.4-0.8c-3.9,0.3-8.1,0.8-11.3,3.1s-5,6.8-3.1,10.2c-5,0.8-9.3,4.2-11.3,8.9
	c-1.4,3.6-1.3,7.6-0.9,11.5c0.7,6.1,2.2,12.2,4.3,18"/>
<path id="a138b9cb-cdfc-4f68-9e32-04b91bb430b4" class="st2" d="M661.3,175.6l-307.6,71c-3.1,0.7-6.3-1.2-7-4.4l-17.6-76.3
	c-0.7-3.1,1.2-6.3,4.4-7l307.6-71c3.1-0.7,6.3,1.2,7,4.4l17.6,76.3C666.4,171.7,664.4,174.8,661.3,175.6z"/>
<path id="ae469d8c-20b4-445b-a76f-3c35ff3d2f47" class="st1" d="M661.3,175.6l-307.6,71c-3.1,0.7-6.3-1.2-7-4.4l-17.6-76.3
	c-0.7-3.1,1.2-6.3,4.4-7l307.6-71c3.1-0.7,6.3,1.2,7,4.4l17.6,76.3C666.4,171.7,664.4,174.8,661.3,175.6z M334,161.2
	c-1.9,0.4-3.1,2.3-2.6,4.2l17.6,76.3c0.4,1.9,2.3,3.1,4.2,2.6l307.6-71c1.9-0.4,3.1-2.3,2.6-4.2l-17.6-76.3
	c-0.4-1.9-2.3-3.1-4.2-2.6L334,161.2z"/>
<path id="b1e356c5-36d3-4e1f-8361-52645d018384" class="st1" d="M440.7,160.9c-2.1,0.5-3.5,2.6-3,4.8c0.5,2.1,2.6,3.5,4.8,3
	c0,0,0,0,0,0l0,0l182.3-42.1c2.1-0.5,3.5-2.6,3-4.8c-0.5-2.1-2.6-3.5-4.8-3L440.7,160.9z"/>
<path id="f47b3ab2-4a63-40b6-b578-ee0e1882dc1b" class="st1" d="M446.1,184.1c-2.1,0.5-3.5,2.6-3,4.8c0.5,2.1,2.6,3.5,4.8,3
	c0,0,0,0,0,0l0,0l78.4-18.1c2.1-0.5,3.5-2.6,3-4.8c-0.5-2.1-2.6-3.5-4.8-3l0,0L446.1,184.1z"/>
<g id="ebccd953-b296-4a3a-b6cb-ab9b47d83c6a">
	<circle id="f502afc0-c552-46f8-b839-9472032a2f9d" class="st3" cx="390.9" cy="188.5" r="23.8"/>
	<path id="e70683fc-6315-4eed-926a-207d48de8bbe" class="st2" d="M390.2,202.3c-0.8,0.2-1.6,0.1-2.3-0.2l0,0l-9.6-4.4
		c-1.9-0.8-2.7-3.1-1.8-4.9c0.8-1.9,3.1-2.7,4.9-1.8l6.2,2.8l8.7-19.1c0.8-1.9,3.1-2.7,4.9-1.8l0,0l-0.1,0.1l0.1-0.1
		c1.9,0.9,2.7,3.1,1.8,4.9l-10.2,22.5C392.3,201.2,391.3,202,390.2,202.3L390.2,202.3z"/>
</g>
<path class="st3" d="M169.6,355.2H97.3c-6.6,0-12,5.4-12,12v72.3c0,6.6,5.4,12,12,12h72.3c6.6,0,12-5.4,12-12v-72.3
	C181.6,360.6,176.2,355.2,169.6,355.2z M165.4,408.3c-0.5,4.2-1.6,8.2-3.5,11.9c-1.5,2.8-3.4,5.4-5.7,7.6c-0.1,0.1-0.3,0.2-0.4,0.3
	c-1.6,1.6-3.4,2.8-5.3,3.9c-5.7,3.2-11.9,4.3-18.3,4c-6.3-0.3-12-2.4-17.1-6c-4.3-3.1-7.7-7-10.1-11.7c-0.1-0.1-0.1-0.2-0.1-0.4
	c-0.6-0.9-1-1.9-1.3-2.9c-1-2.6-1.7-5.2-2-8c-0.3-2.3-0.3-4.6-0.1-6.9c0.3-3.5,1.2-6.8,2.6-10.1c0.2-0.5,0.4-1.1,0.8-1.5
	c0.4,0.2,0.8,0.5,1.1,0.8c-0.4-0.3-0.7-0.6-1.1-0.8c0.5-1.2,1.2-2.2,1.9-3.3c4-6,9.4-10.3,16.1-12.8c4.2-1.6,8.6-2.2,13.1-1.9
	c4.2,0.2,8.3,1.2,12.1,3c2.8,1.3,5.4,3.1,7.7,5.2c0.3,0.3,0.3,0.4,0,0.6c-2.9,2.9-5.7,5.7-8.6,8.6c-0.3,0.3-0.4,0.2-0.7,0
	c-3-2.7-6.5-4.2-10.6-4.6c-9.2-0.8-17.2,4.9-20.2,13.2c0,0.1-0.1,0.2-0.1,0.3c-0.2,0.9-0.5,1.8-0.7,2.7c-0.6,3.3-0.4,6.5,0.6,9.7
	c0,0.1,0.1,0.3,0.1,0.4c0.5,1.3,1,2.5,1.7,3.7c3.3,5.4,8.1,8.8,14.4,9.7c4.8,0.6,9.4-0.3,13.6-2.9c0.1,0,0.1-0.1,0.2-0.1
	c1-0.8,2-1.6,2.8-2.5c1.8-2.1,3-4.5,3.6-7.2c0.1-0.3,0-0.4-0.3-0.4c-0.1,0-0.3,0-0.4,0c-5.5,0-11,0-16.4,0c-0.8,0-0.7,0.1-0.7-0.7
	c0-3.8,0-7.7,0-11.5c0-0.5,0.2-0.6,0.6-0.6c9.9,0,19.7,0,29.6,0c0.5,0,0.7,0.1,0.7,0.6C165.6,401.3,165.8,404.8,165.4,408.3z"/>
<path class="st3" d="M968.7,306.8h-69.2c-6.6,0-12,5.4-12,12V388c0,6.6,5.4,12,12,12h69.2c6.6,0,12-5.4,12-12v-69.2
	C980.7,312.2,975.3,306.8,968.7,306.8z M953.2,354.2c-4.2,0-8.4,0-12.6,0c-0.2,0-0.4,0-0.8,0c0,0.3,0,0.5,0,0.7
	c0,11.1,0,22.2,0,33.3c0,0.9,0,0.9-0.9,0.9c-4,0-7.9,0-11.9,0c-0.9,0-0.9,0-0.9-0.8c0-10.9,0-21.9,0-32.8c0-1.1,0-1.1-1.2-1.1
	c-3.4,0-6.8,0-10.1,0c-0.6,0-0.7-0.2-0.7-0.7c0-3.5,0-7,0-10.4c0-0.5,0.1-0.7,0.7-0.7c3.5,0,7.1,0,10.6,0c0.6,0,0.8-0.2,0.7-0.7
	c0-2.4,0-4.8,0.1-7.2c0.1-4.4,1.8-8.3,4.8-11.5c1.7-1.8,3.6-3.1,5.9-4c1.9-0.7,3.8-0.9,5.8-0.9c3.5,0,6.9,0,10.4,0
	c0.5,0,0.7,0.2,0.6,0.7c0,3.7,0,7.4,0,11.2c0,0.5-0.2,0.7-0.7,0.7c-2.6,0-5.2,0-7.8,0.1c-0.9,0-1.8,0-2.7,0.1
	c-1.5,0.1-2,0.5-2.4,1.9c-0.2,0.5-0.3,1.1-0.3,1.6c0,2.6,0,5.3,0,7.9c0,0.1,0,0.2,0,0.3c0.2,0,0.5,0,0.7,0c4.2,0,8.4,0,12.6,0
	c0.6,0,0.7,0.2,0.7,0.7c0,3.5,0,7,0,10.4C953.9,354,953.8,354.2,953.2,354.2z"/>
<path class="st3" d="M883.4,108.4h-43.3c-6.6,0-12,5.4-12,12v43.3c0,6.6,5.4,12,12,12h43.3c6.6,0,12-5.4,12-12v-43.3
	C895.4,113.8,890,108.4,883.4,108.4z M884.8,130.7c-0.6,0.5-0.8,1-0.8,1.8c-0.1,9.3-3.2,17.5-10.1,24c-9,8.6-23.3,9.7-33.5,2.8
	c-0.2-0.1-0.4-0.2-0.5-0.4c5.4,0.5,10.2-1,14.6-4.5c-2.3-0.1-4.3-0.8-5.9-2.2c-1.6-1.4-2.8-3.1-3.4-5.3c1.5,0.2,2.9,0.2,4.3-0.3
	c-5.3-2.4-8.1-6.3-7.8-10.9c1.4,0.6,2.7,1.3,4.4,1.2c-2.2-1.8-3.6-4-4-6.7c-0.5-2.7-0.3-5.3,1.1-7.8c0.9,1.1,1.8,2.1,2.7,3.1
	c4.7,4.6,10.3,7.4,16.9,8.2c1.2,0.1,1.2,0.1,1.1-1.1c-0.2-2.9,0.4-5.6,2.1-8c3.6-5,10.3-5.7,14.7-1.4c0.5,0.5,0.9,0.6,1.6,0.4
	c1.9-0.5,3.6-1.3,5.5-2.4c-0.7,2.4-2.1,4.2-4.1,5.8c1.7-0.1,3-0.5,4.4-1.1c0.3-0.1,0.5-0.4,0.9-0.2c0,0,0,0,0,0l0,0c0,0,0,0,0,0
	C888.1,127.6,886.5,129.2,884.8,130.7z"/>
<g>
	<path class="st3" d="M126.4,117.6c0-1.3-0.1-2.6-0.2-4c-0.1-1.2-0.4-2.5-0.9-3.6c-0.9-2.4-2.6-4.2-4.9-5.3c-1.6-0.8-3.3-1.2-5-1.3
		c-1.8-0.1-3.6-0.2-5.4-0.2c-2,0-4,0-6,0c-3.8,0-7.6,0-11.4,0.1c-1.6,0-3.2,0.1-4.8,0.3c-1.3,0.2-2.6,0.5-3.8,1
		c-2.2,1-3.8,2.5-4.8,4.6c-0.7,1.5-1.1,3.1-1.3,4.7c-0.1,1.2-0.2,2.4-0.2,3.5c-0.1,1.9-0.1,3.9-0.1,5.8c0,2.9,0,5.8,0,8.7
		c0,1.4,0,2.9,0,4.3c0,1.6,0.1,3.3,0.2,4.9c0.1,1.3,0.4,2.6,0.9,3.9c1,2.6,2.9,4.5,5.5,5.6c1.6,0.7,3.3,0.9,5,1.1
		c1.3,0.1,2.5,0.1,3.8,0.2c3,0,5.9,0.1,9.3,0.1c2.7,0,5.8,0,9-0.1c1.5,0,3-0.1,4.4-0.2c1.3-0.1,2.5-0.4,3.7-0.9
		c2.6-1,4.5-2.8,5.6-5.3c0.7-1.6,1-3.3,1.1-5c0.1-1.2,0.1-2.3,0.2-3.5c0-1.7,0.1-3.4,0.1-5.2c0-3.2,0-6.4,0-9.6
		C126.4,120.6,126.4,119.1,126.4,117.6z M102,142.8c-8.3,0-15.2-6.7-15.3-15.3c0-8.5,6.9-15.3,15.3-15.3c8.5,0,15.3,6.8,15.3,15.3
		C117.3,135.9,110.5,142.8,102,142.8z M117.9,115.1c-2,0-3.6-1.6-3.6-3.6c0-2,1.6-3.6,3.6-3.6c2,0,3.6,1.6,3.6,3.6
		C121.5,113.6,119.9,115.1,117.9,115.1z"/>
	<path class="st3" d="M129.8,87.7H74.3c-6.6,0-12,5.4-12,12v55.5c0,6.6,5.4,12,12,12h55.5c6.6,0,12-5.4,12-12V99.7
		C141.8,93.1,136.4,87.7,129.8,87.7z M131.8,134.5c0,1.9-0.1,3.7-0.2,5.6c-0.1,1.9-0.4,3.8-0.9,5.6c-0.7,2.1-1.7,4.1-3.2,5.8
		c-1.7,2-3.8,3.4-6.3,4.3c-1.4,0.5-2.9,0.8-4.4,1c-1.3,0.2-2.7,0.2-4,0.3c-6,0.2-12,0.1-18,0.1c-2,0-4.1-0.1-6.1-0.2
		c-2.5-0.1-4.9-0.7-7.1-1.7c-1.7-0.8-3.2-1.9-4.6-3.2c-2-2-3.2-4.4-3.9-7.2c-0.4-1.5-0.6-3.1-0.7-4.7c-0.2-2.9-0.2-5.8-0.2-8.8
		c0-2.9,0-5.8,0-8.7c0-1.4,0-2.9,0.1-4.3c0-1.3,0.1-2.6,0.2-3.9c0.1-2.3,0.6-4.5,1.4-6.6c0.8-2.1,2-3.8,3.6-5.4
		c1.9-1.8,4.1-3,6.6-3.7c1.4-0.4,2.7-0.6,4.2-0.7c2.1-0.2,4.1-0.2,6.2-0.2c2.5,0,5,0,7.6,0c0,0,0,0,0,0c2.3,0,4.7,0,7,0
		c2.1,0,4.1,0.1,6.2,0.2c2.3,0.1,4.6,0.6,6.7,1.5c3.8,1.6,6.5,4.4,8.1,8.2c0.7,1.6,1.1,3.2,1.3,4.9c0.2,1.4,0.2,2.8,0.3,4.2
		c0.1,2.5,0.1,5.1,0.1,7.6C131.8,127.8,131.8,131.2,131.8,134.5z"/>
	<path class="st3" d="M102,117.5c-5.5,0-9.9,4.4-9.9,9.9c0,5.5,4.4,9.9,9.9,9.9c5.5,0,9.9-4.4,9.9-9.9
		C112,122,107.5,117.5,102,117.5z"/>
</g>
<text transform="matrix(1 0 0 1 242.1095 290.6077)" class="st3 st8 st9">SEO</text>
<text transform="matrix(1 0 0 1 240.3975 455.1352)"><tspan x="0" y="0" class="st3 st8 st10">Email </tspan><tspan x="0" y="26.3" class="st3 st8 st10">Marketing</tspan></text>
<text transform="matrix(1 0 0 1 675.8361 482.0786)" class="st3 st8 st9">ORM</text>
<text transform="matrix(1 0 0 1 676.889 281.4396)"><tspan x="0" y="0" class="st3 st8 st10">Paid </tspan><tspan x="0" y="26.3" class="st3 st8 st10">Search</tspan></text>
</svg>
