<svg id="Layer_1" data-name="Layer 1" xmlns="http://www.w3.org/2000/svg" xmlns:xlink="http://www.w3.org/1999/xlink" viewBox="0 0 1080 1080"><defs><style>.cls-1{mask:url(#mask);filter:url(#luminosity-noclip-2);}.cls-2{mix-blend-mode:multiply;fill:url(#linear-gradient);}.cls-3{fill:#f26522;}.cls-4{fill:#eba278;}.cls-5{fill:#f7ae80;}.cls-6{fill:#ffd059;}.cls-7{fill:#5e2064;}.cls-8{fill:#501b55;}.cls-9{fill:#e4a22a;}.cls-10{fill:#e46454;opacity:0.49;}.cls-11{opacity:0.65;fill:url(#radial-gradient);}.cls-12{fill:#652870;}.cls-13{mask:url(#mask-2);}.cls-14{opacity:0.23;fill:url(#linear-gradient-2);}.cls-15{fill:#e8e8e8;}.cls-16{filter:url(#luminosity-noclip);}</style><filter id="luminosity-noclip" x="544.82" y="-8178.5" width="279.76" height="32766" filterUnits="userSpaceOnUse" color-interpolation-filters="sRGB"><feFlood flood-color="#fff" result="bg"/><feBlend in="SourceGraphic" in2="bg"/></filter><mask id="mask" x="544.82" y="-8178.5" width="279.76" height="32766" maskUnits="userSpaceOnUse"><g class="cls-16"/></mask><linearGradient id="linear-gradient" x1="544.82" y1="582.18" x2="824.58" y2="582.18" gradientUnits="userSpaceOnUse"><stop offset="0"/><stop offset="1" stop-color="#fff"/></linearGradient><radialGradient id="radial-gradient" cx="443.26" cy="306.02" r="45.99" gradientTransform="translate(157.35 -150.47) rotate(23.32)" gradientUnits="userSpaceOnUse"><stop offset="0" stop-color="#e56457"/><stop offset="1" stop-color="#f7ae80"/></radialGradient><filter id="luminosity-noclip-2" x="544.82" y="343.65" width="279.76" height="477.07" filterUnits="userSpaceOnUse" color-interpolation-filters="sRGB"><feFlood flood-color="#fff" result="bg"/><feBlend in="SourceGraphic" in2="bg"/></filter><mask id="mask-2" x="544.82" y="343.65" width="279.76" height="477.07" maskUnits="userSpaceOnUse"><g class="cls-1"><polygon class="cls-2" points="824.58 493.43 820.48 483.69 575.5 343.65 544.82 820.72 783.19 682.68 801.77 625.97 824.58 493.43"/></g></mask><linearGradient id="linear-gradient-2" x1="544.82" y1="582.18" x2="824.58" y2="582.18" gradientUnits="userSpaceOnUse"><stop offset="0" stop-color="#e8e8e8"/><stop offset="1" stop-color="#e8e8e8"/></linearGradient></defs><path class="cls-3" d="M1013.08,610.76c0,125.47-55.3,238-142.89,314.59a419.47,419.47,0,0,1-57.17,42v0q-7.39,4.53-15,8.75A415.72,415.72,0,0,1,595.5,1028.5h-.9c-1.54,0-3.1,0-4.64,0-.94,0-1.9,0-2.85,0l-3.3-.06c-1,0-2.07-.07-3.09-.11-1.5,0-3-.11-4.48-.17-3.1-.13-6.21-.31-9.3-.53-1.15-.06-2.28-.15-3.43-.24-3.08-.23-6.15-.49-9.21-.8-1.7-.15-3.37-.33-5-.52A415.9,415.9,0,0,1,332.79,935.7C238.12,859.12,177.61,742,177.61,610.76a415.91,415.91,0,0,1,89.32-258.18C343.42,255.41,462.08,193,595.34,193,826.06,193,1013.08,380.05,1013.08,610.76Z"/><path class="cls-4" d="M325.91,406l17.74-2.39s34.34.69,43.61,78.13,16.1,106.76,16.1,106.76,18.7,141.62,46.22,160.09,52.51,11.23,107.92-7.6,87.93-35.05,87.93-35.05l22.89-1.17-56.86,40.2L434.73,818.82,322.47,702.93,310.15,452.32Z"/><path class="cls-5" d="M382.67,336.44s-35.58,17.38-38.29,45.63c-.82,8.45-1.74,15.47-.44,23.47-32.14-16.37-40-28.77-40-28.77l-63-41.09L270,278.86,346,252.78Z"/><path class="cls-6" d="M489.24,836.9c-28.75,20.2-55.56,38.09-78.59,52.88h0c-45.89,29.51-76.73,46.81-77.84,45.92C238.12,859.12,177.61,742,177.61,610.76a415.91,415.91,0,0,1,89.32-258.18L304,376.77s7.82,12.4,40,28.77c2.2,13.6,10.26,30,32.86,60.55C412.65,514.61,407.93,547.75,402,601S407.39,725.93,428,756.35c14,20.64,36.27,57.36,56.71,76.59C486.24,834.35,487.76,835.68,489.24,836.9Z"/><path class="cls-7" d="M884.88,785.68c-4.45,46.13-8.6,99.21-14.69,139.67q-10.1,8.83-20.82,17-3.48,2.7-7.06,5.3-12.06,8.87-24.79,16.88-9.59,6-19.53,11.56c.17-2,14.47-127-4.11-133.67-16.28-5.85-43.18,23.9-70.34,56.49s-108.08,129.48-128,129.55h-.9a416.82,416.82,0,0,1-45.34-2.52h0A415.91,415.91,0,0,1,332.79,935.7c.74.6,14.89-7,38-21,2-1.18,4-2.42,6.06-3.7,10-6.08,21.32-13.21,33.79-21.23h0c23-14.79,49.84-32.68,78.59-52.88,8,6.58,18.19,9.08,27.6,6.64,65.58-17,173.09-106.6,252.73-143.38,23.55-10.87,44.67-17.13,61.53-15.52C879.9,689.31,890.86,723.75,884.88,785.68Z"/><path class="cls-8" d="M849.37,942.39q-3.48,2.7-7.06,5.3C845.09,917.64,854,801.3,829,767.52c-6-8.13-12-12.52-18.32-13.43-11.82-1.7-25.92,8.12-46.09,23.33-5.08,3.85-13.69,11.48-24.55,21.17C684.63,847.87,570.36,949.52,478,949.52c-1.67,0-3.32,0-5-.09-54.58-2.22-89.72-25.08-102.21-34.72,2-1.18,4-2.42,6.06-3.7,13.47,9.8,46.91,29.9,96.41,31.9,90.63,3.72,206.68-99.58,262.46-149.21,11-9.76,19.69-17.49,25-21.49,22.12-16.69,36.59-26.68,50.93-24.58,8.15,1.18,15.54,6.41,22.64,16C859.44,797.74,852.66,904.67,849.37,942.39Z"/><path class="cls-8" d="M769.57,700.16C651.88,837.48,510.93,887.26,410.65,889.78c23-14.79,49.84-32.68,78.59-52.88,8,6.58,18.19,9.08,27.6,6.64C582.42,826.51,689.93,736.94,769.57,700.16Z"/><path class="cls-9" d="M489.24,836.9c-28.75,20.2-55.56,38.09-78.59,52.88h0C310.11,892.26,227.5,563.5,227.5,563.5l-14-83.65L227.58,456,270,491.8,411.56,829l73.18,4C486.24,834.35,487.76,835.68,489.24,836.9Z"/><path class="cls-10" d="M344.74,317.15a106.17,106.17,0,0,1-9-18c-11.69,2.53-23.87,8.36-13.13,21.74,18.1,22.59,44.47,26.66,44.47,26.66h0C360,340.36,353.43,331.05,344.74,317.15Z"/><path class="cls-5" d="M528.53,204.71l10.76,3.8s2.72,22-5.38,40.47S496.48,292.4,502.18,322c2.48,12.9,4.35,17.11-10.86,18.2,0,0-30.51,55.23-74,35.67s-51.79-23.54-75.33-61.2-17.2-83.66-17.2-83.66Z"/><circle class="cls-11" cx="443.26" cy="306.02" r="45.99" transform="matrix(0.92, -0.4, 0.4, 0.92, -84.93, 200.47)"/><path class="cls-5" d="M263.07,618.19S224,510.27,251.49,469.71s60.84-75.33,80.39-42.74,26.08,67,36.4,139.79,31.13,238,83.46,225.19,146.86-52.44,174-72,45.91-35.85,79-25.8,28.11,14.67,14.26,15.34-38.16-3.93-53.37,10.73S631.2,754.17,562.21,790s-138.34,85.28-163,66.81S288.42,705.83,263.07,618.19Z"/><path class="cls-8" d="M817.52,863.9c-1.39,63.41-4.39,102.19-4.5,103.46v0q-7.39,4.53-15,8.75c.17-2,14.47-127-4.11-133.67-16.28-5.85-43.18,23.9-70.34,56.49s-108.08,129.48-128,129.55h-.9c-1.54,0-3.1,0-4.64,0-.94,0-1.9,0-2.85,0l-3.3-.06c-1,0-2.07-.07-3.09-.11-1.5,0-3-.11-4.48-.17-3.1-.13-6.21-.31-9.3-.53-1.15-.06-2.28-.15-3.43-.24-3.08-.23-6.15-.49-9.21-.8-1.7-.15-3.37-.33-5-.52,0,0,59.64-24.4,149.84-136.18C777.87,792.2,819.15,789.31,817.52,863.9Z"/><path class="cls-8" d="M499.22,289.24c-3.47-22.59-24.21-23.66-25.09-23.69l.15-4.35c.25,0,25.2,1.18,29.23,27.38Z"/><path class="cls-8" d="M466,364.48c-.58-.27-14.11-6.82-12.65-25l4.33.35c-1.21,15.05,9.71,20.45,10.17,20.68Z"/><path class="cls-7" d="M539.28,208.52C528.59,233.51,447,256,447,256S419.6,276.68,392.44,312,374,394.3,374,394.3c-29.59-54.6,38.31-124.13,38.31-124.13-85.29,42.37-90.78,74.74-107,103.21C284.62,409.77,324,475,273.76,503.75c-56.5,32.35-15.47,91.35-32.1,133.72a42.08,42.08,0,0,1-6.78,11.45c-22,27-76.22,32.94-102.36,23.94-28.9-9.93-45.09-62.27-31.68-107.55s14.84-47.81-10.15-92.7S63.27,414,70.42,377c9.23-47.85,49.43-68.28,102.3-90,22.38-9.19,30.59-44.67,42.59-85.72.74-2.56,1.5-5.12,2.28-7.71,14.62-48.63,36-103.06,92.56-130.37a126.16,126.16,0,0,1,23.27-8.45C386.79,40.82,454,56,489.24,83.84q5.77,4.56,10.87,9.45A145.19,145.19,0,0,1,523,121.24C544.15,154.87,547,190.57,539.28,208.52Z"/><path class="cls-8" d="M333.42,54.75S266,96.2,239.25,193q-1.31,4.72-2.45,9.61c-.66,2.65-1.26,5.32-1.83,8-13.08,62.58-34.72,94.13-57.36,101.36s-85.29,40-87.83,75.68c-5,70.3,40.57,77.14,38.39,127.86s-34.76,95.67,1.09,134c25.25,27,77.64,14,105.62-.59-22,27-76.22,32.94-102.36,23.94-28.9-9.93-45.09-62.27-31.68-107.55s14.84-47.81-10.15-92.7S63.27,414,70.42,377c9.23-47.85,49.43-68.28,102.3-90,22.38-9.19,30.59-44.67,42.59-85.72.74-2.56,1.5-5.12,2.28-7.71,14.62-48.63,36-103.06,92.56-130.37A126.16,126.16,0,0,1,333.42,54.75Z"/><path class="cls-12" d="M523,121.24c-84.75,92.13-265.53,83.46-307.66,80,.74-2.56,1.5-5.12,2.28-7.71C391.4,191.46,469.51,129.1,500.11,93.29A145.19,145.19,0,0,1,523,121.24Z"/><path class="cls-7" d="M239.25,193q-1.31,4.72-2.45,9.61c-9-.39-16.3-.89-21.49-1.31.74-2.56,1.5-5.12,2.28-7.71Q228.68,193.44,239.25,193Z"/><g class="cls-13"><polygon class="cls-14" points="824.58 493.43 820.48 483.69 575.5 343.65 544.82 820.72 783.19 682.68 801.77 625.97 824.58 493.43"/></g><polygon class="cls-15" points="797.47 674.42 794.42 690.63 780.15 698.87 644.87 776.96 638.63 766.14 783.19 682.68 797.47 674.42"/><polygon class="cls-15" points="832.78 485.99 797.47 674.42 794.42 690.63 780.15 698.87 783.19 682.68 820.48 483.69 832.78 485.99"/></svg>