<svg id="Layer_1" data-name="Layer 1" xmlns="http://www.w3.org/2000/svg" viewBox="0 0 1080 1080"><defs><style>.cls-1{fill:#01597b;}.cls-2{fill:#f8801b;}</style></defs><path class="cls-1" d="M765.66,1030.12q-117.58,0-235.16,0c-25.72,0-30.13-5.71-31.77-31.32-4.06-63.23,17-96.32,90.55-91.35,15.86,1.07,31.85.34,47.78.2,21.32-.19,27.42-5.85,29-26.48q6.29-82.9,12.56-165.82c4.19-54.43,24-72.69,79-72.88,73.26-.27,87.35,12.32,93.18,84,4.08,50.17,7.77,100.37,11.73,150.55,2.08,26.35,6.79,30.66,32.93,30.7,24.21,0,48.44-.39,72.64.13,35.77.78,60.78,26.19,61.68,62,.22,8.91.06,17.84,0,26.76,0,28.91-4.54,33.55-32.83,33.56Q881.34,1030.16,765.66,1030.12Zm221.61-41.77c3.66-34.42-.74-39.52-32.46-39.59-22.32,0-44.64.36-66.94-.09-38-.76-62.14-23.56-65.08-61-3.95-50.19-8-100.39-11.59-150.61-3.94-54.64-3.76-54.66-59.35-54.13-24.88.23-30.06,5.34-31.9,29.74-4.4,58.47-8.49,117-13.86,175.37-3.67,39.78-27.05,60.12-67.17,60.67-22.31.3-44.63,0-66.94.07-29.36.15-36.33,9.56-29.09,39.59Z"/><path class="cls-2" d="M471.27,505.72c-55.76,40.94-113.56,47.92-171.9,10.88-58.11-36.88-71.21-94-64.47-156.63,43.76-7,86.66-12.35,128.86-21.1,43.27-9,83.58-26.35,120.05-55.15,4.11,14.31,6.88,26.13,10.89,37.51,16.85,47.8,31.31,57.21,81.23,55.68,17.65-.55,25.53-8.47,25.36-25.9-.27-26.77.31-53.56-.08-80.34C599.56,158.81,515.85,66.93,402,51.67,296.14,37.49,189.22,107.89,161.8,213.55c-8.33,32.08-6.1,66.85-9.6,100.29-.93,8.91-3.21,18.81-8.15,26-27.36,39.71-6.57,89.21,41.27,98.1,5.7,1.06,13.11,7.07,15,12.42,12.8,37.23,33.65,68.37,64.66,92.77,12.55,9.88,15.13,61.88,3.32,72.37-3.88,3.45-10.11,5-15.5,5.81-6.88,1-14,.27-21,.48C128.44,625,50.63,704.69,50.23,808c-.25,63.77-.1,127.54,0,191.3,0,25.65,5.34,30.8,31.76,30.81q158.78,0,317.55,0c47.17,0,79.45-29.43,79.23-71.88-.22-41.71-32.11-70.62-78.24-70.68q-91.83-.13-183.64,0H192.64V827.66H152.35c0,24.94-.15,48.45.05,72,.18,22.83,5.5,28.21,28.45,28.28,44.63.14,89.27-.07,133.9,0,6.73,0,13.45.58,20.07.89V988H93c0-69.77-5.11-138.91,1.36-207,7.18-75.57,81.89-126.5,159.65-116.17,0,26.89-1.45,54.22.49,81.3,1.41,19.54-12.2,46.43,13.2,56.75,24.15,9.81,33.69-17.66,47.78-30.43,21.05-19.08,39.74-40.75,62-64l85.25,88.73,31.44-28.67L408,687.17l41.19-44.26,49.09,24.25V534ZM192,394.62l-4.71,3.22c-4.79-6.41-13.4-12.84-13.38-19.24,0-7.73,7.36-15.44,11.54-23.15l6.55,3.88Zm1.92-80.3c-7.28-84.73,16-154.43,90.79-197.68,66.72-38.61,135-35.11,198.27,9,73.67,51.35,84,127.15,74.73,216-8.17-8.63-15.79-13-17.39-19-7.49-28.08-13.66-56.54-19.54-85-1.78-8.63,1.32-18.93-2.22-26.35s-12.13-15.79-19.38-16.68c-5.87-.72-18.13,8.45-18.79,14.24-3.93,34.28-28.39,50.08-54.6,63.86-52.34,27.5-109.42,37.4-167.63,41.42C237.33,315.53,216.31,314.32,193.93,314.32ZM377.87,928.54c20.23.2,42.09-7.19,54.18,14,4.68,8.23,4.77,23.3.3,31.7-11.77,22.12-34.08,13.41-54.48,14.42ZM295.15,734.22c1.45-33.43-3.53-64,3.48-95.68l46.85,43.23ZM427.62,602.78c-15.09,17.89-32.11,34.15-50.53,53.35-20.23-20.74-39.38-39.11-56.74-59-4.73-5.43-4.1-15.54-6.7-26.85,43.27,14.12,82.55,13.89,121.83,1.29l4.92,3.34C436.26,584.28,434,595.25,427.62,602.78Zm51.75-2.56c3-20.88-12.92-47.55,18.32-62.6v82.81C484,619.44,477.81,611.06,479.37,600.22Z"/><path class="cls-1" d="M1029.79,464.68c0-42.15-24.24-66.84-66.2-66.91q-198-.33-396,0c-44.9.08-68.24,23.73-68.64,68.57-.19,21.32,0,42.65,0,68.42l-.7-.73V667.16l.71.35c0,36.27-.31,75.08.1,113.89.33,32.2,16.83,58.27,45.91,62,31.57,4,64,.91,95.54.91V805.38c-25.31,0-48.87.17-72.42,0-22.38-.21-28-5.93-28.05-28.67q-.13-154.95,0-309.9c0-22.06,6.34-28.66,28.39-28.68q196.08-.22,392.15.05c22.45,0,28.11,6,28.14,28.71q.18,155,0,309.9c0,23.93-5,28.47-29.85,28.61-23.37.13-46.75,0-70.24,0v41.11c25.53,0,49.67.09,73.81,0,42.77-.18,67.3-24.85,67.34-68.06Q1030,621.56,1029.79,464.68Z"/></svg>