<svg id="Layer_1" data-name="Layer 1" xmlns="http://www.w3.org/2000/svg" viewBox="0 0 1080 1080"><defs><style>.cls-1{fill:#f8801b;}.cls-2{fill:#01597b;}</style></defs><path class="cls-1" d="M430.65,565.19H403.28V461.67a51,51,0,0,0-25.18-44,123.55,123.55,0,0,0-125.69-.14,51.19,51.19,0,0,0-25.52,44.17V565.19H199.52V461.73a78.65,78.65,0,0,1,39.19-67.87,150.91,150.91,0,0,1,153.16.19,78.45,78.45,0,0,1,38.78,67.62Z"/><path class="cls-1" d="M315.09,388.92a72.46,72.46,0,1,1,72.45-72.46A72.54,72.54,0,0,1,315.09,388.92Zm0-117.54a45.09,45.09,0,1,0,45.08,45.08A45.14,45.14,0,0,0,315.09,271.38Z"/><path class="cls-1" d="M566.59,653.89c9.22,25.64,18.08,50.28,26.95,74.92,14.52,40.34-4,67.64-46.29,67.72q-100.78.18-201.56,0c-41.49-.08-60.43-27.13-46.53-66.42,8.74-24.7,17.93-49.24,27.7-76-8.93-.42-15.5-1-22.07-1q-96.08-.11-192.14-.05c-37.51,0-55-17.6-55-55.45q-.07-238.3,0-476.6c0-37.74,17.56-55.53,55.05-55.54q334.37-.1,668.73,0c36.5,0,54.16,17.6,54.3,54.49.28,76.61.13,153.21.14,229.82,0,11.77-.29,24.71-16.22,24.31s-15.24-13.7-15.24-25.22q0-112.08,0-224.16c0-25.64-2.65-28.37-27.84-28.37q-329.65,0-659.32,0c-25.07,0-28.69,3.49-28.7,27.85q-.06,235.47,0,470.94c0,23.38,3.78,27.08,27.51,27.08q251.47,0,503,0c6.28,0,12.56.06,18.84,0,11,0,20.26,4.75,17.88,16-1.26,5.93-11.14,13.53-17.73,14.17-19.28,1.87-38.87.59-58.33.64C575.9,653.11,572.2,653.54,566.59,653.89Zm-120,111.75v.08c33.86,0,67.73.22,101.59-.09,18.11-.17,23.11-6.86,17.29-23.4-9.15-26-18.47-52-29-77.4-2.16-5.18-10.15-11.16-15.54-11.25q-74.29-1.3-148.61,0c-5.38.09-13.39,6-15.5,11.1-10.46,25.48-19.65,51.5-28.68,77.53-5.85,16.89-1.24,23.18,16.9,23.35C378.85,765.86,412.71,765.64,446.58,765.64Z"/><path class="cls-2" d="M988.43,982.1c0-51.29,4.63-101.85-1-151.23-9.83-86-90.41-148.34-177.11-143.44C724,692.31,653.2,763.92,649.54,850.19c-.37,8.77-.44,17.57-.26,26.35.24,11.59-4,21.92-16.27,19.6-5.89-1.12-13.65-12.52-14-19.6-4.82-93.38,39-165.2,123.76-204.93,1.1-.52,2.06-1.34,4.94-3.24-46.76-32.14-73.37-75.08-70.3-132.68,2.15-40.27,19.49-73.63,50.06-99.76,59.81-51.1,149.47-44,201.19,15.61,56.65,65.31,43.36,149.6-35.41,217.19,5.24,2.73,10,5.16,14.63,7.64C980.7,715,1019.27,775.61,1021.81,858c1.38,44.52,0,89.12.42,133.68.17,15.83-6.05,23-22.17,22.94-119.89-.21-239.77,0-359.65-.52-6.89,0-18.57-4.9-19.65-9.48-2.4-10.22-2.71-23.43,2.06-32.19,5.94-10.89,16.5-7.78,24.62,1.76,3.43,4,8.88,9,13.43,9,108,.43,215.91.25,323.86.12C985.9,983.28,987.06,982.55,988.43,982.1Zm-169-548.85c-61.91.37-111.15,49.74-111,111.3.15,61.31,50,111,111.53,111.19A112,112,0,0,0,932,543.08C931.53,482,881.19,432.88,819.39,433.25Z"/><path class="cls-1" d="M159.79,169.83V550.44h22.43q214.74,0,429.49,0c5.64,0,12.34-1.64,16.67.8,5.61,3.16,13,9.75,12.85,14.69-.14,5.16-7.66,11-13.16,14.79-3,2.08-8.54.61-12.93.61q-229.81,0-459.62,0c-24.85,0-27.16-2.28-27.18-26.87q-.12-195.9,0-391.81c0-22.11,3.28-25.43,24.86-25.44q292.92-.13,585.83-.1c22.53,0,26.28,3.83,26.31,26.36.09,66.56.31,133.12-.34,199.67-.07,7.8-3.06,18.1-8.52,22.79-10.19,8.75-22-1.16-22.09-18.74-.34-43.95-.14-87.91-.16-131.86V169.83Z"/><path class="cls-2" d="M656.36,933.31c-10.69,7.92-16.85,16-22.17,15.47-5.62-.55-13.14-8.66-14.57-14.71-.87-3.66,8-13.34,13-13.7C638.49,920,644.9,926.64,656.36,933.31Z"/></svg>