<svg id="Layer_1" data-name="Layer 1" xmlns="http://www.w3.org/2000/svg" viewBox="0 0 1080 1080"><defs><style>.cls-1{fill:#f8801b;}.cls-2{fill:#01597b;}</style></defs><path class="cls-1" d="M741.39,845.94c0,17.11-.1,29.33,0,41.55.12,11.73-1.06,23.59-16.15,23.29-13.72-.27-15.13-11.34-14.94-22.47.22-12.73,0-25.46,0-42.28-24.89,19.57-46.51,37.44-69.2,53.81-5.66,4.08-17.1,7.08-21.87,4.11-12.51-7.77-8.89-18.44,1.41-26.63,25.22-20.06,50.37-40.21,76.14-59.54,9.6-7.19,14-14.65,13.85-27.21-.78-52.81-.33-105.65-.33-161.6H689.27q-105.37,0-210.73,0c-42.37,0-61.94-19.06-62.11-60.81-.22-52.19-.05-104.37-.05-158.18H571.2q0,50.84,0,101.76c0,25.37,2.62,28.23,27.18,28.25q127.61.09,255.2,0c3.22,0,7.32,1.15,9.5-.38,6.16-4.35,11.54-9.81,17.22-14.83-5.46-5.19-10.37-11.24-16.6-15.22-3.22-2.05-8.8-.44-13.31-.44H622l69-54.92c6.86,10.09,13.18,18.84,18.91,27.95,8.32,13.22,17.44,15.06,30.15,5,22.69-18,46.13-35,69.09-52.3,22.72,18.46,29.23,16.8,40-9.8a143,143,0,0,0,6.18-18.29c5.77-22.81-5.21-37-28.52-36.35-9,.25-18.4.77-26.65,3.8-7.16,2.63-15.68,7.78-18.45,14.08-2,4.6,4.31,12.88,8.08,22.49l-59.81,45c-6.68-9.71-13.08-18.39-18.81-27.5-8.43-13.39-18.35-14.67-30.5-5.06q-34.12,27-68.45,53.68c-2.31,1.81-5,3.17-10,6.36,0-27-.19-51.25.23-75.45.06-3.2,2.42-7.79,5.09-9.29,23-12.88,35.41-33.08,41.57-59.79h135q61.86,0,123.73.08c11.74,0,25.94,1.33,26.17-15,.26-17.89-14.85-16-27.08-16q-118.9,0-237.81.06H649.62c-3.28-10.06-6.22-19.09-10.11-31H901c5.8,0,12.66,1.8,17.15-.67,6.31-3.46,10.86-10.13,16.16-15.44-5.68-4.91-10.65-11.79-17.25-14.19-6.84-2.48-15.27-.65-23-.65-83.13,0-166.3,1.4-249.39-.43-75-1.65-150-6.85-225.75-10.53-12.93-45.48,10.95-77.88,60.26-78,76-.19,152,0,231.22,0,0-15.48-1.63-30.25.66-44.38,1.23-7.6,8.35-19.08,14.3-20.1,13.09-2.23,16.18,9.1,16,20.63-.2,13.51,0,27,0,43.87h20.83q106.35,0,212.68,0c40.62.06,60.38,19.86,60.4,60.54q.11,176,0,352c0,39.22-20.09,59.28-59.64,59.4-68.31.2-136.63.06-204.94.06H741.3v53c0,36.1.59,72.22-.33,108.3-.32,12.52,3.8,20,13.89,26.94,25.44,17.56,50.06,36.32,75.08,54.5,9,6.53,17,14,8.42,25.35-8.4,11.16-17.82,6-26.87-.58C789.31,880.28,766.93,864.33,741.39,845.94Z"/><path class="cls-2" d="M164.22,300.14c-23.73,0-46,.11-68.23,0-13.66-.1-20,6.43-20,20.07q.2,118,.2,235.91c0,1.77.94,3.55,1.68,6.17h44.58c0-25.13,0-50,0-74.89,0-16.11-1.39-32.42.74-48.24.79-5.92,9.11-13.4,15.32-15,3.49-.9,13.89,8.69,14,13.71,1,41.85,1.6,83.81-.53,125.59-1.11,21.63-13.83,28.92-42.8,31.92-.61,1.11-1.67,2.19-1.74,3.34-2.58,41.91-2.57,41.91,38.91,41.91q90.84,0,181.69,0c26.12,0,26.74-.54,26.77-27.34q.14-118.9.06-237.83c0-26.48,2.35-28.82,28.61-28.85q82.15-.06,164.3,0c35.17,0,38.61-2,38.78-22.71.18-21.71-3.1-23.71-39.64-23.72q-87.95,0-175.89,0c-4.51,0-10,1.6-13.32-.39-6.76-4.06-12.34-10.07-18.4-15.28,6.19-5.07,12.27-14.38,18.61-14.56,45.71-1.3,91.47-.77,137.22-.78,24.48,0,49-.33,73.44.2,31.68.68,49,20.26,48.91,54.37-.06,33.87-17.54,53.4-49.57,53.68-52.83.46-105.66.14-158.5.14H385.81v24q0,109.26,0,218.5c-.07,36.18-15.55,51.43-52,51.49q-100.51.16-201,.06C89.65,671.5,76.29,658,76.1,614.89c0-5.78,0-11.55,0-18.93-27.35-5.09-31.72-24-31.37-48.53,1.06-73.46.36-146.95.39-220.43,0-41.07,16.6-55.65,56.88-58.56C129.78,266.44,147.72,277.41,164.22,300.14Z"/><path class="cls-2" d="M239.33,91.21c55.6.46,100.16,46,99.77,101.87-.37,54.34-46.09,99.54-100.44,99.3C182,292.13,137.14,246.3,137.92,189.46,138.66,135.21,184.54,90.75,239.33,91.21Z"/><path class="cls-2" d="M99.29,702.76H206c.59,4.63,1.45,8.27,1.46,11.91.08,74.65.28,149.3,0,224-.15,33.11-19.41,50.28-54.7,50.18-34-.11-53.19-17.39-53.34-49.59C99.05,860.75,99.29,782.29,99.29,702.76Z"/><path class="cls-2" d="M238.52,703.36H346.91c0,26.44,0,52,0,77.53,0,52.13.07,104.27-.18,156.41-.17,33.71-18.79,51.42-53.42,51.5-35.28.07-54.55-17.13-54.69-50.21C238.31,860.8,238.52,783,238.52,703.36Z"/></svg>