<?xml version="1.0" encoding="utf-8"?>
<!-- Generator: Adobe Illustrator 25.4.1, SVG Export Plug-In . SVG Version: 6.00 Build 0)  -->
<svg version="1.1" id="Слой_1" xmlns="http://www.w3.org/2000/svg" xmlns:xlink="http://www.w3.org/1999/xlink" x="0px" y="0px"
	 viewBox="0 0 5000 3500" style="enable-background:new 0 0 5000 3500;" xml:space="preserve">
<style type="text/css">
	.st0{fill:none;stroke:#66B0F0;stroke-width:6;stroke-miterlimit:10;}
	.st1{fill:#D0F0E4;}
	.st2{fill:none;stroke:#FFCF2D;stroke-width:6;stroke-miterlimit:10;}
	.st3{fill:#FFFFFF;}
	.st4{fill:#66B0F0;}
	.st5{fill:#FFFFFF;stroke:#FFCF2D;stroke-width:5;stroke-miterlimit:10;}
	.st6{fill:#FFCF2D;}
	.st7{fill:#FFFFFF;stroke:#FE5244;stroke-width:6;stroke-miterlimit:10;}
	.st8{fill:#FE5244;}
	.st9{fill:none;stroke:#FFFFFF;stroke-width:5;stroke-linecap:round;stroke-miterlimit:10;}
	.st10{fill:#3FB1B5;}
	.st11{fill:#FFFFFF;stroke:#66B0F0;stroke-width:6;stroke-miterlimit:10;}
	.st12{fill:none;stroke:#FFCF2D;stroke-width:5;stroke-miterlimit:10;}
	.st13{display:none;}
	.st14{display:inline;fill:#FE5244;}
	.st15{display:inline;fill:#FFFFFF;}
	.st16{display:inline;fill:#A0505A;}
	.st17{display:inline;fill:#73325A;}
	.st18{display:inline;}
	.st19{fill:#73325A;}
	.st20{display:inline;fill:#FFCF2D;}
	.st21{fill:none;stroke:#66B0F0;stroke-width:4;stroke-miterlimit:10;}
	.st22{fill:#FEB040;}
	.st23{fill:#E57281;}
	.st24{fill:#9A3B82;}
	.st25{display:inline;fill:#E57281;}
	.st26{display:inline;fill:#FFFFFF;stroke:#FEB040;stroke-width:4;stroke-miterlimit:10;}
	.st27{fill:#A0505A;}
	.st28{fill:none;stroke:#FE5244;stroke-width:6;stroke-miterlimit:10;}
	.st29{fill:none;stroke:#FFFFFF;stroke-width:6;stroke-linecap:round;stroke-miterlimit:10;}
	.st30{fill:none;stroke:#73325A;stroke-width:5;stroke-linecap:round;stroke-miterlimit:10;}
	.st31{fill:#FFCF2D;stroke:#FFFFFF;stroke-width:5;stroke-miterlimit:10;}
	.st32{clip-path:url(#SVGID_00000001651968332905891730000006393893253962998406_);}
	.st33{fill:none;stroke:#3FB1B5;stroke-width:5;stroke-linecap:round;stroke-miterlimit:10;}
	.st34{fill:#FFFFFF;stroke:#9A3B82;stroke-width:5;stroke-miterlimit:10;}
	.st35{fill:#FFFFFF;stroke:#FE5244;stroke-width:5;stroke-miterlimit:10;}
	.st36{fill:none;stroke:#FE5244;stroke-width:5;stroke-linecap:round;stroke-miterlimit:10;}
	.st37{fill:#FFFFFF;stroke:#3FB1B5;stroke-width:5;stroke-linecap:round;stroke-miterlimit:10;}
	.st38{fill:none;stroke:#9A3B82;stroke-width:4;stroke-linecap:round;stroke-miterlimit:10;}
	.st39{fill:#FFFFFF;stroke:#FE5244;stroke-width:4.9999;stroke-miterlimit:9.9997;}
	.st40{clip-path:url(#SVGID_00000005952961963248652490000000560975154406277260_);}
	.st41{fill:none;stroke:#9A3B82;stroke-width:5;stroke-miterlimit:10;}
	.st42{fill:#FFFFFF;stroke:#3FB1B5;stroke-width:4.9998;stroke-linecap:round;stroke-miterlimit:9.9997;}
	.st43{fill:none;stroke:#73325A;stroke-width:4;stroke-linecap:round;stroke-miterlimit:10;}
	.st44{fill:#FFFFFF;stroke:#9A3B82;stroke-width:4;stroke-miterlimit:10;}
	.st45{fill:none;stroke:#66B0F0;stroke-width:7;stroke-miterlimit:10;}
	.st46{fill:#43A2DD;}
	.st47{fill:#54AAEA;}
	.st48{fill:#2F98CC;}
</style>
<g id="FLOOR">
	<line class="st0" x1="3928.5" y1="3059" x2="969.1" y2="3059"/>
	<line class="st0" x1="1227.6" y1="3112.6" x2="2922.3" y2="3112.6"/>
</g>
<g id="TABLE">
	<path class="st1" d="M3776,2393.9h-473.3c-22.4,0-40.6,18.2-40.6,40.6V3059h554.4v-624.5C3816.6,2412.1,3798.4,2393.9,3776,2393.9z
		"/>
	<path class="st2" d="M3776,2393.9h-473.3c-22.4,0-40.6,18.2-40.6,40.6V3059h554.4v-624.5C3816.6,2412.1,3798.4,2393.9,3776,2393.9z
		"/>
	<rect x="3198.3" y="1692.3" class="st2" width="683" height="1366.6"/>
	<polyline class="st2" points="3899.2,1521.2 1556.9,1521.2 1556.9,1692.3 4030.9,1692.3 	"/>
	<path class="st2" d="M3776,2013.5h-472.4c-22.4,0-40.6-18.2-40.6-40.6v-166.8c0-22.4,18.2-40.6,40.6-40.6H3776
		c22.4,0,40.6,18.2,40.6,40.6V1973C3816.6,1995.4,3798.4,2013.5,3776,2013.5z"/>
	<path class="st2" d="M3776,2315.5h-472.4c-22.4,0-40.6-18.2-40.6-40.6v-166.8c0-22.4,18.2-40.6,40.6-40.6H3776
		c22.4,0,40.6,18.2,40.6,40.6v166.8C3816.6,2297.3,3798.4,2315.5,3776,2315.5z"/>
	<circle class="st0" cx="3541.4" cy="1887.4" r="32.5"/>
	<circle class="st0" cx="3541.4" cy="2190.3" r="32.5"/>
</g>
<g id="BACKET">
	<g>
		<polygon class="st3" points="3744.3,2601.9 3743.6,2606.2 3743.3,2608.7 3732.9,2675 3732.9,2675 3731.8,2682.1 3731.8,2682.1 
			3727.1,2712.3 3725.4,2722.9 3725.4,2722.9 3721,2750.9 3719.9,2758 3709.2,2826.6 3709.2,2826.9 3708.1,2834 3707.5,2837.2 
			3697.3,2902.8 3696.2,2909.9 3696.2,2909.9 3691.4,2940.8 3691.4,2940.9 3689.7,2951.5 3685.4,2978.7 3685.4,2978.7 
			3684.3,2985.8 3673.6,3054.7 3673.5,3055.1 3673.5,3055.1 3673,3058.3 3672.9,3059 3391.9,3059 3391.8,3058.2 3391.3,3055.4 
			3391.2,3054.5 3391.2,3054.5 3380.4,2985.7 3379.3,2978.5 3375.1,2951.8 3373.5,2941.1 3368.6,2909.7 3367.5,2902.6 
			3357.3,2837.5 3356.7,2833.8 3355.6,2826.8 3355.6,2826.7 3344.8,2757.8 3343.7,2750.7 3339.4,2723.2 3337.8,2712.6 3333,2681.9 
			3331.9,2674.8 3321.6,2609 3320.5,2601.9 		"/>
		<path class="st4" d="M3675.6,3062.1h-286.4l-1.2-7.4l-71.2-455.9h431.1L3675.6,3062.1z M3394.5,3055.9h275.7l70.4-450.8H3324
			L3394.5,3055.9z"/>
	</g>
	<path class="st4" d="M3748.2,2601.9c0,1.4-0.2,2.9-0.7,4.3c-3.4,10.5-19,20.2-43.5,28.2c-1.8,0.6-3.6,1.1-5.4,1.7
		c-15.8,4.7-34.7,8.8-56,11.9c-2,0.3-4,0.6-6.1,0.9c-18.8,2.6-39.3,4.5-61,5.6c-2.2,0.1-4.3,0.2-6.5,0.3
		c-11.9,0.5-24.2,0.8-36.7,0.8c-9.6,0-19.1-0.2-28.4-0.5c-2.3-0.1-4.6-0.2-6.9-0.3c-25-1-48.6-3.1-70-6.1c-2.6-0.4-5.1-0.7-7.6-1.1
		c-36.3-5.5-65.5-13.6-83.4-23.3c-10.4-5.6-16.9-11.7-19-18.1l-0.6-4.2c0-29.6,96.6-53.5,215.8-53.5c118.5,0,214.7,23.7,215.8,53.1
		C3748.2,2601.6,3748.2,2601.7,3748.2,2601.9z"/>
	<g>
		<g>
			<g>
				<path class="st4" d="M3673.7,3054.8v4l-0.7-0.5l-0.1,0.6h-2.6l-31.9-41.2l-3.3-4.3L3603,2972l-3.3-4.3l-32.1-41.4l-3.3-4.3
					l-32.1-41.4l-3.3-4.3l-32.1-41.4l-3.3-4.3l-32-41.4l-3.3-4.3l-32.1-41.4l-3.3-4.3l-32-41.4l-3.3-4.3l-32-41.4l-3.3-4.3
					l-30.7-39.6l-0.5-2.9c2,6.3,8.4,12.3,18.6,17.8l15.8,20.4l3.3,4.3l32.1,41.4l3.3,4.3l32.1,41.4l3.3,4.3l32.1,41.4l3.3,4.3
					l32.1,41.4l3.3,4.3l32.1,41.4l3.3,4.3l32.1,41.4l3.3,4.3l32.1,41.4l3.3,4.3l32.1,41.4l3.3,4.3l31.9,41.2L3673.7,3054.8z"/>
			</g>
		</g>
		<g>
			<g>
				<path class="st4" d="M3685.4,2978.7L3685.4,2978.7l-1.1,7.1l-10.6-13.7l-3.3-4.3l-32.1-41.4l-3.3-4.3l-32.1-41.4l-3.3-4.3
					l-32.1-41.4l-3.3-4.3l-32.1-41.4l-3.3-4.3l-31.8-41l-3.3-4.3l-32.1-41.4l-3.3-4.3l-32.1-41.4l-3.3-4.3l-1.4-1.8
					c2.4,0.4,4.9,0.7,7.4,1.1l0.5,0.7l32.1,41.4l3.3,4.3l32.1,41.4l3.3,4.3l32.1,41.4l3.3,4.3l32.1,41.4l3.3,4.3l32.1,41.4l3.3,4.3
					l32.1,41.4l3.3,4.3l32.1,41.4l3.3,4.3L3685.4,2978.7z"/>
			</g>
		</g>
		<g>
			<g>
				<path class="st4" d="M3697.3,2902.8l-1.1,7.1l-22.5-29l-3.3-4.3l-32.1-41.4l-3.3-4.3l-32.1-41.4l-3.3-4.3l-32.1-41.4l-3.3-4.3
					l-32.1-41.4l-3.3-4.3l-31.3-40.4c2.3,0.1,4.5,0.2,6.8,0.3l27.8,35.8l3.3,4.3l32.1,41.4l3.3,4.3l32.1,41.4l3.3,4.3l32.1,41.4
					l3.3,4.3l32.1,41.4l3.3,4.3L3697.3,2902.8z"/>
			</g>
		</g>
		<g>
			<g>
				<path class="st4" d="M3709.2,2826.9l-1.1,7.1l-2.3-3l-32.1-41.4l-3.3-4.3l-32.1-41.4l-3.3-4.3l-32.1-41.4l-3.3-4.3l-31.3-40.4
					c2.1-0.1,4.3-0.2,6.4-0.3l28.2,36.4l3.3,4.3l32.1,41.4l3.3,4.3l32.1,41.4l3.3,4.3l32.1,41.4L3709.2,2826.9z"/>
			</g>
		</g>
		<g>
			<g>
				<polygon class="st4" points="3463.6,3057.4 3461.6,3058.9 3461.5,3059 3458.2,3059 3426.2,3017.8 3422.9,3013.5 3390.9,2972.1 
					3387.6,2967.9 3375.1,2951.8 3373.5,2941.1 3390.9,2963.6 3394.2,2967.9 3426.2,3009.2 3429.5,3013.5 3461.6,3054.9 				"/>
			</g>
		</g>
		<g>
			<g>
				<polygon class="st4" points="3392.8,3057.4 3391.8,3058.2 3391.3,3055.4 				"/>
			</g>
		</g>
		<g>
			<g>
				<polygon class="st4" points="3534.3,3057.4 3532.3,3058.9 3532.2,3059 3528.9,3059 3497,3017.8 3493.7,3013.5 3461.6,2972.1 
					3458.3,2967.9 3426.2,2926.5 3422.9,2922.3 3422.9,2922.2 3390.9,2880.9 3387.6,2876.6 3357.3,2837.5 3356.7,2833.8 
					3355.6,2826.8 3358.8,2831 3390.9,2872.4 3394.2,2876.6 3426.2,2918 3429.5,2922.3 3461.6,2963.6 3464.9,2967.9 3497,3009.2 
					3500.3,3013.5 3532.3,3054.9 				"/>
			</g>
		</g>
		<g>
			<g>
				<polygon class="st4" points="3605,3057.4 3603,3058.9 3602.9,3059 3599.6,3059 3567.7,3017.8 3564.4,3013.5 3532.3,2972.1 
					3529,2967.9 3497,2926.5 3493.7,2922.3 3461.6,2880.9 3458.3,2876.6 3426.2,2835.3 3422.9,2831 3390.9,2789.6 3387.6,2785.4 
					3355.5,2744 3352.2,2739.8 3339.4,2723.2 3337.8,2712.6 3355.5,2735.5 3358.8,2739.8 3390.9,2781.1 3394.2,2785.4 
					3426.2,2826.7 3429.5,2831 3461.6,2872.4 3464.9,2876.6 3497,2918 3500.3,2922.3 3532.3,2963.6 3535.6,2967.9 3567.7,3009.2 
					3571,3013.5 3603,3054.9 				"/>
			</g>
		</g>
		<g>
			<g>
				<path class="st4" d="M3721,2750.9l-1.1,7.1l-10.8-14l-3.3-4.3l-32.1-41.4l-3.3-4.3l-32.1-41.4l-3.3-4.3l-0.4-0.5
					c2-0.3,4-0.6,5.9-0.9l1.1,1.4l32.1,41.4l3.3,4.3l32.1,41.4l3.3,4.3L3721,2750.9z"/>
			</g>
		</g>
		<g>
			<g>
				<path class="st4" d="M3732.9,2675L3732.9,2675l-1.1,7.1l-22.7-29.3l-3.3-4.3l-10.1-13.1c1.8-0.5,3.6-1.1,5.3-1.7l8.1,10.5
					l3.3,4.3L3732.9,2675z"/>
			</g>
		</g>
		<g>
			<g>
				<path class="st4" d="M3747.2,2603.5l-2.8,3.6l-0.8-1l0,0c0.5-1.4,0.7-2.8,0.7-4.2c0-0.2,0-0.3,0-0.5l0.1-0.1L3747.2,2603.5z"/>
			</g>
		</g>
	</g>
	<g>
		<g>
			<g>
				<polygon class="st4" points="3727.1,2712.3 3725.4,2722.9 3725.4,2722.9 3712.4,2739.8 3709.1,2744 3677,2785.4 3673.7,2789.6 
					3641.7,2831 3638.4,2835.3 3606.3,2876.6 3603,2880.9 3571,2922.3 3567.7,2926.5 3535.6,2967.9 3532.3,2972.1 3500.3,3013.5 
					3497,3017.8 3465,3059 3461.7,3059 3461.6,3058.9 3459.7,3057.4 3461.6,3054.9 3493.7,3013.5 3497,3009.2 3529,2967.9 
					3532.3,2963.6 3564.4,2922.3 3567.7,2918 3599.7,2876.6 3603,2872.4 3635.1,2831 3638.4,2826.7 3670.4,2785.4 3673.7,2781.1 
					3705.8,2739.8 3709.1,2735.5 				"/>
			</g>
		</g>
		<g>
			<g>
				<path class="st4" d="M3743.3,2608.7l-30.9,39.9l-3.3,4.3l-32.1,41.4l-3.3,4.3l-32.1,41.4l-3.3,4.3l-32.1,41.4l-3.3,4.3l-31.9,41
					l-3.3,4.3l-32.1,41.4l-3.3,4.3l-32.1,41.4l-3.3,4.3l-32.1,41.4l-3.3,4.3l-32.1,41.4l-3.3,4.3l-31.9,41.2h-2.4l-0.1-0.8l-0.4-2.8
					l-0.4-0.5l0.3-0.4l0,0l31.8-41l3.3-4.3l32.1-41.4l3.3-4.3l32.1-41.4l3.3-4.3l32.1-41.4l3.3-4.3l32.1-41.4l3.3-4.3l32.1-41.4
					l3.3-4.3l32.1-41.4l3.3-4.3l32.1-41.4l3.3-4.3l32-41.4l3.3-4.3l15.7-20.3c10.3-5.5,16.8-11.5,18.9-17.9L3743.3,2608.7z"/>
			</g>
		</g>
		<g>
			<g>
				<path class="st4" d="M3643,2646.8l-1.4,1.8l-3.3,4.3l-32.1,41.4l-3.3,4.3l-32.1,41.4l-3.3,4.3l-32.1,41.4l-3.3,4.3l-32.1,41.4
					l-3.3,4.3l-32.1,41.4l-3.3,4.3l-32.1,41.4l-3.3,4.3l-32.1,41.4l-3.3,4.3l-10.5,13.5l-1.1-7.1l8.3-10.7l3.3-4.3l32-41.4l0,0
					l3.3-4.3l32.1-41.4l3.3-4.3l32-41.4l3.3-4.3l32.1-41.4l3.3-4.3l32.1-41.4l3.3-4.3l32.1-41.4l3.3-4.3l32.1-41.4l0.5-0.7
					c1.7-0.2,3.4-0.5,5-0.7C3641.4,2647,3642.2,2646.9,3643,2646.8z"/>
			</g>
		</g>
		<g>
			<g>
				<path class="st4" d="M3566.9,2653.8l-31.3,40.3l-3.3,4.3l-32.1,41.4l-3.3,4.3l-32.1,41.4l-3.3,4.3l-32.1,41.4l-3.3,4.3
					l-32.1,41.4l-3.3,4.3l-22.3,28.8l-1.1-7.1l20.1-26l3.3-4.3l32.1-41.4l3.3-4.3l32.1-41.4l3.3-4.3l32.1-41.4l3.3-4.3l32.1-41.4
					l3.3-4.3l27.8-35.8C3562.3,2654,3564.6,2653.9,3566.9,2653.8z"/>
			</g>
		</g>
		<g>
			<g>
				<polygon class="st4" points="3691.4,2940.9 3689.7,2951.5 3677,2967.9 3673.7,2972.1 3641.7,3013.5 3638.4,3017.8 3606.4,3059 
					3603.1,3059 3603,3058.9 3601.1,3057.4 3603,3054.9 3635.1,3013.5 3638.4,3009.2 3670.4,2967.9 3673.7,2963.6 				"/>
			</g>
		</g>
		<g>
			<g>
				<polygon class="st4" points="3707.5,2837.2 3677,2876.6 3673.7,2880.9 3641.7,2922.3 3638.4,2926.5 3606.3,2967.9 3603,2972.1 
					3571,3013.5 3567.7,3017.8 3535.7,3059 3532.4,3059 3532.3,3058.9 3530.4,3057.4 3532.3,3054.9 3564.4,3013.5 3567.7,3009.2 
					3599.7,2967.9 3603,2963.6 3635.1,2922.3 3638.4,2918 3670.4,2876.6 3673.7,2872.4 3705.8,2831 3709.1,2826.7 3709.2,2826.6 
					3709.2,2826.9 3708.1,2834 				"/>
			</g>
		</g>
		<g>
			<g>
				<path class="st4" d="M3496.2,2653.7l-31.3,40.4l-3.3,4.3l-32.1,41.4l-3.3,4.3l-32.1,41.4l-3.3,4.3l-32.1,41.4l-2.1,2.8l-1.1-6.9
					l-0.1-0.1l0.1-0.1l32-41.3l3.3-4.3l32-41.4l3.3-4.3l32.1-41.4l3.3-4.3l28.2-36.4C3492,2653.5,3494.1,2653.6,3496.2,2653.7z"/>
			</g>
		</g>
		<g>
			<g>
				<path class="st4" d="M3430,2648l-0.4,0.6l-3.3,4.3l-32.1,41.4l-3.3,4.3l-32.1,41.4l-3.3,4.3l-10.7,13.8l-1.1-7.1l8.5-11l3.3-4.3
					l32-41.4l3.3-4.3l32.1-41.4l1.1-1.4c1.6,0.2,3.3,0.5,5,0.7L3430,2648z"/>
			</g>
		</g>
		<g>
			<g>
				<path class="st4" d="M3369,2635.4l-10.2,13.1l-3.3,4.3l-22.6,29.1l-1.1-7.1l20.4-26.3l3.3-4.3l8.2-10.5
					C3365.4,2634.3,3367.2,2634.9,3369,2635.4z"/>
			</g>
		</g>
	</g>
	<g>
		<path class="st5" d="M3764.9,2543.2h-92.3v-28.1h56C3746.1,2515.1,3760.7,2527.1,3764.9,2543.2z"/>
		<path class="st5" d="M3729.2,2515.1c-26.2,0.3-49.1,17.8-56.1,43.1l-21.3,77.3c-3,0.5-6.1,1-9.2,1.4c-2,0.3-4,0.6-6.1,0.9
			c-18.8,2.6-39.3,4.5-61,5.6c-2.2,0.1-4.3,0.2-6.5,0.3c-11.9,0.5-24.2,0.8-36.7,0.8c-9.6,0-19.1-0.2-28.4-0.5
			c-2.3-0.1-4.6-0.2-6.9-0.3c-0.9,0-1.8-0.1-2.7-0.1l23.6-85.4c7-25.5,30.2-43.1,56.7-43.1H3729.2z"/>
	</g>
</g>
<g id="LAMP">
	<polygon class="st6" points="3666,848.8 3902.1,1521.2 3037.5,1521.2 3267.3,848.8 	"/>
	<g>
		<path class="st0" d="M3468.5,768.7c0-28,22.7-50.7,50.7-50.7h29.3c28,0,50.7,22.7,50.7,50.7v656.1"/>
		<path class="st7" d="M3667.3,1499.8v20.3h-213.8v-20.3c0-17.3,5.9-33.3,15.8-46c13.7-17.6,35.2-29,59.2-29h63.7c1,0,2.1,0,3.1,0.1
			C3635.4,1426.5,3667.3,1459.4,3667.3,1499.8z"/>
		<path class="st8" d="M3714.8,851.6h-494.7v-15.5c0-37.1,30.1-67.1,67.1-67.1h360.5c37.1,0,67.1,30.1,67.1,67.1L3714.8,851.6
			L3714.8,851.6z"/>
		<line class="st9" x1="3714.8" y1="839.2" x2="3220.1" y2="839.2"/>
		<path class="st3" d="M3663.1,851.6c0,17.7-11,32.1-24.7,32.1h-346.2c-13.6,0-24.7-14.4-24.7-32.1H3663.1z"/>
		<path class="st7" d="M3599.2,1444.4c0,32.1-29.3,58.2-65.4,58.2c-32.5,0-59.5-21.1-64.5-48.8c13.7-17.6,35.2-29,59.2-29h63.7
			c1,0,2.1,0,3.1,0.1C3597.9,1431,3599.2,1437.6,3599.2,1444.4z"/>
		<path class="st8" d="M3535.6,1411.1v31.4c0,6.4-5.9,11.6-13.1,11.6c-7.2,0-13.1-5.2-13.1-11.6v-31.4h0.2c1.2,5.5,6.5,9.7,12.8,9.7
			s11.6-4.2,12.8-9.7H3535.6z"/>
		<path class="st7" d="M3532.8,1410c0,0.7-0.1,1.4-0.2,2.1c-0.9,5-5.1,8.7-10.2,8.7c-5,0-9.2-3.7-10.2-8.7c-0.1-0.7-0.2-1.4-0.2-2.1
			c0-6,4.6-10.8,10.4-10.8C3528.1,1399.2,3532.8,1404.1,3532.8,1410z"/>
	</g>
</g>
<g id="BOOKS">
	<rect x="3158" y="1065.4" class="st10" width="34.2" height="455.8"/>
	<path class="st5" d="M3143.7,1521.2h-58.6c-6.2,0-11.2-5-11.2-11.2v-338.8c0-6.2,5-11.2,11.2-11.2h58.6c6.2,0,11.2,5,11.2,11.2
		V1510C3154.9,1516.2,3149.9,1521.2,3143.7,1521.2z"/>
	<path class="st0" d="M3332.2,1513.9h-67.3c-4.9,0-9.1-3.5-10-8.3l-60.4-313.8c-1.2-6.3,3.6-12.1,10-12.1h67.3c4.9,0,9.1,3.5,10,8.3
		l60.4,313.8C3343.4,1508.1,3338.6,1513.9,3332.2,1513.9z"/>
	<path class="st8" d="M3060.5,1521.2h-317c-7.4,0-13.4-6-13.4-13.4v-64.9c0-7.4,6-13.4,13.4-13.4h317c7.4,0,13.4,6,13.4,13.4v64.9
		C3073.9,1515.2,3067.9,1521.2,3060.5,1521.2z"/>
</g>
<g id="NOTES">
	<g>
		<path class="st5" d="M1873.4,408.8v206.8c0,40.5-32.9,73.4-73.4,73.4h-229.3c40.5,0,73.4-32.8,73.4-73.4V408.8H1873.4z"/>
		<rect x="1749" y="388.8" class="st8" width="18.5" height="44.1"/>
		<g>
			<g>
				<path class="st6" d="M1806.7,487.4c-2.6,0-5.2-1-7.3-2.9l-7.7-6.8c-2.4-2.1-5.6-2.1-8,0l-7.3,6.5c-4.3,3.8-10.3,3.8-14.7,0
					l-6.7-5.9c-2.4-2.1-5.6-2.1-8,0l-6.2,5.5c-4.3,3.8-10.3,3.8-14.7,0l-5.1-4.5c-2.4-2.1-5.6-2.1-8,0l-5.5,4.9
					c-4.3,3.8-10.3,3.8-14.7,0l-5.1-4.5c-2.4-2.1-5.6-2.1-8,0c-1,0.9-2.6,0.8-3.5-0.2s-0.8-2.6,0.2-3.5c4.3-3.8,10.3-3.8,14.7,0
					l5.1,4.5c2.4,2.1,5.6,2.1,8,0l5.5-4.9c4.3-3.8,10.3-3.8,14.7,0l5.1,4.5c2.4,2.1,5.6,2.1,8,0l6.2-5.5c4.3-3.8,10.3-3.8,14.7,0
					l6.7,5.9c2.4,2.1,5.6,2.1,8,0l7.3-6.5c4.3-3.8,10.3-3.8,14.7,0l7.7,6.8c2.4,2.1,5.6,2.1,8,0l8-7.1c4.3-3.8,10.3-3.8,14.7,0
					c1,0.9,1.1,2.5,0.2,3.5s-2.5,1.1-3.5,0.2c-2.4-2.1-5.6-2.1-8,0l-8,7.1C1811.8,486.4,1809.3,487.4,1806.7,487.4z"/>
			</g>
			<g>
				<path class="st6" d="M1806.7,528.5c-2.6,0-5.2-1-7.3-2.9l-7.7-6.8c-2.4-2.1-5.6-2.1-8,0l-7.3,6.5c-4.3,3.8-10.3,3.8-14.7,0
					l-6.7-5.9c-2.4-2.1-5.6-2.1-8,0l-6.2,5.5c-4.3,3.8-10.3,3.8-14.7,0l-5.1-4.5c-2.4-2.1-5.6-2.1-8,0l-5.5,4.9
					c-4.3,3.8-10.3,3.8-14.7,0l-5.1-4.5c-2.4-2.1-5.6-2.1-8,0c-1,0.9-2.6,0.8-3.5-0.2s-0.8-2.6,0.2-3.5c4.3-3.8,10.3-3.8,14.7,0
					l5.1,4.5c2.4,2.1,5.6,2.1,8,0l5.5-4.9c4.3-3.8,10.3-3.8,14.7,0l5.1,4.5c2.4,2.1,5.6,2.1,8,0l6.2-5.5c4.3-3.8,10.3-3.8,14.7,0
					l6.7,5.9c2.4,2.1,5.6,2.1,8,0l7.3-6.5c4.3-3.8,10.3-3.8,14.7,0l7.7,6.8c2.4,2.1,5.6,2.1,8,0l8-7.1c4.3-3.8,10.3-3.8,14.7,0
					c1,0.9,1.1,2.5,0.2,3.5s-2.5,1.1-3.5,0.2c-2.4-2.1-5.6-2.1-8,0l-8,7.1C1811.8,527.6,1809.3,528.5,1806.7,528.5z"/>
			</g>
			<g>
				<path class="st6" d="M1806.7,569.6c-2.6,0-5.2-1-7.3-2.9l-7.7-6.8c-2.4-2.1-5.6-2.1-8,0l-7.3,6.5c-4.3,3.8-10.3,3.8-14.7,0
					l-6.7-5.9c-2.4-2.1-5.6-2.1-8,0l-6.2,5.5c-4.3,3.8-10.3,3.8-14.7,0l-5.1-4.5c-2.4-2.1-5.6-2.1-8,0l-5.5,4.9
					c-4.3,3.8-10.3,3.8-14.7,0l-5.1-4.5c-2.4-2.1-5.6-2.1-8,0c-1,0.9-2.6,0.8-3.5-0.2s-0.8-2.6,0.2-3.5c4.3-3.8,10.3-3.8,14.7,0
					l5.1,4.5c2.4,2.1,5.6,2.1,8,0l5.5-4.9c4.3-3.8,10.3-3.8,14.7,0l5.1,4.5c2.4,2.1,5.6,2.1,8,0l6.2-5.5c4.3-3.8,10.3-3.8,14.7,0
					l6.7,5.9c2.4,2.1,5.6,2.1,8,0l7.3-6.5c4.3-3.8,10.3-3.8,14.7,0l7.7,6.8c2.4,2.1,5.6,2.1,8,0l8-7.1c4.3-3.8,10.3-3.8,14.7,0
					c1,0.9,1.1,2.5,0.2,3.5s-2.5,1.1-3.5,0.2c-2.4-2.1-5.6-2.1-8,0l-8,7.1C1811.8,568.7,1809.3,569.6,1806.7,569.6z"/>
			</g>
			<g>
				<path class="st6" d="M1806.7,610.8c-2.6,0-5.2-1-7.3-2.9l-7.7-6.8c-2.4-2.1-5.6-2.1-8,0l-7.3,6.5c-4.3,3.8-10.3,3.8-14.7,0
					l-6.7-5.9c-2.4-2.1-5.6-2.1-8,0l-6.2,5.5c-4.3,3.8-10.3,3.8-14.7,0l-5.1-4.5c-2.4-2.1-5.6-2.1-8,0l-5.5,4.9
					c-4.3,3.8-10.3,3.8-14.7,0l-5.1-4.5c-2.4-2.1-5.6-2.1-8,0c-1,0.9-2.6,0.8-3.5-0.2s-0.8-2.6,0.2-3.5c4.3-3.8,10.3-3.8,14.7,0
					l5.1,4.5c2.4,2.1,5.6,2.1,8,0l5.5-4.9c4.3-3.8,10.3-3.8,14.7,0l5.1,4.5c2.4,2.1,5.6,2.1,8,0l6.2-5.5c4.3-3.8,10.3-3.8,14.7,0
					l6.7,5.9c2.4,2.1,5.6,2.1,8,0l7.3-6.5c4.3-3.8,10.3-3.8,14.7,0l7.7,6.8c2.4,2.1,5.6,2.1,8,0l8-7.1c4.3-3.8,10.3-3.8,14.7,0
					c1,0.9,1.1,2.5,0.2,3.5s-2.5,1.1-3.5,0.2c-2.4-2.1-5.6-2.1-8,0l-8,7.1C1811.8,609.8,1809.3,610.8,1806.7,610.8z"/>
			</g>
		</g>
	</g>
	<g>
		<rect x="1949.1" y="408.8" class="st4" width="160.4" height="160.4"/>
		
			<rect x="1930.1" y="402.6" transform="matrix(0.7778 -0.6286 0.6286 0.7778 176.1171 1321.8574)" class="st6" width="54.5" height="18.5"/>
		
			<rect x="2093.2" y="384.6" transform="matrix(0.6286 -0.7778 0.7778 0.6286 460.5962 1788.1655)" class="st6" width="18.5" height="54.5"/>
		<g>
			<rect x="1978.3" y="446.8" class="st3" width="97.3" height="6"/>
		</g>
		<g>
			<rect x="1978.3" y="472.7" class="st3" width="97.3" height="6"/>
		</g>
		<g>
			<rect x="1978.3" y="498.7" class="st3" width="97.3" height="6"/>
		</g>
		<g>
			<rect x="1978.3" y="524.6" class="st3" width="97.3" height="6"/>
		</g>
	</g>
</g>
<g id="COMPUTER">
	<g>
		<polygon class="st11" points="2722.6,1521.2 2348.7,1521.2 2421.1,1361.2 2431.7,1337.7 2639.6,1337.7 2668.8,1402.2 		"/>
		<polygon class="st4" points="2668.8,1402.2 2421.1,1361.2 2431.7,1337.7 2639.6,1337.7 		"/>
	</g>
	<path class="st11" d="M2976.3,1337.7h-880.1c-32.3,0-58.4-26.2-58.4-58.4V704.8c0-32.3,26.2-58.4,58.4-58.4h880.1
		c32.3,0,58.4,26.2,58.4,58.4v574.4C3034.7,1311.5,3008.5,1337.7,2976.3,1337.7z"/>
	<g>
		<path class="st4" d="M2712.6,1297.1h-352.8c-17.2,0-31.1-13.9-31.1-31.1v-42.7c0-17.2,13.9-31.1,31.1-31.1h352.8
			c17.2,0,31.1,13.9,31.1,31.1v42.7C2743.7,1283.2,2729.7,1297.1,2712.6,1297.1z"/>
		<g>
			<g>
				<path class="st3" d="M2620,1268.6h-23.8c-5.9,0-10.7-4.8-10.7-10.7v-18.6c0-5.9,4.8-10.7,10.7-10.7h23.8
					c5.9,0,10.7,4.8,10.7,10.7v18.6C2630.7,1263.8,2625.9,1268.6,2620,1268.6z"/>
			</g>
			<g>
				<path class="st3" d="M2650.3,1265.5l-8.8-5.6c-2.4-1.5-3.9-4.2-3.9-7.1v-8.4c0-2.9,1.5-5.6,3.9-7.1l8.8-5.6
					c2.1-1.3,4.8,0.2,4.8,2.6v28.5C2655.2,1265.3,2652.4,1266.8,2650.3,1265.5z"/>
			</g>
		</g>
		<g>
			<g>
				<path class="st3" d="M2529.8,1259.2h-2.2c-8.7,0-15.8-7.1-15.8-15.8v-9.3c0-0.8,0.7-1.5,1.5-1.5h30.7c0.8,0,1.5,0.7,1.5,1.5v9.3
					C2545.6,1252.1,2538.5,1259.2,2529.8,1259.2z M2514.8,1235.6v7.8c0,7,5.7,12.8,12.8,12.8h2.2c7,0,12.8-5.7,12.8-12.8v-7.8
					H2514.8z"/>
			</g>
			<g>
				<path class="st3" d="M2528.7,1276.5c-0.8,0-1.5-0.7-1.5-1.5v-11.3c0-0.8,0.7-1.5,1.5-1.5s1.5,0.7,1.5,1.5v11.3
					C2530.2,1275.8,2529.5,1276.5,2528.7,1276.5z"/>
			</g>
			<g>
				<path class="st3" d="M2536.6,1276.5h-15.7c-0.8,0-1.5-0.7-1.5-1.5s0.7-1.5,1.5-1.5h15.7c0.8,0,1.5,0.7,1.5,1.5
					S2537.4,1276.5,2536.6,1276.5z"/>
			</g>
			<g>
				<path class="st3" d="M2529.4,1252.2h-1.4c-5,0-9-4-9-9V1225c0-5,4-9,9-9h1.4c5,0,9,4,9,9v18.2
					C2538.4,1248.2,2534.4,1252.2,2529.4,1252.2z"/>
			</g>
		</g>
		<g>
			<g>
				<path class="st3" d="M2437.4,1240.9l-0.1,0.1c-1.9,2.3-1.3,5.8,1.2,7.9l9.2,7.4c2.5,2,6.1,1.8,8-0.5l0.1-0.1
					c1.9-2.3,5.5-2.4,7.9-0.3l8.3,7.5c2.6,2.4,2.6,6.4,0,8.2c-8.7,6.1-20,3.9-29.3-3.6l-14-11.3c-9.3-7.6-13.8-18.2-9.7-28
					c1.3-3,5.2-3.8,8-1.7l9.1,6.6C2438.6,1235.1,2439.2,1238.6,2437.4,1240.9z"/>
			</g>
			<g>
				<path class="st3" d="M2461.8,1246.7c-0.8,0-1.4-0.6-1.5-1.4c-0.5-7.2-6.7-12.7-13.9-12.2c-0.8,0-1.5-0.6-1.6-1.4
					s0.6-1.5,1.4-1.6c8.9-0.6,16.5,6.2,17.1,15C2463.4,1245.9,2462.8,1246.6,2461.8,1246.7
					C2461.9,1246.7,2461.9,1246.7,2461.8,1246.7z"/>
			</g>
			<g>
				<path class="st3" d="M2471.2,1245.2c-0.8,0-1.4-0.6-1.5-1.4c-0.4-6-3.1-11.6-7.7-15.6s-10.4-6-16.4-5.6c-0.8,0-1.5-0.6-1.6-1.4
					s0.6-1.5,1.4-1.6c6.8-0.4,13.4,1.8,18.6,6.3s8.2,10.8,8.7,17.6C2472.8,1244.5,2472.1,1245.2,2471.2,1245.2
					C2471.3,1245.2,2471.3,1245.2,2471.2,1245.2z"/>
			</g>
		</g>
	</g>
	<g>
		<circle class="st12" cx="2809.4" cy="690.1" r="10.4"/>
		<circle class="st12" cx="2851.9" cy="690.1" r="10.4"/>
		<circle class="st12" cx="2894.5" cy="690.1" r="10.4"/>
	</g>
	<path class="st4" d="M2499.2,1166.6h-313.4c-9.6,0-17.3-7.8-17.3-17.3V981.5c0-9.6,7.8-17.3,17.3-17.3h313.4
		c9.6,0,17.3,7.8,17.3,17.3v167.8C2516.5,1158.8,2508.8,1166.6,2499.2,1166.6z"/>
	<g>
		<path class="st10" d="M2894.5,1166.6h-313.4c-9.6,0-17.3-7.8-17.3-17.3V981.5c0-9.6,7.8-17.3,17.3-17.3h313.4
			c9.6,0,17.3,7.8,17.3,17.3v167.8C2911.8,1158.8,2904.1,1166.6,2894.5,1166.6z"/>
		<g class="st13">
			<path class="st14" d="M2835.3,1166.1h-204.8c20.7-25.5,52.3-41.9,87.7-41.9h29.4C2783,1124.3,2814.6,1140.6,2835.3,1166.1z"/>
			<path class="st15" d="M2726.5,1124.3c-2,15.1-14.9,26.7-30.5,26.7c-11.5,0-21.5-6.3-26.8-15.6c14.8-7.1,31.4-11.1,48.9-11.1
				H2726.5z"/>
			<path class="st15" d="M2787,1131.3c-4.5,11.5-15.6,19.6-28.7,19.6c-15.6,0-28.5-11.6-30.5-26.7h19.9
				C2761.5,1124.3,2774.7,1126.7,2787,1131.3z"/>
			<path class="st16" d="M2764.5,1079.7v45.4c0,7.1-14.2,12.8-31.6,12.8c-3.2,0-6.3-0.2-9.2-0.5c-13-1.6-22.4-6.5-22.4-12.3v-45.4
				H2764.5z"/>
			<path class="st17" d="M2760.3,1089c0,19.7-17.2,43.6-36.6,48.3c-13-1.6-22.4-6.5-22.4-12.3v-45.4h58L2760.3,1089z"/>
			<path class="st16" d="M2780.7,1073.9v1.1c0,7.7-6.3,14-14,14h-13.4c-6.1,13.1-19.4,22.1-34.8,22.1h-2.6
				c-17.2,0-31.1-13.9-31.1-31.1v-32.1c19.9,1.3,45.2-16.1,45.2-16.1c8.3,32.1,32,31.7,43,29.6
				C2777.5,1063.7,2780.7,1068.5,2780.7,1073.9z"/>
			<g class="st18">
				<path class="st19" d="M2761,1078.8c-0.8,0-1.5-0.7-1.5-1.5c0-6.4,5.2-11.6,11.6-11.6c0.8,0,1.5,0.7,1.5,1.5s-0.7,1.5-1.5,1.5
					c-4.7,0-8.6,3.8-8.6,8.6C2762.5,1078.1,2761.8,1078.8,2761,1078.8z"/>
			</g>
			<path class="st20" d="M2764.5,1089h2.2c7.7,0,14-6.3,14-14v-1.1c0-5.5-3.1-10.2-7.7-12.5c-3,0.6-7.1,1-11.5,0.7
				c-11.4-0.9-25.5-7.1-31.5-30.3c0,0-25.3,17.4-45.2,16.1c-3.7-0.2-7.2-1.1-10.3-2.9c-16.5-9.4,23.4-53.4,69.2-46.8
				c36.6,5.3,35.8,49.1,35.1,59.5c1.8-0.2,3.6-0.3,5.4-0.3c26.8,0,48.5,20.6,48.5,46.1c0,16.6-9.2,31.2-23.1,39.3
				c-13.3-8.8-28.6-14.8-45.1-17.3L2764.5,1089z"/>
			<g class="st18">
				<path class="st19" d="M2705,1079.9c-0.2,0-0.4,0-0.5-0.1c-0.8-0.3-1.2-1.2-0.9-1.9c0-0.1,3-8.2-2-16.9
					c-4.3-7.5-13.8-6.2-14.2-6.1c-0.8,0.1-1.6-0.4-1.7-1.3c-0.1-0.8,0.4-1.6,1.3-1.7c0.5-0.1,11.9-1.7,17.3,7.6
					c5.7,9.9,2.3,19.1,2.2,19.4C2706.1,1079.5,2705.6,1079.9,2705,1079.9z"/>
			</g>
			<g class="st18">
				<path class="st19" d="M2739.1,1060.9c-0.3,0-0.6-0.1-0.9-0.3c-8.7-6.7-20.3-5.9-20.4-5.9c-0.8,0.1-1.5-0.6-1.6-1.4
					s0.6-1.5,1.4-1.6c0.5,0,12.8-0.9,22.4,6.5c0.7,0.5,0.8,1.4,0.3,2.1C2739.9,1060.7,2739.5,1060.9,2739.1,1060.9z"/>
			</g>
			<path class="st15" d="M2699.8,1083.3c0,0,2.4,15.8,18.7,0.4C2718.5,1083.7,2707.1,1085.2,2699.8,1083.3z"/>
			<ellipse class="st17" cx="2724.9" cy="1065.3" rx="2.1" ry="4.7"/>
			<ellipse class="st17" cx="2693.7" cy="1065.3" rx="1.8" ry="3.9"/>
		</g>
	</g>
	<g>
		<path class="st21" d="M2890.6,937.3h-313.4c-9.6,0-17.3-7.8-17.3-17.3V752.2c0-9.6,7.8-17.3,17.3-17.3h313.4
			c9.6,0,17.3,7.8,17.3,17.3V920C2907.9,929.5,2900.1,937.3,2890.6,937.3z"/>
		<g class="st13">
			<path class="st20" d="M2826.8,937.3h-191.3c19.3-25.7,48.8-42.1,81.9-42.1h27.5C2778,895.2,2807.5,911.6,2826.8,937.3z"/>
			<path class="st15" d="M2721,928.7h4.3c18.7,0,33.9-15.2,33.9-33.9v-24.1c0-0.1-0.1-0.2-0.2-0.2h-62.9c-0.1,0-0.2,0.1-0.2,0.2
				v33.1C2696,917.6,2707.2,928.7,2721,928.7z"/>
			<path class="st20" d="M2696,870.5V903c0,0.4,0,0.9,0,1.3c0.9,18.6,47.2,11.3,61.1-33.8H2696z"/>
			<path class="st15" d="M2777.5,856c0,4-1.6,7.6-4.3,10.3c-2.6,2.6-6.2,4.2-10.3,4.2h-13.7c-4.9,13-17.5,22.2-32.2,22.2h-10.7
				c-14.9,0-26.9-12.1-26.9-26.9v-42c15.4,1.3,28.4-11.1,28.9-11.6c-0.2,0.7-8,22.7,9.7,23.9c17.6,1.2,23.4-11.5,23.6-12
				c0,0.5,0.1,17.5,14,18.4l0,0h7.3C2771,842.5,2777.5,848,2777.5,856z"/>
			<path class="st14" d="M2756.9,842.5h-0.3c-0.3,0-0.6,0-0.9,0c-13.9-0.9-14-17.8-14-18.4c-0.2,0.5-6.1,13.2-23.6,12
				c-17.6-1.2-9.9-23.2-9.7-23.9c-0.5,0.4-13.5,12.9-28.9,11.6c-3.4-0.3-6.8-1.2-10.3-3.1c-22.5-12.2-8-37.3,14.1-37.6
				c17.6-0.2,25.1,9.4,25.1,9.4s3.8-19.7,25.4-16.3c21.6,3.4,17.7,22.5,17.7,22.5s18.1-8.4,28.1,7.1
				C2791.4,824,2773.7,842.5,2756.9,842.5z"/>
			<g class="st18">
				<path class="st6" d="M2697.8,860.8c-0.1,0-0.2,0-0.4,0c-0.8-0.2-1.3-1-1.1-1.8c0-0.1,2.4-10-1.9-18.1
					c-4.7-8.6-12.8-7.2-13.1-7.2c-0.8,0.1-1.6-0.4-1.7-1.2c-0.2-0.8,0.4-1.6,1.2-1.7c0.1,0,10.6-1.9,16.3,8.7
					c4.9,9.1,2.3,19.8,2.2,20.2C2699,860.3,2698.4,860.8,2697.8,860.8z"/>
			</g>
			<g class="st18">
				<path class="st6" d="M2703.1,872.4c-2.1,0-4-0.3-5.4-0.7c-0.8-0.2-1.3-1-1.1-1.8s1-1.3,1.8-1.1l0,0c0.5,0.1,11.9,3.1,16.1-5.7
					c0.4-0.7,1.2-1.1,2-0.7s1.1,1.2,0.7,2C2714.3,870.7,2708.2,872.4,2703.1,872.4z"/>
			</g>
			<ellipse class="st20" cx="2717.6" cy="844.1" rx="2.1" ry="4.7"/>
			<ellipse class="st20" cx="2686.5" cy="844.1" rx="1.8" ry="3.9"/>
			<g class="st18">
				<path class="st6" d="M2755.4,861.5c-0.8,0-1.5-0.7-1.5-1.5c0-6.4,5.2-11.6,11.6-11.6c0.8,0,1.5,0.7,1.5,1.5s-0.7,1.5-1.5,1.5
					c-4.7,0-8.6,3.8-8.6,8.6C2756.9,860.8,2756.2,861.5,2755.4,861.5z"/>
			</g>
		</g>
	</g>
	<g>
		<path class="st6" d="M2495.2,937.3h-313.4c-9.6,0-17.3-7.8-17.3-17.3V752.2c0-9.6,7.8-17.3,17.3-17.3h313.4
			c9.6,0,17.3,7.8,17.3,17.3V920C2512.6,929.5,2504.8,937.3,2495.2,937.3z"/>
		<g class="st13">
			<g class="st18">
				<path class="st3" d="M2419.5,937.3h-194.4c19.6-29.3,49.6-48,83.2-48h28C2369.9,889.3,2399.8,908,2419.5,937.3z"/>
				<g>
					<g>
						<path class="st22" d="M2419.5,937.3h-194.4c0.6-0.9,1.2-1.7,1.8-2.6c0.1-0.2,0.2-0.4,0.4-0.5h190.1c0.1,0.2,0.2,0.3,0.4,0.5
							C2418.3,935.5,2418.9,936.4,2419.5,937.3z"/>
					</g>
					<g>
						<path class="st22" d="M2411.3,926.4h-178c0.9-1.1,1.8-2.1,2.7-3.1h172.6C2409.5,924.3,2410.4,925.3,2411.3,926.4z"/>
					</g>
					<g>
						<path class="st22" d="M2400.3,915h-156c1.2-1.1,2.4-2.1,3.6-3.1h148.8C2397.9,912.9,2399.1,913.9,2400.3,915z"/>
					</g>
					<g>
						<path class="st22" d="M2383.5,902.5H2261c1.8-1.1,3.7-2.1,5.6-3.1h111.2C2379.8,900.4,2381.6,901.4,2383.5,902.5z"/>
					</g>
				</g>
			</g>
			<g class="st18">
				<path class="st23" d="M2353.3,851.9v44.7c0,4.6-14.2,8.3-31.6,8.3c-17,0-30.9-3.5-31.6-8c0-0.1,0-0.2,0-0.3v-44.7H2353.3z"/>
				<path class="st24" d="M2352.9,851.9v1c0,22-27.3,47.2-47,50.1c-3.1,0.5-12.7-1.4-15.7-6.2c0-0.1,0-0.2,0-0.3v-44.7h62.7V851.9z"
					/>
			</g>
			<path class="st25" d="M2370.5,837.8v1c0,7.7-6.3,14-14,14h-12.1c-3.9,14-16.7,24.2-31.9,24.2h-12.9c-14.3,0-26-11.6-26-26v-56.9
				c24,6.7,66.9,0.4,66.9,0.4s-3.9,14,3.5,29.2h12.6C2364.2,823.8,2370.5,830.1,2370.5,837.8z"/>
			<path class="st26" d="M2356,822h-11.4c-9.7-16.4-4.2-27.3-4.2-27.3s-42.9,6.2-66.9-0.4c-10.9-3-17.9-8.7-15.3-18.8
				c8.3-32.4,97.7,2.1,103.9,13.8C2368.4,801,2356,822,2356,822z"/>
			<g class="st18">
				<path class="st24" d="M2311.6,852.7c-0.3,0.3-0.6,0.4-1,0.4s-0.8-0.2-1.1-0.5l-1.4-1.5c-4.3,3.8-8.4,5.7-12.2,5.7
					c-0.4,0-0.8,0-1.1-0.1c-4.2-0.4-6.3-3.2-6.4-3.3c-0.5-0.7-0.4-1.6,0.3-2.1s1.6-0.4,2.1,0.3c0.1,0.1,1.5,1.9,4.4,2.2
					c3.2,0.3,6.9-1.4,10.9-4.9l-0.8-0.9c-0.6-0.6-0.5-1.6,0.1-2.1c0.6-0.6,1.6-0.5,2.1,0.1l4.2,4.6
					C2312.3,851.2,2312.2,852.1,2311.6,852.7z"/>
				<path class="st24" d="M2326.8,822.9c-0.4,0-0.8-0.1-1.1-0.4c-8.8-8.6-20-6.9-20.1-6.9c-0.8,0.1-1.6-0.4-1.7-1.2
					c-0.1-0.8,0.4-1.6,1.2-1.7c0.5-0.1,12.8-2.1,22.7,7.7c0.6,0.6,0.6,1.5,0,2.1C2327.6,822.8,2327.2,822.9,2326.8,822.9z"/>
				<path class="st24" d="M2292.7,843.9c-0.1,0-0.3,0-0.4-0.1c-0.8-0.2-1.2-1.1-1-1.9c0-0.1,3.1-10.3-1.9-19
					c-4.3-7.5-14-5.2-14.1-5.1c-0.8,0.2-1.6-0.3-1.8-1.1s0.3-1.6,1.1-1.8c4.1-1,13.1-1,17.4,6.6c5.7,9.9,2.4,20.9,2.2,21.4
					C2293.9,843.5,2293.4,843.9,2292.7,843.9z"/>
				<ellipse class="st24" cx="2281.5" cy="828.3" rx="1.8" ry="3.9"/>
				<ellipse class="st24" cx="2312.6" cy="828.3" rx="2.1" ry="4.7"/>
				<path class="st24" d="M2348.7,842.9c-0.8,0-1.5-0.7-1.5-1.5c0-6.5,5.3-11.8,11.8-11.8c0.8,0,1.5,0.7,1.5,1.5s-0.7,1.5-1.5,1.5
					c-4.9,0-8.8,3.9-8.8,8.8C2350.2,842.2,2349.6,842.9,2348.7,842.9z"/>
			</g>
		</g>
	</g>
	<g class="st13">
		<path class="st20" d="M2292,1121.2h29.7c35.7,0,67.6,17.7,88.4,45.4h-206.4C2224.4,1138.9,2256.3,1121.2,2292,1121.2z"/>
		<path class="st15" d="M2344.9,1130.4v-35.7c0-0.1-0.1-0.2-0.2-0.2h-67.9c-0.1,0-0.2,0.1-0.2,0.2v26c0,20.2,16.4,36.6,36.6,36.6
			h4.6C2332.7,1157.3,2344.8,1145.3,2344.9,1130.4z"/>
		<path class="st20" d="M2278.8,1094.5c15,48.7,65,56.5,65.9,36.5c0-0.4,0-1,0-1.4v-35.1H2278.8z"/>
		<path class="st15" d="M2272.6,1064.3h7.9l0,0c15-1,15.1-19.3,15.1-19.9c0.2,0.5,6.5,14.2,25.5,13c19.1-1.3,10.7-25,10.5-25.8
			c0.5,0.5,14.6,13.9,31.2,12.5v45.3c0,16-13,29-29,29h-11.5c-15.9,0-29.5-9.9-34.8-24h-14.8c-4.4,0-8.3-1.7-11.1-4.5
			c-2.9-2.9-4.6-6.8-4.6-11.1C2256.8,1070.2,2263.8,1064.3,2272.6,1064.3z"/>
		<path class="st14" d="M2254.6,1024.7c10.8-16.7,30.3-7.7,30.3-7.7s-4.2-20.6,19.1-24.3c23.3-3.7,27.4,17.6,27.4,17.6
			s8.1-10.4,27.1-10.1c23.9,0.3,39.5,27.4,15.2,40.6c-3.8,2.1-7.4,3-11.1,3.3c-16.6,1.4-30.6-12.1-31.2-12.5
			c0.2,0.8,8.5,24.5-10.5,25.8c-18.9,1.3-25.3-12.4-25.5-13c0,0.6-0.1,18.9-15.1,19.9c-0.3,0-0.6,0-1,0h-0.3
			C2260.9,1064.3,2241.8,1044.3,2254.6,1024.7z"/>
		<g class="st18">
			<path class="st6" d="M2341.2,1082.9c-0.1-0.4-2.9-12,2.4-21.8c6.2-11.4,17.5-9.4,17.6-9.4c0.9,0.1,1.5,1,1.3,1.8
				c-0.1,0.9-1,1.4-1.8,1.3c-0.3,0-9.1-1.5-14.1,7.8c-4.6,8.7-2.1,19.4-2.1,19.5c0.2,0.9-0.3,1.7-1.2,1.9c-0.2,0-0.3,0-0.4,0
				C2342.2,1084,2341.5,1083.5,2341.2,1082.9z"/>
		</g>
		<g class="st18">
			<path class="st6" d="M2321.9,1087.9c-0.4-0.9-0.1-1.7,0.8-2.2c0.9-0.4,1.7,0,2.2,0.8c4.5,9.5,16.8,6.3,17.4,6.2l0,0
				c0.9-0.2,1.7,0.3,1.9,1.2c0.2,0.9-0.3,1.7-1.2,1.9c-1.5,0.4-3.6,0.8-5.8,0.8C2331.6,1096.6,2325,1094.7,2321.9,1087.9z"/>
		</g>
		<ellipse class="st20" cx="2321.5" cy="1066" rx="2.3" ry="5.1"/>
		<ellipse class="st20" cx="2355" cy="1066" rx="1.9" ry="4.2"/>
		<g class="st18">
			<path class="st6" d="M2279.1,1083.2c0-5.2-4.2-9.3-9.3-9.3c-0.9,0-1.6-0.8-1.6-1.6c0-0.9,0.8-1.6,1.6-1.6
				c6.9,0,12.5,5.6,12.5,12.5c0,0.9-0.8,1.6-1.6,1.6C2279.8,1084.8,2279.1,1084,2279.1,1083.2z"/>
		</g>
	</g>
</g>
<g id="WOMAN">
	<g id="LEGS">
		<g id="RIGHT_LEG">
			<g>
				<path class="st27" d="M2443.5,2729.4c-2.7-0.8-4.2-1.2-4.2-1.2l-32.7,107.1l-123.1-32.3c-1-0.9-1.5-1.4-1.5-1.4
					s-498.5-390.7-524.7-578.2C1731.2,2035.9,1940,1858,1940,1858s445.3,841.7,500.4,869.2
					C2441.5,2727.8,2442.6,2728.5,2443.5,2729.4z"/>
				<path class="st19" d="M2045.4,2054.9c-15.6,83.5-70.4,252.6-127.1,416.2c-84-90.5-151.8-181.8-161-247.8
					c-16.6-118.8,61.3-233.9,120.5-302.1c21.7-17.4,45.1-33.4,70.4-47.7C1963.7,1902.6,1999.6,1970,2045.4,2054.9z"/>
			</g>
			<g>
				<path class="st7" d="M2723.3,2801.5L2540.2,2919l-53.1-8l-48.9,31l15.8,32.4l-80.5,51.7c-106.7-97.1-91.6-223.4-91.6-223.4
					l124.6,32.7l32.7-107.1c0,0,111.9,32.7,194.5,29.9C2716.5,2755.4,2723.3,2801.5,2723.3,2801.5z"/>
				<path class="st28" d="M2515.2,2742.6c0,0-7.7-81.4-27-76.3c-19.3,5.2,4.9,86.4,26.6,77.5c21.7-8.9,43.4-66.6,43.4-66.6"/>
				<polyline class="st28" points="2301,2918.9 2423.7,2920.8 2484.6,2884.4 2542.4,2893.7 2715.7,2785.5 				"/>
				<g>
					<line class="st28" x1="2489.8" y1="2738" x2="2478.4" y2="2791.1"/>
					<line class="st28" x1="2514.6" y1="2744" x2="2503.2" y2="2797.1"/>
					<line class="st28" x1="2540.5" y1="2748.3" x2="2529.1" y2="2801.4"/>
				</g>
			</g>
		</g>
		<g id="LEFT_LEG">
			<path class="st27" d="M1897.7,1817.1c0,0,73.3,34.2,73.3,159.6c0,121.2-279.8,863.4-279.8,863.4l-86.1,73l-87.4-95.7
				C1560.4,2776.8,1437.8,2042.8,1897.7,1817.1z"/>
			<g>
				<path class="st7" d="M1889.9,3055.3l-217.6,0.2l-40.4-35.4l-57.9-0.3l-4.2,35.8l-85.3,0.1c-46.4-144.4,33.6-238.4,33.6-238.4
					l86.8,95.6l86.7-72.9c0,0,75.2,88.2,146.2,130.4C1909,3012.7,1889.9,3055.3,1889.9,3055.3z"/>
				<path class="st28" d="M1741.2,2891.4c0,0,85.4-55.1,61.1-76.2c-24.3-21.1-73.2,70.5-59.9,77.8s105.4-20.4,105.4-20.4"/>
				<polyline class="st28" points="1473,2928 1575.1,2992.4 1646,2992.4 1690.9,3030.1 1891.6,3030.1 				"/>
				<g>
					<line class="st28" x1="1722.2" y1="2870.6" x2="1683.8" y2="2909"/>
					<line class="st28" x1="1739.8" y1="2889.1" x2="1701.4" y2="2927.5"/>
					<line class="st28" x1="1759.2" y1="2906.7" x2="1720.8" y2="2945.1"/>
				</g>
			</g>
		</g>
	</g>
	<g id="SKIRT">
		<path class="st8" d="M1897.7,1817.1c-172.9,84.8-263.5,241.6-311.4,406.3h-524.7c-134.3,0-234.4-123.9-206.1-255.2l38.5-178.8
			h912.3C1840.1,1789.4,1871.5,1799.6,1897.7,1817.1z"/>
		<polygon class="st27" points="1508.1,1988.5 1697,1988.1 1669,2034 		"/>
		<path class="st29" d="M1898.7,1816.1c-86,42.2-151.6,102.2-201.8,172.1h-478.7c-86.3,0-150.7-79.3-133.1-163.8l7.3-35"/>
		<path class="st29" d="M1587,2223.3c19.1-65.7,44.9-130.2,80-189.3l-158.9-45.6"/>
	</g>
	<g id="BLOUSE">
		<path class="st10" d="M771.4,1309.1l96.1,377H688.2c-104.4,0-171.6-110.9-123.2-203.4l137.7-263.3
			c39-74.5,116.1-121.2,200.2-121.2h32.5C825,1098.1,744.1,1202.1,771.4,1309.1z"/>
		<path class="st10" d="M1878,1211.3c56.5,0,103.5-7.5,114.9-18l-175.3,380c-31.7,68.8-100.6,112.8-176.3,112.8
			c-22.2,0-44-3.8-64.6-11.1c-20.6-7.3-40-18-57.3-32l-110.5-89.2c0,0-11,64.7-89.5,81.2v154.2H893.9L771.4,1309
			c-27.3-107,53.6-211.1,164-211.1h297.9c26.3,0,52.2,3.3,77.2,9.7c68.4,17.4,129.8,57.6,173.2,115.2l145.6,193.2l130.8-228.6l0,0
			c0,0.2-0.1,0.5-0.1,0.7C1760.1,1201.4,1813,1211.3,1878,1211.3z"/>
		<line class="st29" x1="770.4" y1="1309.1" x2="864.5" y2="1689.1"/>
		<line class="st29" x1="1409.9" y1="1558.9" x2="1326.3" y2="1469.9"/>
		<path class="st8" d="M1995.5,1187.7l-2.6,5.6c-11.4,10.6-58.4,18-114.9,18c-65,0-117.9-9.9-117.9-23c0-0.2,0-0.5,0.1-0.7
			c1.8-12.8,54-23.8,117.9-23.8C1941.9,1163.8,1993.7,1174.8,1995.5,1187.7C1995.5,1187.6,1995.5,1187.6,1995.5,1187.7z"/>
	</g>
	<g id="ARM">
		<path class="st27" d="M2047.9,995.7c0,5.7-1.4,11.3-4,16.2s-6.4,9.2-11.1,12.5l-2.3,1.6l-17.9,95.5c-2.9,15.5-12.1,29.2-25.4,37.7
			l-24.5,15.6l-19.4,12.4l-9,21.5c-16.7,1.7-35.8,2.7-56.2,2.7c-20.6,0-40-1-56.9-2.8v-148.1c0-6.4,1.4-12.7,4.1-18.5l32.6-70.2
			c0,0,35.6,8.8,19.2,52.5c-14.9,39.7,19.1,29.5,38.2,22.4c17.1-6.4,91.8-44.4,121-58.3C2041.7,985.8,2047.9,989.8,2047.9,995.7z"/>
		<g>
			<path class="st30" d="M2016.7,1085.2c-2.9,15.5-12.1,29.1-25.4,37.6l-43.9,28"/>
			<path class="st30" d="M2023.9,1044.7c-2.9,15.5-12.1,29.1-25.4,37.6l-43.9,28"/>
			<line class="st30" x1="2027.3" y1="1027.1" x2="1956.7" y2="1071.9"/>
		</g>
		<path class="st19" d="M1966.5,1172.3l-3.9,2.5l-19.4,12.4l-9,21.5c-16.7,1.7-35.8,2.7-56.2,2.7c-20.6,0-40-1-56.9-2.8V1167
			c16.9-2,36.3-3.1,56.9-3.1C1913.3,1163.8,1944.9,1167.1,1966.5,1172.3z"/>
	</g>
	<g id="HEAD">
		<g id="NECK">
			<path class="st27" d="M1301.2,1105.3c-14.5,19.5-68.5,65.4-250.3,65.4c-233.9,0-84.2-72.4-84.2-72.4l99.2-165.7l106.4,65.3v52.5
				c0,26.5,21.5,47.9,47.9,47.9h6.9C1251.9,1098.2,1277.5,1099.3,1301.2,1105.3z"/>
			<polygon class="st19" points="1172.2,997.8 1172.2,1011.2 966.6,1098.2 1065.8,932.5 			"/>
		</g>
		<g id="HEAD_1_">
			<path class="st27" d="M1177.8,1004.3h22.6c20.8,0,37.7-16.9,37.7-37.7V840.7h-134.9v89C1103.2,970.9,1136.6,1004.3,1177.8,1004.3
				z"/>
			<path class="st30" d="M1235.2,959.3c-14.5,0-20.3-10-20.3-10"/>
			<ellipse class="st19" cx="1222.1" cy="909.7" rx="4.8" ry="9.3"/>
		</g>
		<path id="HAIR" class="st31" d="M1128.9,853.8c0,0,111.3,67.2,147.5,8.7c31.8-51.3-109.1-77.7-158.3-77.9
			c-53.5-0.2-124.4,23.5-123.2,102.2c1,64.8,3.7,159.6-34.7,143.1c-136.6-58.6-258,2.6-258.4,119.2s134.9,127.5,138.3,97.4
			c3.5-30-84-23.1-72.2,54.8c11.7,77.9,63.9,175.3,183.1,175.3c144,0.1,235.7-189.5,146.6-208.8c-68.3-14.8,69.6,117,110.5-20
			c44-147.5-115-195.8-118.9-284.9S1128.9,853.8,1128.9,853.8z"/>
		<g id="GLASSES">
			<line class="st28" x1="1121.1" y1="907.3" x2="1200.7" y2="907.3"/>
			<ellipse class="st28" cx="1225.2" cy="910.3" rx="22.6" ry="29"/>
		</g>
		<g id="HEADPHONES">
			<path class="st0" d="M1078.9,871.6v-84.2c0-12.6,10.2-22.9,22.9-22.9h25c12.6,0,22.9,10.2,22.9,22.9"/>
			<path class="st11" d="M1103,964.3h-48.1c-12.3,0-22.3-10-22.3-22.3v-48.1c0-12.3,10-22.3,22.3-22.3h48.1
				c12.3,0,22.3,10,22.3,22.3V942C1125.2,954.3,1115.3,964.3,1103,964.3z"/>
			<path class="st11" d="M1090.5,948.4H1067c-10.1,0-18.4-8.2-18.4-18.4v-23.5c0-10.1,8.2-18.4,18.4-18.4h23.5
				c10.1,0,18.4,8.2,18.4,18.4V930C1108.9,940.2,1100.7,948.4,1090.5,948.4z"/>
			<g>
				<line class="st0" x1="1099.8" y1="890.5" x2="1058" y2="946.1"/>
				<line class="st0" x1="1086" y1="888.6" x2="1049.8" y2="936.6"/>
				<line class="st0" x1="1107.9" y1="900.4" x2="1071.7" y2="948.4"/>
				<line class="st0" x1="1108.9" y1="918.3" x2="1086.2" y2="948.4"/>
				<line class="st0" x1="1071.3" y1="888.6" x2="1048.7" y2="918.5"/>
			</g>
		</g>
	</g>
</g>
<g id="CHAIR">
	<path class="st0" d="M1043.3,2280.3v55.1c0,26.6-21.6,48.2-48.2,48.2H871.5"/>
	<line class="st0" x1="1089.4" y1="2280.9" x2="1089.4" y2="2786.4"/>
	<path class="st0" d="M865.6,2948.5c0-89.5,88.9-162.1,198.5-162.1h49.8c109.6,0,198.5,72.6,198.5,162.1"/>
	<path class="st6" d="M1570.3,2288.6h-726c-36.4,0-65.8-29.5-65.8-65.8l0,0h809L1570.3,2288.6z"/>
	<circle class="st6" cx="861.2" cy="3002.1" r="53.6"/>
	<path class="st6" d="M833.9,2397.3h107.6c8.8,0,15.9-7.1,15.9-15.9v-1.2c0-8.8-7.1-15.9-15.9-15.9H833.9c-8.8,0-15.9,7.1-15.9,15.9
		v1.2C818,2390.2,825.1,2397.3,833.9,2397.3z"/>
	<path class="st2" d="M778.5,2224.8h515.1L1121.3,1742c-12-33.5-43.7-55.9-79.3-55.9H663.3c-37.6,0-63.8,37.2-51.2,72.6
		L778.5,2224.8z"/>
	<path class="st2" d="M804,2224.8h447.8L1085.3,1758c-11.6-32.4-42.2-54-76.6-54H625.3"/>
	<circle class="st6" cx="1311.5" cy="3002.1" r="53.6"/>
</g>
<g>
	<defs>
		<path id="SVGID_1_" d="M2494.6,937.3h-312.2c-9.9,0-17.9-8-17.9-17.9V270.6c0-9.9,8-17.9,17.9-17.9h312.2
			c4.2,1.6,8.5,3.4,12.7,5.2c89.6,40,142,125.1,172.7,202.4c-55.8,153-111.6,306-167.4,459C2506.5,925.4,2500.6,931.3,2494.6,937.3z
			"/>
	</defs>
	<clipPath id="SVGID_00000113322026954630385190000014845364529750554257_">
		<use xlink:href="#SVGID_1_"  style="overflow:visible;"/>
	</clipPath>
	<g id="_x31__CHARACTER" style="clip-path:url(#SVGID_00000113322026954630385190000014845364529750554257_);">
		<g id="DRESS">
			<path class="st10" d="M2482.6,970.8c-0.8-12.3-55.8-12.2-118.3-3c-59.8,8.8-110.6,26.8-113.3,37.7l15.3-228.7
				c0.2-3.2-2-6.1-5.2-6.7c-1.8-0.4-3.5,0-4.9,0.9c-1.4,0.9-2.4,2.4-2.8,4.1l-39.1,190l0,0c0.7-5.3-11.9-12.2-28.4-15.6
				c-16.5-3.4-30.7-2-32.2,3.1l0,0l43.9-213.5c3.7-18,16.6-32.8,33.9-38.9l22.5-8l92.6-32.8l86.2-30.9l16.4-79.6
				c-0.7,3.4,12.8,9,29.4,12.5c16.6,3.4,31.3,3.6,32,0.2l-17.7,86.3c-3.9,19.1-17,35.2-34.4,44.1l-53.4,23.7
				c-9.1,4-13.3,14.7-9.4,23.8c21.7,51.1,89.8,201.1,87.1,230.4C2482.7,970.2,2482.7,970.5,2482.6,970.8z"/>
			<line class="st29" x1="2433.3" y1="621.5" x2="2428.5" y2="645"/>
			<polygon class="st29" points="2254.1,692.2 2341.7,781 2346.7,659.4 2322,667.9 2317.2,717.2 2278.8,683 			"/>
			<path class="st33" d="M2478.7,973.1c-1.6-10.8-52.4-9.2-114.9,0c-62.5,9.2-112.7,26.8-111.1,37.6c1.6,10.8,54.3,10.8,116.8,1.6
				C2432.2,1003.1,2480.4,983.9,2478.7,973.1z"/>
		</g>
		<g id="LEGS_00000156549201169271131400000013271300829888815003_">
			<g id="RIGHT_LEG_00000037664174877364708500000014875958259165677977_">
				<path class="st23" d="M2303.1,1156l-4.5,5.2l-5.1,5.7c-32.9-2.6-34.3-24.8-34.3-24.8l6.8-8.6
					C2277.3,1144.1,2292.9,1151.8,2303.1,1156z"/>
				<path class="st34" d="M2450.2,1026.9c-30.9,34.7-136.7,132.9-136.7,132.9s-4.2-1.3-10.4-3.9c-10.2-4.2-25.7-11.8-37.1-22.5
					c-2.6-2.5-5-5.1-7.1-7.9l84.4-108.6l21.6-28.6l12-15.9c1.1-0.2,2.2-0.3,3.2-0.4c0.5-0.1,1-0.1,1.6-0.2c1.6-0.2,3.2-0.4,4.7-0.6
					c1.3-0.1,2.6-0.3,3.8-0.5c3.9-0.5,7.7-0.9,11.4-1.2c24.8-2.6,45.8-3.4,59.6-2.2c2.1,4.8,4.3,11.5,4.7,19.4
					C2466.3,998.4,2463.1,1012.5,2450.2,1026.9z"/>
				<g>
					<path class="st35" d="M2300.6,1249.1c-2,4.3-7.9,4.8-10.5,0.8l-58.5-88.4l27.9-19.3c0,0,1,22.1,34,24.7
						C2311.4,1211.4,2306.1,1237,2300.6,1249.1z"/>
					<path class="st8" d="M2296.6,1253.1c-5.4,0.9-10.8-1.3-14.1-5.7l-31.5-41.7c-0.8-1-0.6-2.5,0.4-3.3c1-0.8,1.2-2.2,0.5-3.2
						l-2.5-3.7c-0.7-1-2-1.3-3.1-0.7l-0.9,0.5c-1,0.6-2.3,0.3-3-0.6l-16.9-22.2c-2.2-2.9-1.4-7,1.6-9l4.3-2.7l58.7,89.9
						c1.7,2.6,4.7,3.3,7.2,2.3L2296.6,1253.1z"/>
					<g>
						<path class="st36" d="M2301.5,1178.7c0,0,5.1,6.8-11.2,10.5"/>
						<path class="st36" d="M2304.1,1186.2c0,0,5.1,6.8-11.2,10.5"/>
						<path class="st36" d="M2306.6,1193.7c0,0,5.1,6.8-11.2,10.5"/>
					</g>
				</g>
				<path class="st24" d="M2465.7,986.8c-19.8-4.1-40.8-4.8-61.4-3.4c-0.4-5.8-1.7-10.6-2.8-13.8c24.8-2.6,45.8-3.4,59.6-2.2
					C2463.2,972.2,2465.4,978.9,2465.7,986.8z"/>
			</g>
			<g id="LEFT_LEG_00000179630325918535497950000004641059654074315188_">
				<path class="st23" d="M2220.1,1135.7l-7.4,6.3l-5.8,5c-32.2-7.3-30.4-29.4-30.4-29.4l9.1-8.6l0,0
					C2195.8,1121.3,2211,1130.7,2220.1,1135.7z"/>
				<path class="st34" d="M2399.9,1008.1c-3.3,7.2-8.8,14.5-17.4,21.4c-35.5,28.4-154.9,110.1-154.9,110.1s-36.6-16.5-48.8-40.6
					l85.6-80.5l0,0l31.6-29.7c18.7-5.5,42.1-10.6,67.6-14.4c13.3-2,26-3.6,37.9-4.8c1.1,3.2,2.4,8,2.8,13.8
					C2404.9,990.5,2404.1,999.2,2399.9,1008.1z"/>
				<g>
					<path class="st35" d="M2202.1,1229.4c-2.6,4-8.5,3.6-10.5-0.7l-45.2-95.9l30.4-15.1c0,0-2.2,22,30.1,29.3
						C2218.2,1193.6,2209.2,1218.2,2202.1,1229.4z"/>
					<path class="st8" d="M2197.6,1232.5c-5.4,0.1-10.5-2.8-13.2-7.6l-25.2-45.7c-0.6-1.1-0.2-2.6,0.9-3.2c1.1-0.6,1.5-2,0.9-3.1
						l-2-4c-0.5-1.1-1.8-1.6-3-1.2l-0.9,0.4c-1.1,0.4-2.3,0-2.9-1l-13.7-24.3c-1.8-3.2-0.4-7.1,2.8-8.6l4.6-2.1l45.3,97.2
						c1.3,2.8,4.2,3.9,6.8,3.3L2197.6,1232.5z"/>
					<g>
						<path class="st36" d="M2213.7,1160.2c0,0,4.1,7.5-12.6,8.8"/>
						<path class="st36" d="M2215.8,1168.1c0,0,4.1,7.5-12.6,8.8"/>
						<path class="st36" d="M2217.2,1175.8c0,0,4.1,7.5-12.6,8.8"/>
					</g>
				</g>
				<path class="st24" d="M2404.4,983.4c-13.4,0.9-26.8,2.7-39.5,5c-55.1,10-99.8,29.8-100.3,30.1l31.6-29.7
					c18.7-5.5,42.1-10.6,67.6-14.4c4.4-0.6,8.8-1.3,13.2-1.9c1.1-0.2,2.2-0.3,3.2-0.4c0.5-0.1,1-0.1,1.6-0.2
					c1.6-0.2,3.2-0.4,4.7-0.6c1.3-0.1,2.6-0.3,3.8-0.5c3.9-0.5,7.7-0.9,11.4-1.2C2402.6,972.8,2403.9,977.6,2404.4,983.4z"/>
			</g>
		</g>
		<g id="ARMS">
			<g id="LEFT_ARM">
				<path class="st37" d="M2212.8,969c-1.1,5.3-15.2,6.9-31.6,3.5c-16.3-3.4-28.7-10.4-27.6-15.7c0-0.1,0-0.2,0-0.2
					c1.4-5.1,15.4-6.6,31.5-3.3c16.1,3.3,28.4,10.2,27.7,15.5C2212.8,968.8,2212.8,968.9,2212.8,969z"/>
				<path class="st23" d="M2202.3,959.4l-5.1,25c-1.7,8.1-7.7,14.6-15.6,16.9l-13.5,4c-3.3,1-6.8,1.1-10.1,0.4
					c-1.4-0.3-2.2-1.7-1.9-2.9c0.1-0.5,0.4-1,0.9-1.4l5.7-4.5c0.8-0.6,0.5-1.9-0.5-2.1l-26.7-5.5l-6.1,5.1c-3.3,2.7-7.6,3.8-11.7,3
					l-1.4-0.3c-1.7-0.4-2.4-2.4-1.3-3.7l0.8-0.9c-1.8,0.4-3.7,0.4-5.6,0l-1.4-0.3c-1.7-0.4-2.4-2.4-1.3-3.7l13.4-9.8l8.2-1.4l0,0
					l40.7-7l0,0l3.7-17.8c3.7,0.3,7.6,0.8,11.7,1.6C2191.7,955.3,2197.6,957.2,2202.3,959.4z"/>
				<line class="st38" x1="2127.8" y1="978.2" x2="2115.5" y2="992"/>
				<path class="st38" d="M2159.8,999l7-5.7c1.4-1.1,0.8-3.3-0.9-3.6"/>
				<path class="st24" d="M2202.3,959.4l-3.2,15.6c-5.2,0.1-11.4-0.5-18-1.8c-4.1-0.8-7.9-1.9-11.4-3.1l3.7-17.8
					c3.7,0.3,7.6,0.8,11.7,1.6C2191.6,955.3,2197.6,957.2,2202.3,959.4z"/>
			</g>
			<g id="RIGHT_ARM">
				<path class="st33" d="M2510.6,558.2c-0.7,3.4-14.7,3.4-31.3,0c-16.6-3.4-29.5-8.9-28.8-12.3s14.7-3.5,31.3-0.1
					C2498.4,549.2,2511.3,554.8,2510.6,558.2z"/>
				<path class="st23" d="M2470.4,555.2c-3.7-1-7-2.1-9.8-3.2l6.1-29.6c0.2-1,0.6-1.9,1.2-2.7l13.6-17.8c2.5-3.3,6.7-4.8,10.8-4
					l11.7,2.4l-35.3,41.9c-0.2,0.2-0.3,0.4-0.4,0.6C2466,546.2,2466.9,551.3,2470.4,555.2z"/>
				<path class="st24" d="M2494.9,547.7l5.1-5.8l-3.7,17.8c-3.2-0.2-6.8-0.6-10.5-1.2L2494.9,547.7z"/>
				<g>
					<g>
						<path class="st35" d="M2571.3,455.9l-86,102c-3.2,3.8-9.7,3.5-14.6-0.7c-4.9-4.2-6.3-10.6-3.1-14.3l86-102L2571.3,455.9z"/>
						
							<ellipse transform="matrix(0.6447 -0.7644 0.7644 0.6447 567.6085 2118.0811)" class="st39" cx="2562.4" cy="448.4" rx="8.9" ry="11.6"/>
					</g>
					<path class="st8" d="M2524.4,490.1l34.5-18.3l-2.3,8.8l9,4.3l-25.4,9.3c18.1-0.2,50.2,1,53,11.1c1.1,4-3.9,10.6-7.3,15.4
						c-3.7,10.8,57.3,9,58,9l-10.7,6.5l7.9,7c0,0-50.8-0.7-62.9-5.9c-6.8-2.9,0.8-11.3,7.2-17.3c2.6-5.1-9.1-9.3-60.6-14.2
						L2524.4,490.1z"/>
					
						<ellipse transform="matrix(0.2014 -0.9795 0.9795 0.2014 1529.2557 2868.126)" class="st35" cx="2523.6" cy="496.2" rx="8.9" ry="8.9"/>
				</g>
				<path class="st23" d="M2524.4,526.7l-4.2,6l-4.9,7l-2.6,3.8l-4,5.8c-0.1,0.2-0.2,0.3-0.4,0.5c0,0,0,0,0,0
					c-1.2,1.3-3.1,1.9-4.9,1.5L2482,547c-2.6-0.5-3.9-3.4-2.4-5.4l2.3-3.3l5.1-7.4l4.4-6.3l3.8-5.6c1.1-1.6,3.2-2.4,5.3-2l21.5,4.4
					C2524.6,521.8,2525.9,524.7,2524.4,526.7z"/>
				<g>
					<path class="st38" d="M2492.1,524.6c1.1-0.8,2.5-1.1,3.9-0.8l20.5,4.2c2.2,0.4,3.3,2.6,2.7,4.6"/>
					<path class="st38" d="M2487.9,531c1.1-0.7,2.4-1,3.7-0.7l20.5,4.2c2.3,0.5,3.5,3,2.5,5"/>
					<path class="st38" d="M2483,538.4c1.1-0.6,2.3-0.9,3.6-0.6l20.5,4.2c2.4,0.5,3.6,3.2,2.4,5.2l0,0"/>
				</g>
				<path class="st23" d="M2515.8,502.8l-0.1,0.5c-1.1,5.6-6.6,9.2-12.2,8l-10.6-2.2l2.2-10.7L2515.8,502.8z"/>
			</g>
		</g>
		<g id="HEAD_00000134240816636902091020000003807993893118371227_">
			<g id="CAP_1_">
				<path class="st6" d="M2209.6,688c-1.3,1.3-2.6,2.4-3.8,3.5c-1-0.5-2-1.2-2.8-2s-1.5-1.8-2-2.9c1.1-1.2,2.3-2.5,3.6-3.7
					c6.4-6.3,12.8-10.2,14.2-8.8C2220.1,675.4,2216,681.7,2209.6,688z"/>
				<path class="st10" d="M2277,587.5l-49.6,48.3c-0.6,0.6-0.1,1.5,0.7,1.5l19.4-2.1c-2.8,2.2-4.8,5.3-5.6,9.1l-3.6,17.7
					c-1.4,6.9-8.1,11.4-15,10.2c-0.3-0.9-1-1.6-2-1.8c-0.7-0.1-1.4,0-2,0.4c-0.6,0.4-1,1-1.1,1.7c-0.3,1.4,0.6,2.8,2.1,3.1l0,0
					c1.3,0.3,2.5-0.5,3-1.7c7.7,1.2,15.1-3.8,16.7-11.5l3.6-17.7c0.9-4.4,3.9-8,7.7-9.8l39-4.2l54.9-29L2277,587.5z M2221.3,673.7
					c-0.2,0.1-0.5,0.2-0.7,0.1s-0.5-0.2-0.6-0.4c-0.1-0.2-0.2-0.5-0.1-0.7c0.1-0.2,0.2-0.5,0.4-0.6c0.2-0.1,0.5-0.2,0.7-0.1l0,0
					c0.3,0.1,0.5,0.2,0.6,0.4c0.1,0.2,0.2,0.5,0.1,0.7C2221.7,673.3,2221.5,673.5,2221.3,673.7z"/>
				<g>
					<path class="st10" d="M2224.1,635c-0.2,0-0.3-0.1-0.4-0.2c-0.3-0.3-0.3-0.9,0-1.2l51.7-50.3l71.8,14.8c0.5,0.1,0.7,0.5,0.7,1
						c-0.1,0.5-0.5,0.7-1,0.7l-70.9-14.6l-51,49.7C2224.7,635,2224.4,635.1,2224.1,635z"/>
				</g>
				<g>
					<path class="st3" d="M2266.1,633.8l-4.1-3l0.4-0.6c0.1-0.3,3.7-6.3,10.6-12c6.4-5.3,16.9-11.3,30.9-9.8l0.8,0.1l-0.4,5.9
						l-1.7-0.1l0.3-4.3c-13-1.2-22.9,4.5-28.9,9.5c-5.4,4.5-8.7,9.2-9.8,10.9l2.9,2.1L2266.1,633.8z"/>
				</g>
			</g>
			<g id="HEAD_4_">
				<g id="NECK_1_">
					<polygon class="st23" points="2280.1,683 2277.1,650.9 2300.9,644.8 2308.4,653.4 2321.3,668.1 2316.4,715.2 					"/>
					<polygon class="st24" points="2308.4,653.4 2308.4,653.4 2284.4,686.7 2280.1,683 2277.1,650.9 2300.9,644.8 					"/>
				</g>
				<path id="HEAD_5_" class="st23" d="M2288.9,655.4c-1.6-0.2-4.4-2.4-7.5-5.4l-4.9,2.5c-2.8,1.5-6.3,0.4-7.7-2.4
					c-0.6-1.2-0.8-2.6-0.5-3.8c0.3-1.6,1.4-3.1,3-3.9l2-1c-3.8-4.3-6.7-7.9-6.7-7.9s12.6-21.7,37.8-19c0,0,7.6,29.9,7.9,32.7
					C2312.6,649.9,2297.8,656.3,2288.9,655.4z"/>
				<path id="HAIR_2_" class="st6" d="M2273.2,641.3c-3.8-4.3-6.7-7.9-6.7-7.9s4.6-8,14-13.7C2270.6,626.3,2281,637.9,2273.2,641.3z
					"/>
				<g id="FACE">
					<path class="st38" d="M2280.8,626.5c0,0,2-3.3,5.7-4.4"/>
					<path class="st38" d="M2306.4,622.5c0,0-4.5-1.6-7-0.7s-4.1,8.2-1.3,13.5"/>
					<path class="st38" d="M2299.2,640.3c0,0-3.4,1.9-7.8-0.9"/>
					<path class="st38" d="M2292.2,638.1c0,0-1.3,1.2-1.6,2.8"/>
					
						<ellipse transform="matrix(0.9982 -5.944014e-02 5.944014e-02 0.9982 -33.4484 137.0558)" class="st24" cx="2287" cy="630.8" rx="0.9" ry="1.8"/>
					
						<ellipse transform="matrix(0.9982 -5.944014e-02 5.944014e-02 0.9982 -33.2418 137.9325)" class="st24" cx="2301.9" cy="627.7" rx="0.8" ry="1.7"/>
					<path class="st38" d="M2282.6,652.2l-5.9-6.9c-0.7-0.8-1.8-0.9-2.6-0.4l-0.5,0.3c-1,0.6-1.2,1.9-0.6,2.9"/>
				</g>
			</g>
		</g>
	</g>
</g>
<g>
	<defs>
		<path id="SVGID_00000063626810900727203880000003340929629076976538_" d="M2894.5,1166.6h-313.4c-9.6,0-17.3-7.8-17.3-17.3
			l-60-417.8c0-9.6,67.8-17.3,77.3-17.3h313.4c9.6,0,17.3,7.8,17.3,17.3l47.8,386.4C2959.6,1127.4,2904.1,1166.6,2894.5,1166.6z"/>
	</defs>
	<clipPath id="SVGID_00000150080859154487833370000011381809647639156642_">
		<use xlink:href="#SVGID_00000063626810900727203880000003340929629076976538_"  style="overflow:visible;"/>
	</clipPath>
	<g id="_x32__CHARACTER" style="clip-path:url(#SVGID_00000150080859154487833370000011381809647639156642_);">
		<g id="LEGS_1_">
			<g id="LEFT_LEG_1_">
				<g>
					<path class="st27" d="M2669.5,1441.3c-19.5,9.6-17.7,27.9-17.9,40.3c-0.2,13.1-25.3,20-25.3,20c6.7-21,1.9-42.6,1.9-42.6
						L2669.5,1441.3z"/>
					<path class="st6" d="M2690.2,1489.7l-4.5,2.4l-9.3-21.4c-0.5-1.1-1.6-1.8-2.7-1.8c-0.4,0-0.8,0.1-1.1,0.2
						c-0.9,0.4-1.6,1.3-1.8,2.3l-4.1,30.9l-54.1,29.4c-1.6-3.9,8.4-13.5,13.7-30.3c0,0,25.1-6.9,25.3-20
						c0.2-12.3-1.6-30.7,17.9-40.3l4.1-1.8C2696.1,1449.9,2690.2,1489.7,2690.2,1489.7z"/>
				</g>
				<path class="st34" d="M2673.6,1287.9v151.6l-44.7,19.4l-33.5-152.2C2610.4,1307.3,2635.4,1304.2,2673.6,1287.9z"/>
				<line class="st41" x1="2640.7" y1="1301.3" x2="2649.6" y2="1449.9"/>
				<path class="st24" d="M2673.6,1287.9v39.7l-76.1-11l-2.1-9.9C2610.4,1307.3,2635.4,1304.2,2673.6,1287.9z"/>
			</g>
			<g id="RIGHT_LEG_1_">
				<g>
					<path class="st6" d="M2899,1185.1l-28.9,6.1c-1,0.2-2-0.1-2.6-0.8c-0.5-0.5-0.7-1.2-0.7-1.9c0-0.7,0.3-1.5,0.9-2l16.1-15.1
						l-3.6-3.2c0,0-37.4,7.3-39.5,30.6l2.8,3.1c14.7,14.4,30.5,7,41.6,3.2c10.6-3.6,23.2,12.8,25.7,16.2c0,0,0.1,0,0.1,0
						c16.7-0.5,28.5,5.4,31.4,2.7L2899,1185.1z"/>
					<path class="st27" d="M2843.5,1201.9c14.7,14.4,30.5,7,41.6,3.2c11.8-4,25.8,16.2,25.8,16.2c-20.9,0.7-38.6,11.7-38.6,11.7
						L2843.5,1201.9z"/>
				</g>
				<path class="st34" d="M2665,1289.2c0,0,7.3,49.1,63,48.2s143.6-104.7,143.6-104.7l-30.9-33.9L2665,1289.2z"/>
				<path class="st41" d="M2697.1,1275.9c1.8,12.9,10.5,25.1,37,24.7c39.3-0.6,94.9-52.2,124.2-82.6"/>
			</g>
		</g>
		<g id="DRESS_1_">
			<path class="st8" d="M2908.4,1098.8c-5.1-1.9-17.2,4.7-26.3,16.2c-9.8,12.3-13.8,25.4-9.5,28.9l-138-73.4
				c-6.8-3.6-14.6,2.6-12.7,10l41.8,158.3c-141.5,91.8-186.9,64.3-186.9,64.3V782.8c0,0,0,0,0,0.1c1.2,3.1,14.2,0.9,29-4.9
				c13.6-5.3,24-11.8,24.7-15.2l0,0v163.9c0,10.3,5.5,19.7,14.5,24.8L2908.4,1098.8z"/>
			<path class="st8" d="M2908.4,1098.8c-5.1-1.9-17.2,4.7-26.3,16.2c-9.8,12.3-13.8,25.4-9.5,28.9l-138-73.4
				c-6.8-3.6-14.6,2.6-12.7,10l41.8,158.9c-36,23.4-65.7,38.4-90.1,48.7c-38.2,16.2-63.2,19.4-78.2,18.8
				c-13.1-0.5-18.5-3.8-18.5-3.8V782.8c0,0,0,0,0,0.1c1.2,3.1,14.2,0.9,29-4.9c13.6-5.3,24-11.8,24.7-15.2l0,0v163.9
				c0,10.3,5.5,19.7,14.5,24.8L2908.4,1098.8z"/>
			<line class="st29" x1="2710.5" y1="1057.6" x2="2872.7" y2="1145.6"/>
			<polygon class="st6" points="2648.9,953.6 2630.7,1059.3 2723.6,995.4 			"/>
			<polyline class="st29" points="2648.9,953.6 2630.7,1059.3 2723.6,995.4 			"/>
		</g>
		<g id="ARMS_1_">
			<g id="LEFT_ARM_1_">
				<g>
					<g>
						<path class="st37" d="M2648.2,749.6l-119.9,24.6c-4.4,0.9-9-3-10.2-8.8c-1.2-5.8,1.5-11.2,5.9-12.1l119.9-24.6L2648.2,749.6z"
							/>
						
							<ellipse transform="matrix(0.9796 -0.2008 0.2008 0.9796 -94.5247 546.3906)" class="st42" cx="2646" cy="739.1" rx="8.2" ry="10.7"/>
					</g>
					<path class="st8" d="M2579.8,760c0,0-38.8,43.6-34.5,53.2c5.5,5.5,10,7.9,9.3,9.9c-0.7,2.2-10,15.6-10,15.6l-0.9-9.9l-8.9,2.9
						c0,0,9.4-13.7,10-17.9c-3.9-2.9-11.7-9-11.4-13.3c0.3-4.5,14-20.5,24-31.6l-15,5l-3-13.9l27-5L2579.8,760z"/>
					<circle class="st35" cx="2574.5" cy="753.7" r="8.2"/>
				</g>
				<path class="st24" d="M2630.5,762.9c-0.7,3.4-11.1,9.9-24.7,15.2c-14.8,5.7-27.8,7.9-29,4.9c0,0,0,0,0-0.1
					c-1-3.1,9.9-10.2,24.7-15.9c14.8-5.7,27.8-7.9,29-4.9C2630.6,762.3,2630.6,762.5,2630.5,762.9z"/>
				<path class="st27" d="M2620.6,738.7l-1.6,22.8l-0.7,10.9c-3.6,1.9-7.8,3.8-12.4,5.6c-7.8,3-15,5-20.3,5.9V763l21.8-4.5
					c0,0,1.2-7.8,3.5-14.3C2613.1,737.7,2620.6,738.7,2620.6,738.7z"/>
				<path class="st43" d="M2608,757.6c-0.3,1.3-9.8,4.3-9.8,11.2"/>
				<path class="st19" d="M2619,761.5l-0.7,10.9c-3.6,1.9-7.8,3.8-12.4,5.6c-7.8,3-15,5-20.3,5.9v-9.4c4.3-2.5,9.8-5.1,16-7.6
					C2608,764.4,2614.1,762.5,2619,761.5z"/>
				<g>
					<path class="st27" d="M2604.7,750.1l-24.3,5.6c-1.3,0.3-2.5-0.7-2.5-2.2v-14.8c0-2,1.2-3.7,3-4.3l24.1-7.8c1.5-0.5,3,0.7,3,2.4
						v16.8C2607.9,747.9,2606.6,749.7,2604.7,750.1z"/>
					<path class="st43" d="M2586.5,753.4c-1.3,0.3-2.6-0.7-2.6-2.1v-14.2c0-1.9,1.2-3.6,3-4.1"/>
					<path class="st43" d="M2593.5,751.9c-1.3,0.3-2.6-0.7-2.6-2.2v-14.6c0-2,1.2-3.7,3-4.2"/>
					<path class="st43" d="M2601.4,750.2c-1.3,0.3-2.6-0.8-2.6-2.2v-15.1c0-2,1.2-3.8,3-4.4"/>
				</g>
			</g>
			<g id="RIGHT_ARM_1_">
				<path class="st24" d="M2897.7,1127.3c-9.8,12.4-20.8,19.9-25.1,16.4c-4.3-3.4-0.3-16.5,9.5-28.9c9.1-11.5,21.2-18.1,26.3-16.2
					l1,0.6C2913.7,1102.7,2907.5,1115,2897.7,1127.3z"/>
				<path class="st27" d="M2942.1,1148.1l-6.5,3.4c-2.6,1.4-5.8,0.4-7.2-2.2l-6.9-12.8l-10.4-3.6c1.1,0.4,5.6,2.7,4.2,11.1
					l-24.4-9.1l-8.4-3.1l-8-5.1c1.9-3.8,4.4-7.9,7.6-11.9c2.7-3.4,5.6-6.3,8.5-8.7l8.3,5.8l8.5,0.9l13.8,1.5c2.2,0.2,4.3,1,6.2,2.2
					l11,7.8c1.6,1.1,2.7,2.9,2.9,4.8l2.2,15.7C2943.9,1146.2,2943.2,1147.5,2942.1,1148.1z"/>
				<path class="st43" d="M2926,1122.5l9.6,6.8c1.4,1,2.3,2.5,2.6,4.2l2,12.7c0.1,1.1-0.4,2.2-1.4,2.7"/>
				<path class="st43" d="M2920.1,1124.8l9.6,6.8c1.4,1,2.3,2.5,2.6,4.2l2,12.7c0.1,1.1-0.4,2.2-1.4,2.7"/>
				<line class="st43" x1="2911.1" y1="1133" x2="2904.1" y2="1130.6"/>
				<path class="st19" d="M2907.4,1112.9c-2.3,4.4-5.7,9.4-9.7,14.4c-2.3,2.8-4.6,5.4-6.9,7.7l-8.4-3.1l-8-5.1
					c1.9-3.8,4.4-7.9,7.6-11.9c2.7-3.4,5.6-6.3,8.5-8.7l8.3,5.8L2907.4,1112.9z"/>
			</g>
		</g>
		<g id="HEAD_00000070822365669522185870000003119908362538034601_">
			<g id="CAP">
				<polygon class="st8" points="2656.5,876.9 2718,904.2 2739.9,968.3 2695.4,936.5 2674.6,911.1 				"/>
				<path class="st24" d="M2674.6,911.1c0,0,20.1,3.4,28.2,25.9l4.3-4.3c0,0-7.8-21.8-28.4-27.4L2674.6,911.1z"/>
				<path class="st6" d="M2794.5,938.9c-6.9-3.9-13.3-6.1-15.3-5.3c0.1-0.3,0.2-0.7,0.2-1.1c-0.1-1.3-1.1-2.2-2.4-2.2
					c-0.1,0-0.1,0-0.2,0c-1.3,0.1-2.3,1.3-2.2,2.6c0,0.1,0,0.2,0,0.2l-7.3,4.7c-1.6,1.1-3.6,1.1-5.4,0.2c-1.7-0.9-2.7-2.7-2.7-4.6
					v-10.5c0-4.6-2.3-8.8-6.1-11.3s-8.6-2.9-12.8-1.1l-13.9,6.2l-5.3-15.5l-61.8-27.4c-0.4-0.2-0.8,0-1,0.4c-0.2,0.4,0,0.8,0.4,1
					l61.2,27.1l21.8,63.8c0.1,0.3,0.4,0.5,0.7,0.5c0.1,0,0.2,0,0.3,0c0.4-0.1,0.6-0.6,0.5-1l-16.2-47.5l14-6.3c3.7-1.6,8-1.2,11.4,1
					c3.4,2.2,5.4,6,5.4,10.1v10.5c0,2.5,1.3,4.8,3.5,6c1,0.6,2.2,0.9,3.3,0.9c1.3,0,2.5-0.4,3.6-1.1l7.2-4.6c0.4,0.4,1,0.6,1.6,0.6
					c0.1,0,0.1,0,0.2,0c0.5,0,1-0.2,1.3-0.5c0,2,5.2,6.6,12.4,10.7c1.6,0.9,3.1,1.7,4.6,2.4c0.9-0.7,1.6-1.6,2.2-2.7
					c0.6-1,1-2.2,1.1-3.3C2797.5,940.7,2796,939.8,2794.5,938.9z M2777,933.9c-0.7,0.1-1.2-0.4-1.3-1.1c-0.1-0.6,0.4-1.2,1.1-1.3
					c0.6-0.1,1.2,0.4,1.3,1.1C2778.2,933.2,2777.7,933.8,2777,933.9z"/>
			</g>
			<g id="HEAD_2_">
				<g id="NECK_00000042711666015425227960000006412255144475155368_">
					<polygon class="st27" points="2670.6,948.9 2660,1008 2696.2,980.1 2696.2,943.2 					"/>
					<polygon class="st19" points="2670.6,948.9 2669.3,956.3 2685.3,988.5 2696.2,980.1 2696.2,943.2 					"/>
				</g>
				<g id="HAIR_00000129186388709826665210000015398059434271906996_">
					<path class="st44" d="M2675.2,911.7c0,0-18.1-4.5-23.8,6c-5.7,10.5,10.9,13.4,11.6,9.7c0.3-1.6-29.8-1.6-24.7,21.2
						c5.3,23.7,29,15.6,29,15.6l2.8-15.3L2675.2,911.7z"/>
					<path class="st44" d="M2695.9,945.7c0,0-27.1,35.3-3.3,50.3c19.1,12,24-4.9,18.9-7.2c-5.5-2.5-18.3,45.2,20.9,45
						c39.3-0.1,27.3-49.2,7.5-65.5c-9.5-7.8-41-29.5-41-29.5L2695.9,945.7z"/>
				</g>
				<g id="HEAD_3_">
					<path class="st27" d="M2695.1,936.9l2,1.3c2,1.3,2.6,3.9,1.3,5.9l-0.4,0.6c-1.3,2-3.9,2.6-5.9,1.3l-2.2-1.4
						c-2.4,1.7-16.9,11.4-25.9,1.8c-8.7-9.3,11.4-36.7,11.4-36.7c17.1,5.3,23.7,20.5,23.7,20.5L2695.1,936.9z"/>
					<g>
						<path class="st43" d="M2669.9,915.9c0,0,4.7,1.8,4.3,5.8c-0.5,4.1-4.7,10.4-3.7,11.5c1,1.1,2.4,1.3,2.4,1.3"/>
						<path class="st43" d="M2668.8,936.9c0,0,3.5,2,8.3,1.2"/>
						
							<ellipse transform="matrix(0.3562 -0.9344 0.9344 0.3562 857.424 3106.0476)" class="st19" cx="2682.8" cy="930.8" rx="2.1" ry="1.1"/>
						
							<ellipse transform="matrix(0.3562 -0.9344 0.9344 0.3562 854.6155 3089.9214)" class="st19" cx="2669.7" cy="924.8" rx="1.7" ry="0.9"/>
						<path class="st43" d="M2693.6,941.8c0.8-1.3,2.5-1.6,3.7-0.8"/>
						<path class="st43" d="M2683,923.6c0,0,3.5,0.9,5.3,5.1"/>
					</g>
				</g>
				<path id="HAIR_1_" class="st44" d="M2688.2,916.6c0,0-3.8,12.7,7.1,21.3c6.4,5.1,6.8-1,6.8-1S2701.4,924.5,2688.2,916.6z"/>
			</g>
		</g>
	</g>
</g>
<g>
	<g>
		<path class="st45" d="M4018.7,753.1h-142.4c-27.7,0-50.2-22.5-50.2-50.2V560.5c0-27.7,22.5-50.2,50.2-50.2h142.4
			c27.7,0,50.2,22.5,50.2,50.2v142.4C4068.9,730.6,4046.4,753.1,4018.7,753.1z"/>
		<path class="st4" d="M3986.2,640.4l4.2-21.1h-33.6v-28.1c0-6.6,2.6-13.3,8.1-16.9c5.5-3.5,11.9-4.2,20-4.2h7V554
			c-4.3-1.7-13.5-4.9-28.1-4.9c-12.3,0-20.4,4.2-26.1,11.4c-5.7,7.2-9,17.9-9,30.7v28.1h-21.1v21.1h21.1v112.1h28.1V640.4H3986.2z"
			/>
	</g>
	<g>
		<path class="st45" d="M1419.5,374.2h-142.4c-27.7,0-50.2-22.5-50.2-50.2V181.5c0-27.7,22.5-50.2,50.2-50.2h142.4
			c27.7,0,50.2,22.5,50.2,50.2v142.4C1469.8,351.7,1447.3,374.2,1419.5,374.2z"/>
		<path class="st4" d="M1379.8,185c-19.7,0-35.8,16.1-35.8,35.8c0,1.2,0.3,2.3,0.4,3.5c-24.4-2.3-46-14.1-60.6-32.1
			c-0.7-0.9-1.7-1.3-2.8-1.3c-1.1,0.1-2.1,0.7-2.6,1.7c-3.1,5.3-4.8,11.4-4.8,17.9c0,7.9,2.8,15.2,7.2,21.1c-0.9-0.4-1.8-0.6-2.6-1
			c-1-0.5-2.2-0.5-3.2,0.1c-1,0.6-1.6,1.7-1.6,2.8v0.4c0,12.2,6.3,22.7,15.6,29.2c-0.1,0-0.2,0-0.3,0c-1.1-0.2-2.3,0.2-3,1.1
			c-0.8,0.9-1,2.1-0.7,3.2c3.7,11.5,13.1,20.2,24.8,23.4c-9.3,5.5-20,8.8-31.7,8.8c-2.5,0-4.9-0.1-7.3-0.4c-1.5-0.2-3,0.7-3.5,2.2
			c-0.5,1.5,0.1,3.1,1.4,3.9c14.9,9.6,32.6,15.2,51.6,15.2c30.8,0,55-12.9,71.2-31.3c16.2-18.4,24.6-42.3,24.6-64.6
			c0-0.9-0.1-1.9-0.1-2.8c6-4.6,11.4-10.1,15.7-16.4c0.8-1.2,0.7-2.9-0.2-4c-1-1.1-2.6-1.5-3.9-0.9c-1.7,0.8-3.7,0.8-5.5,1.4
			c2.3-3.1,4.4-6.5,5.6-10.3c0.4-1.3,0-2.7-1.1-3.6c-1.1-0.8-2.6-0.9-3.7-0.2c-5.6,3.3-11.9,5.7-18.5,7.1
			C1397.6,189,1389.2,185,1379.8,185z M1379.8,191.6c8.4,0,16,3.6,21.3,9.3c0.8,0.8,2,1.2,3.1,0.9c4.3-0.9,8.4-2.1,12.4-3.7
			c-2.3,3.1-5.1,5.7-8.5,7.7c-1.5,0.7-2.2,2.5-1.7,4.1c0.5,1.6,2.2,2.5,3.8,2.1c3.3-0.4,6.2-1.7,9.4-2.6c-2.8,3.1-5.9,5.8-9.3,8.3
			c-0.9,0.7-1.4,1.8-1.3,2.9c0.1,1.3,0.1,2.7,0.1,4c0,20.6-7.9,43-23,60.1s-37.2,29.1-66.2,29.1c-13.2,0-25.6-2.9-36.8-8
			c13.9-1.1,26.8-6,37.1-14.1c1.1-0.9,1.5-2.3,1.1-3.6c-0.4-1.3-1.7-2.2-3-2.3c-10.9-0.2-20-6.5-24.9-15.5c0.2,0,0.3,0,0.5,0
			c3.3,0,6.5-0.4,9.5-1.2c1.4-0.4,2.4-1.8,2.4-3.3c-0.1-1.5-1.1-2.8-2.6-3.1c-11.7-2.4-20.6-11.9-22.6-23.8c3.3,1.1,6.7,2,10.4,2.2
			c1.5,0.1,2.9-0.9,3.3-2.3s-0.1-3-1.4-3.8c-7.8-5.2-13-14.2-13-24.3c0-3.8,1-7.2,2.3-10.5c16.5,18.1,39.6,30.1,65.7,31.5
			c1,0.1,2-0.4,2.7-1.2c0.7-0.8,0.9-1.9,0.7-2.9c-0.5-2.1-0.8-4.4-0.8-6.7C1350.6,204.6,1363.6,191.6,1379.8,191.6z"/>
	</g>
	<g>
		<path class="st45" d="M2457.1,304.8h-142.4c-27.7,0-50.2-22.5-50.2-50.2V112.2c0-27.7,22.5-50.2,50.2-50.2h142.4
			c27.7,0,50.2,22.5,50.2,50.2v142.4C2507.3,282.3,2484.8,304.8,2457.1,304.8z"/>
		<g>
			<path class="st4" d="M2410.2,259.5c-4.1,1.6-8,3.1-11.9,4.8c-0.5,0.2-1,1-1.1,1.5c-0.4,2.9-0.6,5.8-0.9,8.7
				c-0.1,1.7-1,2.5-2.8,2.5c-5.1,0-10.1,0-15.2,0c-1.9,0-2.6-0.8-2.8-2.7c-0.3-2.8-0.6-5.7-0.8-8.5c-0.1-1.1-0.5-1.4-1.4-1.8
				c-3.4-1.3-6.7-2.7-10-4.2c-1-0.5-1.6-0.4-2.4,0.3c-2,1.8-4.2,3.5-6.3,5.2c-1.7,1.4-2.6,1.4-4.1-0.2c-2.9-2.9-5.9-5.8-8.8-8.8
				c-0.8-0.9-1.7-1.2-2.9-1.2c-8.3,0.1-16.7,0-25,0c-8.5,0-14.6-6-14.7-14.6c0-39,0-78.1,0-117.1c0-8.7,6.2-14.7,14.9-14.7
				c47.9,0,95.7,0,143.6,0c8.8,0,14.9,6,14.9,14.9c0,38.9,0,77.8,0,116.7c0,8.8-6.1,14.8-14.8,14.8c-8.2,0-16.4,0-24.6,0
				c-1.3,0-2.2,0.4-3.1,1.3c-2.8,2.9-5.7,5.8-8.6,8.7c-1.7,1.7-2.4,1.7-4.3,0.2C2414.7,263.3,2412.3,261.2,2410.2,259.5z
				 M2468.2,149.6c-55,0-109.7,0-164.4,0c0,0.3-0.1,0.5-0.1,0.7c0,30.3,0,60.5,0,90.8c0,5.5,4.3,9.6,9.9,9.6c6.1,0,12.2,0,18.3,0
				c2.6,0,5.7,0.7,7.8-0.3c2.2-1.1,3.6-3.9,5.4-6c0.1-0.1,0.2-0.2,0.2-0.3c0.1-0.6,0.3-1.4,0.1-1.9c-1.4-3.5-2.9-6.9-4.4-10.4
				c-0.2-0.5-0.9-1.1-1.5-1.2c-2.8-0.4-5.5-0.5-8.3-0.9c-2.4-0.3-2.9-0.8-2.9-3.2c0-4.9,0-9.8,0-14.6c0-2.1,0.5-2.7,2.6-3
				c2.8-0.3,5.5-0.6,8.3-0.8c1.2-0.1,1.5-0.6,1.8-1.6c1.3-3.3,2.7-6.6,4.2-9.8c0.5-1,0.4-1.6-0.3-2.4c-1.8-2.1-3.5-4.2-5.2-6.3
				c-1.4-1.7-1.4-2.5,0.2-4.1c3.4-3.4,6.8-6.8,10.2-10.2c1.7-1.7,2.5-1.8,4.4-0.2c2.4,2,4.8,4,6.9,5.7c4.2-1.7,8.1-3.1,12-4.8
				c0.5-0.2,1-1,1.1-1.6c0.4-2.8,0.6-5.6,0.8-8.5c0.2-1.9,0.9-2.7,2.8-2.7c5.1,0,10.1,0,15.2,0c1.7,0,2.6,0.8,2.8,2.5
				c0.2,2.9,0.5,5.8,0.9,8.7c0.1,0.6,0.6,1.4,1.1,1.6c3.8,1.6,7.7,3.1,11.9,4.7c2.2-1.8,4.6-3.8,7.1-5.9c1.7-1.4,2.6-1.4,4.1,0.2
				c3.4,3.4,6.8,6.8,10.2,10.3c1.6,1.7,1.7,2.4,0.1,4.3c-1.7,2.1-3.5,4.1-5.2,6.3c-0.4,0.5-0.5,1.5-0.3,2c1.4,3.5,2.8,6.9,4.4,10.4
				c0.2,0.5,0.9,1.1,1.4,1.2c2.9,0.4,5.9,0.6,8.8,0.9c1.6,0.2,2.4,1.1,2.4,2.7c0,5.1,0,10.1,0,15.2c0,1.7-0.7,2.6-2.5,2.8
				c-2.8,0.3-5.6,0.6-8.5,0.9c-0.9,0.1-1.3,0.4-1.7,1.3c-1.3,3.4-2.8,6.8-4.3,10.2c-0.5,1-0.4,1.5,0.3,2.2c1.5,1.7,2.9,3.6,4.4,5.2
				c0.6,0.6,1.6,1.1,2.4,1.1c8.2,0.1,16.3,0.1,24.5,0c0.8,0,1.6,0,2.4-0.2c4.7-1,7.7-4.9,7.7-10.2c0-29.8,0-59.5,0-89.3
				C2468.2,150.6,2468.2,150.2,2468.2,149.6z M2303.6,144.9c54.9,0,109.7,0,164.5,0c0-7.6,0.2-15.1-0.1-22.5
				c-0.2-5.4-4.5-9.2-9.9-9.2c-48.2,0-96.4,0-144.5,0c-5.4,0-9.8,3.8-9.9,9.2C2303.5,129.9,2303.6,137.3,2303.6,144.9z
				 M2418.9,177.9c-2.2,1.8-4.5,3.7-6.8,5.7c-1.3,1.1-2.4,1.2-3.9,0.3c-3.9-2.5-8.2-4.3-12.7-5.4c-1.7-0.4-2.5-1.3-2.6-3.1
				c-0.2-3-0.6-6-0.9-9.1c-4.1,0-8.1,0-12.2,0c-0.3,3.1-0.7,6.2-0.9,9.3c-0.1,1.7-1,2.5-2.6,2.9c-4.4,1-8.6,2.7-12.4,5.2
				c-1.7,1.1-3,1-4.5-0.4c-2.2-2-4.5-3.8-6.5-5.4c-3,3-5.7,5.7-8.6,8.6c1.8,2.1,3.6,4.4,5.5,6.7c1.2,1.4,1.2,2.5,0.4,4.2
				c-1.9,3.9-3.6,7.9-5.2,12c-0.9,2.5-1.1,2.9-3.8,3.2c-2.8,0.3-5.6,0.5-8.4,0.8c0,4.1,0,8.1,0,12.1c2.8,0.3,5.6,0.6,8.3,0.8
				c2.7,0.2,2.9,0.6,3.8,3.1c1.5,4,3.1,7.9,4.9,11.7c1.2,2.5,1.4,2.7-0.4,4.9c-1.8,2.2-3.6,4.3-5.3,6.4c2.9,3,5.7,5.7,8.6,8.6
				c2.2-1.8,4.6-3.7,6.9-5.7c1.3-1.2,2.5-1.2,4-0.3c3.9,2.5,8.2,4.3,12.7,5.3c1.5,0.4,2.3,1.2,2.4,2.8c0.2,3.1,0.6,6.2,0.9,9.3
				c4.2,0,8.1,0,12.2,0c0.3-3.1,0.6-6.1,0.9-9.1c0.1-1.6,0.8-2.6,2.5-3c4.6-1,8.8-2.8,12.7-5.3c1.5-1,2.7-0.9,4,0.3
				c2.3,2,4.6,3.9,6.7,5.6c2.9-2.9,5.7-5.8,8.6-8.6c-1.7-2.1-3.6-4.4-5.5-6.7c-1.2-1.4-1.1-2.5-0.3-4.2c1.9-3.9,3.6-7.9,5.1-12
				c1-2.5,1.1-2.9,3.8-3.1c2.7-0.2,5.5-0.5,8.2-0.8c0-4.2,0-8.1,0-12.2c-3-0.3-5.9-0.6-8.9-0.8c-1.8-0.1-2.8-0.9-3.2-2.7
				c-1-4.4-2.7-8.6-5.2-12.4c-1.1-1.6-0.9-2.9,0.3-4.3c2-2.2,3.8-4.5,5.7-6.8C2424.6,183.4,2421.8,180.7,2418.9,177.9z"/>
			<path class="st4" d="M2354.1,129.4c0,5.8-4.5,10.5-10,10.4c-5.4-0.1-9.9-4.8-9.9-10.4c0-5.7,4.5-10.4,10.1-10.3
				C2349.7,119.1,2354.1,123.7,2354.1,129.4z M2344.2,123.5c-3.1,0-5.6,2.6-5.6,5.9c0,3.2,2.6,6,5.6,6c3,0,5.4-2.7,5.5-5.8
				C2349.7,126.2,2347.3,123.6,2344.2,123.5z"/>
			<path class="st4" d="M2379.3,129.4c0,5.8-4.5,10.5-10,10.4c-5.4-0.1-9.9-4.7-9.9-10.4c0-5.8,4.5-10.4,10.1-10.3
				C2374.9,119.1,2379.3,123.7,2379.3,129.4z M2374.9,129.4c0-3.3-2.4-5.9-5.4-5.9c-3.1,0-5.6,2.6-5.6,5.9c0,3.2,2.6,6,5.6,6
				C2372.4,135.3,2374.9,132.6,2374.9,129.4z"/>
			<path class="st4" d="M2328.8,129.5c0,5.7-4.5,10.3-9.9,10.3c-5.5,0-10.1-4.8-10-10.5c0.1-5.7,4.5-10.3,10-10.3
				C2324.4,119.1,2328.9,123.7,2328.8,129.5z M2318.9,123.5c-3.1,0-5.6,2.6-5.6,5.9c0,3.2,2.6,6,5.6,6c3,0,5.4-2.7,5.5-5.8
				C2324.4,126.2,2322,123.6,2318.9,123.5z"/>
			<path class="st4" d="M2385.9,184.7c19.2,0,34.8,15.5,34.8,34.7c0,19.2-15.6,34.7-34.8,34.7c-19.1,0-34.6-15.4-34.7-34.6
				C2351.1,200.3,2366.7,184.7,2385.9,184.7z M2355.6,219.3c0,16.7,13.5,30.3,30.2,30.3c16.7,0,30.3-13.5,30.4-30.2
				c0-16.7-13.5-30.3-30.2-30.3C2369.3,189.1,2355.7,202.6,2355.6,219.3z"/>
			<path class="st4" d="M2366.6,219.3c3.7,2.8,7.2,5.4,10.7,8.1c0.3,0.3,0.7,0.5,1,0.8c1.2,0.9,1.7,2.1,0.6,3.3
				c-0.9,1.2-2.1,1.1-3.3,0.2c-1.4-1-2.8-2.1-4.1-3.1c-3.2-2.4-6.3-4.7-9.5-7.1c-1.9-1.5-1.9-2.8,0-4.3c4.4-3.4,8.9-6.7,13.3-10.1
				c1.2-0.9,2.4-1.3,3.6,0c1,1.1,0.7,2.4-0.9,3.6C2374.3,213.5,2370.6,216.3,2366.6,219.3z"/>
			<path class="st4" d="M2405.2,219.3c-3.6-2.7-7-5.3-10.4-7.8c-0.6-0.4-1.2-0.9-1.7-1.4c-0.9-0.9-1.1-1.9-0.3-3
				c0.8-1,1.9-1.2,3-0.5c1.3,0.9,2.5,1.8,3.7,2.7c3.4,2.6,6.8,5.1,10.2,7.7c2,1.5,2,2.9,0,4.4c-4.4,3.4-8.8,6.7-13.3,10
				c-1.2,0.9-2.4,1.3-3.6,0c-1-1.1-0.6-2.3,1-3.6C2397.5,225.1,2401.2,222.3,2405.2,219.3z"/>
			<path class="st4" d="M2390.6,202.9c-1,6.4-1.8,12.1-2.7,17.8c-0.7,4.5-1.4,9-2.1,13.5c-0.1,0.5-0.2,1-0.2,1.5
				c-0.3,1.4-1.1,2.3-2.6,2c-1.5-0.2-2-1.3-1.8-2.7c0.6-4,1.2-7.9,1.8-11.9c0.9-6.3,1.9-12.6,2.8-18.8c0.1-0.5,0.2-1,0.3-1.5
				c0.3-1.4,1.3-2.1,2.6-1.7C2389.6,201.4,2390.2,202.4,2390.6,202.9z"/>
		</g>
	</g>
	<g>
		<path class="st45" d="M990.7,533.3H848.3c-27.7,0-50.2-22.5-50.2-50.2V340.7c0-27.7,22.5-50.2,50.2-50.2h142.4
			c27.7,0,50.2,22.5,50.2,50.2v142.4C1041,510.8,1018.5,533.3,990.7,533.3z"/>
		<g>
			<path class="st4" d="M988.8,489.2H847.2c-11,0-19.9-8.9-19.9-19.9V359.7c0-11,8.9-19.9,19.9-19.9h141.6c11,0,19.9,8.9,19.9,19.9
				v109.6C1008.6,480.3,999.7,489.2,988.8,489.2z M847.2,346.9c-7.1,0-12.9,5.8-12.9,12.9v109.6c0,7.1,5.8,12.9,12.9,12.9h141.6
				c7.1,0,12.9-5.8,12.9-12.9V359.7c0-7.1-5.8-12.9-12.9-12.9H847.2z"/>
			<rect x="831.3" y="370.1" class="st4" width="116.6" height="7"/>
			<rect x="963.7" y="370.1" class="st4" width="24.2" height="7"/>
			<path class="st4" d="M973.4,465.5v-33.8h-20.6v-25.5h-20.6v-18.6h-25.6v53.7h-15.6V431h-25.6v34.5h-15.1v7h134.1v-7H973.4z
				 M968.4,436.7v28.8h-15.6v-28.8H968.4z M947.8,411.2v20.5v33.8h-15.6v-54.3H947.8z M911.6,392.6h15.6v13.6v59.3h-15.6v-24.2
				V392.6z M906.6,446.3v19.2h-15.6v-19.2H906.6z M870.5,436h15.6v5.3v24.2h-15.6V436z"/>
			<rect x="848.4" y="353.6" class="st4" width="6.9" height="11.9"/>
			<rect x="865.6" y="353.6" class="st4" width="6.9" height="11.9"/>
			<rect x="883" y="353.6" class="st4" width="6.9" height="11.9"/>
			<rect x="900.2" y="353.6" class="st4" width="6.9" height="11.9"/>
			<rect x="917.4" y="353.6" class="st4" width="6.9" height="11.9"/>
			<rect x="934.6" y="353.6" class="st4" width="6.9" height="11.9"/>
			<rect x="951.8" y="353.6" class="st4" width="6.9" height="11.9"/>
			<rect x="969" y="353.6" class="st4" width="6.9" height="11.9"/>
			<rect x="986.2" y="353.6" class="st4" width="6.9" height="11.9"/>
		</g>
	</g>
	<g>
		<path class="st45" d="M3338.7,426.3h-142.4c-27.7,0-50.2-22.5-50.2-50.2V233.6c0-27.7,22.5-50.2,50.2-50.2h142.4
			c27.7,0,50.2,22.5,50.2,50.2V376C3388.9,403.8,3366.4,426.3,3338.7,426.3z"/>
		<g>
			<path class="st4" d="M3357,386.3c-0.9,1.4-2.1,1.8-3.7,1.8c-57.4,0-114.9,0-172.3,0c-2.8,0-3.7-0.8-3.7-3.7c0-3.3,0-6.6,0-9.8
				c0-2.2,0.9-3.1,3.1-3.1c1.4,0,2.8,0,4.2-0.1c0.1,0,0.2-0.1,0.5-0.3c0-0.6,0-1.3,0-2c0-13.7,0-27.5,0-41.2c0-3.3,0.8-4,4-4
				c6.8,0,13.6,0,20.4,0c2.7,0,3.6,0.9,3.6,3.5c0,5.1,0.1,10.3-0.1,15.4c0,1-0.7,2.3-1.5,2.9c-1.7,1.1-3.7-0.3-3.7-2.6
				c0-4,0-8,0-11.9c0-0.6,0-1.3,0-2c-5.9,0-11.6,0-17.4,0c0,14,0,28,0,42.1c5.7,0,11.4,0,17.4,0c0-1.3,0-2.6,0-3.8
				c0-3.7,0-7.5,0-11.2c0-1.9,1-3.1,2.6-3.1c1.6,0,2.6,1.1,2.7,3c0,4.4,0,8.8,0,13.2c0,0.6,0,1.3,0,2c5.8,0,11.5,0,17.4,0
				c0-0.8,0-1.5,0-2.3c0-28.9,0-57.8,0-86.7c0-0.6,0-1.3,0-1.9c0.1-1.7,1-2.6,2.7-2.6c7.5,0,15,0,22.5,0c1.7,0,2.7,1,2.7,2.8
				c0,11.7,0,23.4,0,35.1c0,1.7-1.1,2.9-2.7,2.8c-1.6,0-2.6-1.2-2.6-3.1c0-8.7,0-17.3,0-26c0-2,0-4.1,0-6.2c-5.8,0-11.5,0-17.3,0
				c0,29.4,0,58.7,0,88.1c5.8,0,11.4,0,17.3,0c0-0.8,0-1.4,0-2.1c0-13,0-26.1,0-39.1c0-0.4,0-0.8,0-1.2c0-2,1-3.3,2.6-3.3
				c1.6,0,2.6,1.2,2.6,3.2c0,8.4,0,16.7,0,25.1c0,5.7,0,11.5,0,17.4c5.8,0,11.6,0,17.5,0c0-0.8,0-1.4,0-2.1c0-20.8,0-41.6,0-62.5
				c0-3.4,0.6-4,3.9-4c6.7,0,13.5,0,20.2,0c3.1,0,3.8,0.7,3.8,3.8c0,20.8,0,41.6,0,62.5c0,0.7,0,1.5,0,2.4c5.8,0,11.5,0,17.4,0
				c0-0.7,0-1.3,0-2c0-23.7,0-47.5,0-71.2c0-2.7,0.9-4,2.6-4c1.8,0,2.6,1.3,2.6,3.9c0,23.7,0,47.4,0,71.1c0,0.7,0,1.4,0,2.2
				c5.8,0,11.5,0,17.3,0c0-35.2,0-70.5,0-105.8c-5.7,0-11.4,0-17.3,0c0,0.7,0,1.3,0,1.9c0,5.4,0,10.9,0,16.3c0,2.2-1,3.4-2.7,3.3
				c-1.6,0-2.6-1.2-2.6-3.3c0-6.8,0-13.6,0-20.4c0-2.3,0.9-3.3,3.2-3.3c7.2,0,14.4,0,21.6,0c2.4,0,3.2,1,3.2,3.6
				c0,13.3,0,26.6,0,39.8c0,21.9,0,43.8,0,65.6c0,0.7,0,1.4,0,2.1c2.6,0.8,5.7-0.9,7.8,1.7C3357,377.4,3357,381.9,3357,386.3z
				 M3281.3,308c0,21.2,0,42.2,0,63.3c5.8,0,11.4,0,17.1,0c0-21.2,0-42.2,0-63.3C3292.6,308,3287,308,3281.3,308z M3351.7,376.9
				c-56.4,0-112.7,0-169,0c0,2,0,3.9,0,5.8c56.4,0,112.7,0,169,0C3351.7,380.7,3351.7,378.9,3351.7,376.9z"/>
			<path class="st4" d="M3210.7,284.5c3.4,6.7,3.1,12.3-1,17.1c-4.7,5.5-12.8,6.5-18.7,2.3c-5.9-4.2-7.6-12.2-3.9-18.4
				c3.7-6.3,11.5-8.8,18-5.5c1.6,0.8,2.4,0.5,3.5-0.7c7.7-7.9,15.5-15.8,23.2-23.6c0.8-0.8,1.1-1.4,0.5-2.6
				c-3-5.4-1.9-12.1,2.4-16.5c4.3-4.3,11.1-5.3,16.4-2.5c5.5,3,8.4,9.1,7.1,15.2c-0.1,0.4-0.1,0.8-0.3,1.4c7,3.8,14,7.7,21,11.5
				c7.4-5.9,11.8-6.5,19.2-2.4c8.3-7.8,16.7-15.7,25.2-23.7c-2.3-4.1-2.9-8.5-1-12.9c1.3-3.1,3.4-5.4,6.4-7c5.8-3.1,13-1.6,17.2,3.4
				c4.4,5.3,4.4,12.7,0,17.9c-3.6,4.3-11,7.5-18.9,2.5c-0.2,0.2-0.5,0.4-0.8,0.6c-7.8,7.3-15.6,14.7-23.4,21.9
				c-0.9,0.8-1,1.4-0.5,2.5c2.7,5.5,1.5,12.1-2.9,16.3c-4.4,4.2-11,5-16.3,2.1c-5.5-3-8.2-9-7-15.2c0.1-0.6-0.2-1.6-0.6-1.8
				c-6.7-3.8-13.5-7.4-20.3-11.1c-5.5,5.6-11.7,6.5-18.7,2.8C3228.1,266.9,3219.4,275.7,3210.7,284.5z M3199.2,283.8
				c-4.8,0-8.8,3.8-8.8,8.6c-0.1,4.7,3.8,8.7,8.6,8.8c4.8,0.1,8.8-3.8,8.8-8.6C3207.9,287.8,3204,283.9,3199.2,283.8z M3335.3,220
				c-4.8,0-8.8,3.9-8.8,8.6c-0.1,4.7,3.9,8.7,8.6,8.8c4.7,0.1,8.8-3.9,8.8-8.6C3344,224,3340.1,220,3335.3,220z M3281.2,271.3
				c0,4.8,3.9,8.7,8.7,8.7c4.8,0,8.7-4,8.6-8.8c0-4.8-4-8.7-8.7-8.7C3285,262.6,3281.2,266.5,3281.2,271.3z M3244.4,255.1
				c4.8,0,8.7-3.8,8.7-8.6c0-4.8-3.8-8.7-8.6-8.7c-4.8,0-8.7,3.8-8.7,8.6C3235.8,251.2,3239.6,255.1,3244.4,255.1z"/>
		</g>
	</g>
	<g>
		<path class="st45" d="M1588.9,1005.1h-142.4c-27.7,0-50.2-22.5-50.2-50.2V812.5c0-27.7,22.5-50.2,50.2-50.2h142.4
			c27.7,0,50.2,22.5,50.2,50.2v142.4C1639.1,982.6,1616.6,1005.1,1588.9,1005.1z"/>
		<g>
			<path class="st46" d="M1512.8,956.6c-2.8-0.4-5.6-0.7-8.4-1.2c-20.2-3.8-36.1-14.4-47.9-31c8.5-8.5,17-16.9,25.4-25.4
				c0.1,0.1,0.3,0.5,0.5,0.9c7.8,14.7,20,22.2,36.7,21.9c5.7-0.1,11.1-1.7,16.1-4.4c1-0.5,1.5-0.4,2.3,0.4c7.6,7.7,15.3,15.3,23,23
				c0.3,0.3,0.5,0.6,0.9,1c-1.6,1.1-3.1,2.2-4.6,3.2c-10.4,6.6-21.7,10.4-34,11.3c-0.4,0-0.7,0.2-1.1,0.2
				C1518.8,956.6,1515.8,956.6,1512.8,956.6z"/>
			<path class="st47" d="M1443.5,878c0.4-2.8,0.7-5.5,1.2-8.3c1.2-6.9,3.4-13.4,6.5-19.6c0.1-0.2,0.3-0.5,0.5-0.8
				c0.4,0.4,0.8,0.7,1.1,1c8.3,8.3,16.5,16.5,24.8,24.8c0.9,0.9,1.1,1.7,1,3c-0.2,3.2,0,6.4,0,9.6c0,0.6-0.1,1.4-0.5,1.8
				c-8.6,8.7-17.3,17.4-26,26c-0.1,0.1-0.3,0.2-0.7,0.5c-1.4-3.5-2.9-6.8-4.1-10.2c-2-5.6-3.2-11.5-3.6-17.5c0-0.4-0.2-0.7-0.2-1.1
				C1443.5,884.1,1443.5,881.1,1443.5,878z"/>
			<path class="st48" d="M1568.8,935.8c-8.3-8.3-16.5-16.5-24.6-24.6c3.4-3.2,6.3-6.8,8.5-11.3c-0.7,0-1.2,0-1.8,0
				c-10.8,0-21.6,0-32.3,0c-3.5,0-5.1-1.6-5.1-5.1c0-8.2,0-16.4,0-24.5c0-3.4,1.7-5,5.1-5c22,0,44.1,0,66.1,0c3.8,0,5.1,1.1,5.7,4.8
				c3.4,21.1-1.3,40.2-14.2,57.2C1573.8,930.3,1571.2,933.1,1568.8,935.8z"/>
			<path class="st4" d="M1481.9,866.4c-8.5-8.5-16.9-16.9-25.5-25.5c2.4-2.9,4.7-6,7.4-8.8c12.6-13.4,28.1-21.2,46.4-23
				c20.3-2,38.4,3.7,54.3,16.6c2.3,1.9,2.5,4.6,0.4,6.8c-6,6.1-12,12.1-18.1,18.1c-2,1.9-4,2-6.4,0.3c-7.1-5.1-15-7.8-23.8-7.4
				c-15.5,0.6-26.7,8.1-34,21.7C1482.3,865.5,1482.1,866,1481.9,866.4z"/>
		</g>
	</g>
	<g>
		<path class="st45" d="M3791.8,304.8h-142.4c-27.7,0-50.2-22.5-50.2-50.2V112.2c0-27.7,22.5-50.2,50.2-50.2h142.4
			c27.7,0,50.2,22.5,50.2,50.2v142.4C3842.1,282.3,3819.6,304.8,3791.8,304.8z"/>
		<g>
			<path class="st4" d="M3815.1,231.8c-0.7,3-1.2,6.1-2.2,9.1c-5.5,16.6-20.7,27.9-38.2,28.2c-7.7,0.2-15.5,0-23.3,0
				c-2.5,0-3.8-1-3.7-2.8c0-1.7,1.4-2.7,3.7-2.7c7.3,0,14.5,0,21.8,0c18.1,0,32.5-12,35.9-29.7c3.8-19.7-11-39.6-31-41.6
				c-2.3-0.2-4.7-0.2-7-0.2c-2.9,0-3.7-0.7-3.9-3.6c-1.1-15.8-14.4-29.6-30.2-31.3c-18.7-2-34.6,9.4-38.5,27.8
				c-0.6,2.7-1.9,3.4-4.8,2.5c-17.2-5.7-35,4.2-39.2,21.7c-0.5,2-0.7,4.1-0.8,6.2c-0.2,2.7-0.7,3.3-3.5,3.8c-8.3,1.6-14,6.4-17,14.2
				c-5.6,14.7,5.3,30.1,21.1,30.1c27.7,0,55.5,0,83.2,0c0.7,0,1.4,0,2,0c1.6,0.2,2.6,1.3,2.6,2.8c0,1.5-1,2.5-2.7,2.7
				c-0.4,0-0.9,0-1.3,0c-27.7,0-55.5,0-83.2,0c-13.5,0-24.4-8.2-27.8-20.7c-3.9-14.6,4.8-30,19.3-34c1.4-0.4,1.8-0.9,1.8-2.4
				c-0.1-19.4,0-38.8,0-58.1c0-2.9,0.8-4.2,2.7-4.2c2,0,2.9,1.3,2.9,4.2c0,13.4,0,26.7,0,40.1c0,0.7,0,1.3,0,2
				c0.2,0.1,0.3,0.2,0.5,0.4c0.2-0.4,0.3-0.7,0.5-1.1c3.1-4.3,6.9-7.8,11.6-10.4c1.2-0.6,1.2-1.5,1.2-2.6c0-21.8,0-43.6,0-65.3
				c0-3,0.5-3.6,3.7-4.3c-3.6-3.8-7-7.5-10.6-11.3c-3.5,3.8-7,7.4-10.3,11c1,0.6,2.3,1,2.8,1.8c0.6,0.8,0.6,2.1,0.6,3.2
				c0,7.5,0,15,0,22.5c0,0.7,0,1.5-0.2,2.2c-0.4,1.4-1.5,1.9-2.9,1.8c-1.3-0.1-2.1-0.9-2.4-2.2c-0.1-0.6-0.1-1.2-0.1-1.8
				c0-6.4,0-12.8,0-19.2c0-0.7,0-1.3,0-2.2c-1.7,0-3.1,0.2-4.6-0.1c-1-0.2-2-0.8-2.6-1.6c-0.8-1-0.3-2.2,0.5-3.2
				c5.7-6,11.3-12,17-18c1.4-1.4,2.9-1.4,4.3,0.1c5.6,5.9,11.3,11.9,16.8,17.9c0.6,0.7,0.9,2.3,0.6,3.1c-0.4,0.8-1.7,1.4-2.7,1.6
				c-1.3,0.3-2.8,0.1-4.3,0.1c0,21.2,0,42.1,0,62.9c4.7-0.5,9.5-0.9,14.5-1.4c0-12.2,0-24.8,0-37.6c-1.5,0-3,0.2-4.4-0.1
				c-1-0.2-2.3-0.8-2.6-1.6c-0.3-0.9-0.1-2.4,0.5-3.1c5.5-6,11.1-12,16.8-17.9c1.4-1.5,3.1-1.5,4.5,0c5.6,5.9,11.2,11.9,16.8,17.9
				c0.9,0.9,1.4,2.1,0.6,3.2c-0.6,0.8-1.8,1.4-2.8,1.6c-1.3,0.3-2.8,0.1-4.3,0.1c0,4.7,0,9.1,0,13.4c4.8-1.6,9.6-3.1,14.5-4.7
				c0-9.1,0-18.5,0-28.2c-1.6,0-3,0.2-4.5-0.1c-1-0.2-2.3-0.8-2.6-1.6c-0.3-0.9-0.1-2.4,0.5-3.1c5.6-6.1,11.2-12.1,16.9-18
				c1.3-1.4,3-1.4,4.4,0.1c5.6,5.9,11.3,11.9,16.8,17.9c0.6,0.7,0.9,2.3,0.6,3.1c-0.4,0.8-1.7,1.4-2.7,1.7c-1.3,0.3-2.8,0.1-4.3,0.1
				c0,0.7-0.1,1.2-0.1,1.8c0,10.2,0,20.3,0,30.5c0,0.7,0.5,1.7,1,2.1c5.3,3.4,9.7,7.6,13,12.9c0.1,0.1,0.2,0.3,0.5,0.7
				c0-7,0-13.7,0-20.5c-1.5,0-3,0.2-4.4-0.1c-0.9-0.2-2.2-0.8-2.5-1.6c-0.4-0.8-0.1-2.3,0.5-3c5.6-6.1,11.3-12.2,17-18.2
				c1.3-1.3,2.9-1.3,4.2,0c5.7,6,11.4,12.1,17,18.2c0.6,0.6,0.8,2.1,0.4,3c-0.3,0.7-1.5,1.4-2.4,1.6c-1.4,0.3-2.9,0.1-4.6,0.1
				c0,0.8-0.1,1.4-0.1,2.1c0,6,0,12.1,0,18.1c0,1.4-0.3,2.6-1.6,3.2c-1.9,0.9-3.9-0.5-3.9-2.9c0-6.1,0-12.2,0-18.3
				c0-1.2,0-2.5,0-3.7c0-3.1,0.5-3.6,3.6-4.3c-3.5-3.7-6.9-7.4-10.6-11.2c-3.5,3.8-7,7.4-10.6,11.2c3.3,0.9,3.6,1.3,3.6,4.7
				c0,11.7,0,23.4,0,35.1c0,0.7,0,1.3,0,1.8c4.7,0.7,9.2,1.4,13.9,2c0-1.8,0-3.6,0-5.5c0-2.1,1-3.2,2.7-3.2c1.7,0,2.8,1.2,2.8,3.2
				c0,2.3-0.1,4.7,0.1,7c0,0.6,0.5,1.5,1,1.8c12.5,7.2,19.8,17.8,21.6,32.1c0,0.2,0.2,0.4,0.3,0.7
				C3815.1,226.7,3815.1,229.2,3815.1,231.8z M3750.7,117.3c-3.7-3.9-7.1-7.6-10.7-11.3c-3.6,3.8-7.1,7.5-10.6,11.3
				c3.1,0.4,3.7,1.2,3.7,4.1c0,9.3,0,18.6,0,27.9c0,0.7,0,1.3,0,1.7c4.7,0.9,9.2,1.8,13.8,2.6c0-0.5,0-1.2,0-1.8
				c0-10.1,0-20.3,0-30.4C3746.9,118.5,3747.6,117.7,3750.7,117.3z M3689.8,136.7c3.2,0.7,3.6,1.2,3.6,4.6c0,12,0,24,0,36
				c0,1.1,0,2.3,0,3.4c0.4-0.2,0.5-0.4,0.6-0.7c2.3-7.6,6.5-13.9,12.4-19c0.5-0.5,0.9-1.5,0.9-2.2c0.1-5.8,0-11.6,0.1-17.3
				c0-1.1,0-2.4,0.6-3.2c0.6-0.8,1.8-1.1,2.9-1.7c-3.4-3.6-6.9-7.3-10.4-11C3696.7,129.3,3693.3,133,3689.8,136.7z"/>
			<path class="st4" d="M3772.8,226c0,10.1-8.2,18.3-18.3,18.3c-10,0-18.3-8.3-18.3-18.4c0-10.1,8.3-18.3,18.4-18.3
				C3764.7,207.7,3772.8,215.9,3772.8,226z M3754.5,213.3c-7,0-12.8,5.8-12.8,12.8c0,7,5.8,12.8,12.8,12.8c7,0,12.7-5.8,12.7-12.8
				C3767.2,218.9,3761.6,213.2,3754.5,213.3z"/>
			<path class="st4" d="M3697.5,207.7c3.6,0,6.9,1.3,9.8,3.4c1.6,1.1,2,2.8,1.1,4.1c-0.9,1.4-2.5,1.6-4.2,0.5
				c-2.5-1.7-5.1-2.8-8.1-2.2c-1.3,0.2-2.6,0.8-3.5,1.7c-1.9,1.7-1.2,4.4,1.1,5.4c2.7,1.1,5.4,2.1,8,3.3c1.3,0.6,2.7,1.2,3.9,2.1
				c3.3,2.4,5.1,5.5,4.2,9.7c-1.1,4.8-4.4,7.5-9,8.4c-5.8,1.2-10.9-0.6-15.2-4.6c-1.6-1.5-1.7-3.1-0.4-4.3c1.2-1.2,2.7-1.1,4.2,0.4
				c3,2.8,6.5,4,10.5,3.1c1.1-0.2,2.2-0.9,3-1.6c2.2-1.9,2.1-4.5-0.2-6.3c-1.3-0.9-2.8-1.5-4.2-2.2c-2.2-1-4.5-1.9-6.8-2.8
				c-6.4-2.7-7.6-10.7-2.3-15.2C3691.6,208.4,3694.5,207.7,3697.5,207.7z"/>
			<path class="st4" d="M3720.6,213.4c0,3.4,0,6.5,0,9.9c2.8,0,5.6,0,8.3,0c2.3,0,3.6,1,3.6,2.8c0,1.8-1.3,2.8-3.6,2.8
				c-2.7,0-5.4,0-8.2,0c0,3.3,0,6.4,0,9.7c0.7,0,1.4,0.1,2,0.1c2.6,0,5.3,0,7.9,0c1.7,0.1,2.9,1.3,2.9,2.8c0,1.4-1.1,2.7-2.7,2.7
				c-4.4,0.1-8.7,0.1-13.1,0c-1.7,0-2.6-1.1-2.7-2.7c0-0.5,0-1,0-1.5c0-9.3,0-18.6,0-27.9c0-3.6,0.7-4.3,4.3-4.3c3.6,0,7.1,0,10.7,0
				c2.2,0,3.4,1,3.5,2.7c0,1.8-1.3,2.8-3.5,2.8C3726.8,213.4,3723.8,213.4,3720.6,213.4z"/>
		</g>
	</g>
</g>
</svg>
