<?xml version="1.0" encoding="utf-8"?>
<!-- Generator: Adobe Illustrator 25.4.1, SVG Export Plug-In . SVG Version: 6.00 Build 0)  -->
<svg version="1.1" id="Layer_1" xmlns="http://www.w3.org/2000/svg" xmlns:xlink="http://www.w3.org/1999/xlink" x="0px" y="0px"
	 viewBox="0 0 1700 1080" style="enable-background:new 0 0 1700 1080;" xml:space="preserve">
<style type="text/css">
	.st0{fill:#F0E6DD;stroke:#00AEEF;stroke-miterlimit:10;}
	.st1{fill:#FFFFFF;stroke:#F7941D;stroke-width:3;stroke-miterlimit:10;}
	.st2{fill:#FE5244;}
	.st3{fill:#3FB1B5;stroke:#FFFFFF;stroke-width:2;stroke-miterlimit:10;}
	.st4{fill:#F0E6DD;}
	.st5{fill:#2F1508;}
	.st6{fill:#E57281;}
	.st7{fill:#CFD2D6;}
	.st8{fill:#D4CCA0;}
	.st9{fill:#BFC7D2;}
	.st10{fill:#E8AA67;}
	.st11{fill:#2F1508;stroke:#00AEEF;stroke-miterlimit:10;}
	.st12{fill:#A0505A;stroke:#3C2415;stroke-miterlimit:10;}
	.st13{fill:#F7F3EF;}
	.st14{fill:#FFFFFF;}
	.st15{fill:#F79184;}
	.st16{fill:#AF2F28;}
	.st17{fill:#DB7572;}
	.st18{fill:#F19289;}
	.st19{fill:#BB4C2D;}
	.st20{fill:#DB6A65;}
	.st21{fill:#8C3D2A;}
	.st22{fill:#A0505A;}
	.st23{fill:#FFFFFF;stroke:#00AEEF;stroke-miterlimit:10;}
	.st24{fill:#D1D3D4;}
	.st25{font-family:'MVBoli';}
	.st26{font-size:38.8719px;}
	.st27{fill:#ED1C24;}
	.st28{fill:#FFCF2D;}
	.st29{fill:#00A651;}
	.st30{fill:none;stroke:#FFFFFF;stroke-width:3;stroke-miterlimit:10;}
	.st31{fill:#FFCF2D;stroke:#FE5244;stroke-linejoin:round;stroke-miterlimit:10;}
</style>
<g>
	<g>
		<path class="st0" d="M1510,358.5c-4.4-2.5-3.4-6.7-3.4-10.5c-0.1-6.6,0.1-13.1,0.1-19.7c-9.4-0.1-18.9-0.2-28.1-4.2
			c9.3,0,18.6,0,27.9,0c0-20.5,0-40.9,0-61.4c-14.5-3.2-29.3-1-43.9-1.4c-21.2-0.5-21.2-0.1-21.2-21.8c0-21.3,0-42.6,0-63.9
			c0-12,1.4-13.3,13.8-13.4c3.9,0,7.9,0.4,11.8-0.1c9-1.2,15.2,2.2,19.2,10.2c4.3,8.6,11.4,11.2,20.5,8.9c0-8.2-0.4-16.3,0-24.5
			c0.3-6.5-2.1-8.4-8.5-8.3c-29.4,0.2-58.8,0-88.1,0c-27.8,45.9-23,90.5,7.6,136.3c-30.5-27.4-41.8-89.4-11.8-136.3
			c-218.9,0-437.8,0.1-656.8-0.1c-9.5,0-12.1,2.5-12,12c0.4,63.8,0.2,127.5,0.2,191.3c60.9,0,121.8,0,182.8,0.1
			c5.2,0,10.6-0.8,14.6,3.9c4.1,1.9,3.9,5.6,3.9,9.3c-0.1,54.9-0.1,109.7-0.2,164.6c15.9,18.7,31.9,37.4,47.8,56.1
			c2.3,2.7,5.4,4.9,6.1,8.7c1.7,2,3.4,3.9,5.1,5.9c38.2,0,76.4,0,114.6,0c-11.6-49.6,0.7-94.5,26.4-137.1
			c28-46.5,87-57.1,124.1-45.5c1.5,0.5,3.1,0.9,4.7,1.4c5.8-41.4,26.8-61.5,61.7-59.5c34.2,1.9,63,32.3,64.4,68
			c1.3,33.7-19.7,55-60,60.1c3.2,8.3,6.5,16.3,9.4,24.4c5.3,14.8,9.4,30,12,45.6c0.7,3.8,1.4,6.4,5.6,8.1c18.8,7.3,34,19.5,46.7,35
			c22.7-0.1,45.3-0.2,68-0.3c20-0.1,32.3-14.2,32-31.7c-0.8-63.4-0.4-126.8-0.2-190.2c0-5.3-3.2-11.9,4.2-15.7
			C1512.7,361.6,1511.3,359.3,1510,358.5z M1419.4,285.3c4.1,4.3,8.1,8.6,12.2,12.9C1424,297,1419.8,292.9,1419.4,285.3z
			 M1472.4,320.2c-0.7,1.9-2.6,2.2-4.1,1.7c-10-3.5-20.8-5.5-27-15.5c-3.2-0.1-6.4-0.2-7.4-5.1c4.4-0.5,5.9,2.3,7.6,4.9
			c9.9,3.6,18,11.9,29.5,11.3C1472.9,317.4,1472.9,318.9,1472.4,320.2z"/>
		<path class="st1" d="M165.3,785c8.6-32,19.4-63.2,29.8-94.6c23.3-70,46.8-139.8,76.8-207.3c9.3-20.9,17.8-42.7,34.8-59
			c38.8-37.1,85.2-44.9,136.1-34.2c7,1.5,13.9,3.9,20.8,5.9c0,3.7,0,7.4,0,11.1c-1,21.3,1.9,41.9,13.5,60.3
			c10.4,16.5,26.4,23.3,45.3,21.6c19.5-1.8,28.4-15.4,33.2-32.7c2-7.3,2.8-14.7,2.3-22.3c0.2-3.9,0.4-7.7,0.5-11.6
			c0.5-0.6,1-1.1,1.4-1.7c49.4,9.1,77.8,38.6,88.6,91.5c6.9,33.5,9.8,67.5,11.8,101.6c-24.9,3.2-49.8,6.5-74.6,9.7
			c6.5-18.6,13-37.1,19.3-55.7c0.8-2.5,4-6.4,0.3-7.8c-4.8-1.8-4.3,3.8-5.2,6.3c-6.9,19.1-13.5,38.3-20.1,57.5
			c-11.6,1.8-23.2,4-34.9,5.2c-17.8,1.9-35.4,6.3-53.5,5.7c2.3-4.5-1.4-7.5-3-10.8c-24.6-48.6-49.2-97.2-74-145.7
			c-1.6-3.1-2.5-9.8-6.9-7.4c-3.9,2.1,0.9,6.9,2.5,10.1c17.1,34.4,34.4,68.6,51.7,102.9c-36.5,17.3-73,34.6-109.5,52
			c-8.6-19.8-17.1-39.7-25.8-59.4c-0.9-2.1-1.3-6.2-4.8-4.9c-3.8,1.4-1.1,4.5-0.2,6.6c18.1,42.5,36.2,85,54.4,127.5
			c1.3,3.1,2.2,6.5,6.8,5c0.9,1.4,1.9,2.7,2.7,4.1c21.6,39.1,65.8,56,107.8,40.8c28-10.1,55.7-21,83.6-31.3
			c28.6-10.6,57.2-21,85.8-31.5c1.4,8.5,0,15.3-10.1,16.9c-31,9.6-62,19-92.3,30.5c-10.9,0.9-18.2,5.8-19.9,17.4
			c-0.6,4.1-2.5,8.1-3.9,12.1c-12.4,37.2-24.8,74.4-37.2,111.6c-81.3-23.5-162.5-47.1-243.8-70.6C225.2,802,195.2,793.5,165.3,785z"
			/>
		<path class="st2" d="M1394.4,768c1.2,15.3,5.7,30.1,6.3,45.5c0.3,9.7,2.6,19.4,3,29.1c1,22.5,1.8,45.1,2.1,67.7
			c0.3,24.2,2.3,48.3,4.1,72.4c-2.9,3.2-6.8,1.9-10.2,1.9c-25.6,0.1-51.2,0.2-76.8,0c-5.3,0-8.9,1.3-12.5,5.6
			c-19.4,22.7-44.6,34.1-74.3,33.8c-28.5-0.3-51.5-13.5-70.3-34.2c-3.5-3.8-6.9-5.2-11.8-5.2c-13.5,0.2-26.9-0.1-40.4-0.2
			c1.1-1.2,2.5-2.2,3.3-3.6c4.2-7.4,4.1-15.2,0.6-22.6c-3.1-6.6-9.7-5.5-15.6-5.6c-3.9-0.1-7.8-0.3-11.8-0.5
			c-1.2-11.5-2.4-23.1-3.6-34.6c23.4,20.7,46.7,41.3,70.1,61.9c2,1.8,4.4,5.9,7.1,3.2c3-3-1.5-4.9-3.4-6.6
			c-27.8-25.1-55.8-50-83.7-75c-2.2-2-4.4-4.1-7.8-3c-6.4,2.5-12.9,4.7-19.1,7.5c-24,10.8-48.7,2.4-60.9-21
			c-2.7-5.2-4.8-10.8-7.1-16.2c17-0.1,34-0.1,51-0.2c1.8,0,4.3,0.7,5.2-1.5c0.9-2.2-1.3-3.5-2.6-4.8c-7.1-7.2-14-14.7-21.7-21.3
			c-6.2-5.2-5.8-9,0.2-13.5c1.3-1,2.2-2.3,3.3-3.5c10.9-10.7,22-21.3,32.6-32.3c4.7-4.8,10.9-8.4,13.1-15.3
			c3.2-3.3,6.1-4.6,10.5-1.1c4.4,3.5,9.8,5.8,14.8,8.7c0.3,0.1,0.5,0.3,0.8,0.4c-0.3-0.1-0.6-0.2-0.9-0.3c0.9-4.8-1.4-9-2.8-13.3
			c-5.8-17-12.8-33.6-17-51.2c22.5-26.3,48.6-47.7,81.4-59.9c10.6-3.4,21.7-3.6,32.6-5.1c6.1-0.8,9.5,0.3,8.3,7.3
			c-0.3,1.9,0.1,3.9,0.1,5.8c-4.7,15.2,1.8,25.3,14.6,32.7c-10.9,7.3-21.9,14.4-32.5,22.1c-6.9,5.1-11.4,11.7-8.3,21.1
			c3.1,9.5,11.8,16.6,20.8,16.8c10,0.2,15.7-5.4,19-14.1c3.5-9.1,7.1-18.3,10.6-27.4c0.2,24.3-4.8,48-4.3,71.9
			c1.3,0.1,2.7,0.2,4,0.3c2.1-22,4.1-43.9,6.4-68.2c4.5,24.2,4.9,46.5,11.3,68c2.7-20.3-4-40-3.3-60.2c2.4,5.7,3.8,11.7,6.1,17.3
			c3.2,8,9.1,12.3,18.1,12.6c8.7,0.3,13.5-4.4,16.8-11.2c3.8-7.9,1.1-14.6-5-20.3c-8.3-7.9-16.7-15.7-25-23.5
			c4.5-0.8,9.1-1.3,13.5-2.4c20.6-5.3,34.5-22,34.3-40.9c6.9,1.9,13.9,3.6,20.7,5.9c35.7,11.9,62.8,33.1,75.4,70
			c1,3,2.7,5.8,4.1,8.8c1.9,7.1,3.8,14.1,5.6,21.2L1394.4,768z M1281.6,785.8c0.2-1.6,0.1-3.3-1.3-3.5c-3.5-0.4-4,2.8-5.1,5
			c-12.9,24.3-26.1,48.6-38.4,73.2c-3.6,7.2-6.4,7.5-12.8,3.6c-39.1-23.5-78.5-46.6-117.8-69.7c-2.2-1.3-5.3-5.1-7.4-1.4
			c-2,3.4,2.7,4.6,5,6c40.9,24.3,82,48.3,122.8,72.8c6.9,4.1,9.3,1.9,12.5-4.2c13.1-25.4,26.5-50.5,39.9-75.7
			C1279.8,789.7,1280.8,787.6,1281.6,785.8z M1371.6,867c-3.8,0.3-4.2,3.7-5.5,6.1c-12.8,25.5-25.5,51-38.3,76.4
			c-0.7,1.5-1.6,2.9-2.2,4.4c-0.5,1.2-0.6,2.6,0.8,3.4c1.4,0.8,2.6,0.3,3.4-0.8c1-1.3,1.7-2.8,2.4-4.2
			c12.9-25.8,25.8-51.6,38.6-77.4C1372.1,872.5,1374.4,870,1371.6,867z"/>
		<path class="st0" d="M1406,146.6c-218.5,0-437.1,0-655.6,0c-13.1,0-13.1,0-13.1-13.4c0-24.6-0.1-49.3,0-73.9
			c0.1-16.5,10.6-27.1,26.8-27.1c237.9,0,475.8,0,713.8,0c18.7,0,28.6,9.8,28.6,28.3c0,10.8,0.1,21.7,0.2,32.5
			c-4.6,0.1-9.1-0.1-13.7,0.4c-22.5,2.4-42.9,9.7-59.6,25.5C1420.9,124.7,1414.6,136.9,1406,146.6z M782.7,77.6
			c4.1-1.1,7.8,3.5,12.9,0.6c-4.7-2.3-8.6-4.4-13-0.7c-1.4,0.3-2.8,0.6-4.3,0.9c0.2,0.3,0.3,0.7,0.5,0.7
			C780.5,79.7,781.8,79,782.7,77.6z M869.5,77.6c4,0.5,8.1,0.9,13.8,1.6c-5.4-4.9-9.5-4.5-13.9-1.7c-0.9,0.3-1.7,0.5-2.6,0.8
			c0.2,0.2,0.5,0.7,0.5,0.7C868.1,78.6,868.8,78.1,869.5,77.6z M883.2,105.1c-4.7,0-9.4,0-14.1,0c0.1,1.1,0.2,2.1,0.3,3.2
			c4.8,0.5,10,3.2,13.9-3.1c0.1-0.3,0.3-0.6,0.4-0.9C883.5,104.6,883.4,104.8,883.2,105.1z M843.8,101.2c6.8-5.7,4.8-12.4,1.4-18.5
			c-4.2-7.4-11.6-8.5-19-6.7c-7.9,1.8-11.9,7.5-12,15.8c-0.2,8.7,3.6,15,12,16.8C833,110,840.9,110.6,843.8,101.2L843.8,101.2z
			 M863.1,83.4c-7.8,7.7-7.5,12.4,2.5,20.5C861.3,96.1,860.4,90,863.1,83.4z M774.5,81.8c-7.2,10.2-6.9,14.7,1.4,20.2
			C770.7,95.9,773.6,89.4,774.5,81.8z M799.5,101.5c5.2-6.2,5.6-12.5-0.5-18.5C801.4,89.2,800.5,95.3,799.5,101.5z M888.6,100
			c3.8-9.7,3.5-12.9-3.5-17.6C890.3,89.1,889.2,94.5,888.6,100z M792.7,106.5c-6.5-1.6-6.5-1.6-12.3,0.5
			C786.9,109.6,786.9,109.6,792.7,106.5z"/>
		<path class="st3" d="M165.3,785c29.9,8.6,59.9,17,89.8,25.7c81.3,23.5,162.5,47,243.8,70.6c-2.1,33.8-4.2,67.7-6.3,101.5
			c-3,3.3-1.7,7.4-1.7,11.2c-0.3,16.8-1.7,33.5-3.9,50.1c-59.5,0-118.9-0.1-178.4,0.2c-7.4,0-9.5-2.2-9.4-9.5
			c0.4-31.7,0.2-63.4-1.7-95.6c-4,10.5-8.1,21-12,31.6c-8.5,23.1-17.2,46.1-25.4,69.2c-2,5.7-4.8,8-11.3,8
			c-58.5-0.3-117-0.2-175.4-0.1c-5.9,0-9.1,0.2-6.1-7.8c31.7-83,63-166.1,94.5-249.1C162.6,788.7,164.1,786.9,165.3,785z"/>
		<path class="st4" d="M487,1044c2.2-16.6,3.6-33.3,3.9-50.1c0.1-3.7-1.3-7.8,1.7-11.2c42.1,0,84.1,0,126.2-0.1
			c3,3,6.8,1.8,10.3,1.9c37.7,1,75.5-1.4,113.2,1.7c4.9,0.4,10.5,2,15.1-1.8c1.2,0.2,2.4,0.5,3.6,0.7c0.5,0.9,1.2,1.2,1.9,0.3
			c1.4-0.1,2.7-0.2,4.1-0.3c8.7,2.3,17.5,2,26.3,0.3c103.2-0.1,206.4-0.1,309.6-0.2c3.6,0,7.2-0.6,10.8-0.9
			c13.5,0.1,26.9,0.4,40.4,0.2c5-0.1,8.3,1.3,11.8,5.2c18.8,20.7,41.7,33.9,70.3,34.2c29.8,0.3,54.9-11.1,74.3-33.8
			c3.7-4.3,7.3-5.6,12.5-5.6c25.6,0.2,51.2,0.1,76.8,0c3.5,0,7.3,1.3,10.2-1.9c25,0,50,0,74.9,0.1c8.8,0,15.3,5.5,15.4,14.2
			c0.2,12.7,1.2,25.5-1.6,38.2c-1.3,5.8-4.1,8.7-9.9,8.7c-3.3,0-6.6,0-9.9,0c-325.7,0-651.5,0-977.2,0
			C496.8,1043.9,491.9,1043.9,487,1044z"/>
		<path class="st5" d="M1190.9,667.3c-0.1-1.9-0.5-3.9-0.1-5.8c1.2-7-2.2-8.1-8.3-7.3c-10.9,1.5-22,1.6-32.6,5.1
			c-15.6-17.8-29.6-36.6-38-59c-11.6-49.6,0.7-94.5,26.4-137.1c28-46.5,87-57.1,124.1-45.5c1.5,0.5,3.1,0.9,4.7,1.4
			c5.8-41.4,26.8-61.5,61.7-59.5c34.2,1.9,63,32.3,64.4,68c1.3,33.7-19.7,55-60,60.1c3.2,8.3,6.5,16.3,9.4,24.4
			c5.3,14.8,9.4,30,12,45.6c0.7,3.8,1.4,6.4,5.6,8.1c18.8,7.3,34,19.5,46.7,35c32.3,51.1,25.8,102.2-18.6,145.9
			c-1.4-2.9-3.1-5.7-4.1-8.8c-12.5-36.9-39.7-58.1-75.4-70c-6.8-2.3-13.8-3.9-20.7-5.9c-1.6-13.5-3.2-27-4.8-40.4
			c13.4-4.7,17.3-11.2,14.7-24.9c6.8-4.3,12.5-9.9,15.2-17.5c4.3-12,4.1-24-3.6-34.7c-7.7-10.8-19.2-10-30.4-8.5
			c-4.2,0.6-8.3,1.9-12.3,3.5c-4.8,1.9-9.3,1.8-14.3,0.4c-27.2-7.5-49.1-23-67.5-43.9c-9.7-11-17.9-22.9-24.2-37.6
			c-3.6,10.2-6.8,18.4-9.5,26.9c-8.6,26.8-20.6,52.6-26.4,80.3c-6.2,29.9,7.9,57,34.6,67.6c16.1,6.4,31.7,5.4,47.6-1.9
			c9.8-4.5,20-9,31.6-9.8C1223.7,637.7,1207.7,652.9,1190.9,667.3z"/>
		<path class="st6" d="M352.2,635.7c36.5-17.3,73-34.6,109.5-52c7.7,14.7,15.3,29.4,23,44c1.5,2.9,1.7,7.5,6.8,6.9
			c18.1,0.6,35.7-3.8,53.5-5.7c11.7-1.2,23.3-3.4,34.9-5.2c1.9-0.1,3.8-0.3,5.8-0.4c24.9-3.2,49.8-6.5,74.6-9.7
			c17,0.2,31.6-7,46-14.9c11.1-6.1,23.5-10,33.7-17.9c4.5,0,7.9-3,11.8-4.5c1.7-0.7,3.6-2.4,5,0.2c0.9,1.7-0.5,3-1.8,4.1
			c-1.6,1.2-3.3,2.3-4.5,3.8c-2.2,2.9-8.5,3.7-6.4,8.5c1.9,4.3,7.2,3.6,11.5,3.6c18-0.1,36-0.1,54,0c3.3,0,7.6-1.6,8.7,3.7
			c-15.8,6.7-33.2,8.3-47.6,13.8c13.4,0,28.1,0,42.8,0c2.4,0,6.1-1.3,6.6,2.3c0.5,3.5-3.4,3.2-5.7,3.9c-6,1.4-12,2.8-20.3,4.7
			c8.7,1.8,14.5-0.4,20.4-1.9c3.5,0.6,7.7,0.4,6.9,6c-17.3,1.8-33.9,7.2-50.8,10.6c-2.2,0.4-5.5,0.7-5,3.5c0.6,3.9,4.1,2.2,6.4,1.7
			c16.6-3.8,33.1-7.7,49.7-11.6c1.2,5.8-3.4,6.2-7,7.4c-20.8,6.9-41.7,13.6-62.5,20.7c-30,10.3-60.8,18.2-89.8,31.4
			c-28.6,10.5-57.2,20.9-85.8,31.5c-27.9,10.4-55.6,21.2-83.6,31.3c-42,15.2-86.2-1.7-107.8-40.8c-0.8-1.4-1.8-2.7-2.7-4.1
			c0.2-3.8-1.9-6.8-3.3-10.1C370.2,678.8,361.2,657.3,352.2,635.7z"/>
		<path class="st5" d="M475.7,362.8c-9.5,0.9-19,1.6-28.5,0.1c-23.7-3.7-38.7-17.5-46.2-40.1c-7.9-24.1-7.2-47,11.2-65.9
			c6.9-7.1,7.9-13,6.5-22.1c-3.4-22.8,0.9-43.7,18.9-60.2c14.5-13.2,31.4-17.6,50.1-13.3c6.2,1.4,9.4,0,13.5-4
			c29.3-28.5,97.8-34.2,127.7,9.4c2,2.9,4.5,4.5,7.7,5.5c62.8,19.1,66,88.5,30.5,125.6c-5.9,6.2-12.1,12-19,17
			c-2.2-1.7-1.6-4.1-1.8-6.3c-2.5-25.4-5.3-50.9-7.3-76.3c-0.5-6.4-2.9-8.9-8.7-10.7c-38.7-12.3-83.5,6.3-103.2,43.2
			c-2.7,5.1-5,10.5-7.5,15.8c-5.2-2.7-10.2-5.7-15.5-8c-23.9-10.5-43.2,2.2-43.4,28.3c-0.1,14.9,8.1,25.1,19.1,33.8
			c2.8,2.2,6.5,3.8,4.3,8.5C481.1,349.5,480.1,356.9,475.7,362.8z"/>
		<path class="st4" d="M818.3,600.2c-1.1-5.4-5.5-3.7-8.7-3.7c-18-0.1-36-0.1-54,0c-4.3,0-9.5,0.7-11.5-3.6
			c-2.2-4.9,4.2-5.7,6.4-8.5c1.2-1.5,2.9-2.6,4.5-3.8c1.4-1.1,2.7-2.4,1.8-4.1c-1.3-2.6-3.3-0.9-5-0.2c-3.9,1.5-7.3,4.5-11.8,4.5
			c-4.1-2.5-2.1-6.7-2.7-10.1c57.9,0,115.9,0,173.8,0c-0.1,0.7-0.1,1.5-0.2,2.2c-2.3,0.9-3,2.7-2.9,5c-5.7,6.4-6.2,14.4-6.8,22.3
			C873.5,600.1,845.9,600.2,818.3,600.2z"/>
		<path class="st5" d="M1595.1,737c-9-0.9-16.8-5.3-25-8.3c-6-2.2-5.2-6.1-1.5-9.8c16.8-17,33.7-34,50.6-50.9
			c5.7-5.7,8.8-2.7,9.4,3.7c2,24.2,3.6,48.4,5.3,72.6c0.2,2.7-0.4,5.2-3.8,5.9c-5.1,1.1-24.8-8.8-27.3-13.9
			c4.3-12.4,8.6-24.7,12.9-37.1c-0.7-0.3-1.5-0.6-2.2-0.9c-4.2,10.6-8.4,21.2-12.5,31.9C1599.7,733.2,1599.2,736.6,1595.1,737z"/>
		<path class="st7" d="M737.3,351.6c60.9,0,121.8,0,182.8,0.1c5.2,0,10.6-0.8,14.6,3.9c0,0-0.1,0.1-0.1,0.1
			c-65.8,0-131.5,0.1-197.3,0.1c-16.3,0-32.6,0-49,0l-0.4-0.3c2.4-4.3,6.5-3.7,10.4-3.7C711.2,351.7,724.2,351.7,737.3,351.6z"/>
		<path class="st5" d="M558.4,422.2c-12.9-19.8-25.8-39.6-38.6-59.5c0.6-0.6,1.2-1.2,1.9-1.7c14.5,10.8,30.3,19.7,43.9,31.8
			c-2.7,9.1-4.6,18.3-5.7,27.7C559.4,421.1,558.9,421.7,558.4,422.2z"/>
		<path class="st7" d="M911,570.6c-57.9,0-115.8,0-173.8,0c-12.3,0-24.6-0.1-36.9-0.1c-4.6,0-9.1-0.1-12.6-3.6c0,0,0.5-0.4,0.5-0.4
			c25,0,50,0.1,75,0.1c50,0.1,100.1,0.2,150.1,0.3C912.5,568.1,911.7,569.3,911,570.6z"/>
		<path class="st7" d="M687.7,566.9c-4.1-2.5-3.6-6.6-3.6-10.5c0-63.5,0-127,0-190.5c0-3.9-0.6-8,3.8-10.4c0,0,0.4,0.3,0.4,0.3
			c-0.1,32.3-0.1,64.6-0.2,96.9c0.1,37.9,0.1,75.8,0.2,113.7L687.7,566.9z"/>
		<path class="st7" d="M1406,146.6c8.7-9.7,14.9-21.9,27.4-27.7c0,0,0.3,0.3,0.3,0.3c-4.8,11.1-17.1,16.3-21.8,27.4
			c-0.6,0.6-1.2,1.3-1.8,1.9c-27.8,45.9-23.1,90.5,7.6,136.3c-30.5-27.4-41.8-89.4-11.8-136.3C1405.9,147.8,1406,147.2,1406,146.6z"
			/>
		<path class="st7" d="M1433.4,118.8c16.8-15.8,37.1-23.1,59.6-25.5c4.5-0.5,9.1-0.3,13.7-0.4c18.4-0.7,35.7,3.6,52,11.8
			c2.8,1.4,6.4,2.1,7.3,6c0,0-0.5,0.6-0.5,0.6c-18.5-9.2-37.9-15.2-58.8-15.7c-22.4,1.1-43.7,5.9-62.6,18.9
			c-3.1,2.1-6.1,5.2-10.5,4.6L1433.4,118.8z"/>
		<path class="st7" d="M1603.6,146.2c11.3,11.4,15.2,26.3,18.5,41c6.3,27.5,1.3,53.6-11.5,78.5c-1.2,2.3-2,5-5.1,5.4
			c0,0-0.6-0.5-0.6-0.5c0.8-2.1,1.5-4.3,2.5-6.3c11.7-23,16-47,11.9-72.9c-2.6-16.2-10.3-30-16.4-44.7L1603.6,146.2z"/>
		<path class="st7" d="M1506.6,328.3c-9.4-0.1-18.9-0.2-28.1-4.2c9.3,0,18.6,0,27.9,0c19.7,2.1,37.4-5.2,55.1-12.1l0.5,0.6
			c-3.7,6.9-11.3,7-17.3,9.3C1532.6,326.6,1519.8,328.9,1506.6,328.3z"/>
		<path class="st8" d="M1595.1,737c4-0.4,4.6-3.8,5.8-6.7c4.1-10.7,8.3-21.3,12.5-31.9c0.7,0.3,1.5,0.6,2.2,0.9
			c-4.3,12.4-8.6,24.7-12.9,37.1c-2.4,2.1-4.7,4.3-7.3,6.6C1593.3,741,1595.7,738.9,1595.1,737z"/>
		<path class="st7" d="M1581.6,120.7c6.4,2.8,11.1,7.4,13.8,13.8c0,0-0.5,0.6-0.5,0.6c-6.3-2.9-10.9-7.5-13.9-13.8L1581.6,120.7z"/>
		<path class="st7" d="M1566,110.7c5.1,0.8,10,2,11.9,7.8c0,0-0.6,0.7-0.6,0.7c-4.6-1.6-8.6-4.2-11.8-7.9L1566,110.7z"/>
		<path class="st7" d="M1601.5,277.1c-0.1,5.7-4.1,8.7-8.1,11.7l-0.5-0.5c1.2-4.9,3.8-8.8,8-11.7L1601.5,277.1z"/>
		<path class="st7" d="M1571.9,306.7c-1.7,4.7-5.7,5.4-9.9,5.9c0,0-0.5-0.6-0.5-0.6c2.3-3.6,6-4.9,9.8-6L1571.9,306.7z"/>
		<path class="st7" d="M1597.4,136.5c3.6,2.2,6,5.2,6.2,9.7c0,0-0.7,0.6-0.7,0.6c-3.5-2.4-6-5.3-6-9.8L1597.4,136.5z"/>
		<path class="st7" d="M1579.8,300.8c-0.8,4.4-4,5.6-7.9,5.9c0,0-0.6-0.7-0.5-0.7c2-2.9,4.3-5.3,7.9-5.9L1579.8,300.8z"/>
		<path class="st7" d="M1605.5,271.2c-0.2,2.7-0.6,5.4-4,5.9c0,0-0.6-0.5-0.6-0.5c0.3-2.6,1.6-4.6,3.9-5.9L1605.5,271.2z"/>
		<path class="st7" d="M1583.7,296.7c-0.1,2.5-1.6,3.7-3.8,4.1c0,0-0.5-0.6-0.5-0.6c1.4-1.3,2.7-2.5,4.1-3.8L1583.7,296.7z"/>
		<path class="st7" d="M1577.9,118.5c1.3,0.7,2.5,1.4,3.8,2.2c0,0-0.6,0.6-0.6,0.6c-1.3-0.7-2.5-1.4-3.8-2.1
			C1577.3,119.2,1577.9,118.5,1577.9,118.5z"/>
		<path class="st7" d="M1587.6,294.7c-0.9,1.5-2.3,1.9-3.9,2c0,0-0.3-0.4-0.3-0.4c1.2-0.7,2.5-1.5,3.7-2.3L1587.6,294.7z"/>
		<path class="st7" d="M1589.6,292.7c-0.7,0.7-1.3,1.3-2,2c0,0-0.5-0.6-0.5-0.6c0.7-0.6,1.3-1.3,2-1.9L1589.6,292.7z"/>
		<path class="st9" d="M1393.8,767.5c0.4-0.2,0.8-0.4,1.1-0.6c-0.2,0.4-0.4,0.8-0.6,1.2C1394.4,768,1393.8,767.5,1393.8,767.5z"/>
		<path class="st7" d="M1591.5,290.7c-0.7,0.7-1.3,1.3-2,2c0,0-0.5-0.5-0.5-0.5c0.7-0.7,1.3-1.3,2-2
			C1591,290.2,1591.5,290.7,1591.5,290.7z"/>
		<path class="st7" d="M1595.5,134.5c0.6,0.7,1.3,1.3,1.9,2c0,0-0.5,0.4-0.5,0.4c-0.7-0.6-1.3-1.2-2-1.8
			C1594.9,135.1,1595.5,134.5,1595.5,134.5z"/>
		<path class="st7" d="M1593.5,288.8c-0.7,0.7-1.3,1.3-2,2c0,0-0.5-0.5-0.5-0.5c0.6-0.7,1.3-1.3,1.9-2
			C1592.9,288.3,1593.5,288.8,1593.5,288.8z"/>
		<path class="st10" d="M1559,254.6c-1.3,7.2-7,7.7-12.6,7.8c-13.3,0.2-26.6,0.2-39.9,0.3c-14.5-3.2-29.3-1-43.9-1.4
			c-21.2-0.5-21.2-0.1-21.2-21.8c0-21.3,0-42.6,0-63.9c0-12,1.4-13.3,13.8-13.4c3.9,0,7.9,0.4,11.8-0.1c9-1.2,15.2,2.2,19.2,10.2
			c4.3,8.6,11.4,11.2,20.5,8.9c13.1,0.2,26.2,0.5,39.3,0.4c5.4,0,9.8,0.9,11.9,6.5c0,3.9-0.1,7.8,0,11.8
			C1558.4,218.2,1556.2,236.4,1559,254.6z"/>
		<path class="st11" d="M1073.9,316.5c-0.8,14.1-1.6,28.2-2.4,42.2c-0.2,3.4-0.6,6.7-4,8.4c-3.7,1.8-6.2-0.7-8.7-2.8
			c-1.5-1.2-3.2-2.3-4.6-3.7c-5.9-6.1-10.5-4.5-15.2,1.8c-6.3,8.4-13.5,16.1-19.8,24.4c-4.7,6.2-8.8,7.6-15.2,1.9
			c-11.1-9.7-22.5-19.2-34.2-28.1c-7.2-5.4-6.6-10-1.1-16.1c7-7.8,13.1-16.4,20.2-24.1c5.8-6.2,4.8-10.8-1.8-15.1
			c-1.4-0.9-2.6-2-3.8-3.1c-2.6-2.4-6.1-4.2-5.3-8.7c0.9-4.5,4.7-4.9,8.2-5.9c25.5-7.4,50.9-14.8,76.4-22.1
			c10-2.9,12.6-0.8,12.1,9.5c-0.6,13.8-1.5,27.5-2.3,41.3C1072.9,316.4,1073.4,316.5,1073.9,316.5z"/>
		<path class="st12" d="M911,570.6c0.8-1.2,1.5-2.5,2.3-3.7c1.3-1.4,2.5-2.8,3.8-4.2c5.9,6.2,11.7,12.4,17.6,18.5
			c1.7,1.7,3.7,5,6.4,2.4c2.3-2.2-0.9-4-2.3-5.5c-6.3-6.7-12.8-13.2-19.2-19.7c4.2-6,3.9-11.4-0.2-17.8c-6.6-10.5-12.1-21.6-18-32.5
			c-2-3.7-3.1-7.4,1.2-10.3c4.3-2.9,7.3-0.3,10,2.8c6.7,7.6,13.3,15.2,20,22.8c1.9,2,3.8,4.1,5.6,6.1c15.9,18.7,31.9,37.4,47.8,56.1
			c2.3,2.7,5.4,4.9,6.1,8.7c-26.7,11.8-53.4,23.6-80.1,35.4c-2.5,0-5,0-7.5,0c-0.1-10-4.9-19.4-3.5-29.6c0.7-7.9,1.1-15.9,6.8-22.3
			c8.7,4.8,13.2,15.4,23.2,18.5c0.7-0.8,1.3-1.5,2-2.3c-7.4-7.1-14.9-14.1-22.3-21.2C910.9,572,910.9,571.3,911,570.6z"/>
		<path class="st9" d="M912.1,629.7c26.7-11.8,53.4-23.6,80.1-35.4c1.7,2,3.4,3.9,5.1,5.9c2.4,10.6,8.6,19.6,12.1,29.7
			C976.9,629.8,944.5,629.7,912.1,629.7z"/>
		<path class="st7" d="M938.3,529.4c-1.9-2-3.8-4.1-5.6-6.1c2.7-2.3,1.8-5.4,1.8-8.2c0-13.7,0-27.4-0.1-41.1
			c0-39.4,0-78.9,0.1-118.3c0,0,0.1-0.1,0.1-0.1c4.1,1.9,3.9,5.6,3.9,9.3C938.4,419.7,938.3,474.6,938.3,529.4z"/>
		<path class="st7" d="M1441.5,306.2c9.9,3.6,18,11.9,29.5,11.3c1.9-0.1,1.9,1.4,1.4,2.7c-0.7,1.9-2.6,2.2-4.1,1.7
			c-10-3.5-20.8-5.5-27-15.5L1441.5,306.2z"/>
		<path class="st7" d="M1419.4,285.3c4.1,4.3,8.1,8.6,12.2,12.9C1424,297,1419.8,292.9,1419.4,285.3z"/>
		<path class="st7" d="M1441.3,306.4c-3.2-0.1-6.4-0.2-7.4-5.1c4.4-0.5,5.9,2.3,7.6,4.9C1441.5,306.2,1441.3,306.4,1441.3,306.4z"/>
		<path class="st6" d="M652.2,709.5c4.2,45.6,8.3,91.2,12.5,136.8c2.5,27,5.1,54,7.5,81.1c0.3,3.6,1.2,6.4,4.8,7.6
			c14.2,4.8,27.8,11.5,42.6,14.5c15.8,8.2,33.2,12.5,49.5,19.4c0,0.9-0.1,1.8-0.1,2.8c-9.1-2.6-18.2-5.1-27.3-7.7
			c-2.1-0.6-4.9-2.2-5.7,1c-0.7,3,2.6,3.2,4.6,3.8c5.3,1.6,10.8,2.7,16,4.6c12,4.4,25.3,5.2,36.5,12.1c-8.8,1.7-17.6,2-26.3-0.3
			c1-4.9-3-5.2-5.9-6c-13.4-4-26.9-7.8-40.4-11.5c-2.3-0.6-5.7-2.5-6.7,0.9c-1,3.5,3.1,3.5,5.3,4.2c12.6,4.2,25.9,6.4,38.1,11.7
			c-4.6,3.9-10.2,2.2-15.1,1.8c-37.7-3.1-75.4-0.7-113.2-1.7c-3.5-0.1-7.3,1.1-10.3-1.9c-5.2-21-10.5-42-15.6-63
			c-14.5-59.9-28.9-119.8-43.3-179.7C590.2,728.5,621.2,719.1,652.2,709.5z"/>
		<path class="st13" d="M463.5,406.9c9.7,36,41.8,43.4,66.9,43.1c11.8-0.1,21.4-5.6,27.5-16.2c0.5,7.6-0.3,15-2.3,22.3
			c-4.8,17.3-13.8,30.9-33.2,32.7c-19,1.7-34.9-5.2-45.3-21.6C465.4,448.9,462.5,428.3,463.5,406.9z"/>
		<path class="st14" d="M491.5,634.6c-5.1,0.6-5.3-4-6.8-6.9c-7.8-14.6-15.4-29.3-23-44c-17.3-34.3-34.6-68.6-51.7-102.9
			c-1.6-3.2-6.3-8-2.5-10.1c4.4-2.4,5.3,4.2,6.9,7.4c24.8,48.5,49.5,97.1,74,145.7C490.1,627.1,493.7,630.1,491.5,634.6z"/>
		<path class="st14" d="M352.2,635.7c9,21.6,18,43.2,27,64.8c1.4,3.3,3.5,6.3,3.3,10.1c-4.6,1.5-5.5-2-6.8-5
			c-18.1-42.5-36.3-85-54.4-127.5c-0.9-2.1-3.6-5.2,0.2-6.6c3.5-1.3,3.9,2.8,4.8,4.9C335,596,343.6,615.8,352.2,635.7z"/>
		<path class="st14" d="M585.7,623.3c-1.9,0.1-3.8,0.3-5.8,0.4c6.7-19.2,13.2-38.4,20.1-57.5c0.9-2.6,0.5-8.1,5.2-6.3
			c3.8,1.4,0.6,5.3-0.3,7.8C598.7,586.2,592.1,604.8,585.7,623.3z"/>
		<path class="st5" d="M769.2,968.9c-16.4-6.9-33.7-11.2-49.5-19.4c-17.5-45.2-34.9-90.4-52.4-135.5c-6.4-16.5-2.3-22.3,15.7-22.3
			c75.9,0,151.7,0.2,227.6-0.2c10.9-0.1,17.7,3.1,20.4,13.8c6.6,18.7,12.1,37.7,21.2,55.4l-0.1-0.1c8.6,30.2,21,59.1,31.4,88.7
			c1.2,3.4,3.5,3.3,6.2,3.3c33.5-0.2,67-0.3,100.5-0.5c3.9,0.2,7.8,0.4,11.8,0.5c5.9,0.1,12.5-1,15.6,5.6c3.5,7.4,3.6,15.2-0.6,22.6
			c-0.8,1.4-2.2,2.4-3.3,3.6c-3.6,0.3-7.2,0.9-10.8,0.9c-103.2,0.1-206.4,0.1-309.6,0.2c-11.2-7-24.5-7.7-36.5-12.1
			c-5.2-1.9-10.7-3-16-4.6c-2-0.6-5.3-0.8-4.6-3.8c0.8-3.2,3.6-1.6,5.7-1c9.1,2.5,18.2,5.1,27.3,7.7c5.9,3.4,12.5,4.1,19,5.4
			C782.7,972.1,776,970.4,769.2,968.9z M836.3,886.9c0.1-11.3-8.4-20.2-19.5-20.5c-11.1-0.3-20.6,9.2-20.5,20.6
			c0.1,11,9.2,19.9,20.1,19.9C827.5,906.9,836.3,898.1,836.3,886.9z"/>
		<path class="st15" d="M933.7,805.3c-17.5-50-34.9-100.1-52.4-150.1c-1.1-3.1-2.4-6.1-3.3-9.3c-2.9-10.6,0.7-15.5,11.8-15.9
			c4.9-0.2,9.8-0.3,14.7-0.4c2.5,0,5,0,7.5,0c32.4,0,64.9,0.1,97.3,0.1c3.3,0.1,6.5,0.2,9.8,0.3c13.6,0.2,17.9,3.2,22.3,15.9
			c7.6,21.5,15.2,43,22.8,64.5c1.1,3.1,1.7,6.3,4.1,8.7c4.3,17.5,11.2,34.2,17,51.2c1.5,4.3,3.8,8.5,2.8,13.3l0.1-0.1
			c-5-2.8-10.4-5.2-14.8-8.7c-4.4-3.5-7.3-2.2-10.5,1.1c-1.2-2.3-2.6-4.6-3.7-6.9c-8.2-17.9-16.2-35.8-24.4-53.7
			c-1.4-3.1-1.8-8.5-6.2-7.6c-5.6,1.1-1.2,5.9-1.7,9c-0.6,4.7,3,9.1,1.2,15c-23.1-18.8-45.4-36.9-67.8-55c-2.4-1.9-5.5-5.6-8.4-2.7
			c-3.1,3,1,5.8,2.7,8.3c8.3,11.5,16.7,23,25.6,35.3c-5.5,0.2-7.9-2.8-10.7-4.7c-12.1-7.9-24-16-36-24.1c-2.5-1.7-5.5-3.8-7.8-1
			c-2.1,2.6,1.4,4.6,2.7,6.6c1.6,2.5,3.8,4.5,5.6,6.9c7.8,10.4,17.7,19.3,24.3,30.6c0,0-0.7,0.7-0.7,0.7
			c-8.6-2.8-14.7-9.7-22.5-13.7c-3.7-1.9-7.4-9.1-11.2-5c-4.3,4.6,2.7,8.5,5.5,11.8c7.7,9.2,16.9,17.2,23,27.8l-0.6,0.7
			c-5.8-0.5-10.1-4.5-15.3-6.2c-3-1-6.8-4.2-8.9-1c-2.6,4.1,2.6,6,5.1,8.1c13.8,11.5,27.7,22.9,41.9,34
			c14.4,11.2,26.9,24.8,42.6,34.5c-1.1,1.2-2.1,2.6-3.3,3.5c-6,4.5-6.4,8.3-0.2,13.5c7.7,6.5,14.5,14.1,21.7,21.3
			c1.3,1.3,3.5,2.5,2.6,4.8c-0.9,2.2-3.4,1.5-5.2,1.5c-17,0.1-34,0.1-51,0.2c-10.7,0.2-21.2-0.1-29.8-7.8c0,0,0.1,0.1,0.1,0.1
			C948.8,841.3,940.7,823.5,933.7,805.3z"/>
		<path class="st12" d="M952.6,753.5c-6.2-10.5-15.3-18.6-23-27.8c-2.8-3.3-9.8-7.2-5.5-11.8c3.8-4.1,7.5,3.1,11.2,5
			c7.8,4,13.9,10.9,22.5,13.7c0.8,0.5,1.6,1,2.4,1.5c0.3,0.3,0.6,0.7,0.9,1c0-0.2,0-0.5-0.1-0.7c-0.2-0.2-0.5-0.2-0.8-0.3
			c-0.6-0.7-1.1-1.5-1.7-2.2c-6.7-11.4-16.5-20.2-24.3-30.6c-1.8-2.4-4-4.4-5.6-6.9c-1.3-2-4.8-4-2.7-6.6c2.4-2.9,5.3-0.7,7.8,1
			c12,8.1,23.9,16.2,36,24.1c2.8,1.8,5.2,4.9,10.7,4.7c-9-12.3-17.4-23.8-25.6-35.3c-1.8-2.5-5.8-5.2-2.7-8.3c3-2.9,6.1,0.8,8.4,2.7
			c22.4,18,44.7,36.2,67.8,55c1.8-5.9-1.9-10.3-1.2-15c0.4-3.1-3.9-7.9,1.7-9c4.4-0.9,4.8,4.5,6.2,7.6c8.2,17.9,16.3,35.8,24.4,53.7
			c1.1,2.4,2.5,4.6,3.7,6.9c-2.2,7-8.4,10.5-13.1,15.3c-10.6,11-21.7,21.6-32.6,32.3c-15.7-9.7-28.1-23.3-42.6-34.5
			c-14.2-11-28.1-22.5-41.9-34c-2.5-2-7.7-4-5.1-8.1c2-3.2,5.9,0.1,8.9,1c5.3,1.7,9.6,5.7,15.3,6.2c0.8,0.4,1.5,0.9,2.3,1.3
			c0.1,0,0.4-0.4,0.6-0.6C954.2,754.4,953.4,754,952.6,753.5z"/>
		<path class="st13" d="M1205.5,699.9c1.1,0.3,2.2,0.7,3.3,1c-0.3,4.2-3.6,5.9-6.6,7.9c-8.5,5.6-17,11.1-25.3,17
			c-5.7,4-9.5,9.3-7.1,16.7c2.5,7.6,8,12.6,15.8,12.8c7.3,0.2,11.9-5.2,14.3-11.7c5.1-13.5,9.9-27,14.8-40.6
			c4.6,0.6,9.1,1.2,13.7,1.9c4.2,14.3,8.2,28.7,12.9,42.9c2.1,6.4,7.7,8.9,14.2,7.7c7-1.3,10.1-6.1,10.7-13.2
			c0.8-8.8-5.7-12.7-11-17.2c-7.4-6.3-15-12.3-20.8-20.1c2,0,4,0,6,0c8.3,7.8,16.7,15.7,25,23.5c6.1,5.7,8.8,12.5,5,20.3
			c-3.3,6.8-8.1,11.5-16.8,11.2c-9.1-0.3-14.9-4.6-18.1-12.6c-2.3-5.6-3.6-11.6-6.1-17.3c-0.6,20.2,6.1,39.9,3.3,60.2
			c-6.4-21.4-6.7-43.8-11.3-68c-2.3,24.3-4.4,46.3-6.4,68.2c-1.3-0.1-2.7-0.2-4-0.3c-0.5-23.9,4.5-47.6,4.3-71.9
			c-3.5,9.1-7.1,18.3-10.6,27.4c-3.4,8.7-9,14.3-19,14.1c-8.9-0.2-17.6-7.3-20.8-16.8c-3.1-9.4,1.4-16.1,8.3-21.1
			C1183.6,714.3,1194.7,707.3,1205.5,699.9z M1227.4,725c0.3-0.6,0.7-1.1,0.7-1.6c0-0.5-0.4-1-0.7-1.5c-0.3,0.5-0.7,1-0.7,1.5
			C1226.7,723.9,1227.1,724.4,1227.4,725z"/>
		<path class="st16" d="M1281.6,785.8c-0.9,1.8-1.8,3.9-2.9,5.9c-13.3,25.2-26.8,50.4-39.9,75.7c-3.1,6.1-5.6,8.4-12.5,4.2
			c-40.8-24.5-81.9-48.5-122.8-72.8c-2.3-1.3-6.9-2.5-5-6c2.1-3.7,5.2,0.1,7.4,1.4c39.3,23.1,78.7,46.2,117.8,69.7
			c6.4,3.9,9.2,3.6,12.8-3.6c12.4-24.6,25.5-48.8,38.4-73.2c1.2-2.2,1.6-5.4,5.1-5C1281.7,782.5,1281.9,784.2,1281.6,785.8z"/>
		<path class="st16" d="M1086.5,917.4c-4.7-7.5-14.9-10.1-17.6-19.4c3.4-1.1,5.5,1,7.8,3c27.9,25,55.9,49.9,83.7,75
			c1.8,1.7,6.4,3.5,3.4,6.6c-2.8,2.8-5.1-1.4-7.1-3.2C1133.2,958.8,1109.9,938.1,1086.5,917.4z"/>
		<path class="st16" d="M1371.6,867c2.8,3,0.5,5.5-0.7,8c-12.8,25.8-25.7,51.6-38.6,77.4c-0.7,1.5-1.5,2.9-2.4,4.2
			c-0.8,1.1-2,1.6-3.4,0.8c-1.4-0.9-1.3-2.2-0.8-3.4c0.6-1.5,1.5-2.9,2.2-4.4c12.7-25.5,25.5-51,38.3-76.4
			C1367.4,870.6,1367.8,867.3,1371.6,867z"/>
		<path class="st15" d="M1088.3,783.6c0.3,0.1,0.6,0.2,0.9,0.3c-0.3-0.1-0.5-0.3-0.8-0.4C1088.4,783.5,1088.3,783.6,1088.3,783.6z"
			/>
		<path class="st13" d="M843.8,101.2c-2.9,9.4-10.7,8.8-17.6,7.4c-8.4-1.8-12.2-8.1-12-16.8c0.2-8.3,4.2-14,12-15.8
			c7.4-1.7,14.8-0.6,19,6.7C848.6,88.9,850.6,95.5,843.8,101.2c0-3.9,0.3-7.9-0.1-11.7c-0.7-6.4-5.5-9.7-10.9-11.2
			c-6.3-1.7-10.5,3-13.5,7.6c-3,4.5-3.3,9.5,0.8,14.3C827.8,109.2,835.7,104.5,843.8,101.2z"/>
		<path class="st13" d="M774.5,81.8c-0.9,7.6-3.8,14.1,1.4,20.2C767.6,96.5,767.3,92,774.5,81.8z"/>
		<path class="st13" d="M799.5,101.5c1-6.2,1.9-12.3-0.5-18.5C805.1,89,804.7,95.3,799.5,101.5z"/>
		<path class="st13" d="M888.6,100c0.6-5.5,1.7-10.8-3.5-17.6C892,87,892.4,90.3,888.6,100z"/>
		<path class="st13" d="M792.7,106.5c-5.8,3.1-5.8,3.1-12.3,0.5C786.2,104.9,786.2,104.9,792.7,106.5z"/>
		<path class="st13" d="M869.4,77.5c4.3-2.8,8.5-3.2,13.9,1.7c-5.7-0.7-9.7-1.1-13.8-1.6L869.4,77.5z"/>
		<path class="st13" d="M782.6,77.5c4.4-3.7,8.3-1.6,13,0.7c-5.1,2.9-8.8-1.6-12.9-0.6L782.6,77.5z"/>
		<path class="st13" d="M782.7,77.6c-0.9,1.4-2.2,2.1-3.9,1.5c-0.2-0.1-0.3-0.5-0.5-0.7c1.4-0.3,2.8-0.6,4.3-0.9
			C782.6,77.5,782.7,77.6,782.7,77.6z"/>
		<path class="st13" d="M869.5,77.6c-0.7,0.5-1.4,1-2.1,1.4c0,0-0.3-0.5-0.5-0.7c0.9-0.3,1.7-0.5,2.6-0.8
			C869.4,77.5,869.5,77.6,869.5,77.6z"/>
		<path class="st13" d="M883.2,105.1c0.2-0.3,0.3-0.5,0.5-0.8c-0.1,0.3-0.3,0.6-0.4,0.9C883.3,105.2,883.2,105.1,883.2,105.1z"/>
		<path class="st17" d="M757.3,984.4c-12.3-5.4-25.5-7.5-38.1-11.7c-2.2-0.7-6.3-0.7-5.3-4.2c0.9-3.4,4.4-1.5,6.7-0.9
			c13.5,3.7,27,7.6,40.4,11.5c2.9,0.9,6.9,1.1,5.9,6c-1.4,0.1-2.7,0.2-4.1,0.3c-0.6-0.1-1.3-0.2-1.9-0.3
			C759.7,984.9,758.5,984.7,757.3,984.4z"/>
		<path class="st18" d="M760.9,985.1c0.6,0.1,1.3,0.2,1.9,0.3C762.1,986.3,761.5,986,760.9,985.1z"/>
		<path class="st13" d="M1283.2,621.2c-9.8-0.4-17.2-4.4-19.2-14.7c-1.6-8.6,1.8-15.5,9.9-19.4c8.6-4.1,16.8-0.8,24,9.1
			C1300.5,610,1296.6,616.6,1283.2,621.2z"/>
		<path class="st14" d="M821.3,629c0.1,1.4,0.2,2.7,0.3,4.1c-16.6,3.9-33.1,7.8-49.7,11.6c-2.3,0.5-5.8,2.2-6.4-1.7
			c-0.5-2.8,2.8-3,5-3.5C787.5,636.2,804,630.8,821.3,629z"/>
		<path class="st4" d="M814.3,620.3c0,0.9,0.1,1.9,0.1,2.8c-5.9,1.5-11.7,3.7-20.4,1.9C802.3,623,808.3,621.6,814.3,620.3z"/>
		<path class="st14" d="M596.3,275c3,2.1,2.2,5.3,2.1,8.1c-0.3,11.1,4,20.3,10.5,29c2,2.6,6.5,5.1,4.2,9c-1.7,2.9-5.9,2.1-9.1,2.4
			c-2.1,0.3-4.2,0-6.2,0c-0.2-3.4,1.7-3.4,3.2-3.5c6.5-0.4,7.2-2.9,3.3-7.8c-7.6-9.4-10.2-20.3-9.9-32.1
			C594.4,278.2,593.8,276,596.3,275z"/>
		<path class="st5" d="M566.5,292.1c0.9-4.1,0.9-9.5,6.6-9.3c6.4,0.2,7.1,6,7.1,10.9c0,4.5-0.5,10.3-6.7,9.7
			C567.6,302.8,567.3,296.9,566.5,292.1z"/>
		<path class="st14" d="M613.1,283.3c1-4.5,1.5-10.3,7.3-9.7c5.7,0.6,6.8,6.2,6.8,11.3c-0.1,4.7-0.7,10.2-6.8,9.6
			C614.3,294,613.9,288.1,613.1,283.3z"/>
		<path class="st14" d="M481.3,291.1c7.8,6.1,14.1,13.6,20.4,22.2C494.9,311.8,484.7,300.9,481.3,291.1z"/>
		<path class="st14" d="M569.8,334.1c3.1,10.4,9.9,11.3,19.2,6.9c-4.8,6.9-9.2,8.7-14.1,6.2C570.1,344.7,566.7,341,569.8,334.1z"/>
		<path class="st5" d="M910.8,572.8c7.4,7.1,14.9,14.1,22.3,21.2c-0.7,0.8-1.3,1.5-2,2.3c-9.9-3.1-14.5-13.8-23.2-18.5
			C907.8,575.5,908.5,573.6,910.8,572.8z"/>
		<path class="st4" d="M934.5,355.7c0,39.4,0,78.9-0.1,118.3c-31.2-14.9-63.4-16.8-96.6-7.9c-3.3-4.8-8.6-6.9-13.3-9.6
			c-27.1-15.4-56.7-18.7-87.2-17.9c-0.1-27.6-0.1-55.2-0.2-82.7C802.9,355.7,868.7,355.7,934.5,355.7z M818.1,407
			c-0.1,16,12.4,29.1,28.2,29.4c16,0.3,29.7-12.7,30.3-28.9c0.6-15.7-12.8-29.4-29.1-30C831.7,376.9,818.3,390.4,818.1,407z"/>
		<path class="st13" d="M837.8,466c33.1-8.9,65.4-7,96.6,7.9c0,13.7,0.1,27.4,0.1,41.1c0,2.8,0.8,6-1.8,8.2
			c-6.7-7.6-13.3-15.2-20-22.8c-2.7-3.1-5.7-5.7-10-2.8c-4.3,2.9-3.2,6.6-1.2,10.3c5.9,10.9,11.4,22,18,32.5
			c4,6.4,4.4,11.8,0.2,17.8c-0.9,1.5-1.7,2.9-2.6,4.4c-1.3,1.4-2.5,2.8-3.8,4.2c-50-0.1-100.1-0.2-150.1-0.3
			C771.8,521,791.4,483.5,837.8,466z"/>
		<path class="st8" d="M837.8,466c-46.4,17.5-66.1,54.9-74.7,100.5c-25,0-50-0.1-75-0.1c0-37.9-0.1-75.8-0.2-113.7
			c15.8-7,32.5-10.7,49.3-14.2c30.5-0.9,60.1,2.5,87.2,17.9C829.3,459.1,834.6,461.2,837.8,466z"/>
		<path class="st4" d="M1506.7,95.6c-0.1,13.8-0.6,27.6,0,41.3c0.4,8.2-2.7,9.9-10.2,9.8c-28.2-0.4-56.5-0.2-84.7-0.2
			c4.8-11.1,17.1-16.3,21.8-27.4c4.4,0.6,7.4-2.5,10.5-4.6C1463,101.5,1484.3,96.7,1506.7,95.6z"/>
		<path class="st19" d="M1559,254.6c-2.8-18.2-0.6-36.4-1.3-54.6c-0.1-3.9,0-7.8,0-11.8c11,1.1,13.1,3.8,11.1,14.3
			C1565.6,219.9,1562.3,237.2,1559,254.6z"/>
		<path class="st5" d="M917,562.7c0.9-1.5,1.7-2.9,2.6-4.4c6.4,6.6,12.8,13.1,19.1,19.7c1.4,1.5,4.6,3.3,2.3,5.5
			c-2.7,2.6-4.7-0.7-6.4-2.4C928.7,575,922.9,568.8,917,562.7z"/>
		<path class="st4" d="M933.7,805.3c7,18.1,15.1,35.9,18.4,55.3c-9-17.7-14.6-36.8-21.2-55.4C931.8,805.2,932.8,805.3,933.7,805.3z"
			/>
		<path class="st19" d="M769.2,968.9c6.8,1.5,13.5,3.2,18.9,8.2c-6.5-1.3-13.2-2-19-5.4C769.1,970.7,769.2,969.8,769.2,968.9z"/>
		<path class="st4" d="M836.3,886.9c-0.1,11.2-8.8,20-19.9,20c-11,0-20-8.9-20.1-19.9c-0.1-11.4,9.4-20.9,20.5-20.6
			C827.9,866.7,836.4,875.6,836.3,886.9z M816.7,871.8c-8.4-0.1-15,6.2-15.2,14.5c-0.2,8.2,6.3,15.1,14.4,15.5
			c8.4,0.3,15.9-6.8,15.9-15.1C831.7,878.6,824.9,871.9,816.7,871.8z"/>
		<path class="st2" d="M1214.6,703.1c-4.9,13.5-9.7,27.1-14.8,40.6c-2.5,6.5-7,11.9-14.3,11.7c-7.8-0.2-13.3-5.2-15.8-12.8
			c-2.4-7.5,1.4-12.7,7.1-16.7c8.3-5.8,16.8-11.4,25.3-17c3-2,6.3-3.7,6.6-7.9C1210.8,701.7,1212.7,702.4,1214.6,703.1z"/>
		<path class="st2" d="M1234.3,705c5.8,7.8,13.4,13.9,20.8,20.1c5.3,4.5,11.8,8.4,11,17.2c-0.6,7.1-3.7,11.9-10.7,13.2
			c-6.5,1.2-12.1-1.3-14.2-7.7c-4.7-14.2-8.6-28.6-12.9-42.9C1230.3,705,1232.3,705,1234.3,705z"/>
		<path class="st14" d="M1178.7,562.7c-3.8-0.8-5.1-0.8-6.2-1.3c-3.7-1.6-9.6-1-10.6-5.6c-0.9-4.4,4.7-5.8,7.6-8.1
			c10.4-8.2,15.9-19.2,19.5-31.8c1.7,9.5-1.5,17.4-6.8,24.6c-1.5,2.1-3.5,3.9-5.3,5.7C1169,554.1,1169,554.1,1178.7,562.7z"/>
		<path class="st5" d="M1171.3,517.6c-0.4,5-2.4,10.3-9,11.2c-4.2,0.5-5.1-3.4-5-6.9c0.2-5.8,1.2-11.7,8.3-12.6
			C1170.3,508.7,1171.2,512.7,1171.3,517.6z"/>
		<path class="st5" d="M1214.6,538c-0.5,4.7-2.6,9.8-8.6,10.7c-5,0.7-5.5-3.8-5.3-7.5c0.3-5.8,1.4-11.7,8.8-12
			C1214.3,529,1214.6,533.3,1214.6,538z"/>
		<path class="st14" d="M1201,576.5c2.5,7.4-1.2,11.3-6.8,13.1c-5.4,1.7-9.8-0.6-12.5-6.3C1190,586,1196.6,585.1,1201,576.5z"/>
		<path class="st14" d="M1273.2,577.1c6.1-8,14.3-13.3,23.5-17C1290.6,567.9,1282.6,573.4,1273.2,577.1z"/>
		<path class="st5" d="M1241,619.5c-0.2-0.2-0.4-0.4-0.5-0.6c0.2-0.2,0.5-0.4,0.7-0.4c0.2,0,0.4,0.4,0.5,0.6
			C1241.4,619.2,1241.2,619.3,1241,619.5z"/>
		<path class="st15" d="M952.6,753.5c0.8,0.4,1.6,0.9,2.4,1.3c-0.2,0.2-0.5,0.7-0.6,0.6c-0.8-0.4-1.6-0.9-2.3-1.3
			C952.1,754.2,952.6,753.5,952.6,753.5z"/>
		<path class="st15" d="M960.2,734.2c0.3,0.1,0.6,0.2,0.8,0.3c0.1,0.1,0.1,0.4,0.1,0.7C960.8,734.9,960.5,734.6,960.2,734.2
			L960.2,734.2z"/>
		<path class="st15" d="M960.1,734.3c-0.8-0.5-1.6-1-2.4-1.5c0,0,0.7-0.7,0.7-0.7C959,732.8,959.6,733.5,960.1,734.3
			C960.2,734.2,960.1,734.3,960.1,734.3z"/>
		<path class="st9" d="M1227.4,725c-0.3-0.6-0.7-1.1-0.7-1.6c0-0.5,0.4-1,0.7-1.5c0.3,0.5,0.7,1,0.7,1.5
			C1228.1,723.9,1227.7,724.4,1227.4,725z"/>
		<path class="st4" d="M843.8,101.2c-8.1,3.3-16,7.9-23.7-1c-4.1-4.8-3.8-9.7-0.8-14.3c3-4.6,7.2-9.3,13.5-7.6
			c5.4,1.4,10.2,4.8,10.9,11.2C844.1,93.4,843.8,97.3,843.8,101.2C843.8,101.2,843.8,101.2,843.8,101.2z"/>
		<path class="st15" d="M818.1,407c0.1-16.6,13.6-30,29.4-29.5c16.3,0.6,29.6,14.3,29.1,30c-0.6,16.1-14.3,29.2-30.3,28.9
			C830.5,436,818,423,818.1,407z"/>
		<path class="st5" d="M816.7,871.8c8.3,0.1,15.1,6.8,15.1,14.9c0,8.3-7.5,15.5-15.9,15.1c-8.2-0.3-14.6-7.3-14.4-15.5
			C801.6,878,808.2,871.7,816.7,871.8z"/>
	</g>
	<path class="st5" d="M627,283.7c0.1,6.3-1,11.4-7.3,10.8c-3.7-0.3-6.7-4.7-6.7-10.5c0-5.8,2-10.5,6.7-10.5
		C624.6,273.5,627,277.9,627,283.7z"/>
	<g>
		<path class="st20" d="M608.9,312.1c-6.5-8.6-10.7-17.9-10.5-29c0.1-2.7,0.9-6-2.1-8.1c-2.5,1-1.9,3.2-2,5
			c-0.3,11.8,2.3,22.8,9.9,32.1c3.9,4.8,3.2,7.4-3.3,7.8c-1.5,0.1-3.4,0.2-3.2,3.5c2,0,4.1,0.2,6.2,0c3.2-0.4,7.5,0.5,9.1-2.4
			C615.4,317.1,610.9,314.7,608.9,312.1z"/>
		<path class="st6" d="M646.4,308.5c-2.5-25.4-5.3-50.9-7.3-76.3c-0.5-6.4-2.9-8.9-8.7-10.7c-38.7-12.3-83.5,6.3-103.2,43.2
			c-2.7,5.1-5,10.5-7.5,15.8c-5.2-2.7-10.2-5.7-15.5-8c-23.9-10.5-43.2,2.2-43.4,28.3c-0.1,14.9,8.1,25.1,19.1,33.8
			c2.8,2.2,6.5,3.8,4.3,8.5c-3.1,6.5-4.1,13.8-8.5,19.7c-2.6,11.6-6.9,22.5-12.2,33.1c0,3.7,0,7.4,0,11.1
			c9.7,36,41.8,43.4,66.9,43.1c11.8-0.1,21.4-5.6,27.5-16.2c0.2-3.9,0.4-7.7,0.5-11.6c-12.9-19.8-25.8-39.6-38.6-59.5
			c0.6-0.6,1.2-1.2,1.9-1.7c14.5,10.8,30.3,19.7,43.9,31.8c1.9,0.4,3.9,0.6,5.8,1.1c40.1,9.7,70-11.2,75.7-52
			c1.3-9.1,0.1-18.1,1.2-27.1C646.1,313.2,646.7,310.7,646.4,308.5z M481.3,291.1c7.8,6.1,14.1,13.6,20.4,22.2
			C494.9,311.8,484.7,300.9,481.3,291.1z M613.2,321c-1.7,2.9-5.9,2.1-9.1,2.4c-2.1,0.3-4.2,0-6.2,0c-0.2-3.4,1.7-3.4,3.2-3.5
			c6.5-0.4,7.2-2.9,3.3-7.8c-7.6-9.4-10.2-20.3-9.9-32.1c0-1.8-0.6-4.1,2-5c3,2.1,2.2,5.3,2.1,8.1c-0.3,11.1,4,20.3,10.5,29
			C610.9,314.7,615.4,317.1,613.2,321z M620.3,273.6c5.7,0.6,6.8,6.2,6.8,11.3c-0.1,4.7-0.7,10.2-6.8,9.6c-6-0.5-6.4-6.4-7.2-11.2
			C614,278.8,614.5,273,620.3,273.6z M573.1,282.8c6.4,0.2,7.1,6,7.1,10.9c0,4.5-0.5,10.3-6.7,9.7c-5.9-0.6-6.3-6.5-7-11.3
			C567.5,288,567.5,282.6,573.1,282.8z M574.9,347.2c-4.9-2.5-8.2-6.2-5.1-13.1c3.1,10.4,9.9,11.3,19.2,6.9
			C584.2,347.9,579.9,349.7,574.9,347.2z"/>
	</g>
	<g>
		<path class="st21" d="M1169.5,547.8c-2.9,2.3-8.5,3.7-7.6,8.1c1,4.6,6.9,4,10.6,5.6c1.1,0.5,2.3,0.5,6.2,1.3
			c-9.7-8.6-9.7-8.6-1.9-16.4c1.9-1.8,3.8-3.6,5.3-5.7c5.3-7.2,8.5-15.1,6.8-24.6C1185.4,528.6,1179.9,539.6,1169.5,547.8z"/>
		<path class="st22" d="M1309.5,544.1c-7.7-10.8-19.2-10-30.4-8.5c-4.2,0.6-8.3,1.9-12.3,3.5c-4.8,1.9-9.3,1.8-14.3,0.4
			c-27.2-7.5-49.1-23-67.5-43.9c-9.7-11-17.9-22.9-24.2-37.6c-3.6,10.2-6.8,18.4-9.5,26.9c-8.6,26.8-20.6,52.6-26.4,80.3
			c-6.2,29.9,7.9,57,34.6,67.6c16.1,6.4,31.7,5.4,47.6-1.9c9.8-4.5,20-9,31.6-9.8c-14.8,16.8-30.8,32-47.6,46.4
			c-4.7,15.2,1.8,25.3,14.6,32.7c1.1,0.3,2.2,0.7,3.3,1c1.9,0.7,3.9,1.4,5.8,2.1c4.6,0.6,9.1,1.2,13.7,1.9c2,0,4,0,5.9,0
			c2,0,4,0,6,0c4.5-0.8,9.1-1.3,13.5-2.4c20.6-5.3,34.5-22,34.3-40.9c-1.6-13.5-3.2-27-4.8-40.4c-9.8-0.4-17.2-4.4-19.2-14.7
			c-1.6-8.6,1.8-15.5,9.9-19.4c8.6-4.1,16.8-0.8,24,9.1c6.8-4.3,12.5-9.9,15.2-17.5C1317.4,566.8,1317.2,554.8,1309.5,544.1z
			 M1178.7,562.7c-3.8-0.8-5.1-0.8-6.2-1.3c-3.7-1.6-9.6-1-10.6-5.6c-0.9-4.4,4.7-5.8,7.6-8.1c10.4-8.2,15.9-19.2,19.5-31.8
			c1.7,9.5-1.5,17.4-6.8,24.6c-1.5,2.1-3.5,3.9-5.3,5.7C1169,554.1,1169,554.1,1178.7,562.7z M1157.2,521.9
			c0.2-5.8,1.2-11.7,8.3-12.6c4.8-0.6,5.7,3.4,5.8,8.3c-0.4,5-2.4,10.3-9,11.2C1158.1,529.3,1157.1,525.4,1157.2,521.9z
			 M1194.2,589.6c-5.4,1.7-9.8-0.6-12.5-6.3c8.3,2.7,14.9,1.8,19.3-6.7C1203.5,584,1199.8,587.9,1194.2,589.6z M1206,548.6
			c-5,0.7-5.5-3.8-5.3-7.5c0.3-5.8,1.4-11.7,8.8-12c4.9-0.2,5.1,4.1,5.1,8.8C1214.1,542.7,1212,547.8,1206,548.6z M1241,619.5
			c-0.2-0.2-0.4-0.4-0.5-0.6c0.2-0.2,0.5-0.4,0.7-0.4c0.2,0,0.4,0.4,0.5,0.6C1241.4,619.2,1241.2,619.3,1241,619.5z M1273.2,577.1
			c6.1-8,14.2-13.3,23.5-17C1290.6,567.9,1282.6,573.4,1273.2,577.1z"/>
	</g>
	<circle class="st23" cx="786.6" cy="93.4" r="20.9"/>
	<circle class="st23" cx="832.6" cy="93.6" r="20.9"/>
	<circle class="st23" cx="878.6" cy="92.4" r="20.9"/>
	<path class="st24" d="M1506.7,328c-65.2,0-118.2-53-118.2-118.2s53-118.2,118.2-118.2c65.2,0,118.2,53,118.2,118.2
		S1571.9,328,1506.7,328z M1506.7,96.5c-62.5,0-113.3,50.8-113.3,113.3s50.8,113.3,113.3,113.3c62.5,0,113.3-50.8,113.3-113.3
		S1569.2,96.5,1506.7,96.5z"/>
	<text transform="matrix(1 0 0 1 767.559 225.8367)" class="st25 st26">To make you Learn is our Moto</text>
	<circle class="st27" cx="878.2" cy="93.1" r="15.9"/>
	<circle class="st28" cx="832.6" cy="93.6" r="15.9"/>
	<circle class="st29" cx="786.6" cy="93.6" r="15.9"/>
</g>
<line class="st30" x1="232.4" y1="857.2" x2="175.5" y2="1013.4"/>
<line class="st30" x1="387.7" y1="917.6" x2="400.9" y2="1036.5"/>
<g>
	<path class="st31" d="M336.1,414L336.1,414c-5.8,0.7-9,7.2-6.1,12.3l0,0c3.3,5.7,11.6,5.5,14.6-0.4l0,0
		C347.6,420,342.7,413.1,336.1,414z"/>
	<path class="st31" d="M261.7,525.5L261.7,525.5c-3.5,0.4-5.4,4.3-3.7,7.4l0,0c2,3.4,6.9,3.3,8.7-0.2l0,0
		C268.6,529.1,265.6,525,261.7,525.5z"/>
	<path class="st31" d="M293.2,451.6L293.2,451.6c-3.5,0.4-5.4,4.3-3.7,7.4l0,0c2,3.4,6.9,3.3,8.7-0.2l0,0
		C300.1,455.2,297.1,451.1,293.2,451.6z"/>
	<path class="st31" d="M417.8,405.1L417.8,405.1c-4.6,0.6-7.1,5.7-4.8,9.7l0,0c2.6,4.5,9.1,4.3,11.4-0.3l0,0
		C426.8,409.8,422.9,404.4,417.8,405.1z"/>
	<path class="st31" d="M361.2,605.3L361.2,605.3c-4.6,0.6-7.1,5.7-4.8,9.7l0,0c2.6,4.5,9.1,4.3,11.4-0.3l0,0
		C370.2,610,366.4,604.6,361.2,605.3z"/>
	<path class="st31" d="M392.9,568.6L392.9,568.6c-4.6,0.6-7.1,5.7-4.8,9.7l0,0c2.6,4.5,9.1,4.3,11.4-0.3l0,0
		C401.9,573.3,398.1,567.9,392.9,568.6z"/>
	<path class="st31" d="M441.8,568.6L441.8,568.6c-4.6,0.6-7.1,5.7-4.8,9.7l0,0c2.6,4.5,9.1,4.3,11.4-0.3l0,0
		C450.8,573.3,446.9,567.9,441.8,568.6z"/>
	<path class="st31" d="M405.2,498.8L405.2,498.8c-4.6,0.6-7.1,5.7-4.8,9.7l0,0c2.6,4.5,9.1,4.3,11.4-0.3l0,0
		C414.2,503.5,410.3,498.1,405.2,498.8z"/>
	<path class="st31" d="M354.7,546L354.7,546c-4.6,0.6-7.1,5.7-4.8,9.7l0,0c2.6,4.5,9.1,4.3,11.4-0.3l0,0
		C363.7,550.6,359.9,545.3,354.7,546z"/>
	<path class="st31" d="M312.2,510L312.2,510c-4.6,0.6-7.1,5.7-4.8,9.7l0,0c2.6,4.5,9.1,4.3,11.4-0.3l0,0
		C321.2,514.6,317.3,509.3,312.2,510z"/>
	<path class="st31" d="M367.7,458.2L367.7,458.2c-4.6,0.6-7.1,5.7-4.8,9.7l0,0c2.6,4.5,9.1,4.3,11.4-0.3l0,0
		C376.7,462.9,372.9,457.5,367.7,458.2z"/>
	<path class="st31" d="M255,575.1L255,575.1c-4.6,0.6-7.1,5.7-4.8,9.7l0,0c2.6,4.5,9.1,4.3,11.4-0.3l0,0
		C264,579.8,260.2,574.4,255,575.1z"/>
	<path class="st31" d="M229.3,638.1L229.3,638.1c-4.6,0.6-7.1,5.7-4.8,9.7l0,0c2.6,4.5,9.1,4.3,11.4-0.3l0,0
		C238.3,642.8,234.4,637.4,229.3,638.1z"/>
	<path class="st31" d="M204.2,715.2L204.2,715.2c-4.6,0.6-7.1,5.7-4.8,9.7l0,0c2.6,4.5,9.1,4.3,11.4-0.3l0,0
		C213.2,719.9,209.4,714.5,204.2,715.2z"/>
	<path class="st31" d="M268,698L268,698c-4.6,0.6-7.1,5.7-4.8,9.7l0,0c2.6,4.5,9.1,4.3,11.4-0.3l0,0C277,702.7,273.1,697.3,268,698z
		"/>
	<path class="st31" d="M261.5,765.5L261.5,765.5c-4.6,0.6-7.1,5.7-4.8,9.7l0,0c2.6,4.5,9.1,4.3,11.4-0.3l0,0
		C270.5,770.2,266.6,764.8,261.5,765.5z"/>
	<path class="st31" d="M305.7,804.7L305.7,804.7c-4.6,0.6-7.1,5.7-4.8,9.7l0,0c2.6,4.5,9.1,4.3,11.4-0.3l0,0
		C314.7,809.4,310.8,804,305.7,804.7z"/>
	<path class="st31" d="M328.8,752.5L328.8,752.5c-4.6,0.6-7.1,5.7-4.8,9.7l0,0c2.6,4.5,9.1,4.3,11.4-0.3l0,0
		C337.8,757.2,334,751.8,328.8,752.5z"/>
	<path class="st31" d="M335.3,681.2L335.3,681.2c-4.6,0.6-7.1,5.7-4.8,9.7l0,0c2.6,4.5,9.1,4.3,11.4-0.3l0,0
		C344.3,685.9,340.5,680.5,335.3,681.2z"/>
	<path class="st31" d="M386.4,736.5L386.4,736.5c-4.6,0.6-7.1,5.7-4.8,9.7l0,0c2.6,4.5,9.1,4.3,11.4-0.3l0,0
		C395.5,741.1,391.6,735.8,386.4,736.5z"/>
	<path class="st31" d="M379.9,794.3L379.9,794.3c-4.6,0.6-7.1,5.7-4.8,9.7l0,0c2.6,4.5,9.1,4.3,11.4-0.3l0,0
		C389,799,385.1,793.6,379.9,794.3z"/>
	<path class="st31" d="M413.2,835.3L413.2,835.3c-4.6,0.6-7.1,5.7-4.8,9.7l0,0c2.6,4.5,9.1,4.3,11.4-0.3l0,0
		C422.2,840,418.3,834.6,413.2,835.3z"/>
	<path class="st31" d="M448.3,781.3L448.3,781.3c-4.6,0.6-7.1,5.7-4.8,9.7l0,0c2.6,4.5,9.1,4.3,11.4-0.3l0,0
		C457.3,786,453.4,780.6,448.3,781.3z"/>
	<path class="st31" d="M504.8,772L504.8,772c-4.6,0.6-7.1,5.7-4.8,9.7l0,0c2.6,4.5,9.1,4.3,11.4-0.3l0,0
		C513.8,776.7,509.9,771.3,504.8,772z"/>
	<path class="st31" d="M470.5,822.3L470.5,822.3c-4.6,0.6-7.1,5.7-4.8,9.7l0,0c2.6,4.5,9.1,4.3,11.4-0.3l0,0
		C479.5,827,475.6,821.6,470.5,822.3z"/>
	<path class="st31" d="M491.4,860.3L491.4,860.3c-4.6,0.6-7.1,5.7-4.8,9.7l0,0c2.6,4.5,9.1,4.3,11.4-0.3l0,0
		C500.4,865,496.5,859.6,491.4,860.3z"/>
	<path class="st31" d="M305.7,626.9L305.7,626.9c-4.6,0.6-7.1,5.7-4.8,9.7l0,0c2.6,4.5,9.1,4.3,11.4-0.3l0,0
		C314.7,631.6,310.8,626.2,305.7,626.9z"/>
	<path class="st31" d="M186.9,772L186.9,772c-4.6,0.6-7.1,5.7-4.8,9.7l0,0c2.6,4.5,9.1,4.3,11.4-0.3l0,0
		C195.9,776.7,192,771.3,186.9,772z"/>
	<path class="st31" d="M453.9,459.1L453.9,459.1c-3.9,0.5-6.1,4.8-4.1,8.2l0,0c2.2,3.8,7.8,3.7,9.8-0.2l0,0
		C461.6,463.1,458.3,458.5,453.9,459.1z"/>
	<path class="st31" d="M508.1,502.5L508.1,502.5c-3.9,0.5-6.1,4.8-4.1,8.2l0,0c2.2,3.8,7.8,3.7,9.8-0.2l0,0
		C515.8,506.5,512.5,501.9,508.1,502.5z"/>
	<path class="st31" d="M465,540L465,540c-3.9,0.5-6.1,4.8-4.1,8.2l0,0c2.2,3.8,7.8,3.7,9.8-0.2l0,0C472.7,544,469.4,539.4,465,540z"
		/>
	<path class="st31" d="M500,583.3L500,583.3c-3.5,0.5-5.4,4.4-3.7,7.4l0,0c2,3.5,7,3.3,8.8-0.2l0,0C506.9,586.9,504,582.7,500,583.3
		z"/>
	<path class="st31" d="M553.8,597L553.8,597c-4,0.5-6.2,5-4.2,8.5l0,0c2.3,4,8,3.8,10-0.3l0,0C561.8,601.2,558.4,596.4,553.8,597z"
		/>
	<path class="st31" d="M557.3,545.6L557.3,545.6c-3.9,0.5-6.1,4.9-4.1,8.3l0,0c2.2,3.9,7.8,3.7,9.8-0.3l0,0
		C565.1,549.6,561.8,545,557.3,545.6z"/>
	<path class="st31" d="M578.9,442.7L578.9,442.7c-5.2,0.7-8.1,6.5-5.5,11.1l0,0c3,5.2,10.4,5,13.1-0.3l0,0
		C589.3,448.1,584.8,441.9,578.9,442.7z"/>
	<path class="st31" d="M565,493.7L565,493.7c-3.6,0.5-5.6,4.5-3.8,7.6l0,0c2,3.6,7.2,3.4,9-0.2l0,0
		C572.1,497.4,569.1,493.1,565,493.7z"/>
	<path class="st31" d="M627,514.9L627,514.9c-3.4,0.4-5.3,4.3-3.6,7.3l0,0c1.9,3.4,6.8,3.3,8.6-0.2l0,0
		C633.8,518.5,630.8,514.4,627,514.9z"/>
	<path class="st31" d="M640.1,585.5L640.1,585.5c-4.3,0.6-6.7,5.4-4.5,9.1l0,0c2.4,4.3,8.6,4.1,10.8-0.3l0,0
		C648.6,589.9,644.9,584.9,640.1,585.5z"/>
</g>
</svg>
